<?xml version="1.0" encoding="utf-8"?>
<!-- Generator: Adobe Illustrator 16.0.0, SVG Export Plug-In . SVG Version: 6.00 Build 0)  -->
<!DOCTYPE svg PUBLIC "-//W3C//DTD SVG 1.1//EN" "http://www.w3.org/Graphics/SVG/1.1/DTD/svg11.dtd">
<svg version="1.1" id="Layer_1" xmlns="http://www.w3.org/2000/svg" xmlns:xlink="http://www.w3.org/1999/xlink" x="0px" y="0px"
	 width="32px" height="32px" viewBox="0 0 32 32" enable-background="new 0 0 32 32" xml:space="preserve">
<g>
	<g>
		<path fill-rule="evenodd" clip-rule="evenodd" d="M31.59,4.626c-0.193,0.483-0.283,0.832-0.458,1.132
			c-4.68,7.979-9.365,15.952-14.056,23.928c-0.619,1.052-1.28,1.22-2.338,0.619c-4.703-2.666-9.405-5.334-14.105-8.005
			c-0.743-0.422-0.8-0.651-0.336-1.381c1.154-1.809,2.31-3.614,3.468-5.42c0.436-0.68,0.578-0.714,1.295-0.314
			c2.147,1.195,4.292,2.395,6.438,3.593c0.781,0.433,0.823,0.42,1.287-0.367c3.36-5.723,6.717-11.445,10.082-17.165
			c0.169-0.288,0.346-0.584,0.579-0.815c0.456-0.453,0.998-0.578,1.585-0.233c1.929,1.13,3.867,2.242,5.77,3.414
			C31.146,3.827,31.34,4.292,31.59,4.626z"/>
	</g>
</g>
</svg>
