<?xml version="1.0" encoding="utf-8"?>
<!-- Generator: Adobe Illustrator 16.0.0, SVG Export Plug-In . SVG Version: 6.00 Build 0)  -->
<!DOCTYPE svg PUBLIC "-//W3C//DTD SVG 1.1//EN" "http://www.w3.org/Graphics/SVG/1.1/DTD/svg11.dtd">
<svg version="1.1"
	 id="svg2" xmlns:dc="http://purl.org/dc/elements/1.1/" xmlns:cc="http://creativecommons.org/ns#" xmlns:rdf="http://www.w3.org/1999/02/22-rdf-syntax-ns#" xmlns:svg="http://www.w3.org/2000/svg" xmlns:sodipodi="http://sodipodi.sourceforge.net/DTD/sodipodi-0.dtd" xmlns:inkscape="http://www.inkscape.org/namespaces/inkscape"
	 xmlns="http://www.w3.org/2000/svg" xmlns:xlink="http://www.w3.org/1999/xlink" x="0px" y="0px" width="23.76px" height="23.76px"
	 viewBox="4.12 4.12 23.76 23.76" enable-background="new 4.12 4.12 23.76 23.76" xml:space="preserve">
<g id="background">
	<rect fill="none" width="32" height="32"/>
</g>
<g id="plus_x5F_badge">
	<path fill="#FFFFFF" d="M4,16.024c0-6.597,5.343-11.94,11.94-11.94l0,0c6.595,0,11.938,5.343,11.94,11.94l0,0
		c-0.002,6.595-5.345,11.938-11.94,11.94l0,0C9.343,27.962,4,22.619,4,16.024L4,16.024z M6.806,16.024
		c0.012,5.041,4.091,9.119,9.134,9.131l0,0c5.041-0.013,9.119-4.091,9.131-9.131l0,0c-0.013-5.042-4.091-9.122-9.131-9.134l0,0
		C10.897,6.902,6.818,10.981,6.806,16.024L6.806,16.024z"/>
	<g>
		<polygon fill="#FFFFFF" points="22.573,14.697 17.267,14.697 17.267,9.391 14.613,9.391 14.613,14.697 9.307,14.697 9.307,17.351 
			14.613,17.351 14.613,22.657 17.267,22.657 17.267,17.351 22.573,17.351 		"/>
	</g>
</g>
</svg>
