<?xml version="1.0" encoding="utf-8"?>
<!-- Generator: Adobe Illustrator 16.0.0, SVG Export Plug-In . SVG Version: 6.00 Build 0)  -->
<!DOCTYPE svg PUBLIC "-//W3C//DTD SVG 1.1//EN" "http://www.w3.org/Graphics/SVG/1.1/DTD/svg11.dtd">
<svg version="1.1" id="Layer_1" xmlns="http://www.w3.org/2000/svg" xmlns:xlink="http://www.w3.org/1999/xlink" x="0px" y="0px"
	 width="24px" height="24px" viewBox="0 0 24 24" enable-background="new 0 0 24 24" xml:space="preserve">
<g>
	<g>
		<path fill-rule="evenodd" clip-rule="evenodd" fill="#FFFFFF" d="M11.574,9.752c0-1.271,0-2.08,0-2.88
			c-3.844-0.311-7.328,4.031-6.608,8.114c0.714,4.059,4.167,6.572,8.352,6.081c3.63-0.427,6.387-3.889,6.092-7.778
			c-0.078-1.019,0.075-1.549,1.205-1.616c1.109-0.067,1.595,0.352,1.606,1.463c0.041,4.188-1.651,7.452-5.324,9.479
			c-3.731,2.061-7.515,1.813-10.951-0.662c-3.334-2.403-4.782-5.817-4.125-9.906C2.567,7.4,5.808,4.318,10.494,3.508
			c0.323-0.056,0.641-0.149,1.059-0.25c0-0.993,0-1.945,0-3.249c2.071,1.549,3.904,2.919,5.916,4.423
			C15.56,6.156,13.728,7.809,11.574,9.752z"/>
	</g>
</g>
</svg>
