<?xml version="1.0" encoding="utf-8"?>
<!-- Generator: Adobe Illustrator 16.0.0, SVG Export Plug-In . SVG Version: 6.00 Build 0)  -->
<!DOCTYPE svg PUBLIC "-//W3C//DTD SVG 1.1//EN" "http://www.w3.org/Graphics/SVG/1.1/DTD/svg11.dtd">
<svg version="1.1" id="Layer_1" xmlns="http://www.w3.org/2000/svg" xmlns:xlink="http://www.w3.org/1999/xlink" x="0px" y="0px"
	 width="32px" height="32px" viewBox="0 0 32 32" enable-background="new 0 0 32 32" xml:space="preserve">
<g>
	<g>
		<path fill-rule="evenodd" clip-rule="evenodd" fill="#FFFFFF" d="M22.562,19.096c2.64,2.61,5.264,5.193,7.871,7.792
			c0.365,0.364,0.719,0.772,0.963,1.224c0.587,1.089,0.388,2.251-0.448,3.065c-0.812,0.791-2.03,0.955-3.089,0.355
			c-0.388-0.219-0.736-0.532-1.055-0.851c-2.479-2.471-4.954-4.946-7.407-7.446c-0.382-0.388-0.633-0.45-1.135-0.167
			c-7.649,4.305-17.271-0.656-18.191-9.36C-0.497,8.314,2.391,3.229,7.249,1.071c4.856-2.158,10.515-0.987,14.064,2.907
			c3.636,3.994,4.274,9.802,1.594,14.512C22.817,18.646,22.727,18.803,22.562,19.096z M20.325,12.315
			c-0.004-4.481-3.581-8.074-8.044-8.078c-4.453-0.004-8.063,3.599-8.078,8.058c-0.012,4.487,3.622,8.133,8.092,8.117
			C16.752,20.398,20.331,16.789,20.325,12.315z"/>
	</g>
</g>
</svg>
