<?xml version="1.0" encoding="utf-8"?>
<!-- Generator: Adobe Illustrator 16.0.0, SVG Export Plug-In . SVG Version: 6.00 Build 0)  -->
<!DOCTYPE svg PUBLIC "-//W3C//DTD SVG 1.1//EN" "http://www.w3.org/Graphics/SVG/1.1/DTD/svg11.dtd">
<svg version="1.1" id="al" xmlns="http://www.w3.org/2000/svg" xmlns:xlink="http://www.w3.org/1999/xlink" x="0px" y="0px"
	 width="32px" height="42px" viewBox="0 0 32 42" enable-background="new 0 0 32 42" xml:space="preserve">
<path fill="#FFFFFF" d="M2.905,28.633V28.49v-0.051l-0.012-0.492v-0.039L2.88,27.869v-0.078v-0.156l-0.013-0.258v-0.209v-0.143
	l0.013-0.234l0.014-0.076v-0.016l0.103-0.881v-0.016L3.01,25.74v-0.039l0.012-0.119l0.065-0.568l0.014-0.078l0.025-0.207v-0.014
	l0.013-0.078l0.012-0.092l0.013-0.115v-0.064v-0.014l0.013-0.076l0.026-0.195v-0.025l0.026-0.275l0.026-0.18l0.027-0.248
	l0.025-0.207v-0.014v-0.062l0.013-0.025v-0.027l0.012-0.09V22.91v-0.051l0.053-0.414V22.43v-0.025l0.012-0.078l0.013-0.154v-0.014
	v-0.014l0.091-0.766l0.013-0.18l0.014-0.055l0.012-0.168l0.066-0.596l0.012-0.104l0.025-0.209v-0.012v-0.027l0.014-0.051v-0.014
	l0.013-0.117l0.038-0.4l0.053-0.521l0.039-0.387l0.013-0.053l0.012-0.195l0.013-0.025l0.027-0.299l0.051-0.441l0.027-0.221v-0.014
	l0.051-0.545l0.039-0.363l0.014-0.025l0.013-0.129l0.013-0.092v-0.064l0.014-0.066l0.026-0.232l0.025-0.246l0.012-0.119l0.014-0.154
	v-0.037L4.19,15.02v-0.025l0.013-0.051l0.014-0.195l0.013-0.143l0.012-0.092l0.027-0.26l0.051-0.402v-0.076l0.013-0.039V13.67
	l0.012-0.025l0.013-0.143v-0.039l0.026-0.181v-0.039V13.19l0.014-0.013v-0.039l0.012-0.064v-0.052v-0.025l0.013-0.065l0.014-0.13
	l0.012-0.116v-0.026l0.014-0.065v-0.077l0.025-0.247l0.014-0.104V12.14l0.025-0.169l0.026-0.208v-0.064l0.014-0.131l0.013-0.038
	v-0.078l0.012-0.116l0.014-0.054V11.27l0.012-0.052v-0.053l0.027-0.246V10.88l0.039-0.233l0.012-0.091v-0.014l0.013-0.155v-0.013
	l0.025-0.196l0.014-0.064l0.026-0.311L4.8,9.583L4.812,9.57l0.014-0.091V9.414l0.027-0.247L4.866,9.09l0.011-0.156l0.015-0.066
	l0.012-0.167l0.039-0.312V8.35l0.026-0.143V8.091l0.026-0.13v-0.04l0.012-0.09l0.026-0.312l0.04-0.247V7.248V7.234l0.012-0.079
	L5.1,7l0.051-0.493V6.494l0.039-0.299V6.118l0.013-0.065V6l0.012-0.13l0.013-0.025V5.832V5.819l0.026-0.208l0.027-0.208V5.352
	l0.065-0.493V4.807V4.793l0.039-0.272L5.409,4.34V4.3V4.288l0.052-0.364l0.014-0.051V3.808L5.5,3.678l0.013-0.182V3.431L5.527,3.34
	l0.026-0.194l0.024-0.182l0.015-0.117V2.769L5.644,2.29L5.631,2.276L5.461,2.21L5.409,2.185L5.385,2.172L5.358,2.146l-0.04-0.039
	L5.254,2.042L5.228,1.965H5.215V1.952L5.177,1.874L5.139,1.77L5.112,1.706L5.085,1.667L5.046,1.614L4.969,1.472l-0.014-0.04V1.42
	L4.943,1.354V1.329l1.374,0.026h0.104L6.5,1.367h0.312h0.336h0.026h0.13h0.013h0.207h0.324L7.888,1.38h0.066h0.337h0.051h0.027
	h0.064H8.55h0.038h0.273H8.9h0.091l0.154,0.014h0.041h0.271h0.105h0.183h0.012h0.22h0.118h0.04h0.065h0.039h0.04h0.169h0.039h0.038
	l0.143,0.013h0.065h0.336h0.207l0.261,0.014h0.051h0.027h0.026h0.012h0.027L12,1.433h0.157h0.089h0.027h0.013h0.183h0.024
	l0.403,0.013h0.13h0.077h0.078l0.092,0.013h0.012h0.026h0.013h0.208h0.064h0.194l0.129,0.014h0.118h0.013h0.026h0.051h0.013h0.08
	h0.103h0.014h0.011h0.222l0.377-0.014h0.051h0.298h0.024h0.015h0.078h0.13h0.271h0.079h0.128h0.104h0.185h0.037h0.232h0.104h0.039
	l0.223-0.013h0.037h0.221h0.131h0.377h0.025h0.051h0.389L18.5,1.433h0.186h0.166h0.014h0.531h0.037h0.041l0.895-0.013h0.182h0.039
	h0.234h0.012h0.221h0.027h0.012h0.104h0.078h0.184h0.258h0.039h0.023h0.145h0.039h0.557h0.016h0.037l0.051,0.272v0.013v0.038
	l0.016,0.078v0.027l0.012,0.063v0.014l0.053,0.259l0.039,0.261l0.064,0.297v0.065l0.053,0.233l0.051,0.312l0.025,0.156h0.014
	l0.025,0.182v0.014l0.053,0.246l0.025,0.117v0.026l0.014,0.026l0.053,0.259v0.013l0.051,0.286l0.078,0.376l0.012,0.118l0.014,0.038
	l0.012,0.052l0.027,0.143l0.012,0.064l0.016,0.065l0.023,0.091l0.053,0.272l0.078,0.39l0.027,0.104l0.049,0.285v0.013L23.6,6.818
	l0.027,0.118l0.037,0.194v0.039l0.027,0.142l0.012,0.026l0.012,0.104v0.026l0.08,0.415l0.025,0.078l0.014,0.077l0.051,0.26V8.35
	l0.039,0.142v0.092l0.012,0.012l0.041,0.259l0.012,0.079l0.064,0.324l0.041,0.248v0.013h0.012l0.053,0.286v0.012l0.092,0.519
	l0.01,0.04l0.027,0.155l0.039,0.182v0.039l0.027,0.118l0.012,0.077l0.053,0.299v0.025l0.023,0.116l0.016,0.053l0.025,0.143v0.013
	l0.012,0.078l0.014,0.104l0.076,0.363v0.012l0.016,0.092l0.023,0.129l0.053,0.261v0.038l0.064,0.312v0.039l0.066,0.31v0.014
	l0.012,0.039v0.014l0.066,0.377l0.064,0.35l0.014,0.066l0.014,0.037l0.062,0.404l0.027,0.129l0.064,0.338l0.09,0.465l0.025,0.209
	l0.027,0.09l0.027,0.156l0.076,0.391l0.027,0.18l0.012,0.053v0.039l0.039,0.182l0.064,0.377l0.012,0.051l0.092,0.453v0.027
	l0.053,0.246l0.014,0.066l0.049,0.271l0.027,0.117l0.016,0.104l0.012,0.066v0.012l0.012,0.064l0.014,0.014v0.025v0.014v0.014
	l0.014,0.012v0.014v0.012v0.053v0.012l0.025,0.039h0.012v0.016h0.014v0.01h0.014h0.014h0.012l0.012,0.016h0.014h0.014h0.012
	l0.014,0.012L26,18.992v0.012v0.014l0.012,0.012v0.016v0.012v0.014L26,19.082l-0.027,0.025v0.014l-0.025,0.027v0.012v0.041v0.051
	v0.025l0.014,0.012v0.014l0.025,0.039L26,19.355l0.066,0.076v0.016h0.01l0.041,0.025l0.012,0.025l0.025,0.014l0.041,0.025
	l0.014,0.012v0.014v0.014v0.025l-0.014,0.014v0.014l-0.014,0.012L26.17,19.68v0.039v0.053l0.025,0.037l0.025,0.025l0.025,0.014
	l0.027,0.014v0.012l0.025,0.014V19.9l0.014,0.012v0.016v0.025v0.012v0.027l-0.014,0.025v0.012v0.014l-0.014,0.039l0.014,0.012
	l0.039,0.184l0.014,0.037v0.014l0.012,0.014l0.014,0.014l0.051,0.025h0.014l0.062,0.078l0.039,0.104l-0.012,0.012l-0.039,0.027
	v0.025l-0.012,0.027v0.012l-0.014,0.014l0.014,0.037l0.039,0.014l0.023,0.014h0.014v0.012v0.014v0.014v0.014l-0.014,0.012v0.014
	v0.012v0.014l0.014,0.014v0.012h0.016v0.014h0.012l0.014,0.014v0.051v0.014l0.012,0.039v0.025l0.027,0.039v0.012l0.012,0.014
	l0.053,0.105l0.078,0.064l0.143,0.143h0.014l0.09,0.09v0.014v0.012v0.016l0.014,0.025l0.023,0.025v0.027h0.016l0.012,0.01
	l0.039,0.016v0.012l0.039,0.051v0.014l0.014,0.012v0.016v0.012v0.025v0.014l0.012,0.012v0.041v0.025v0.014l0.012,0.025l0.014,0.025
	l0.014,0.025l-0.014,0.027v0.039v0.012v0.027l-0.014,0.025v0.039v0.012v0.014l0.027,0.064l0.014,0.025l0.062,0.039l0.094,0.027
	l0.025,0.053l0.039,0.09l-0.014,0.027l-0.051,0.051l-0.053,0.027V22.6l-0.014,0.039l0.014,0.025l0.012,0.025l0.016,0.039
	l-0.016,0.014l-0.012,0.012v0.027v0.023v0.018v0.01l0.012,0.027l-0.012,0.014v0.014l-0.014,0.012l-0.012,0.027v0.023h0.012
	l-0.012,0.027v0.012l-0.016,0.014l-0.012,0.014l-0.027,0.027l-0.037,0.037l-0.051,0.039l-0.014,0.078v0.051v0.014l0.037,0.053h0.027
	l0.064,0.025l0.221,0.09h0.014h0.012l0.039,0.012l0.078,0.041l0.025,0.014l0.078,0.104l0.092,0.062l0.051,0.027l0.064,0.066
	l0.016,0.012v0.012l0.012,0.016v0.012l-0.012,0.014l-0.039,0.012l-0.027,0.014v0.014l-0.014,0.025h-0.012v0.014h-0.014l-0.012,0.012
	h-0.014l-0.012,0.027v0.012l-0.014,0.053l-0.041,0.025l-0.01,0.016v0.012v0.012v0.039l-0.016,0.027l-0.025,0.01l-0.014,0.014h-0.051
	h-0.025l-0.053,0.014H27.57h-0.027l-0.012,0.014l-0.014,0.01l-0.012,0.016v0.012l-0.014,0.014l-0.014,0.014v0.012v0.016v0.012
	l0.014,0.027v0.012v0.012l-0.014,0.027l-0.051,0.025l-0.158,0.051l-0.076,0.027l-0.025,0.012l-0.014,0.016l-0.012,0.012l-0.08,0.09
	l-0.023,0.039l-0.027,0.053l-0.076,0.105l-0.014,0.012l-0.014,0.012l-0.064,0.039l-0.014,0.014v0.014h-0.014l0.014,0.027
	l0.014,0.037l0.027,0.09l0.01,0.051l0.041,0.104l0.014,0.041v0.025v0.012l-0.027,0.027l-0.014,0.012l-0.014,0.055v0.012l0.014,0.025
	v0.014l-0.014,0.039l-0.01,0.025v0.027v0.023l-0.016,0.066l0.016,0.025l0.01,0.025l0.014,0.016v0.01v0.014l-0.014,0.014v0.014v0.025
	l0.014,0.012v0.016l0.014,0.012v0.012v0.012l-0.014,0.027l0.014,0.039l-0.014,0.027l-0.064,0.053v0.012l-0.014,0.051l-0.012,0.027
	v0.012v0.039l-0.012,0.039v0.025l0.023,0.041l0.014,0.012v0.014l-0.014,0.025l-0.023,0.014l-0.027,0.012l-0.064,0.027l-0.014,0.012
	l-0.014,0.014v0.014l0.039,0.104l0.025,0.025v0.014l-0.037,0.025l-0.014,0.014l-0.039,0.053l-0.039,0.023l-0.012,0.014l-0.014,0.051
	v0.016l-0.053,0.023l-0.027,0.016v0.012l0.027,0.025l0.012,0.014l-0.023,0.053v0.023v0.016h-0.016v0.012h-0.012H26.48h-0.014h-0.014
	h-0.09v0.012v0.027l0.014,0.016l0.014,0.023v0.014l0.01,0.025v0.012v0.014l-0.037,0.051l-0.012,0.066l-0.014,0.014l-0.014,0.012
	v0.014v0.027l0.014,0.023v0.039v0.027l-0.014,0.012v0.014h-0.012v0.014l0.012,0.014l0.014,0.023l0.025,0.027l0.014,0.039
	l0.014,0.064v0.014v0.023v0.027v0.014v0.064v0.014v0.012v0.027v0.012l-0.027,0.039l-0.039,0.053v0.014h0.014v0.01l0.053,0.041
	l0.01,0.014l0.041,0.027v0.012v0.027l-0.014,0.012l-0.014,0.039l0.014,0.023l0.014,0.027l0.012,0.039l0.039,0.117v0.014
	l-0.012,0.078l-0.027,0.01v0.016l-0.012,0.014v0.064l0.012,0.064v0.025v0.025l0.027,0.039l0.062,0.025v0.014l0.029,0.066
	l0.115,0.143h0.014l0.025,0.014l0.012,0.012l0.027,0.014l0.014,0.012v0.014v0.014l-0.014,0.014l-0.014,0.037v0.014v0.012v0.016
	l0.014,0.01l0.027,0.012l0.037,0.055l0.051,0.039h0.014l0.041,0.027l0.012,0.012v0.012v0.016v0.023l-0.012,0.027v0.025l0.012,0.012
	h0.012v0.014v0.014v0.012v0.016l-0.012,0.051v0.051v0.027l0.012,0.023l0.016,0.014v0.014l-0.016,0.037v0.016v0.012l0.025,0.051
	l0.014,0.053l0.014,0.014l0.039,0.053l0.012,0.025l0.016,0.014v0.012v0.014v0.025l-0.016,0.027v0.012l-0.023,0.039v0.027v0.012
	l0.023,0.025l-0.012,0.025v0.016l-0.012,0.012v0.012l-0.041,0.053l-0.039,0.09l-0.012,0.064l-0.025,0.041l-0.041,0.131l0.014,0.115
	l0.027,0.053v0.037v0.027v0.051v0.027v0.012l-0.014,0.016h-0.014h-0.014l-0.01,0.012l-0.016,0.039v0.037L26.83,30.84v0.014v0.014
	l0.014,0.039v0.039v0.023l-0.014,0.014l-0.014,0.078l-0.023,0.092h-0.014v0.014l-0.027,0.064v0.014v0.012v0.025v0.014v0.014h0.014
	h0.014h0.014v0.012l0.012,0.025l-0.012,0.014v0.064v0.025l-0.014,0.016v0.012l0.037,0.051v0.078v0.027l-0.023,0.037v0.014v0.041
	v0.012l-0.014,0.064l-0.014,0.039l-0.014,0.014l-0.014,0.012l-0.025,0.025l-0.051,0.014l-0.014,0.014h-0.012l-0.014,0.012
	l-0.014,0.027l0.014,0.027v0.012v0.039v0.025v0.041l0.014,0.012l0.012,0.025l0.025,0.051l0.014,0.055l0.014,0.039l0.012,0.023
	l0.014,0.012l0.012,0.053l-0.012,0.053V32.5v0.016l-0.039,0.039l-0.014,0.012v0.066v0.037v0.014v0.014v0.012h0.014h0.014h0.012
	l0.025,0.039v0.027l-0.012,0.09v0.012l0.066,0.039h0.051h0.012l0.039,0.014v0.014l0.014,0.014l0.027,0.023l0.012,0.027l0.037,0.053
	l0.014,0.025l0.014,0.037l0.039,0.094l0.012,0.025h0.016l0.012,0.014l0.027,0.012l0.051,0.039l0.025,0.012v0.012l0.025,0.066
	l0.027,0.039l0.023,0.092l-0.012,0.066v0.012v0.012l0.078,0.115l0.041,0.027v0.014v0.01l0.025,0.068v0.014v0.012v0.076l0.025,0.066
	l0.012,0.051l0.027,0.027l0.012,0.016l-0.012,0.037v0.039l-0.014,0.023l-0.156,0.016H27.27h-0.012h-0.012h-0.145h-0.023h-0.016
	l-0.426,0.012h-0.195h-0.051h-0.014h-0.156l-0.193,0.014h-0.262h-0.027l-0.412,0.01l-0.195,0.016h-0.143l-0.234,0.012h-0.18
	l-0.506,0.027h-0.064h-0.027h-0.041l-0.609,0.012l-0.115,0.016H22.99h-0.092h-0.064l-0.27,0.012h-0.016h-0.35l-0.051,0.014h-0.209
	l-0.377,0.014l-0.441,0.012h-0.297h-0.039l-0.182,0.012h-0.223h-0.258h-0.129h-0.027l-0.428,0.016h-0.322h-0.055h-0.039h-0.037
	h-0.053H18.67h-0.129h-0.092h-0.014h-0.129h-0.051h-0.053h-0.039h-0.041h-0.051h-0.076h-0.105h-0.117h-0.025h-0.037l-0.104,0.012
	H17.58h-0.092h-0.352h-0.021l-0.303,0.014h-0.09h-0.051l-0.156-0.014h-0.156h-0.025l-0.428,0.014h-0.258h-0.104h-0.064h-0.132
	l-0.129-0.014h-0.023h-0.119h-0.297h-0.17h-0.141h-0.015h-0.285h-0.116h-0.116h-0.054h-0.104l-0.389-0.012h-0.116h-0.041h-0.168H13
	h-0.027h-0.089h-0.079h-0.027h-0.336h-0.026l-0.04,0.012l-0.115-0.012h-0.157l-0.089,0.012h-0.053l-0.298,0.014h-0.066h-0.025
	h-0.026l-0.051-0.014h-0.039h-0.015H11.43h-0.013h-0.039H11.3h-0.089h-0.015h-0.051H11.12h-0.013h-0.065h-0.156h-0.09H10.73h-0.053
	h-0.024h-0.416h-0.053h-0.115H10.03h-0.026H9.976H9.95H9.873H9.861H9.848H9.822H9.795H9.718h-0.04L9.6,34.449H9.588H9.576
	l-0.208-0.014h-0.17l-0.195,0.014v0.012l0.014,0.064l0.025,0.041l0.014,0.025l-0.014,0.014v0.012v0.027l0.026,0.039l0.015,0.039
	l-0.027,0.102l-0.039,0.08v0.023l-0.026,0.014l-0.013,0.025l-0.039,0.078v0.025l-0.013,0.041l-0.014,0.014L8.9,35.176l-0.012,0.037
	v0.025l-0.039,0.016l-0.012,0.01v0.041l0.012,0.027v0.025l-0.012,0.012H8.822l-0.039,0.039v0.027l-0.039,0.09l0.051,0.053
	l0.015,0.025l0.012,0.027l-0.012,0.01v0.027v0.014v0.012h0.012l0.052,0.053l0.013,0.025v0.014l0.039,0.012l0.025,0.014l0.026,0.025
	l0.013,0.027V35.9l0.051,0.029l0.041,0.025l0.039,0.012l0.038,0.039l0.039,0.066l0.027,0.012l0.024,0.027l0.027,0.025l0.014,0.012
	l0.024,0.025l0.015,0.014h0.013l0.052,0.064L9.38,36.291v0.014l0.026,0.039l0.038,0.039v0.012l0.012,0.053v0.039v0.012l0.015,0.039
	l0.066,0.041l0.09,0.037v0.014l0.052,0.053l0.013,0.037l0.027,0.014H9.73l0.077,0.012l0.04,0.014v0.014l0.013,0.025l0.025,0.053
	h0.039l0.012,0.039H9.95l0.065,0.025l0.039-0.014h0.015l0.039,0.041l0.012,0.012l0.014,0.014v0.012l0.039,0.014h0.039l0.039,0.039
	l0.039,0.025l0.039,0.027l0.052,0.027l-0.014,0.023l0.014,0.039l0.039,0.076l0.027,0.027v0.027v0.023l0.011,0.027v0.051l0.012,0.066
	v0.025l-0.012,0.012v0.016l-0.011,0.051v0.012h0.011v0.014l-0.011,0.051l-0.015,0.029l-0.012,0.012h-0.026l-0.013,0.025
	l-0.014,0.141l-0.023,0.055v0.027h-0.015h-0.012l-0.012,0.012l-0.015,0.012v0.014l0.015,0.012v0.016l-0.015,0.039h-0.012h-0.015
	l-0.025,0.012l-0.014,0.039l-0.025,0.039h-0.026v0.012l-0.078,0.182v0.027v0.012v0.012l0.014,0.043v0.012h-0.014l-0.014,0.012v0.014
	l0.027,0.025L10.12,38.5h0.027l0.052,0.088l0.012,0.039l-0.027,0.039l-0.012,0.027v0.012v0.012l0.026,0.014l0.012,0.014v0.053
	l0.039,0.039l0.065,0.062l0.05,0.016l0.027,0.023l0.038,0.016h0.015h0.039l0.078,0.012h0.012l0.065,0.025l0.014,0.014l0.013,0.037
	v0.027l-0.013,0.014v0.01l-0.027,0.027l-0.076,0.066l-0.015,0.012h-0.013l-0.065,0.027l-0.026,0.027l-0.025,0.023v0.014h-0.013
	l-0.027,0.014h-0.012h-0.011h-0.015l-0.039-0.014h-0.026H10.25l-0.013,0.014l-0.014,0.012H10.21v0.014l-0.012,0.014l-0.015,0.053
	l-0.025,0.012l-0.025,0.039v0.025v0.014l0.013,0.037v0.014l-0.027,0.039l-0.051,0.039l-0.015,0.025v0.027v0.012v0.012v0.016v0.117
	v0.012l-0.063,0.064l-0.015,0.016l-0.012,0.012H9.95H9.937l-0.051,0.014H9.873h-0.09H9.769l-0.064,0.025l-0.013,0.012l-0.013,0.027
	l-0.013,0.037v0.025v0.027v0.012l0.013,0.014v0.012h0.013l0.013,0.014l0.04,0.014h0.024h0.053l0.013-0.014l0.039-0.014h0.013h0.051
	H9.95h0.014h0.012h0.027l0.026-0.012l0.039-0.014l-0.015,0.092l-0.349,0.105H9.666l-0.09,0.023v0.016v0.012l-0.104,0.025
	l-0.078,0.014l-0.103,0.014l-0.157,0.053H9.122l-0.389,0.115H8.718l-0.13,0.039l-0.09,0.012l-0.142,0.016l-0.338,0.051l-0.455,0.092
	H7.551l-0.261,0.012L6.851,40.77h-0.17H6.656H6.397l-0.273,0.037L6.02,40.834H5.929l-0.012-0.012l0.039-0.053l0.415-0.053
	l0.129-0.17l0.09-0.037l0.129,0.064l0.027,0.051l0.089,0.053l0.053,0.014l0.103,0.014l0.144-0.014l0.247-0.105l0.051-0.012
	l0.118,0.012l0.104-0.012l0.025-0.016l0.118-0.049l0.012-0.014v-0.012l0.078-0.105v-0.053l-0.012-0.037v-0.025l-0.116-0.17
	L7.59,39.99l-0.092-0.064l-0.142-0.17l-0.012-0.023l-0.039-0.104l-0.053-0.055l-0.012-0.025H7.175L7.098,39.51l-0.286-0.221
	l-0.026-0.037v-0.055L6.747,38.99L6.72,38.859l-0.012-0.076l-0.026-0.039V38.73l-0.052-0.037l-0.012-0.027v-0.012v-0.016
	l0.052-0.102l0.025-0.053l0.013-0.012v-0.014v-0.014H6.72l0.04-0.09l0.012-0.027l0.015-0.039h0.011l0.015-0.051l0.013-0.025v-0.027
	l0.012-0.051v-0.014v-0.014v-0.012V38.08v-0.01v-0.014l-0.012-0.027v-0.012v-0.012V37.99l-0.013-0.025l-0.015-0.012v-0.012
	l-0.011-0.016l-0.015-0.012l-0.012-0.027l-0.012-0.051v-0.027l0.024-0.221l-0.024-0.09l-0.014-0.025L6.72,37.422v-0.016
	l-0.076-0.129L6.59,37.238l-0.129-0.014l-0.04-0.012l-0.09-0.078l-0.054-0.039L6.215,37.07l-0.091-0.039l-0.012-0.014H6.085H6.071
	l-0.012,0.014l-0.066,0.064v0.016l-0.037,0.102l-0.052,0.053l-0.079,0.012l-0.051,0.027l-0.064,0.039v0.115l0.012,0.094l0.04,0.062
	l-0.015,0.037l-0.064,0.156l-0.078,0.078L5.54,37.99l-0.012,0.027l0.012,0.027l0.014,0.113v0.145L5.5,38.34H5.488l-0.064,0.119
	l-0.027,0.062v0.066L5.45,38.77l-0.025,0.09l-0.054,0.066l0.026,0.207l-0.026,0.416l-0.063,0.168l-0.065,0.131l-0.027,0.025
	l-0.052,0.143L5.02,39.965l-0.115,0.012l-0.143,0.064l-0.027-0.037l-0.025-0.145l0.025-0.037l0.053-0.014v-0.025l-0.065-0.078
	l-0.013-0.039H4.67l-0.103-0.037l-0.025-0.016l-0.054-0.027l-0.064-0.023H4.411l-0.142-0.066H4.203H4.19H4.164h-0.05l-0.041,0.078
	l-0.013,0.027H4.047l-0.143,0.012l-0.038-0.012L3.854,39.51l-0.091-0.064l-0.066-0.012l-0.167,0.012L3.45,39.471l-0.142,0.131
	l-0.025-0.742v-0.115V38.73l-0.015-0.143v-0.104v-0.051l-0.012-0.182v-0.094v-0.012v-0.025l-0.014-0.338v-0.23V37.51v-0.078
	L3.23,37.395v-0.26l-0.013-0.311v-0.053v-0.156H3.204v-0.037L3.19,36.162l-0.012-0.57v-0.014v-0.014v-0.039v-0.023L3.165,35.42
	l-0.013-0.398v-0.16L3.14,34.408v-0.012l-0.013-0.012l-0.012-0.559l-0.013-0.129v-0.248l-0.014-0.232L3.062,32.5v-0.012v-0.131
	v-0.051v-0.051l-0.013-0.154l-0.026-0.637L3.01,31.346v-0.193v-0.078l-0.014-0.158v-0.115l-0.013-0.104v-0.09v-0.182L2.971,30.27
	V30.23v-0.053v-0.012v-0.012v-0.131L2.958,29.75l-0.014-0.154v-0.066l-0.012-0.26v-0.025v-0.117l-0.027-0.414V28.633z M4.774,40.625
	h-0.04l-0.103,0.016l-0.507,0.115L3.944,40.77l-0.052-0.014l0.012-0.027l0.079,0.016l0.142-0.016l0.155-0.051l0.247-0.053
	l0.365-0.051h0.104l0.128-0.016l0.065-0.062l0.053-0.09v-0.092l0.271,0.205l0.079,0.094v0.012l-0.027,0.016l-0.22,0.021
	l-0.079-0.037L5.151,40.6H4.943L4.774,40.625z"/>
<polyline fill="none" stroke="#404041" stroke-width="0.1" stroke-linecap="round" stroke-linejoin="round" stroke-miterlimit="3.85" points="
	2.905,28.633 2.905,28.49 2.905,28.439 2.894,27.947 2.894,27.908 2.88,27.869 2.88,27.791 2.88,27.635 2.867,27.377 2.867,27.168 
	2.867,27.025 2.88,26.791 2.894,26.715 2.894,26.699 2.997,25.818 2.997,25.803 3.01,25.74 3.01,25.701 3.022,25.582 3.087,25.014 
	3.101,24.936 3.126,24.729 3.126,24.715 3.14,24.637 3.152,24.545 3.165,24.43 3.165,24.365 3.165,24.352 3.178,24.275 3.204,24.08 
	3.204,24.055 3.23,23.779 3.256,23.6 3.283,23.352 3.309,23.145 3.309,23.131 3.309,23.068 3.322,23.043 3.322,23.016 3.334,22.926 
	3.334,22.91 3.334,22.859 3.387,22.445 3.387,22.43 3.387,22.404 3.398,22.326 3.412,22.172 3.412,22.158 3.412,22.145 
	3.502,21.379 3.516,21.199 3.529,21.145 3.541,20.977 3.607,20.381 3.619,20.277 3.645,20.068 3.645,20.057 3.645,20.029 
	3.659,19.979 3.659,19.965 3.672,19.848 3.71,19.447 3.763,18.926 3.802,18.539 3.815,18.486 3.827,18.291 3.84,18.266 
	3.867,17.967 3.917,17.525 3.944,17.305 3.944,17.291 3.995,16.746 4.034,16.383 4.047,16.357 4.061,16.229 4.073,16.137 
	4.073,16.072 4.087,16.006 4.114,15.773 4.139,15.527 4.15,15.408 4.164,15.254 4.164,15.217 4.19,15.02 4.19,14.994 4.203,14.943 
	4.217,14.748 4.23,14.605 4.242,14.514 4.269,14.254 4.32,13.852 4.32,13.775 4.333,13.736 4.333,13.67 4.346,13.645 4.359,13.502 
	4.359,13.463 4.385,13.282 4.385,13.243 4.385,13.19 4.398,13.177 4.398,13.138 4.411,13.074 4.411,13.022 4.411,12.997 
	4.423,12.931 4.437,12.801 4.449,12.685 4.449,12.659 4.462,12.593 4.462,12.516 4.488,12.269 4.502,12.166 4.502,12.14 
	4.527,11.971 4.554,11.763 4.554,11.699 4.567,11.568 4.581,11.53 4.581,11.452 4.592,11.335 4.606,11.282 4.606,11.27 
	4.618,11.218 4.618,11.166 4.645,10.919 4.645,10.88 4.684,10.647 4.696,10.556 4.696,10.542 4.709,10.388 4.709,10.375 
	4.734,10.179 4.749,10.115 4.774,9.804 4.8,9.583 4.812,9.57 4.827,9.479 4.827,9.414 4.854,9.167 4.866,9.09 4.877,8.934 
	4.892,8.868 4.904,8.701 4.943,8.388 4.943,8.35 4.969,8.208 4.969,8.091 4.996,7.961 4.996,7.921 5.008,7.831 5.034,7.519 
	5.074,7.272 5.074,7.248 5.074,7.234 5.085,7.156 5.1,7 5.151,6.507 5.151,6.494 5.189,6.195 5.189,6.118 5.203,6.053 5.203,6 
	5.215,5.871 5.228,5.845 5.228,5.832 5.228,5.819 5.254,5.611 5.281,5.404 5.281,5.352 5.346,4.859 5.346,4.807 5.346,4.793 
	5.385,4.521 5.409,4.34 5.409,4.3 5.409,4.288 5.461,3.924 5.475,3.873 5.475,3.808 5.5,3.678 5.514,3.496 5.514,3.431 5.527,3.34 
	5.554,3.146 5.578,2.964 5.593,2.847 5.593,2.769 5.644,2.29 5.631,2.276 5.461,2.21 5.409,2.185 5.385,2.172 5.358,2.146 
	5.319,2.107 5.254,2.042 5.228,1.965 5.215,1.965 5.215,1.952 5.177,1.874 5.139,1.77 5.112,1.706 5.085,1.667 5.046,1.614 
	4.969,1.472 4.955,1.433 4.955,1.42 4.943,1.354 4.943,1.329 6.317,1.354 6.421,1.354 6.5,1.367 6.812,1.367 7.148,1.367 
	7.175,1.367 7.305,1.367 7.317,1.367 7.524,1.367 7.849,1.367 7.888,1.38 7.954,1.38 8.291,1.38 8.341,1.38 8.368,1.38 8.433,1.38 
	8.55,1.38 8.588,1.38 8.861,1.38 8.9,1.38 8.991,1.38 9.146,1.394 9.186,1.394 9.457,1.394 9.562,1.394 9.745,1.394 9.756,1.394 
	9.976,1.394 10.094,1.394 10.133,1.394 10.198,1.394 10.237,1.394 10.276,1.394 10.445,1.394 10.484,1.394 10.522,1.394 
	10.665,1.406 10.73,1.406 11.066,1.406 11.273,1.406 11.534,1.42 11.585,1.42 11.612,1.42 11.638,1.42 11.649,1.42 11.677,1.42 
	12,1.433 12.157,1.433 12.247,1.433 12.274,1.433 12.287,1.433 12.469,1.433 12.493,1.433 12.896,1.446 13.027,1.446 13.104,1.446 
	13.182,1.446 13.273,1.458 13.286,1.458 13.312,1.458 13.324,1.458 13.533,1.458 13.597,1.458 13.791,1.458 13.92,1.472 
	14.038,1.472 14.051,1.472 14.077,1.472 14.128,1.472 14.141,1.472 14.221,1.472 14.324,1.472 14.337,1.472 14.349,1.472 
	14.57,1.472 14.948,1.458 14.999,1.458 15.296,1.458 15.321,1.458 15.335,1.458 15.414,1.458 15.543,1.458 15.815,1.458 
	15.894,1.458 16.022,1.458 16.125,1.458 16.311,1.458 16.348,1.458 16.58,1.458 16.684,1.458 16.723,1.458 16.945,1.446 
	16.982,1.446 17.203,1.446 17.334,1.446 17.711,1.446 17.736,1.446 17.787,1.446 18.176,1.446 18.5,1.433 18.686,1.433 
	18.852,1.433 18.865,1.433 19.396,1.433 19.434,1.433 19.475,1.433 20.369,1.42 20.551,1.42 20.59,1.42 20.824,1.42 20.836,1.42 
	21.057,1.42 21.084,1.42 21.096,1.42 21.199,1.42 21.277,1.42 21.461,1.42 21.719,1.42 21.758,1.42 21.781,1.42 21.926,1.42 
	21.965,1.42 22.521,1.42 22.537,1.42 22.574,1.42 22.625,1.692 22.625,1.706 22.625,1.744 22.641,1.822 22.641,1.849 22.652,1.912 
	22.652,1.926 22.705,2.185 22.744,2.446 22.809,2.743 22.809,2.808 22.861,3.042 22.912,3.353 22.938,3.509 22.951,3.509 
	22.977,3.69 22.977,3.705 23.029,3.95 23.055,4.067 23.055,4.093 23.068,4.12 23.121,4.379 23.121,4.392 23.172,4.677 23.25,5.053 
	23.262,5.171 23.275,5.209 23.287,5.261 23.314,5.404 23.326,5.468 23.342,5.533 23.365,5.625 23.418,5.896 23.496,6.287 
	23.523,6.391 23.572,6.676 23.572,6.688 23.6,6.818 23.627,6.936 23.664,7.13 23.664,7.169 23.691,7.311 23.703,7.337 23.715,7.441 
	23.715,7.468 23.795,7.883 23.82,7.961 23.834,8.038 23.885,8.298 23.885,8.35 23.924,8.492 23.924,8.584 23.936,8.596 
	23.977,8.855 23.988,8.934 24.053,9.258 24.094,9.505 24.094,9.518 24.105,9.518 24.158,9.804 24.158,9.816 24.25,10.335 
	24.26,10.375 24.287,10.53 24.326,10.711 24.326,10.75 24.354,10.869 24.365,10.946 24.418,11.245 24.418,11.27 24.441,11.386 
	24.457,11.439 24.482,11.582 24.482,11.594 24.494,11.672 24.508,11.777 24.584,12.14 24.584,12.152 24.6,12.244 24.623,12.373 
	24.676,12.633 24.676,12.671 24.74,12.983 24.74,13.022 24.807,13.332 24.807,13.346 24.818,13.385 24.818,13.398 24.885,13.775 
	24.949,14.125 24.963,14.191 24.977,14.229 25.039,14.633 25.066,14.762 25.131,15.1 25.221,15.564 25.246,15.773 25.273,15.863 
	25.301,16.02 25.377,16.41 25.404,16.59 25.416,16.643 25.416,16.682 25.455,16.863 25.52,17.24 25.531,17.291 25.623,17.744 
	25.623,17.771 25.676,18.018 25.689,18.084 25.738,18.355 25.766,18.473 25.781,18.576 25.793,18.643 25.793,18.654 25.805,18.719 
	25.818,18.732 25.818,18.758 25.818,18.771 25.818,18.785 25.832,18.797 25.832,18.811 25.832,18.822 25.832,18.875 25.832,18.887 
	25.857,18.926 25.869,18.926 25.869,18.941 25.883,18.941 25.883,18.951 25.896,18.951 25.91,18.951 25.922,18.951 25.934,18.967 
	25.947,18.967 25.961,18.967 25.973,18.967 25.986,18.979 26,18.992 26,19.004 26,19.018 26.012,19.029 26.012,19.045 
	26.012,19.057 26.012,19.07 26,19.082 25.973,19.107 25.973,19.121 25.947,19.148 25.947,19.16 25.947,19.201 25.947,19.252 
	25.947,19.277 25.961,19.289 25.961,19.303 25.986,19.342 26,19.355 26.066,19.432 26.066,19.447 26.076,19.447 26.117,19.473 
	26.129,19.498 26.154,19.512 26.195,19.537 26.209,19.549 26.209,19.562 26.209,19.576 26.209,19.602 26.195,19.615 26.195,19.629 
	26.182,19.641 26.17,19.68 26.17,19.719 26.17,19.771 26.195,19.809 26.221,19.834 26.246,19.848 26.273,19.861 26.273,19.873 
	26.299,19.887 26.299,19.9 26.312,19.912 26.312,19.928 26.312,19.953 26.312,19.965 26.312,19.992 26.299,20.018 26.299,20.029 
	26.299,20.043 26.285,20.082 26.299,20.094 26.338,20.277 26.352,20.314 26.352,20.328 26.363,20.342 26.377,20.355 26.428,20.381 
	26.441,20.381 26.504,20.459 26.543,20.562 26.531,20.574 26.492,20.602 26.492,20.627 26.48,20.654 26.48,20.666 26.467,20.68 
	26.48,20.717 26.52,20.73 26.543,20.744 26.557,20.744 26.557,20.756 26.557,20.77 26.557,20.783 26.557,20.797 26.543,20.809 
	26.543,20.822 26.543,20.834 26.543,20.848 26.557,20.861 26.557,20.873 26.572,20.873 26.572,20.887 26.584,20.887 26.598,20.9 
	26.598,20.951 26.598,20.965 26.609,21.004 26.609,21.029 26.637,21.068 26.637,21.08 26.648,21.094 26.701,21.199 26.779,21.264 
	26.922,21.406 26.936,21.406 27.025,21.496 27.025,21.51 27.025,21.521 27.025,21.537 27.039,21.562 27.062,21.588 27.062,21.615 
	27.078,21.615 27.09,21.625 27.129,21.641 27.129,21.652 27.168,21.703 27.168,21.717 27.182,21.729 27.182,21.744 27.182,21.756 
	27.182,21.781 27.182,21.795 27.193,21.807 27.193,21.848 27.193,21.873 27.193,21.887 27.205,21.912 27.219,21.938 27.232,21.963 
	27.219,21.99 27.219,22.029 27.219,22.041 27.219,22.068 27.205,22.094 27.205,22.133 27.205,22.145 27.205,22.158 27.232,22.223 
	27.246,22.248 27.309,22.287 27.402,22.314 27.428,22.367 27.467,22.457 27.453,22.484 27.402,22.535 27.35,22.562 27.35,22.6 
	27.336,22.639 27.35,22.664 27.361,22.689 27.377,22.729 27.361,22.742 27.35,22.754 27.35,22.781 27.35,22.805 27.35,22.822 
	27.35,22.832 27.361,22.859 27.35,22.873 27.35,22.887 27.336,22.898 27.324,22.926 27.324,22.949 27.336,22.949 27.324,22.977 
	27.324,22.988 27.309,23.002 27.297,23.016 27.27,23.043 27.232,23.08 27.182,23.119 27.168,23.197 27.168,23.248 27.168,23.262 
	27.205,23.314 27.232,23.314 27.297,23.34 27.518,23.43 27.531,23.43 27.543,23.43 27.582,23.441 27.66,23.482 27.686,23.496 
	27.764,23.6 27.855,23.662 27.906,23.689 27.971,23.756 27.986,23.768 27.986,23.779 27.998,23.795 27.998,23.807 27.986,23.82 
	27.947,23.832 27.92,23.846 27.92,23.859 27.906,23.885 27.895,23.885 27.895,23.898 27.881,23.898 27.869,23.91 27.855,23.91 
	27.844,23.938 27.844,23.949 27.83,24.002 27.789,24.027 27.779,24.043 27.779,24.055 27.779,24.066 27.779,24.105 27.764,24.133 
	27.738,24.143 27.725,24.156 27.674,24.156 27.648,24.156 27.596,24.17 27.57,24.17 27.543,24.17 27.531,24.184 27.518,24.193 
	27.506,24.209 27.506,24.221 27.492,24.234 27.479,24.248 27.479,24.26 27.479,24.275 27.479,24.287 27.492,24.314 27.492,24.326 
	27.492,24.338 27.479,24.365 27.428,24.391 27.27,24.441 27.193,24.469 27.168,24.48 27.154,24.496 27.143,24.508 27.062,24.598 
	27.039,24.637 27.012,24.689 26.936,24.795 26.922,24.807 26.908,24.818 26.844,24.857 26.83,24.871 26.83,24.885 26.816,24.885 
	26.83,24.912 26.844,24.949 26.871,25.039 26.881,25.09 26.922,25.193 26.936,25.234 26.936,25.26 26.936,25.271 26.908,25.299 
	26.895,25.311 26.881,25.365 26.881,25.377 26.895,25.402 26.895,25.416 26.881,25.455 26.871,25.48 26.871,25.508 26.871,25.531 
	26.855,25.598 26.871,25.623 26.881,25.648 26.895,25.664 26.895,25.674 26.895,25.688 26.881,25.701 26.881,25.715 26.881,25.74 
	26.895,25.752 26.895,25.768 26.908,25.779 26.908,25.791 26.908,25.803 26.895,25.83 26.908,25.869 26.895,25.896 26.83,25.949 
	26.83,25.961 26.816,26.012 26.805,26.039 26.805,26.051 26.805,26.09 26.793,26.129 26.793,26.154 26.816,26.195 26.83,26.207 
	26.83,26.221 26.816,26.246 26.793,26.26 26.766,26.271 26.701,26.299 26.688,26.311 26.674,26.324 26.674,26.338 26.713,26.441 
	26.738,26.467 26.738,26.48 26.701,26.506 26.688,26.52 26.648,26.572 26.609,26.596 26.598,26.609 26.584,26.66 26.584,26.676 
	26.531,26.699 26.504,26.715 26.504,26.727 26.531,26.752 26.543,26.766 26.52,26.818 26.52,26.842 26.52,26.857 26.504,26.857 
	26.504,26.869 26.492,26.869 26.48,26.869 26.467,26.869 26.453,26.869 26.363,26.869 26.363,26.881 26.363,26.908 26.377,26.924 
	26.391,26.947 26.391,26.961 26.4,26.986 26.4,26.998 26.4,27.012 26.363,27.062 26.352,27.129 26.338,27.143 26.324,27.154 
	26.324,27.168 26.324,27.195 26.338,27.219 26.338,27.258 26.338,27.285 26.324,27.297 26.324,27.311 26.312,27.311 26.312,27.324 
	26.324,27.338 26.338,27.361 26.363,27.389 26.377,27.428 26.391,27.492 26.391,27.506 26.391,27.529 26.391,27.557 26.391,27.57 
	26.391,27.635 26.391,27.648 26.391,27.66 26.391,27.688 26.391,27.699 26.363,27.738 26.324,27.791 26.324,27.805 26.338,27.805 
	26.338,27.814 26.391,27.855 26.4,27.869 26.441,27.896 26.441,27.908 26.441,27.936 26.428,27.947 26.414,27.986 26.428,28.01 
	26.441,28.037 26.453,28.076 26.492,28.193 26.492,28.207 26.48,28.285 26.453,28.295 26.453,28.311 26.441,28.324 26.441,28.389 
	26.453,28.453 26.453,28.479 26.453,28.504 26.48,28.543 26.543,28.568 26.543,28.582 26.572,28.648 26.688,28.791 26.701,28.791 
	26.727,28.805 26.738,28.816 26.766,28.83 26.779,28.842 26.779,28.855 26.779,28.869 26.766,28.883 26.752,28.92 26.752,28.934 
	26.752,28.945 26.752,28.961 26.766,28.971 26.793,28.982 26.83,29.037 26.881,29.076 26.895,29.076 26.936,29.104 26.947,29.115 
	26.947,29.127 26.947,29.143 26.947,29.166 26.936,29.193 26.936,29.219 26.947,29.23 26.959,29.23 26.959,29.244 26.959,29.258 
	26.959,29.27 26.959,29.285 26.947,29.336 26.947,29.387 26.947,29.414 26.959,29.438 26.975,29.451 26.975,29.465 26.959,29.502 
	26.959,29.518 26.959,29.529 26.984,29.58 26.998,29.633 27.012,29.646 27.051,29.699 27.062,29.725 27.078,29.738 27.078,29.75 
	27.078,29.764 27.078,29.789 27.062,29.816 27.062,29.828 27.039,29.867 27.039,29.895 27.039,29.906 27.062,29.932 27.051,29.957 
	27.051,29.973 27.039,29.984 27.039,29.996 26.998,30.049 26.959,30.139 26.947,30.203 26.922,30.244 26.881,30.375 26.895,30.49 
	26.922,30.543 26.922,30.58 26.922,30.607 26.922,30.658 26.922,30.686 26.922,30.697 26.908,30.713 26.895,30.713 26.881,30.713 
	26.871,30.725 26.855,30.764 26.855,30.801 26.83,30.84 26.83,30.854 26.83,30.867 26.844,30.906 26.844,30.945 26.844,30.969 
	26.83,30.982 26.816,31.061 26.793,31.152 26.779,31.152 26.779,31.166 26.752,31.23 26.752,31.244 26.752,31.256 26.752,31.281 
	26.752,31.295 26.752,31.309 26.766,31.309 26.779,31.309 26.793,31.309 26.793,31.32 26.805,31.346 26.793,31.359 26.793,31.424 
	26.793,31.449 26.779,31.465 26.779,31.477 26.816,31.527 26.816,31.605 26.816,31.633 26.793,31.67 26.793,31.684 26.793,31.725 
	26.793,31.736 26.779,31.801 26.766,31.84 26.752,31.854 26.738,31.865 26.713,31.891 26.662,31.904 26.648,31.918 26.637,31.918 
	26.623,31.93 26.609,31.957 26.623,31.984 26.623,31.996 26.623,32.035 26.623,32.061 26.623,32.102 26.637,32.113 26.648,32.139 
	26.674,32.189 26.688,32.244 26.701,32.283 26.713,32.307 26.727,32.318 26.738,32.371 26.727,32.424 26.727,32.5 26.727,32.516 
	26.688,32.555 26.674,32.566 26.674,32.633 26.674,32.67 26.674,32.684 26.674,32.697 26.674,32.709 26.688,32.709 26.701,32.709 
	26.713,32.709 26.738,32.748 26.738,32.775 26.727,32.865 26.727,32.877 26.793,32.916 26.844,32.916 26.855,32.916 26.895,32.93 
	26.895,32.943 26.908,32.957 26.936,32.98 26.947,33.008 26.984,33.061 26.998,33.086 27.012,33.123 27.051,33.217 27.062,33.242 
	27.078,33.242 27.09,33.256 27.117,33.268 27.168,33.307 27.193,33.318 27.193,33.33 27.219,33.396 "/>
<polyline fill="none" stroke="#404041" stroke-width="0.1" stroke-linecap="round" stroke-linejoin="round" stroke-miterlimit="3.85" points="
	27.219,33.396 27.246,33.436 27.27,33.527 27.258,33.594 27.258,33.605 27.258,33.617 27.336,33.732 27.377,33.76 27.377,33.773 
	27.377,33.783 27.402,33.852 27.402,33.865 27.402,33.877 27.402,33.953 27.428,34.02 27.439,34.07 27.467,34.098 27.479,34.113 
	27.467,34.15 27.467,34.189 27.453,34.213 27.297,34.229 27.27,34.229 27.258,34.229 27.246,34.229 27.102,34.229 27.078,34.229 
	27.062,34.229 26.637,34.24 26.441,34.24 26.391,34.24 26.377,34.24 26.221,34.24 26.027,34.254 25.766,34.254 25.738,34.254 
	25.326,34.264 25.131,34.279 24.988,34.279 24.754,34.291 24.574,34.291 24.068,34.318 24.004,34.318 23.977,34.318 23.936,34.318 
	23.326,34.33 23.211,34.346 22.99,34.346 22.898,34.346 22.834,34.346 22.564,34.357 22.549,34.357 22.199,34.357 22.148,34.371 
	21.939,34.371 21.562,34.385 21.121,34.396 20.824,34.396 20.785,34.396 20.604,34.408 20.381,34.408 20.123,34.408 19.994,34.408 
	19.967,34.408 19.539,34.424 19.217,34.424 19.162,34.424 19.123,34.424 19.086,34.424 19.033,34.424 18.67,34.424 18.541,34.424 
	18.449,34.424 18.436,34.424 18.307,34.424 18.256,34.424 18.203,34.424 18.164,34.424 18.123,34.424 18.072,34.424 17.996,34.424 
	17.891,34.424 17.773,34.424 17.748,34.424 17.711,34.424 17.607,34.436 17.58,34.436 17.488,34.436 17.137,34.436 17.115,34.436 
	16.812,34.449 16.723,34.449 16.672,34.449 16.516,34.436 16.359,34.436 16.334,34.436 15.906,34.449 15.648,34.449 15.543,34.449 
	15.479,34.449 15.347,34.449 15.218,34.436 15.195,34.436 15.076,34.436 14.778,34.436 14.608,34.436 14.467,34.436 14.452,34.436 
	14.167,34.436 14.051,34.436 13.936,34.436 13.882,34.436 13.778,34.436 13.389,34.424 13.273,34.424 13.232,34.424 13.064,34.424 
	13,34.424 12.973,34.424 12.884,34.424 12.805,34.424 12.778,34.424 12.442,34.424 12.416,34.424 12.376,34.436 12.262,34.424 
	12.105,34.424 12.016,34.436 11.962,34.436 11.665,34.449 11.598,34.449 11.573,34.449 11.547,34.449 11.496,34.436 11.457,34.436 
	11.442,34.436 11.43,34.436 11.417,34.436 11.378,34.436 11.3,34.436 11.211,34.436 11.196,34.436 11.145,34.436 11.12,34.436 
	11.106,34.436 11.042,34.436 10.885,34.436 10.795,34.436 10.73,34.436 10.677,34.436 10.652,34.436 10.237,34.436 10.184,34.436 
	10.068,34.436 10.03,34.436 10.003,34.436 9.976,34.436 9.95,34.436 9.873,34.436 9.861,34.436 9.848,34.436 9.822,34.436 
	9.795,34.436 9.718,34.436 9.679,34.436 9.6,34.449 9.588,34.449 9.576,34.449 9.368,34.436 9.198,34.436 9.003,34.449 
	9.003,34.461 9.017,34.525 9.042,34.566 9.056,34.592 9.042,34.605 9.042,34.617 9.042,34.645 9.068,34.684 9.083,34.723 
	9.056,34.824 9.017,34.904 9.017,34.928 8.991,34.941 8.979,34.967 8.939,35.045 8.939,35.07 8.927,35.111 8.913,35.125 8.9,35.176 
	8.888,35.213 8.888,35.238 8.849,35.254 8.837,35.264 8.837,35.305 8.849,35.332 8.849,35.357 8.837,35.369 8.822,35.369 
	8.783,35.408 8.783,35.436 8.744,35.525 8.795,35.578 8.81,35.604 8.822,35.631 8.81,35.641 8.81,35.668 8.81,35.682 8.81,35.693 
	8.822,35.693 8.875,35.746 8.888,35.771 8.888,35.785 8.927,35.797 8.952,35.811 8.979,35.836 8.991,35.863 8.991,35.9 9.042,35.93 
	9.083,35.955 9.122,35.967 9.159,36.006 9.198,36.072 9.225,36.084 9.25,36.111 9.276,36.137 9.291,36.148 9.314,36.174 
	9.329,36.188 9.342,36.188 9.394,36.252 9.38,36.291 9.38,36.305 9.406,36.344 9.444,36.383 9.444,36.395 9.457,36.447 
	9.457,36.486 9.457,36.498 9.471,36.537 9.537,36.578 9.627,36.615 9.627,36.629 9.679,36.682 9.691,36.719 9.718,36.732 
	9.73,36.732 9.808,36.744 9.848,36.758 9.848,36.771 9.861,36.797 9.886,36.85 9.925,36.85 9.937,36.889 9.95,36.889 10.015,36.914 
	10.054,36.9 10.068,36.9 10.107,36.941 10.12,36.953 10.133,36.967 10.133,36.979 10.172,36.992 10.21,36.992 10.25,37.031 
	10.288,37.057 10.327,37.084 10.379,37.111 10.365,37.135 10.379,37.174 10.418,37.25 10.445,37.277 10.445,37.305 10.445,37.328 
	10.457,37.355 10.457,37.406 10.468,37.473 10.468,37.498 10.457,37.51 10.457,37.525 10.445,37.576 10.445,37.588 10.457,37.588 
	10.457,37.602 10.445,37.652 10.43,37.682 10.418,37.693 10.392,37.693 10.379,37.719 10.365,37.859 10.342,37.914 10.342,37.941 
	10.327,37.941 10.315,37.941 10.303,37.953 10.288,37.965 10.288,37.979 10.303,37.99 10.303,38.006 10.288,38.045 10.276,38.045 
	10.262,38.045 10.237,38.057 10.223,38.096 10.198,38.135 10.172,38.135 10.172,38.146 10.094,38.328 10.094,38.355 10.094,38.367 
	10.094,38.379 10.107,38.422 10.107,38.434 10.094,38.434 10.08,38.445 10.08,38.459 10.107,38.484 10.12,38.5 10.146,38.5 
	10.198,38.588 10.21,38.627 10.184,38.666 10.172,38.693 10.172,38.705 10.172,38.717 10.198,38.73 10.21,38.744 10.21,38.797 
	10.25,38.836 10.315,38.898 10.365,38.914 10.392,38.938 10.43,38.953 10.445,38.953 10.484,38.953 10.562,38.965 10.574,38.965 
	10.639,38.99 10.652,39.004 10.665,39.041 10.665,39.068 10.652,39.082 10.652,39.092 10.625,39.119 10.549,39.186 10.535,39.197 
	10.522,39.197 10.457,39.225 10.43,39.252 10.405,39.275 10.405,39.289 10.392,39.289 10.365,39.303 10.353,39.303 10.342,39.303 
	10.327,39.303 10.288,39.289 10.262,39.289 10.25,39.289 10.237,39.303 10.223,39.314 10.21,39.314 10.21,39.328 10.198,39.342 
	10.184,39.395 10.159,39.406 10.133,39.445 10.133,39.471 10.133,39.484 10.146,39.521 10.146,39.535 10.12,39.574 10.068,39.613 
	10.054,39.639 10.054,39.666 10.054,39.678 10.054,39.689 10.054,39.705 10.054,39.822 10.054,39.834 9.991,39.898 9.976,39.914 
	9.964,39.926 9.95,39.926 9.937,39.926 9.886,39.939 9.873,39.939 9.783,39.939 9.769,39.939 9.705,39.965 9.691,39.977 
	9.679,40.004 9.666,40.041 9.666,40.066 9.666,40.094 9.666,40.105 9.679,40.119 9.679,40.131 9.691,40.131 9.705,40.145 
	9.745,40.158 9.769,40.158 9.822,40.158 9.834,40.145 9.873,40.131 9.886,40.131 9.937,40.131 9.95,40.131 9.964,40.131 
	9.976,40.131 10.003,40.131 10.03,40.119 10.068,40.105 10.054,40.197 9.705,40.303 9.666,40.303 9.576,40.326 9.576,40.342 
	9.576,40.354 9.471,40.379 9.394,40.393 9.291,40.406 9.134,40.459 9.122,40.459 8.732,40.574 8.718,40.574 8.588,40.613 
	8.498,40.625 8.356,40.641 8.018,40.691 7.563,40.783 7.551,40.783 7.291,40.795 6.851,40.77 6.681,40.77 6.656,40.77 6.397,40.77 
	6.124,40.807 6.02,40.834 5.929,40.834 5.917,40.822 5.956,40.77 6.371,40.717 6.5,40.547 6.59,40.51 6.72,40.574 6.747,40.625 
	6.836,40.678 6.89,40.691 6.993,40.705 7.136,40.691 7.383,40.586 7.434,40.574 7.551,40.586 7.655,40.574 7.68,40.559 7.798,40.51 
	7.81,40.496 7.81,40.484 7.888,40.379 7.888,40.326 7.875,40.289 7.875,40.264 7.759,40.094 7.59,39.99 7.498,39.926 7.356,39.756 
	7.344,39.732 7.305,39.629 7.251,39.574 7.239,39.549 7.175,39.549 7.098,39.51 6.812,39.289 6.786,39.252 6.786,39.197 
	6.747,38.99 6.72,38.859 6.708,38.783 6.681,38.744 6.681,38.73 6.629,38.693 6.617,38.666 6.617,38.654 6.617,38.639 6.669,38.537 
	6.694,38.484 6.708,38.473 6.708,38.459 6.708,38.445 6.72,38.445 6.759,38.355 6.771,38.328 6.786,38.289 6.797,38.289 
	6.812,38.238 6.825,38.213 6.825,38.186 6.836,38.135 6.836,38.121 6.836,38.107 6.836,38.096 6.836,38.08 6.836,38.07 
	6.836,38.057 6.825,38.029 6.825,38.018 6.825,38.006 6.825,37.99 6.812,37.965 6.797,37.953 6.797,37.941 6.786,37.926 
	6.771,37.914 6.759,37.887 6.747,37.836 6.747,37.809 6.771,37.588 6.747,37.498 6.733,37.473 6.72,37.422 6.72,37.406 
	6.644,37.277 6.59,37.238 6.461,37.225 6.421,37.213 6.332,37.135 6.278,37.096 6.215,37.07 6.124,37.031 6.112,37.018 
	6.085,37.018 6.071,37.018 6.059,37.031 5.993,37.096 5.993,37.111 5.956,37.213 5.903,37.266 5.824,37.277 5.773,37.305 
	5.709,37.344 5.709,37.459 5.721,37.553 5.761,37.615 5.747,37.652 5.682,37.809 5.604,37.887 5.54,37.99 5.527,38.018 5.54,38.045 
	5.554,38.158 5.554,38.303 5.5,38.34 5.488,38.34 5.424,38.459 5.397,38.521 5.397,38.588 5.45,38.77 5.424,38.859 5.371,38.926 
	5.397,39.133 5.371,39.549 5.308,39.717 5.242,39.848 5.215,39.873 5.163,40.016 5.02,39.965 4.904,39.977 4.761,40.041 
	4.734,40.004 4.709,39.859 4.734,39.822 4.788,39.809 4.788,39.783 4.722,39.705 4.709,39.666 4.67,39.666 4.567,39.629 
	4.542,39.613 4.488,39.586 4.423,39.562 4.411,39.562 4.269,39.496 4.203,39.496 4.19,39.496 4.164,39.496 4.114,39.496 
	4.073,39.574 4.061,39.602 4.047,39.602 3.904,39.613 3.867,39.602 3.854,39.51 3.763,39.445 3.697,39.434 3.529,39.445 
	3.45,39.471 3.309,39.602 3.283,38.859 3.283,38.744 3.283,38.73 3.268,38.588 3.268,38.484 3.268,38.434 3.256,38.252 
	3.256,38.158 3.256,38.146 3.256,38.121 3.243,37.783 3.243,37.553 3.243,37.51 3.243,37.432 3.23,37.395 3.23,37.135 3.217,36.824 
	3.217,36.771 3.217,36.615 3.204,36.615 3.204,36.578 3.19,36.162 3.178,35.592 3.178,35.578 3.178,35.564 3.178,35.525 
	3.178,35.502 3.165,35.42 3.152,35.021 3.152,34.861 3.14,34.408 3.14,34.396 3.126,34.385 3.114,33.826 3.101,33.697 3.101,33.449 
	3.087,33.217 3.062,32.5 3.062,32.488 3.062,32.357 3.062,32.307 3.062,32.256 3.049,32.102 3.022,31.465 3.01,31.346 3.01,31.152 
	3.01,31.074 2.997,30.916 2.997,30.801 2.983,30.697 2.983,30.607 2.983,30.426 2.971,30.27 2.971,30.23 2.971,30.178 2.971,30.166 
	2.971,30.154 2.971,30.023 2.958,29.75 2.944,29.596 2.944,29.529 2.933,29.27 2.933,29.244 2.933,29.127 2.905,28.713 
	2.905,28.633 "/>
<polyline fill="none" stroke="#404041" stroke-width="0.1" stroke-linecap="round" stroke-linejoin="round" stroke-miterlimit="3.85" points="
	4.774,40.625 4.734,40.625 4.632,40.641 4.125,40.756 3.944,40.77 3.892,40.756 3.904,40.729 3.983,40.744 4.125,40.729 
	4.28,40.678 4.527,40.625 4.892,40.574 4.996,40.574 5.124,40.559 5.189,40.496 5.242,40.406 5.242,40.314 5.514,40.52 
	5.593,40.613 5.593,40.625 5.566,40.641 5.346,40.662 5.267,40.625 5.151,40.6 4.943,40.6 4.774,40.625 "/>
</svg>
