<?xml version="1.0" encoding="utf-8"?>
<!-- Generator: Adobe Illustrator 16.0.0, SVG Export Plug-In . SVG Version: 6.00 Build 0)  -->
<!DOCTYPE svg PUBLIC "-//W3C//DTD SVG 1.1//EN" "http://www.w3.org/Graphics/SVG/1.1/DTD/svg11.dtd">
<svg version="1.1" id="nv" xmlns="http://www.w3.org/2000/svg" xmlns:xlink="http://www.w3.org/1999/xlink" x="0px" y="0px"
	 width="32px" height="32px" viewBox="0 0 32 32" enable-background="new 0 0 32 32" xml:space="preserve">
<linearGradient id="SVGID_1_" gradientUnits="userSpaceOnUse" x1="16.0005" y1="30.3926" x2="16.0005" y2="0.6216">
	<stop  offset="0" style="stop-color:#808080"/>
	<stop  offset="1" style="stop-color:#BFBFBF"/>
</linearGradient>
<polygon display="none" fill="url(#SVGID_1_)" stroke="#404041" stroke-width="0.25" points="6.001,12.619 6.001,12.571 
	6.011,12.404 6.011,12.375 6.011,12.366 6.011,12.355 6.011,12.346 6.011,12.317 6.011,12.277 6.021,12.149 6.021,12.141 
	6.021,12.13 6.021,12.082 6.021,11.994 6.021,11.984 6.03,11.916 6.03,11.729 6.041,11.709 6.05,11.436 6.05,11.387 6.05,11.348 
	6.06,11.191 6.06,11.182 6.07,11.035 6.079,10.868 6.079,10.849 6.089,10.584 6.089,10.458 6.099,10.261 6.099,10.203 6.109,10.017 
	6.109,10.007 6.128,9.713 6.138,9.527 6.138,9.489 6.138,9.4 6.148,9.341 6.148,9.263 6.148,9.195 6.167,8.774 6.167,8.755 
	6.167,8.695 6.178,8.549 6.197,8.04 6.207,7.972 6.207,7.961 6.216,7.717 6.227,7.374 6.246,6.963 6.256,6.62 6.275,6.024 
	6.275,5.906 6.285,5.407 6.294,5.378 6.334,4.057 6.393,2.715 6.403,2.471 6.413,2.217 6.413,2.188 6.432,1.659 6.451,1.131 
	6.471,0.621 6.51,0.621 6.862,0.632 6.872,0.621 6.95,0.632 7.136,0.632 7.341,0.651 8.232,0.68 8.497,0.69 8.604,0.699 8.838,0.71 
	8.897,0.71 8.975,0.72 9.631,0.729 10.277,0.749 10.336,0.758 10.345,0.758 10.59,0.768 10.893,0.758 11.216,0.758 11.48,0.768 
	11.695,0.768 12.175,0.778 12.41,0.778 13.154,0.789 13.192,0.789 13.232,0.789 13.887,0.797 13.965,0.797 13.975,0.797 
	13.985,0.797 14.004,0.797 14.024,0.797 14.092,0.797 14.278,0.797 14.357,0.797 14.562,0.797 14.68,0.797 15.267,0.797 
	15.306,0.797 15.335,0.797 15.433,0.797 15.707,0.797 15.746,0.797 15.786,0.808 15.804,0.808 15.834,0.808 15.873,0.797 
	15.902,0.808 15.932,0.808 16.059,0.808 17.135,0.817 17.145,0.817 17.264,0.817 17.281,0.817 17.458,0.817 17.508,0.817 
	17.536,0.817 17.586,0.817 17.595,0.817 17.654,0.817 17.928,0.817 17.957,0.817 18.064,0.817 18.27,0.817 18.604,0.808 
	18.613,0.808 19.004,0.808 19.024,0.808 19.062,0.808 19.082,0.808 19.161,0.808 19.396,0.797 19.474,0.797 19.503,0.797 
	19.533,0.808 19.973,0.797 20.041,0.797 20.305,0.797 20.324,0.797 20.345,0.797 20.433,0.797 21.136,0.789 21.166,0.789 
	21.204,0.789 21.293,0.789 21.303,0.789 21.479,0.778 21.49,0.789 21.518,0.789 22.165,0.768 22.186,0.768 22.321,0.768 
	22.37,0.758 22.557,0.749 22.605,0.749 22.674,0.739 22.701,0.739 22.752,0.739 22.78,0.739 22.82,0.729 22.889,0.729 22.898,0.729 
	23.172,0.739 23.328,0.749 23.554,0.749 23.867,0.739 23.964,0.739 24.19,0.729 24.55,0.729 25.108,0.71 25.256,0.71 25.296,0.699 
	25.296,0.71 25.313,0.699 25.334,1.169 25.334,1.307 25.354,1.717 25.354,1.727 25.374,2.266 25.364,2.305 25.364,2.314 
	25.374,2.314 25.374,2.657 25.382,2.794 25.382,2.833 25.412,3.988 25.412,4.027 25.422,4.038 25.433,4.429 25.442,4.917 
	25.452,5.163 25.471,5.848 25.471,5.886 25.471,5.936 25.471,5.945 25.471,5.956 25.471,5.994 25.471,6.043 25.471,6.054 
	25.471,6.083 25.471,6.2 25.48,6.494 25.49,7.012 25.49,7.061 25.501,7.335 25.501,7.354 25.501,7.472 25.53,8.177 25.539,8.667 
	25.539,8.676 25.539,8.714 25.539,8.726 25.539,8.745 25.549,8.9 25.549,9.028 25.549,9.146 25.549,9.175 25.559,9.244 
	25.559,9.557 25.569,9.713 25.569,9.918 25.579,9.987 25.579,10.037 25.579,10.066 25.579,10.095 25.579,10.183 25.579,10.203 
	25.609,11.093 25.617,11.279 25.617,11.289 25.627,11.994 25.667,13.374 25.688,13.912 25.688,13.921 25.688,13.931 25.695,14.46 
	25.695,14.548 25.705,14.763 25.716,15.213 25.726,15.312 25.726,15.331 25.726,15.517 25.735,15.918 25.735,15.928 25.754,16.515 
	25.754,16.574 25.766,17.004 25.784,17.641 25.794,17.886 25.804,18.14 25.804,18.21 25.804,18.268 25.804,18.385 25.812,18.442 
	25.812,18.63 25.812,18.668 25.812,18.708 25.812,18.718 25.812,18.807 25.824,19.314 25.824,19.363 25.832,19.618 25.832,19.628 
	25.832,19.687 25.832,19.745 25.832,19.793 25.842,19.871 25.842,20.048 25.853,20.106 25.853,20.304 25.862,20.635 25.862,20.675 
	25.872,20.89 25.883,21.146 25.883,21.252 25.883,21.31 25.883,21.438 25.891,21.487 25.891,21.507 25.902,21.879 25.91,22.056 
	25.921,22.544 25.921,22.643 25.921,22.652 25.921,22.69 25.921,22.721 25.921,22.73 25.94,23.219 25.94,23.338 25.951,23.464 
	25.951,23.484 25.969,23.992 25.98,24.111 25.98,24.129 25.98,24.218 25.98,24.237 25.989,24.453 25.989,24.736 25.989,24.774 
	25.989,24.883 25.989,24.971 25.999,25.05 25.999,25.08 26.009,25.274 26.009,25.295 25.961,25.314 25.94,25.353 25.91,25.401 
	25.872,25.51 25.832,25.608 25.824,25.608 25.794,25.618 25.766,25.637 25.754,25.646 25.754,25.666 25.754,25.677 25.766,25.687 
	25.773,25.696 25.784,25.705 25.784,25.715 25.746,25.813 25.716,25.871 25.705,25.901 25.716,25.92 25.716,25.95 25.705,25.96 
	25.676,26.008 25.667,26.019 25.657,26.028 25.627,26.008 25.617,26.008 25.579,26.008 25.53,26.038 25.452,26.066 25.382,26.066 
	25.374,26.066 25.364,26.066 25.324,26.048 25.313,26.048 25.285,26.028 25.266,26.008 25.256,25.979 25.228,25.939 25.108,25.892 
	25.099,25.882 25.099,25.871 25.099,25.852 25.129,25.833 25.129,25.823 25.119,25.783 25.051,25.696 25.03,25.687 25.021,25.687 
	24.942,25.608 24.934,25.588 24.894,25.54 24.884,25.54 24.876,25.53 24.777,25.52 24.757,25.52 24.737,25.53 24.707,25.568 
	24.641,25.618 24.62,25.598 24.601,25.558 24.582,25.558 24.562,25.558 24.504,25.608 24.472,25.608 24.464,25.608 24.454,25.608 
	24.443,25.608 24.434,25.598 24.434,25.588 24.434,25.568 24.443,25.558 24.443,25.55 24.443,25.54 24.434,25.53 24.413,25.51 
	24.405,25.51 24.317,25.51 24.297,25.51 24.269,25.51 24.249,25.51 24.209,25.52 24.19,25.53 24.12,25.558 24.082,25.598 
	24.054,25.608 24.042,25.598 24.014,25.568 24.004,25.558 23.943,25.608 23.905,25.637 23.897,25.656 23.885,25.666 23.877,25.677 
	23.856,25.677 23.807,25.696 23.769,25.705 23.74,25.715 23.71,25.715 23.652,25.725 23.611,25.765 23.592,25.783 23.584,25.803 
	23.584,25.823 23.584,25.833 23.592,25.833 23.592,25.841 23.611,25.852 23.622,25.871 23.652,25.92 23.652,25.939 23.642,25.96 
	23.642,25.988 23.642,25.998 23.642,26.008 23.662,26.019 23.67,26.038 23.68,26.048 23.67,26.076 23.652,26.106 23.642,26.106 
	23.642,26.116 23.632,26.127 23.632,26.135 23.632,26.145 23.632,26.233 23.642,26.273 23.67,26.312 23.68,26.332 23.69,26.352 
	23.68,26.39 23.68,26.41 23.69,26.42 23.729,26.448 23.759,26.468 23.759,26.509 23.759,26.536 23.789,26.587 23.827,26.615 
	23.856,26.655 23.867,26.673 23.867,26.693 23.867,26.713 23.867,26.724 23.856,26.743 23.818,26.771 23.799,26.781 23.799,26.792 
	23.799,26.812 23.799,26.83 23.807,26.87 23.807,26.891 23.799,26.908 23.789,26.958 23.759,26.969 23.759,26.986 23.807,27.057 
	23.799,27.144 23.818,27.204 23.818,27.242 23.818,27.3 23.789,27.389 23.789,27.408 23.807,27.437 23.827,27.457 23.867,27.487 
	23.877,27.497 23.867,27.525 23.847,27.573 23.847,27.583 23.847,27.613 23.847,27.642 23.897,27.682 23.955,27.78 23.976,27.809 
	23.976,27.869 23.955,27.917 23.936,27.947 23.936,27.955 23.943,28.016 23.955,28.094 23.955,28.112 23.964,28.132 23.976,28.142 
	23.964,28.152 23.955,28.183 23.936,28.19 23.915,28.21 23.905,28.221 23.905,28.23 23.897,28.278 23.897,28.289 23.905,28.329 
	23.915,28.357 23.943,28.426 23.943,28.436 23.943,28.476 23.955,28.494 23.955,28.514 23.964,28.523 23.993,28.572 23.993,28.582 
	24.082,28.66 24.112,28.739 24.141,28.837 24.17,28.896 24.198,29.022 24.198,29.072 24.198,29.141 24.238,29.287 24.249,29.384 
	24.249,29.424 24.269,29.513 24.287,29.522 24.297,29.541 24.297,29.551 24.297,29.57 24.307,29.601 24.307,29.619 24.307,29.669 
	24.307,29.68 24.307,29.707 24.297,29.806 24.277,29.854 24.269,29.854 24.249,29.874 24.209,29.884 24.19,29.884 24.16,29.884 
	24.141,29.884 24.13,29.884 24.12,29.895 24.112,29.895 24.1,29.895 24.1,29.904 24.082,29.914 24.062,29.933 24.062,29.942 
	24.054,29.952 24.042,29.973 24.054,29.993 24.062,29.993 24.082,30.001 24.092,30.001 24.092,30.011 24.13,30.021 24.15,30.041 
	24.16,30.051 24.17,30.051 24.179,30.061 24.19,30.079 24.198,30.1 24.198,30.109 24.198,30.129 24.19,30.149 24.16,30.178 
	24.15,30.178 24.12,30.208 24.1,30.256 24.1,30.286 24.1,30.296 24.092,30.334 24.092,30.354 24.1,30.364 24.1,30.393 
	24.034,30.324 23.943,30.246 23.915,30.228 23.495,29.815 23.485,29.815 23.328,29.669 23.065,29.414 23.005,29.366 22.644,29.022 
	22.458,28.837 22.438,28.817 22.36,28.749 22.281,28.681 22.231,28.633 22.008,28.415 21.842,28.269 21.733,28.162 21.43,27.877 
	21.422,27.869 21.411,27.858 21.381,27.828 21.371,27.818 21.352,27.799 21.04,27.515 20.873,27.358 20.873,27.351 20.863,27.34 
	20.726,27.212 20.609,27.095 20.598,27.095 20.531,27.026 20.452,26.958 20.383,26.891 20.168,26.693 20.148,26.673 20.148,26.665 
	19.904,26.44 19.816,26.352 19.797,26.342 19.678,26.223 19.66,26.205 19.61,26.165 19.434,25.998 19.376,25.95 19.318,25.892 
	19.111,25.696 19.033,25.618 18.984,25.568 18.965,25.558 18.936,25.52 18.65,25.255 18.584,25.196 18.436,25.06 18.153,24.784 
	18.006,24.657 17.997,24.647 17.623,24.286 17.586,24.248 17.438,24.119 16.861,23.581 16.128,22.877 15.873,22.643 15.648,22.438 
	15.433,22.223 15.316,22.114 15.052,21.868 14.983,21.801 14.914,21.742 14.611,21.448 14.19,21.057 14.054,20.931 13.917,20.802 
	13.584,20.48 13.476,20.392 13.075,20.01 12.968,19.892 12.928,19.863 12.84,19.785 12.596,19.56 12.391,19.354 12.341,19.314 
	11.686,18.698 11.099,18.149 10.991,18.043 10.864,17.916 10.629,17.699 10.462,17.542 10.159,17.248 10.052,17.152 9.973,17.082 
	9.886,16.995 9.827,16.946 9.68,16.808 9.475,16.613 9.387,16.524 9.22,16.378 9.123,16.28 8.956,16.124 8.907,16.075 8.81,15.987 
	8.721,15.898 8.711,15.889 8.457,15.653 8.408,15.605 8.311,15.517 8.154,15.37 8.154,15.36 8.144,15.36 8.134,15.351 8.017,15.243 
	7.997,15.224 7.763,14.998 7.616,14.861 7.44,14.694 7.321,14.587 7.321,14.578 7.312,14.578 7.097,14.372 6.97,14.255 
	6.784,14.068 6.696,14 6.491,13.804 6.305,13.628 6.294,13.619 6.265,13.588 6.187,13.51 6.178,13.51 6.178,13.501 6.167,13.491 
	6.148,13.481 6.148,13.472 6.099,13.432 6.099,13.422 6.021,13.354 5.992,13.324 5.992,13.295 5.992,13.168 5.992,13.031 
	6.001,12.845 6.001,12.757 "/>
<g>
	<polygon fill="#FFFFFF" points="6.001,12.619 6.001,12.571 6.011,12.404 6.011,12.375 6.011,12.366 6.011,12.355 6.011,12.346 
		6.011,12.317 6.011,12.277 6.021,12.149 6.021,12.141 6.021,12.13 6.021,12.082 6.021,11.994 6.021,11.984 6.03,11.916 
		6.03,11.729 6.041,11.709 6.05,11.436 6.05,11.387 6.05,11.348 6.06,11.191 6.06,11.182 6.07,11.035 6.079,10.868 6.079,10.849 
		6.089,10.584 6.089,10.458 6.099,10.261 6.099,10.203 6.109,10.017 6.109,10.007 6.128,9.713 6.138,9.527 6.138,9.489 6.138,9.4 
		6.148,9.341 6.148,9.263 6.148,9.195 6.167,8.774 6.167,8.755 6.167,8.695 6.178,8.549 6.197,8.04 6.207,7.972 6.207,7.961 
		6.216,7.717 6.227,7.374 6.246,6.963 6.256,6.62 6.275,6.024 6.275,5.906 6.285,5.407 6.294,5.378 6.334,4.057 6.393,2.715 
		6.403,2.471 6.413,2.217 6.413,2.188 6.432,1.659 6.451,1.131 6.471,0.621 6.51,0.621 6.862,0.632 6.872,0.621 6.95,0.632 
		7.136,0.632 7.341,0.651 8.232,0.68 8.497,0.69 8.604,0.699 8.838,0.71 8.897,0.71 8.975,0.72 9.631,0.729 10.277,0.749 
		10.336,0.758 10.345,0.758 10.59,0.768 10.893,0.758 11.216,0.758 11.48,0.768 11.695,0.768 12.175,0.778 12.41,0.778 
		13.154,0.789 13.192,0.789 13.232,0.789 13.887,0.797 13.965,0.797 13.975,0.797 13.985,0.797 14.004,0.797 14.024,0.797 
		14.092,0.797 14.278,0.797 14.357,0.797 14.562,0.797 14.68,0.797 15.267,0.797 15.306,0.797 15.335,0.797 15.433,0.797 
		15.707,0.797 15.746,0.797 15.786,0.808 15.804,0.808 15.834,0.808 15.873,0.797 15.902,0.808 15.932,0.808 16.059,0.808 
		17.135,0.817 17.145,0.817 17.264,0.817 17.281,0.817 17.458,0.817 17.508,0.817 17.536,0.817 17.586,0.817 17.595,0.817 
		17.654,0.817 17.928,0.817 17.957,0.817 18.064,0.817 18.27,0.817 18.604,0.808 18.613,0.808 19.004,0.808 19.024,0.808 
		19.062,0.808 19.082,0.808 19.161,0.808 19.396,0.797 19.474,0.797 19.503,0.797 19.533,0.808 19.973,0.797 20.041,0.797 
		20.305,0.797 20.324,0.797 20.345,0.797 20.433,0.797 21.136,0.789 21.166,0.789 21.204,0.789 21.293,0.789 21.303,0.789 
		21.479,0.778 21.49,0.789 21.518,0.789 22.165,0.768 22.186,0.768 22.321,0.768 22.37,0.758 22.557,0.749 22.605,0.749 
		22.674,0.739 22.701,0.739 22.752,0.739 22.78,0.739 22.82,0.729 22.889,0.729 22.898,0.729 23.172,0.739 23.328,0.749 
		23.554,0.749 23.867,0.739 23.964,0.739 24.19,0.729 24.55,0.729 25.108,0.71 25.256,0.71 25.296,0.699 25.296,0.71 25.313,0.699 
		25.334,1.169 25.334,1.307 25.354,1.717 25.354,1.727 25.374,2.266 25.364,2.305 25.364,2.314 25.374,2.314 25.374,2.657 
		25.382,2.794 25.382,2.833 25.412,3.988 25.412,4.027 25.422,4.038 25.433,4.429 25.442,4.917 25.452,5.163 25.471,5.848 
		25.471,5.886 25.471,5.936 25.471,5.945 25.471,5.956 25.471,5.994 25.471,6.043 25.471,6.054 25.471,6.083 25.471,6.2 
		25.48,6.494 25.49,7.012 25.49,7.061 25.501,7.335 25.501,7.354 25.501,7.472 25.53,8.177 25.539,8.667 25.539,8.676 25.539,8.714 
		25.539,8.726 25.539,8.745 25.549,8.9 25.549,9.028 25.549,9.146 25.549,9.175 25.559,9.244 25.559,9.557 25.569,9.713 
		25.569,9.918 25.579,9.987 25.579,10.037 25.579,10.066 25.579,10.095 25.579,10.183 25.579,10.203 25.609,11.093 25.617,11.279 
		25.617,11.289 25.627,11.994 25.667,13.374 25.688,13.912 25.688,13.921 25.688,13.931 25.695,14.46 25.695,14.548 25.705,14.763 
		25.716,15.213 25.726,15.312 25.726,15.331 25.726,15.517 25.735,15.918 25.735,15.928 25.754,16.515 25.754,16.574 25.766,17.004 
		25.784,17.641 25.794,17.886 25.804,18.14 25.804,18.21 25.804,18.268 25.804,18.385 25.812,18.442 25.812,18.63 25.812,18.668 
		25.812,18.708 25.812,18.718 25.812,18.807 25.824,19.314 25.824,19.363 25.832,19.618 25.832,19.628 25.832,19.687 25.832,19.745 
		25.832,19.793 25.842,19.871 25.842,20.048 25.853,20.106 25.853,20.304 25.862,20.635 25.862,20.675 25.872,20.89 25.883,21.146 
		25.883,21.252 25.883,21.31 25.883,21.438 25.891,21.487 25.891,21.507 25.902,21.879 25.91,22.056 25.921,22.544 25.921,22.643 
		25.921,22.652 25.921,22.69 25.921,22.721 25.921,22.73 25.94,23.219 25.94,23.338 25.951,23.464 25.951,23.484 25.969,23.992 
		25.98,24.111 25.98,24.129 25.98,24.218 25.98,24.237 25.989,24.453 25.989,24.736 25.989,24.774 25.989,24.883 25.989,24.971 
		25.999,25.05 25.999,25.08 26.009,25.274 26.009,25.295 25.961,25.314 25.94,25.353 25.91,25.401 25.872,25.51 25.832,25.608 
		25.824,25.608 25.794,25.618 25.766,25.637 25.754,25.646 25.754,25.666 25.754,25.677 25.766,25.687 25.773,25.696 25.784,25.705 
		25.784,25.715 25.746,25.813 25.716,25.871 25.705,25.901 25.716,25.92 25.716,25.95 25.705,25.96 25.676,26.008 25.667,26.019 
		25.657,26.028 25.627,26.008 25.617,26.008 25.579,26.008 25.53,26.038 25.452,26.066 25.382,26.066 25.374,26.066 25.364,26.066 
		25.324,26.048 25.313,26.048 25.285,26.028 25.266,26.008 25.256,25.979 25.228,25.939 25.108,25.892 25.099,25.882 25.099,25.871 
		25.099,25.852 25.129,25.833 25.129,25.823 25.119,25.783 25.051,25.696 25.03,25.687 25.021,25.687 24.942,25.608 24.934,25.588 
		24.894,25.54 24.884,25.54 24.876,25.53 24.777,25.52 24.757,25.52 24.737,25.53 24.707,25.568 24.641,25.618 24.62,25.598 
		24.601,25.558 24.582,25.558 24.562,25.558 24.504,25.608 24.472,25.608 24.464,25.608 24.454,25.608 24.443,25.608 24.434,25.598 
		24.434,25.588 24.434,25.568 24.443,25.558 24.443,25.55 24.443,25.54 24.434,25.53 24.413,25.51 24.405,25.51 24.317,25.51 
		24.297,25.51 24.269,25.51 24.249,25.51 24.209,25.52 24.19,25.53 24.12,25.558 24.082,25.598 24.054,25.608 24.042,25.598 
		24.014,25.568 24.004,25.558 23.943,25.608 23.905,25.637 23.897,25.656 23.885,25.666 23.877,25.677 23.856,25.677 23.807,25.696 
		23.769,25.705 23.74,25.715 23.71,25.715 23.652,25.725 23.611,25.765 23.592,25.783 23.584,25.803 23.584,25.823 23.584,25.833 
		23.592,25.833 23.592,25.841 23.611,25.852 23.622,25.871 23.652,25.92 23.652,25.939 23.642,25.96 23.642,25.988 23.642,25.998 
		23.642,26.008 23.662,26.019 23.67,26.038 23.68,26.048 23.67,26.076 23.652,26.106 23.642,26.106 23.642,26.116 23.632,26.127 
		23.632,26.135 23.632,26.145 23.632,26.233 23.642,26.273 23.67,26.312 23.68,26.332 23.69,26.352 23.68,26.39 23.68,26.41 
		23.69,26.42 23.729,26.448 23.759,26.468 23.759,26.509 23.759,26.536 23.789,26.587 23.827,26.615 23.856,26.655 23.867,26.673 
		23.867,26.693 23.867,26.713 23.867,26.724 23.856,26.743 23.818,26.771 23.799,26.781 23.799,26.792 23.799,26.812 23.799,26.83 
		23.807,26.87 23.807,26.891 23.799,26.908 23.789,26.958 23.759,26.969 23.759,26.986 23.807,27.057 23.799,27.144 23.818,27.204 
		23.818,27.242 23.818,27.3 23.789,27.389 23.789,27.408 23.807,27.437 23.827,27.457 23.867,27.487 23.877,27.497 23.867,27.525 
		23.847,27.573 23.847,27.583 23.847,27.613 23.847,27.642 23.897,27.682 23.955,27.78 23.976,27.809 23.976,27.869 23.955,27.917 
		23.936,27.947 23.936,27.955 23.943,28.016 23.955,28.094 23.955,28.112 23.964,28.132 23.976,28.142 23.964,28.152 23.955,28.183 
		23.936,28.19 23.915,28.21 23.905,28.221 23.905,28.23 23.897,28.278 23.897,28.289 23.905,28.329 23.915,28.357 23.943,28.426 
		23.943,28.436 23.943,28.476 23.955,28.494 23.955,28.514 23.964,28.523 23.993,28.572 23.993,28.582 24.082,28.66 24.112,28.739 
		24.141,28.837 24.17,28.896 24.198,29.022 24.198,29.072 24.198,29.141 24.238,29.287 24.249,29.384 24.249,29.424 24.269,29.513 
		24.287,29.522 24.297,29.541 24.297,29.551 24.297,29.57 24.307,29.601 24.307,29.619 24.307,29.669 24.307,29.68 24.307,29.707 
		24.297,29.806 24.277,29.854 24.269,29.854 24.249,29.874 24.209,29.884 24.19,29.884 24.16,29.884 24.141,29.884 24.13,29.884 
		24.12,29.895 24.112,29.895 24.1,29.895 24.1,29.904 24.082,29.914 24.062,29.933 24.062,29.942 24.054,29.952 24.042,29.973 
		24.054,29.993 24.062,29.993 24.082,30.001 24.092,30.001 24.092,30.011 24.13,30.021 24.15,30.041 24.16,30.051 24.17,30.051 
		24.179,30.061 24.19,30.079 24.198,30.1 24.198,30.109 24.198,30.129 24.19,30.149 24.16,30.178 24.15,30.178 24.12,30.208 
		24.1,30.256 24.1,30.286 24.1,30.296 24.092,30.334 24.092,30.354 24.1,30.364 24.1,30.393 24.034,30.324 23.943,30.246 
		23.915,30.228 23.495,29.815 23.485,29.815 23.328,29.669 23.065,29.414 23.005,29.366 22.644,29.022 22.458,28.837 22.438,28.817 
		22.36,28.749 22.281,28.681 22.231,28.633 22.008,28.415 21.842,28.269 21.733,28.162 21.43,27.877 21.422,27.869 21.411,27.858 
		21.381,27.828 21.371,27.818 21.352,27.799 21.04,27.515 20.873,27.358 20.873,27.351 20.863,27.34 20.726,27.212 20.609,27.095 
		20.598,27.095 20.531,27.026 20.452,26.958 20.383,26.891 20.168,26.693 20.148,26.673 20.148,26.665 19.904,26.44 19.816,26.352 
		19.797,26.342 19.678,26.223 19.66,26.205 19.61,26.165 19.434,25.998 19.376,25.95 19.318,25.892 19.111,25.696 19.033,25.618 
		18.984,25.568 18.965,25.558 18.936,25.52 18.65,25.255 18.584,25.196 18.436,25.06 18.153,24.784 18.006,24.657 17.997,24.647 
		17.623,24.286 17.586,24.248 17.438,24.119 16.861,23.581 16.128,22.877 15.873,22.643 15.648,22.438 15.433,22.223 15.316,22.114 
		15.052,21.868 14.983,21.801 14.914,21.742 14.611,21.448 14.19,21.057 14.054,20.931 13.917,20.802 13.584,20.48 13.476,20.392 
		13.075,20.01 12.968,19.892 12.928,19.863 12.84,19.785 12.596,19.56 12.391,19.354 12.341,19.314 11.686,18.698 11.099,18.149 
		10.991,18.043 10.864,17.916 10.629,17.699 10.462,17.542 10.159,17.248 10.052,17.152 9.973,17.082 9.886,16.995 9.827,16.946 
		9.68,16.808 9.475,16.613 9.387,16.524 9.22,16.378 9.123,16.28 8.956,16.124 8.907,16.075 8.81,15.987 8.721,15.898 8.711,15.889 
		8.457,15.653 8.408,15.605 8.311,15.517 8.154,15.37 8.154,15.36 8.144,15.36 8.134,15.351 8.017,15.243 7.997,15.224 
		7.763,14.998 7.616,14.861 7.44,14.694 7.321,14.587 7.321,14.578 7.312,14.578 7.097,14.372 6.97,14.255 6.784,14.068 6.696,14 
		6.491,13.804 6.305,13.628 6.294,13.619 6.265,13.588 6.187,13.51 6.178,13.51 6.178,13.501 6.167,13.491 6.148,13.481 
		6.148,13.472 6.099,13.432 6.099,13.422 6.021,13.354 5.992,13.324 5.992,13.295 5.992,13.168 5.992,13.031 6.001,12.845 
		6.001,12.757 	"/>
	<polygon fill="none" stroke="#D0D2D3" stroke-width="0.15" points="6.001,12.619 6.001,12.571 6.011,12.404 6.011,12.375 
		6.011,12.366 6.011,12.355 6.011,12.346 6.011,12.317 6.011,12.277 6.021,12.149 6.021,12.141 6.021,12.13 6.021,12.082 
		6.021,11.994 6.021,11.984 6.03,11.916 6.03,11.729 6.041,11.709 6.05,11.436 6.05,11.387 6.05,11.348 6.06,11.191 6.06,11.182 
		6.07,11.035 6.079,10.868 6.079,10.849 6.089,10.584 6.089,10.458 6.099,10.261 6.099,10.203 6.109,10.017 6.109,10.007 
		6.128,9.713 6.138,9.527 6.138,9.489 6.138,9.4 6.148,9.341 6.148,9.263 6.148,9.195 6.167,8.774 6.167,8.755 6.167,8.695 
		6.178,8.549 6.197,8.04 6.207,7.972 6.207,7.961 6.216,7.717 6.227,7.374 6.246,6.963 6.256,6.62 6.275,6.024 6.275,5.906 
		6.285,5.407 6.294,5.378 6.334,4.057 6.393,2.715 6.403,2.471 6.413,2.217 6.413,2.188 6.432,1.659 6.451,1.131 6.471,0.621 
		6.51,0.621 6.862,0.632 6.872,0.621 6.95,0.632 7.136,0.632 7.341,0.651 8.232,0.68 8.497,0.69 8.604,0.699 8.838,0.71 8.897,0.71 
		8.975,0.72 9.631,0.729 10.277,0.749 10.336,0.758 10.345,0.758 10.59,0.768 10.893,0.758 11.216,0.758 11.48,0.768 11.695,0.768 
		12.175,0.778 12.41,0.778 13.154,0.789 13.192,0.789 13.232,0.789 13.887,0.797 13.965,0.797 13.975,0.797 13.985,0.797 
		14.004,0.797 14.024,0.797 14.092,0.797 14.278,0.797 14.357,0.797 14.562,0.797 14.68,0.797 15.267,0.797 15.306,0.797 
		15.335,0.797 15.433,0.797 15.707,0.797 15.746,0.797 15.786,0.808 15.804,0.808 15.834,0.808 15.873,0.797 15.902,0.808 
		15.932,0.808 16.059,0.808 17.135,0.817 17.145,0.817 17.264,0.817 17.281,0.817 17.458,0.817 17.508,0.817 17.536,0.817 
		17.586,0.817 17.595,0.817 17.654,0.817 17.928,0.817 17.957,0.817 18.064,0.817 18.27,0.817 18.604,0.808 18.613,0.808 
		19.004,0.808 19.024,0.808 19.062,0.808 19.082,0.808 19.161,0.808 19.396,0.797 19.474,0.797 19.503,0.797 19.533,0.808 
		19.973,0.797 20.041,0.797 20.305,0.797 20.324,0.797 20.345,0.797 20.433,0.797 21.136,0.789 21.166,0.789 21.204,0.789 
		21.293,0.789 21.303,0.789 21.479,0.778 21.49,0.789 21.518,0.789 22.165,0.768 22.186,0.768 22.321,0.768 22.37,0.758 
		22.557,0.749 22.605,0.749 22.674,0.739 22.701,0.739 22.752,0.739 22.78,0.739 22.82,0.729 22.889,0.729 22.898,0.729 
		23.172,0.739 23.328,0.749 23.554,0.749 23.867,0.739 23.964,0.739 24.19,0.729 24.55,0.729 25.108,0.71 25.256,0.71 25.296,0.699 
		25.296,0.71 25.313,0.699 25.334,1.169 25.334,1.307 25.354,1.717 25.354,1.727 25.374,2.266 25.364,2.305 25.364,2.314 
		25.374,2.314 25.374,2.657 25.382,2.794 25.382,2.833 25.412,3.988 25.412,4.027 25.422,4.038 25.433,4.429 25.442,4.917 
		25.452,5.163 25.471,5.848 25.471,5.886 25.471,5.936 25.471,5.945 25.471,5.956 25.471,5.994 25.471,6.043 25.471,6.054 
		25.471,6.083 25.471,6.2 25.48,6.494 25.49,7.012 25.49,7.061 25.501,7.335 25.501,7.354 25.501,7.472 25.53,8.177 25.539,8.667 
		25.539,8.676 25.539,8.714 25.539,8.726 25.539,8.745 25.549,8.9 25.549,9.028 25.549,9.146 25.549,9.175 25.559,9.244 
		25.559,9.557 25.569,9.713 25.569,9.918 25.579,9.987 25.579,10.037 25.579,10.066 25.579,10.095 25.579,10.183 25.579,10.203 
		25.609,11.093 25.617,11.279 25.617,11.289 25.627,11.994 25.667,13.374 25.688,13.912 25.688,13.921 25.688,13.931 25.695,14.46 
		25.695,14.548 25.705,14.763 25.716,15.213 25.726,15.312 25.726,15.331 25.726,15.517 25.735,15.918 25.735,15.928 25.754,16.515 
		25.754,16.574 25.766,17.004 25.784,17.641 25.794,17.886 25.804,18.14 25.804,18.21 25.804,18.268 25.804,18.385 25.812,18.442 
		25.812,18.63 25.812,18.668 25.812,18.708 25.812,18.718 25.812,18.807 25.824,19.314 25.824,19.363 25.832,19.618 25.832,19.628 
		25.832,19.687 25.832,19.745 25.832,19.793 25.842,19.871 25.842,20.048 25.853,20.106 25.853,20.304 25.862,20.635 25.862,20.675 
		25.872,20.89 25.883,21.146 25.883,21.252 25.883,21.31 25.883,21.438 25.891,21.487 25.891,21.507 25.902,21.879 25.91,22.056 
		25.921,22.544 25.921,22.643 25.921,22.652 25.921,22.69 25.921,22.721 25.921,22.73 25.94,23.219 25.94,23.338 25.951,23.464 
		25.951,23.484 25.969,23.992 25.98,24.111 25.98,24.129 25.98,24.218 25.98,24.237 25.989,24.453 25.989,24.736 25.989,24.774 
		25.989,24.883 25.989,24.971 25.999,25.05 25.999,25.08 26.009,25.274 26.009,25.295 25.961,25.314 25.94,25.353 25.91,25.401 
		25.872,25.51 25.832,25.608 25.824,25.608 25.794,25.618 25.766,25.637 25.754,25.646 25.754,25.666 25.754,25.677 25.766,25.687 
		25.773,25.696 25.784,25.705 25.784,25.715 25.746,25.813 25.716,25.871 25.705,25.901 25.716,25.92 25.716,25.95 25.705,25.96 
		25.676,26.008 25.667,26.019 25.657,26.028 25.627,26.008 25.617,26.008 25.579,26.008 25.53,26.038 25.452,26.066 25.382,26.066 
		25.374,26.066 25.364,26.066 25.324,26.048 25.313,26.048 25.285,26.028 25.266,26.008 25.256,25.979 25.228,25.939 25.108,25.892 
		25.099,25.882 25.099,25.871 25.099,25.852 25.129,25.833 25.129,25.823 25.119,25.783 25.051,25.696 25.03,25.687 25.021,25.687 
		24.942,25.608 24.934,25.588 24.894,25.54 24.884,25.54 24.876,25.53 24.777,25.52 24.757,25.52 24.737,25.53 24.707,25.568 
		24.641,25.618 24.62,25.598 24.601,25.558 24.582,25.558 24.562,25.558 24.504,25.608 24.472,25.608 24.464,25.608 24.454,25.608 
		24.443,25.608 24.434,25.598 24.434,25.588 24.434,25.568 24.443,25.558 24.443,25.55 24.443,25.54 24.434,25.53 24.413,25.51 
		24.405,25.51 24.317,25.51 24.297,25.51 24.269,25.51 24.249,25.51 24.209,25.52 24.19,25.53 24.12,25.558 24.082,25.598 
		24.054,25.608 24.042,25.598 24.014,25.568 24.004,25.558 23.943,25.608 23.905,25.637 23.897,25.656 23.885,25.666 23.877,25.677 
		23.856,25.677 23.807,25.696 23.769,25.705 23.74,25.715 23.71,25.715 23.652,25.725 23.611,25.765 23.592,25.783 23.584,25.803 
		23.584,25.823 23.584,25.833 23.592,25.833 23.592,25.841 23.611,25.852 23.622,25.871 23.652,25.92 23.652,25.939 23.642,25.96 
		23.642,25.988 23.642,25.998 23.642,26.008 23.662,26.019 23.67,26.038 23.68,26.048 23.67,26.076 23.652,26.106 23.642,26.106 
		23.642,26.116 23.632,26.127 23.632,26.135 23.632,26.145 23.632,26.233 23.642,26.273 23.67,26.312 23.68,26.332 23.69,26.352 
		23.68,26.39 23.68,26.41 23.69,26.42 23.729,26.448 23.759,26.468 23.759,26.509 23.759,26.536 23.789,26.587 23.827,26.615 
		23.856,26.655 23.867,26.673 23.867,26.693 23.867,26.713 23.867,26.724 23.856,26.743 23.818,26.771 23.799,26.781 23.799,26.792 
		23.799,26.812 23.799,26.83 23.807,26.87 23.807,26.891 23.799,26.908 23.789,26.958 23.759,26.969 23.759,26.986 23.807,27.057 
		23.799,27.144 23.818,27.204 23.818,27.242 23.818,27.3 23.789,27.389 23.789,27.408 23.807,27.437 23.827,27.457 23.867,27.487 
		23.877,27.497 23.867,27.525 23.847,27.573 23.847,27.583 23.847,27.613 23.847,27.642 23.897,27.682 23.955,27.78 23.976,27.809 
		23.976,27.869 23.955,27.917 23.936,27.947 23.936,27.955 23.943,28.016 23.955,28.094 23.955,28.112 23.964,28.132 23.976,28.142 
		23.964,28.152 23.955,28.183 23.936,28.19 23.915,28.21 23.905,28.221 23.905,28.23 23.897,28.278 23.897,28.289 23.905,28.329 
		23.915,28.357 23.943,28.426 23.943,28.436 23.943,28.476 23.955,28.494 23.955,28.514 23.964,28.523 23.993,28.572 23.993,28.582 
		24.082,28.66 24.112,28.739 24.141,28.837 24.17,28.896 24.198,29.022 24.198,29.072 24.198,29.141 24.238,29.287 24.249,29.384 
		24.249,29.424 24.269,29.513 24.287,29.522 24.297,29.541 24.297,29.551 24.297,29.57 24.307,29.601 24.307,29.619 24.307,29.669 
		24.307,29.68 24.307,29.707 24.297,29.806 24.277,29.854 24.269,29.854 24.249,29.874 24.209,29.884 24.19,29.884 24.16,29.884 
		24.141,29.884 24.13,29.884 24.12,29.895 24.112,29.895 24.1,29.895 24.1,29.904 24.082,29.914 24.062,29.933 24.062,29.942 
		24.054,29.952 24.042,29.973 24.054,29.993 24.062,29.993 24.082,30.001 24.092,30.001 24.092,30.011 24.13,30.021 24.15,30.041 
		24.16,30.051 24.17,30.051 24.179,30.061 24.19,30.079 24.198,30.1 24.198,30.109 24.198,30.129 24.19,30.149 24.16,30.178 
		24.15,30.178 24.12,30.208 24.1,30.256 24.1,30.286 24.1,30.296 24.092,30.334 24.092,30.354 24.1,30.364 24.1,30.393 
		24.034,30.324 23.943,30.246 23.915,30.228 23.495,29.815 23.485,29.815 23.328,29.669 23.065,29.414 23.005,29.366 22.644,29.022 
		22.458,28.837 22.438,28.817 22.36,28.749 22.281,28.681 22.231,28.633 22.008,28.415 21.842,28.269 21.733,28.162 21.43,27.877 
		21.422,27.869 21.411,27.858 21.381,27.828 21.371,27.818 21.352,27.799 21.04,27.515 20.873,27.358 20.873,27.351 20.863,27.34 
		20.726,27.212 20.609,27.095 20.598,27.095 20.531,27.026 20.452,26.958 20.383,26.891 20.168,26.693 20.148,26.673 20.148,26.665 
		19.904,26.44 19.816,26.352 19.797,26.342 19.678,26.223 19.66,26.205 19.61,26.165 19.434,25.998 19.376,25.95 19.318,25.892 
		19.111,25.696 19.033,25.618 18.984,25.568 18.965,25.558 18.936,25.52 18.65,25.255 18.584,25.196 18.436,25.06 18.153,24.784 
		18.006,24.657 17.997,24.647 17.623,24.286 17.586,24.248 17.438,24.119 16.861,23.581 16.128,22.877 15.873,22.643 15.648,22.438 
		15.433,22.223 15.316,22.114 15.052,21.868 14.983,21.801 14.914,21.742 14.611,21.448 14.19,21.057 14.054,20.931 13.917,20.802 
		13.584,20.48 13.476,20.392 13.075,20.01 12.968,19.892 12.928,19.863 12.84,19.785 12.596,19.56 12.391,19.354 12.341,19.314 
		11.686,18.698 11.099,18.149 10.991,18.043 10.864,17.916 10.629,17.699 10.462,17.542 10.159,17.248 10.052,17.152 9.973,17.082 
		9.886,16.995 9.827,16.946 9.68,16.808 9.475,16.613 9.387,16.524 9.22,16.378 9.123,16.28 8.956,16.124 8.907,16.075 8.81,15.987 
		8.721,15.898 8.711,15.889 8.457,15.653 8.408,15.605 8.311,15.517 8.154,15.37 8.154,15.36 8.144,15.36 8.134,15.351 
		8.017,15.243 7.997,15.224 7.763,14.998 7.616,14.861 7.44,14.694 7.321,14.587 7.321,14.578 7.312,14.578 7.097,14.372 
		6.97,14.255 6.784,14.068 6.696,14 6.491,13.804 6.305,13.628 6.294,13.619 6.265,13.588 6.187,13.51 6.178,13.51 6.178,13.501 
		6.167,13.491 6.148,13.481 6.148,13.472 6.099,13.432 6.099,13.422 6.021,13.354 5.992,13.324 5.992,13.295 5.992,13.168 
		5.992,13.031 6.001,12.845 6.001,12.757 	"/>
</g>
</svg>
