<?xml version="1.0" encoding="utf-8"?>
<!-- Generator: Adobe Illustrator 16.0.0, SVG Export Plug-In . SVG Version: 6.00 Build 0)  -->
<!DOCTYPE svg PUBLIC "-//W3C//DTD SVG 1.1//EN" "http://www.w3.org/Graphics/SVG/1.1/DTD/svg11.dtd">
<svg version="1.1" id="oh" xmlns="http://www.w3.org/2000/svg" xmlns:xlink="http://www.w3.org/1999/xlink" x="0px" y="0px"
	 width="32px" height="32px" viewBox="0 0 32 32" enable-background="new 0 0 32 32" xml:space="preserve">
<g>
	<path fill="#FFFFFF" d="M3.21,22.068v-0.034l0.012-0.321l0.011-0.343l0.023-0.332l0.011-0.367v-0.01v-0.116l0.012-0.136v-0.012
		v-0.079v-0.218l0.012-0.127v-0.012v-0.011v-0.013v-0.033v-0.012v-0.159v-0.013l0.011-0.274l0.012-0.079v-0.023v-0.091V19.23v-0.103
		v-0.092l0.012-0.377l0.011-0.138v-0.333v-0.011l0.012-0.114v-0.092v-0.023v-0.079v-0.023v-0.01l0.011-0.014v-0.033V17.72v-0.057
		v-0.011V17.64l0.012-0.16v-0.148V17.32l0.012-0.081v-0.114V17.08v-0.046l0.011-0.366v-0.012l0.012-0.171v-0.081l0.011-0.114v-0.113
		l0.011-0.127l0.013-0.354v-0.114l0.011-0.16v-0.012l0.023-0.412v-0.091v-0.011l0.01-0.046v-0.022v-0.011v-0.058v-0.011v-0.104
		l0.023-0.353l0.011-0.287v-0.057l0.012-0.344v-0.241v-0.125v-0.046v-0.057v-0.011l0.011-0.046v-0.252l0.012-0.114v-0.022v-0.012
		v-0.057l0.011-0.092v-0.137v-0.058l0.011-0.149v-0.206l0.012-0.16v-0.194L3.6,11.268v-0.034v-0.092v-0.034l0.011-0.115v-0.113
		v-0.023v-0.091v-0.127l0.012-0.079v-0.115V10.41V10.26v-0.045l0.011-0.103V9.975V9.86V9.757V9.7l0.023-0.549v-0.16l0.011-0.538
		V8.282l0.012-0.549l0.012-0.091V7.584V7.377V7.309V7.229l0.011-0.114V7.058V7.034V6.966V6.954V6.862l0.023-0.537V6.165L3.736,5.73
		V5.615V5.478l0.012-0.091V5.055V5.032l0.011-0.114V4.837V4.769V4.597l0.012-0.182V4.311V4.209V4.071V3.979l0.011-0.355V3.407V3.373
		V3.351l0.011-0.092V3.247V3.076V2.904V2.789l0.012-0.056l0.332-0.012h0.023h0.229h0.114h0.125h0.584h0.263h0.103L5.807,2.71H5.92
		h0.115h0.229h0.022h0.217L7.03,2.698h0.264h0.057h0.057h0.057L7.82,2.687h0.149h0.023l0.125-0.012l0.514-0.012H8.7h0.24l0.355-0.01
		H9.41h0.137h0.045l0.24-0.012h0.183h0.115l0.115-0.012h0.126h0.01h0.047h0.022h0.068l0.08-0.011h0.115h0.102h0.023h0.034h0.023
		h0.035l0.034-0.013h0.058h0.023h0.034h0.069h0.057h0.114l0.114-0.011h0.104h0.01h0.047h0.103h0.023h0.012h0.034h0.023h0.045h0.012
		h0.011l0.068-0.011h0.013h0.068l-0.012,0.045l0.023,0.115l0.012,0.011v0.012l0.022,0.035l0.09,0.056l0.127,0.069h0.103l0.103,0.034
		h0.045h0.069l0.022-0.023l0.069-0.022l0.023-0.046V2.835l0.069,0.011l0.022,0.023l0.172,0.149l0.023,0.034l0.034,0.023l0.034,0.011
		l0.241,0.171h0.01l0.023,0.045l0.011,0.012l0.012,0.011l0.206,0.103l0.183,0.058l0.115,0.046l0.125,0.022l0.126,0.012l0.102,0.057
		h0.012l0.011,0.012l0.104,0.08l0.011,0.012l0.023,0.034l0.01,0.023l0.023,0.045l0.035,0.057h0.012l0.022,0.047l0.011,0.011v0.012
		l0.069,0.069l0.011,0.022h0.011l0.047,0.034l0.114,0.103L14.923,4.3l0.046,0.011l0.137,0.058L15.14,4.38l0.149-0.023l0.079-0.011
		l0.058-0.034l0.068-0.045l0.012-0.012l0.035-0.034l0.069-0.115l0.011-0.091V3.979l-0.023-0.103l0.046-0.057l0.023-0.012
		l0.069-0.012l0.022-0.011l0.08,0.137l0.035,0.047v0.011h0.011l0.115,0.149l0.045,0.045h0.081l0.137-0.045h0.035h0.023l0.137,0.034
		l0.045,0.047v0.068l-0.069,0.091V4.38l0.012,0.035l0.033,0.068l0.023,0.035l0.093,0.034l0.045,0.011l0.183,0.251l0.206,0.195
		l0.034,0.045v0.012l0.012,0.011l0.045,0.034l0.104,0.069l0.047,0.023l0.125,0.092l0.035,0.012l0.011,0.011l0.034,0.011l0.08,0.047
		l0.069,0.034l0.046,0.011l0.011,0.012l0.022,0.011l0.08,0.012v0.011h0.114l0.08-0.023l0.046-0.023l0.183-0.079l0.036-0.023
		L18.4,5.204l0.045-0.023l0.16-0.08h0.023l0.08-0.023l0.079-0.011l0.206,0.011h0.046h0.013h0.045l0.092-0.023l0.091-0.023
		l0.012-0.012l0.023-0.01l0.126-0.092l0.033-0.011l0.138-0.092l0.033-0.022l0.013-0.013l0.011-0.011l0.012-0.012V4.723l0.012-0.011
		h0.012l0.012,0.011h0.022h0.023l0.044-0.011l0.013-0.011l0.068-0.023h0.022l0.127-0.057l0.16-0.057l0.057-0.023l0.068-0.022
		l0.022-0.012l0.036-0.011l0.033-0.012l0.022-0.012l0.103-0.034h0.013l0.147-0.057h0.012l0.034-0.011l0.104,0.011h0.011l0.047,0.012
		l0.114,0.045l0.012,0.012l0.021,0.034l0.023,0.023L21.1,4.518l0.103,0.045l0.092,0.012l0.092,0.022l0.182,0.023h0.023h0.08
		l0.057-0.023l0.093-0.022l0.161-0.057h0.021h0.069h0.08l0.079,0.034l0.104,0.023l0.045,0.011l0.035-0.011l0.034-0.023h0.011V4.54
		l0.126-0.069V4.46l0.022-0.023l0.058-0.057l0.195-0.16l0.08-0.023l0.079-0.035l0.023-0.011l0.022-0.012l0.023-0.022l0.159-0.138
		l0.08-0.068l0.069-0.069l0.057-0.058l0.023-0.023l0.079-0.092l0.035-0.046l0.046-0.034l0.023-0.035l0.012-0.011l0.079-0.034
		L23.8,3.487l0.045-0.022l0.08-0.058l0.137-0.148l0.012-0.034l0.023-0.023l0.011-0.012l0.046-0.069l0.012-0.011l0.033-0.046
		l0.035-0.034l0.045-0.046l0.104-0.081l0.012-0.011l0.126-0.114l0.137-0.104l0.08-0.056l0.023-0.023l0.079-0.045l0.115-0.07
		l0.092-0.056l0.045-0.046l0.012-0.011l0.011-0.012l0.013-0.011h0.045l0.092,0.011h0.012l0.092-0.023l0.103-0.057l0.012-0.012
		l0.171-0.091l0.058-0.022l0.034-0.022h0.012l0.091-0.058l0.126-0.081l0.171-0.103l0.034-0.023l0.046-0.011l0.013-0.012h0.011
		l0.034-0.011l0.022-0.012l0.035-0.022l0.057-0.034l0.036-0.013l0.033-0.022l0.08-0.045h0.012l0.079-0.035l0.069-0.023l0.057-0.045
		l0.023-0.013h0.011l0.046-0.01l0.034-0.011l0.114-0.012l0.046-0.011h0.034l0.173-0.034l0.08-0.023l0.034-0.011l0.08-0.023h0.011
		h0.012l0.194-0.091l0.08-0.034l0.011-0.012l0.149-0.069l0.022-0.011l0.022-0.012h0.012l0.023-0.011l0.022-0.024V1.153h0.012
		l0.046-0.068h0.011h0.022l0.047-0.013h0.012l0.011,0.023l0.013,0.012l0.022-0.012l0.114-0.046l0.228-0.057l0.046-0.012l0.058-0.022
		l0.068-0.034l0.274-0.103l0.069-0.023l0.046-0.023l0.046-0.012l0.057-0.022l0.172-0.069l0.034-0.023l0.046-0.022l0.08-0.034V0.581
		l0.033-0.011l0.172-0.068v0.011l0.012,0.206v0.057v0.057V0.89l0.012,0.183v0.126v0.07v0.136v0.023v0.011v0.104l0.012,0.468
		l0.011,0.207v0.068V2.32v0.115l0.012,0.194v0.104v0.251v0.011v0.069l0.011,0.138v0.297l0.012,0.229v0.068v0.149v0.103l0.012,0.057
		v0.023v0.24v0.08V4.46l0.011,0.205v0.184v0.035v0.057v0.045l0.013,0.057v0.241v0.057v0.057V5.49v0.012V5.57l0.01,0.081v0.011v0.012
		v0.011v0.011v0.012v0.172v0.057L29.872,6.2v0.045v0.023v0.125l0.011,0.058v0.08v0.034v0.058v0.012v0.011v0.069v0.057v0.012v0.069
		v0.045v0.125l0.013,0.081v0.125v0.104V7.4v0.068v0.092l0.01,0.034v0.081v0.068v0.058v0.023v0.011v0.068v0.012v0.08l0.012,0.172
		v0.045v0.069v0.171v0.012V8.51l0.012,0.012v0.161V8.75v0.034v0.012v0.012v0.057v0.011v0.092l0.012,0.081l-0.012,0.068v0.045v0.045
		v0.011l0.012,0.184l0.013,0.206V9.62v0.012v0.114v0.184v0.091l0.011,0.069v0.023v0.069v0.057v0.035l0.013,0.262v0.091v0.069v0.229
		l0.011,0.125v0.034v0.126v0.036v0.056v0.035l-0.011,0.011h-0.013l-0.011,0.011H29.94h-0.023h-0.012l-0.022,0.011l-0.011,0.012
		l-0.013,0.011l-0.033,0.011l-0.012,0.012h-0.022l-0.046,0.034l-0.012,0.012l-0.022,0.022l-0.023,0.023v0.011h-0.01h-0.013v0.012
		h-0.023l-0.011,0.011H29.62h-0.012v-0.011h-0.011h-0.012l-0.011-0.023l-0.013-0.012h-0.011l-0.011-0.022l-0.012-0.011l-0.034-0.012
		h-0.023l-0.046,0.023l-0.034,0.011h-0.011l-0.046,0.011h-0.011l-0.023,0.023h-0.012v0.012h-0.011l-0.013,0.022l-0.011,0.012v0.01
		l-0.034,0.058l-0.046,0.046l-0.011,0.011h-0.013l-0.011,0.011l-0.035,0.036l-0.011,0.022l-0.011,0.046v0.034v0.034l0.033,0.035
		l0.047,0.033l0.011,0.023l0.068,0.115h0.012l0.011,0.023v0.011l0.035,0.044h0.023l0.011,0.023l0.011,0.034l0.023,0.058v0.033
		l0.012,0.023v0.034l0.022,0.091l0.022,0.035l0.035,0.057l0.034,0.046h0.011l0.012,0.011l0.012,0.022l0.012,0.035l0.011,0.034v0.011
		l-0.011,0.058L29.529,12.8l-0.023,0.058l-0.011,0.011v0.023v0.011l-0.034,0.069l-0.012,0.023v0.045v0.012v0.011v0.034v0.023v0.091
		l0.012,0.034v0.011l-0.023,0.023l-0.046,0.01l-0.033,0.023l-0.023,0.012l-0.011,0.034l0.011,0.035h0.011v0.011h0.023l0.045,0.022
		l0.035,0.024l0.022,0.022l0.023,0.047l-0.012,0.057l-0.012,0.034l-0.011,0.022v0.069l0.011,0.046l0.023,0.046l0.011,0.022
		l0.012,0.011v0.022h0.012l0.012,0.058v0.035v0.011v0.034v0.011l-0.012,0.022l-0.023,0.034l-0.022,0.047l-0.022,0.044l-0.012,0.036
		v0.022v0.047v0.057l-0.012,0.046v0.011l-0.023,0.023l-0.09,0.068v-0.011l-0.046,0.035l-0.013,0.011l-0.033,0.046v0.011
		l-0.046,0.091l-0.012,0.023l-0.011,0.08v0.023v0.034l-0.013,0.045l-0.011,0.058l-0.023,0.058l-0.046,0.044l-0.011,0.012
		l-0.012,0.011l-0.011,0.023l-0.013,0.011l-0.022,0.046l-0.023,0.057l-0.012,0.011l-0.011,0.035l-0.023,0.033v0.013l-0.011,0.011
		v0.011v0.012h-0.012v0.034v0.01v0.013l-0.012,0.01v0.045h-0.012v0.012v0.058v0.034l0.012,0.058l0.012,0.011v0.01v0.013l0.012,0.023
		l-0.012,0.044v0.035l-0.012,0.013l-0.022,0.021l-0.023,0.023l-0.057,0.047l-0.011,0.011l-0.013,0.01l-0.011,0.013l-0.022,0.034
		l-0.012,0.034v0.035l0.012,0.057l0.01,0.034v0.011h0.013v0.012v0.011l0.011,0.012v0.011v0.022v0.011v0.011v0.012v0.058v0.01
		l-0.011,0.034L28.75,16.29l-0.01,0.012v0.044v0.011v0.012l-0.012,0.034l-0.012,0.058v0.01v0.013v0.01v0.023v0.011l0.012,0.023
		v0.023v0.021l0.012,0.012v0.011v0.024v0.046v0.022v0.011v0.012v0.034l-0.023,0.011l-0.022,0.023l-0.035,0.023l-0.011,0.01h-0.012
		v0.013l-0.012,0.01l-0.012,0.011l-0.021,0.035v0.023v0.023v0.01l0.011,0.092l0.011,0.045l0.023,0.059v0.011v0.01v0.014h0.012v0.01
		v0.014l-0.012,0.01l-0.012,0.023v0.011h-0.012v0.012h-0.011v-0.012h-0.023h-0.01h-0.013l-0.011-0.011l-0.069-0.047l-0.023-0.01
		l-0.057-0.014h-0.034v0.014h-0.011l-0.012,0.01h-0.012v0.014v0.01l-0.012,0.012v0.022v0.035v0.023v0.011l0.023,0.034l0.022,0.047
		l0.034,0.045l0.012,0.013v0.01l0.012,0.012l0.012,0.035v0.012v0.011l0.011,0.023l-0.011,0.033L28.42,17.64l-0.034,0.034
		l-0.08,0.046l-0.023,0.012l-0.033,0.023l-0.023,0.022l-0.012,0.023v0.021l0.012,0.047l0.011,0.068l0.013,0.023v0.103v0.033
		l-0.013,0.034v0.013l-0.011,0.023l-0.057,0.068l-0.07,0.058l-0.103,0.068l-0.012,0.034l-0.023,0.023v0.011v0.011v0.013v0.011
		l0.013,0.034v0.012l0.011,0.012v0.023l0.069,0.079l0.011,0.012l0.022,0.011l0.023,0.013l0.059,0.113l0.022,0.023l0.012,0.01
		l0.011,0.047v0.023l-0.011,0.046l-0.012,0.022l-0.035,0.011l-0.011,0.012l-0.023,0.012h-0.045l-0.013,0.011l-0.023,0.013
		l-0.01,0.011l-0.013,0.012l-0.011,0.012v0.01l-0.012,0.034v0.023v0.048v0.021v0.104v0.023v0.056l-0.022,0.046v0.023v0.012v0.01
		v0.012v0.012l-0.013,0.011v0.013l-0.022,0.067l-0.022,0.058l-0.079,0.023h-0.023l-0.057-0.012h-0.08l-0.013,0.012h-0.033
		l-0.046,0.021l-0.022,0.023l-0.046,0.047l-0.023,0.021l-0.137,0.115l-0.023,0.022l-0.022,0.023v0.011l-0.058,0.046l-0.047,0.057
		l-0.011,0.014l-0.011,0.01l-0.023,0.014l-0.012,0.01h-0.011l-0.023,0.023l-0.012,0.011l-0.056,0.047l-0.023,0.021l-0.013,0.034
		l-0.011,0.013l-0.012,0.011l-0.012,0.013l-0.01,0.011l-0.036,0.023l-0.033,0.034l-0.034,0.033v0.012l-0.012,0.012l-0.022,0.022
		l-0.023,0.022v0.011l-0.034,0.013l-0.034,0.034v0.011l-0.034,0.047l-0.023,0.023l-0.022,0.021l-0.047,0.046v0.012l-0.033,0.047
		l-0.022,0.021v0.013l-0.08,0.171h-0.012l-0.033,0.07l-0.023,0.034l-0.023,0.034l-0.022,0.023l-0.012,0.01l-0.022,0.012h-0.059
		h-0.012l-0.011,0.012h-0.011h-0.023l-0.023,0.012h-0.022l-0.023,0.012l-0.022,0.012l-0.057,0.034l-0.012,0.01l-0.022,0.023
		l-0.035,0.058l-0.034,0.035l-0.021,0.021v0.012l-0.036,0.034l-0.011,0.034l-0.022,0.022v0.014v0.044v0.035l-0.012,0.012
		l-0.012,0.021h-0.011l-0.023,0.023h-0.011l-0.126-0.034h-0.034l-0.057,0.023h-0.012l-0.069,0.011l-0.034,0.011v0.013l-0.034,0.034
		h-0.011l-0.036,0.011l-0.011,0.013l-0.047,0.011l-0.01,0.01l-0.023,0.014l-0.012,0.01l-0.092,0.081l-0.034,0.023l-0.068,0.045
		l-0.034,0.035l-0.011,0.013l-0.013,0.011h-0.011L25,21.896l-0.023,0.014h-0.011h-0.035H24.92l-0.023,0.01h-0.022h-0.035h-0.022
		l-0.023-0.01h-0.01l-0.023-0.034l-0.012-0.013l-0.022-0.024l-0.012-0.034l-0.034-0.103l-0.012-0.067l-0.012-0.058l-0.011-0.023
		l-0.034-0.057l-0.057-0.046l-0.035-0.033l-0.011-0.014h-0.013l-0.034-0.01v-0.013l-0.068-0.011h-0.012l-0.045,0.011l-0.081,0.046
		v0.011l-0.034,0.013l-0.046,0.068l-0.011,0.023l-0.035,0.045l-0.08,0.081l-0.011,0.01l-0.035,0.023l-0.022,0.023l-0.011,0.011
		l-0.034,0.023l-0.023,0.012h-0.012l-0.057,0.022l-0.022,0.022L23.8,21.838l-0.093,0.115L23.696,22v0.021l-0.013,0.104l-0.01,0.079
		l-0.012,0.114v0.034v0.013v0.044v0.058l-0.012,0.035v0.01l-0.022,0.023l-0.07-0.01h-0.022h-0.011l-0.013-0.014h-0.011l-0.022-0.021
		h-0.013l-0.011-0.012h-0.011l-0.023-0.012h-0.012h-0.011h-0.013h-0.011h-0.011l-0.012,0.012h-0.023l-0.021,0.012l-0.139-0.034
		h-0.011H23.09l-0.046,0.011h-0.046l-0.011,0.012l-0.035,0.012l-0.034,0.021l-0.034,0.047h-0.011v0.011l-0.012,0.013l-0.012,0.011
		l-0.012,0.034v0.034v0.034v0.012v0.012v0.023l0.012,0.023l0.012,0.021v0.013l0.012,0.011v0.013v0.021v0.023h-0.012v0.011
		l-0.012,0.013l-0.022,0.023h-0.012v0.01h-0.012h-0.022l-0.034,0.012L22.7,22.949l-0.034,0.012h-0.013l-0.01,0.011l-0.012,0.023
		l-0.023,0.047v0.01l-0.012,0.068l-0.011,0.023l-0.022,0.034L22.506,23.2l-0.023,0.012v0.012l-0.01,0.012v0.011v0.013l-0.013,0.022
		h0.013v0.011l0.01,0.034l0.058,0.184l0.012,0.057L22.54,23.59v0.058v0.034l0.023,0.079l-0.012,0.093v0.033l-0.012,0.036
		l-0.012,0.021l-0.033,0.034l-0.035,0.035v0.012l-0.011,0.01l-0.023,0.013h-0.011l-0.058,0.022l-0.012,0.012h-0.034h-0.022
		l-0.012-0.012h-0.022l-0.047-0.022l-0.033-0.013h-0.022h-0.023l-0.011,0.013l-0.013,0.022v0.046l0.013,0.045v0.023v0.023
		l0.011,0.022v0.012l0.011,0.023l0.013,0.01l0.011,0.023l0.012,0.034h0.011v0.012h0.013l0.021,0.023l0.023,0.022l0.046,0.023
		l0.046,0.045l0.011,0.011l0.023,0.036h0.011l0.022,0.044l0.013,0.012l0.011,0.024v0.012v0.045v0.011v0.035l-0.011,0.022
		l-0.035,0.023l-0.011,0.033l-0.012,0.014v0.01l-0.012,0.046v0.023l0.012,0.012l-0.022,0.056v0.013l-0.012,0.034v0.023v0.011v0.011
		v0.022l0.012,0.013v0.011l0.034,0.035l0.022,0.022l0.034,0.045l0.023,0.023l0.033,0.034v0.023l-0.01,0.033v0.012l-0.013,0.023
		l-0.023,0.012l-0.021,0.011h-0.013h-0.033l-0.023-0.011l-0.022-0.012L22.3,25.306l-0.057-0.023l-0.012-0.023l-0.068-0.079
		l-0.045-0.033h-0.036h-0.01h-0.023l-0.012,0.011l-0.034,0.011l-0.034,0.058l-0.046,0.068l-0.012,0.125l0.012,0.023L21.9,25.512
		l-0.046,0.069l-0.022,0.021l-0.034,0.036l-0.059,0.045l-0.092,0.047v0.011h-0.011h-0.011h-0.013l-0.022-0.011l-0.068-0.023
		l-0.012-0.013l-0.034-0.034l-0.069-0.067l-0.011-0.012v-0.012l0.011-0.046l0.012-0.022l0.034-0.046l0.013-0.013l0.022-0.034
		l0.011-0.01l0.023-0.014l0.045-0.056l0.013-0.012v-0.035v-0.023l-0.013-0.033l-0.033-0.068l-0.012-0.011l-0.012-0.023l-0.012-0.022
		v-0.012l-0.022-0.034l-0.023-0.069l-0.046-0.079l-0.021-0.034l-0.022-0.047l-0.013-0.022H21.34l-0.034-0.021l-0.046-0.023h-0.012
		h-0.046l-0.012,0.01h-0.021l-0.023,0.014H21.1h-0.023h-0.011l-0.013-0.014v-0.01v-0.034v-0.013l-0.01-0.011v-0.023l-0.012-0.034
		H21.02v-0.011v-0.013l-0.022-0.045l-0.023-0.024v-0.011l-0.022-0.022l-0.012-0.011h-0.012v-0.013h-0.011h-0.012l-0.011-0.011h-0.07
		l-0.046,0.011h-0.011l-0.013,0.013l-0.045,0.011l-0.012,0.022l-0.021,0.035v0.012v0.012l-0.013,0.011v0.045h-0.011v0.035
		l-0.023,0.056l-0.012,0.023h-0.011l-0.011,0.014l-0.013,0.01l-0.011,0.012l-0.057,0.034l-0.012,0.012l-0.069,0.035l-0.034,0.022
		l-0.021,0.011v0.011h-0.013v0.013l-0.011,0.011v0.012l-0.013,0.046l-0.022,0.057l-0.011,0.023h-0.012l-0.012,0.034l-0.034,0.034
		v0.011l-0.012,0.047v0.034v0.01v0.014l-0.011,0.021h-0.012l-0.022,0.035l-0.023,0.034l-0.012,0.035l-0.011,0.01l-0.023,0.047
		l-0.034,0.035l-0.057,0.057v0.011v0.045l-0.012,0.058v0.013v0.011l0.022,0.034v0.034h0.013v0.022v0.023v0.012l0.011,0.012
		l-0.011,0.022v0.012v0.012v0.023v0.01l-0.013,0.034v0.013l-0.011,0.022v0.012v0.01v0.023h-0.012l-0.011,0.023v0.012l-0.012,0.011
		l-0.012,0.012v0.012l-0.058,0.057l-0.012,0.011l-0.023,0.013l-0.092,0.045h-0.021l-0.022,0.013h-0.023v0.011l-0.058,0.047
		l-0.057,0.045l-0.012,0.011l-0.012,0.013l-0.012,0.011l-0.011,0.023l-0.034,0.068v0.034v0.022v0.012v0.012l0.011,0.022v0.013
		l0.023,0.034l0.022,0.023l0.034,0.021l0.034,0.023l0.023,0.023l0.023,0.045l0.01,0.092l0.023,0.023l0.013,0.033v0.058l0.01,0.034
		l0.013,0.046l0.011,0.059v0.011v0.01v0.014l-0.011,0.033v0.011l-0.013,0.023l-0.01,0.023l-0.013,0.045v0.013v0.021l-0.011,0.035
		l0.023,0.057l0.01,0.035v0.012v0.012v0.046l0.047,0.092l0.011,0.044l0.022,0.081l0.013,0.023v0.012v0.022v0.058l-0.013,0.067v0.012
		h-0.011l-0.012,0.034v0.012l-0.011,0.012l-0.013,0.022l-0.044,0.034h-0.013l-0.023,0.011l-0.057,0.013h-0.011h-0.013h-0.078
		l-0.023,0.011l-0.103-0.045l-0.046-0.013h-0.023l-0.021-0.011v0.011h-0.059l-0.021,0.013l-0.036,0.011h-0.01v0.011h-0.013v0.013
		l-0.068,0.068l-0.011,0.011l-0.023,0.034l-0.012,0.023l-0.011,0.023l0.011,0.023v0.079v0.013l-0.011,0.146v0.014l-0.023,0.044
		l-0.011,0.035v0.012l-0.013,0.011v0.023l-0.011,0.011v0.013v0.021v0.104v0.058v0.011v0.012l-0.013,0.035l-0.034,0.056v0.035
		l-0.011,0.012v0.01v0.047v0.011v0.013l-0.013,0.011v0.023l-0.01,0.011l-0.013,0.035l-0.033,0.068l-0.046,0.046L18.8,29.254
		l-0.125,0.022l-0.08,0.012l-0.012,0.011h-0.012l-0.033,0.012h-0.047h-0.012l-0.011-0.012l-0.08-0.034l-0.022,0.012l-0.012,0.012
		l-0.092,0.034l-0.034,0.011h-0.011l-0.013,0.013h-0.011l-0.012,0.011l-0.069,0.011l-0.022,0.012l-0.058,0.012h-0.011l-0.012,0.011
		h-0.012h-0.012l-0.022,0.013l-0.103,0.034l-0.046,0.023l-0.08,0.033L17.6,29.551h-0.022h-0.023l-0.023,0.012h-0.068h-0.046
		l-0.022-0.012l-0.058-0.012l-0.011-0.011l-0.034-0.013l-0.012-0.011h-0.011l-0.023-0.023l-0.023-0.01v-0.014l-0.012-0.01
		l-0.022-0.034l-0.023-0.035v-0.012v-0.011l-0.023-0.068l-0.01-0.047l-0.013-0.125v-0.012l-0.011-0.046l-0.013-0.022l-0.01-0.013
		v-0.011h-0.012V29l-0.012-0.011l-0.012-0.01h-0.012l-0.011-0.014l-0.035-0.021l-0.034-0.012l-0.011-0.011l-0.046-0.013v-0.011
		l-0.058-0.035l-0.011-0.01l-0.011-0.013l-0.023-0.022l-0.011-0.012l-0.022-0.023v-0.011l-0.034-0.047l-0.058-0.056l-0.011-0.023
		l-0.035-0.067l-0.023-0.035l-0.01-0.012v-0.011v-0.013l-0.012-0.011l-0.011-0.01l-0.035-0.047l-0.023-0.023l-0.035-0.022
		l-0.022-0.012h-0.011l-0.022-0.012L16.41,28.36l-0.023-0.021l-0.022-0.023h-0.012l-0.034-0.023l-0.058,0.013l-0.022-0.013h-0.012
		h-0.034h-0.081h-0.09l-0.012,0.013l-0.023-0.013H15.94h-0.01v-0.011l-0.036-0.013h-0.022l-0.035-0.034l-0.035-0.01l-0.022-0.023
		h-0.012l-0.022-0.012v-0.012l-0.045-0.035l-0.035-0.034l-0.023-0.011l-0.012-0.011l-0.011-0.013l-0.011-0.023l-0.012-0.011
		l-0.022-0.034l-0.023-0.08l-0.022-0.069v-0.022v-0.011V27.8l-0.012-0.103v-0.081v-0.022v-0.011l-0.011-0.103l-0.022-0.069
		l-0.012-0.012l-0.034-0.067l-0.035-0.034v-0.024l-0.011-0.034v-0.068l0.011-0.057l0.023-0.081V27.01l0.012-0.034v-0.045v-0.012
		l-0.012-0.068V26.84v-0.035l-0.011-0.022l-0.012-0.011l-0.022-0.036l-0.034-0.021l-0.035-0.012h-0.022h-0.012l-0.138,0.033h-0.011
		l-0.035,0.013l-0.023,0.011l-0.057,0.023l-0.022,0.011l-0.023,0.012l-0.012,0.012l-0.01,0.011l-0.07,0.036v0.01l-0.033,0.023
		l-0.035,0.022l-0.023,0.012l-0.045,0.011h-0.023h-0.012h-0.011l-0.045-0.022h-0.013l-0.022-0.012h-0.011h-0.058h-0.011h-0.011
		l-0.045,0.012l-0.046,0.012l-0.012,0.011l-0.011,0.013l-0.023,0.034l-0.01,0.033L14.34,27.08l-0.069,0.102l-0.069,0.058
		l-0.08,0.045H14.1l-0.023,0.014l-0.113,0.034l-0.036,0.011l-0.035,0.033l-0.033,0.047l-0.023,0.058l-0.012,0.011l-0.011,0.081
		l-0.012,0.021v0.013l-0.011,0.01v0.014l-0.034,0.056v0.012l-0.023,0.023l-0.035,0.034l-0.08,0.034h-0.011h-0.045h-0.045
		L13.448,27.8l-0.047,0.013h-0.01h-0.012h-0.035h-0.011h-0.011h-0.012L13.265,27.8l-0.069-0.045h-0.012l-0.022-0.013l-0.022-0.01
		h-0.012l-0.035-0.012h-0.044l-0.036,0.012l-0.022,0.022l-0.034,0.011l-0.023,0.011L12.909,27.8l-0.011,0.023l-0.092,0.103
		l-0.023,0.023v0.01h-0.011l-0.012,0.013h-0.023l-0.046-0.013h-0.011v-0.01h-0.012h-0.012l-0.01-0.012v-0.012h-0.013l-0.011-0.012
		l-0.034-0.046v-0.012l-0.012-0.01v-0.034v-0.047l-0.011-0.068l-0.035-0.058l-0.08-0.067l-0.103-0.07l-0.058-0.034h-0.01H12.27
		l-0.035-0.021h-0.011l-0.058-0.012l-0.172-0.035l-0.045-0.011l-0.115-0.013h-0.022l-0.034-0.011l-0.069-0.022h-0.011l-0.057-0.023
		l-0.023-0.011l-0.022-0.035l-0.069-0.068l-0.045-0.034l-0.069-0.047l-0.046-0.01l-0.057-0.014h-0.079l-0.104,0.023l-0.08,0.034
		l-0.046,0.013l-0.034,0.011l-0.125,0.023l-0.011,0.012l-0.104,0.022h-0.011h-0.012L10.68,27.25l-0.012,0.013l-0.022,0.011h-0.013
		v0.011l-0.045,0.048l-0.012,0.023l-0.011,0.021l-0.011,0.07v0.056h-0.012l-0.011,0.07l-0.023,0.044v0.014l-0.022,0.021
		l-0.022,0.022l-0.012,0.012h-0.022l-0.035,0.012h-0.022l-0.069-0.023h-0.011l-0.034-0.011l-0.115-0.069H10.13h-0.012l-0.035-0.011
		l-0.022-0.023l-0.012-0.011h-0.012v-0.012h-0.011l-0.104-0.012l-0.057-0.011H9.856l-0.058-0.023H9.776L9.753,27.48l-0.024-0.013
		l-0.012-0.021H9.707v-0.023l-0.011-0.023l-0.012-0.034v-0.033l-0.022-0.104v-0.023l-0.023-0.069l-0.011-0.035H9.615l-0.023-0.01
		l-0.045-0.034l-0.046-0.012l-0.045-0.012l-0.058-0.012L9.33,26.965l-0.023-0.011v-0.013l-0.011-0.011l-0.012-0.012v-0.012
		l-0.012-0.011v-0.013v-0.011v-0.022l-0.011-0.058L9.25,26.759v-0.011l-0.012-0.013v-0.021L9.227,26.69H9.214V26.68v-0.013
		L9.17,26.633l-0.046-0.023L9.112,26.6l-0.023-0.012H9.078l-0.081-0.022l-0.114-0.023l-0.057-0.023H8.814H8.804H8.78l-0.034-0.012
		l-0.011-0.01v-0.013l-0.104-0.079l-0.057-0.023H8.529l-0.012-0.014H8.483H8.415l-0.103,0.048l-0.068,0.011H8.231L8.186,26.45
		l-0.034,0.012H8.14v0.012H8.105l-0.068,0.023l-0.034,0.01l-0.046-0.01H7.946H7.877H7.831l-0.148-0.035l-0.045-0.022l-0.046-0.013
		l-0.022-0.011l-0.023-0.023l-0.103-0.045l-0.012-0.013l-0.045-0.011H7.374l-0.045-0.023H7.316l-0.022-0.012H7.271l-0.16-0.033
		H7.087L7.03,26.232l-0.045-0.011l-0.034-0.013l-0.012-0.011l-0.034-0.047H6.894v-0.011l-0.012-0.01l-0.022-0.035l-0.023-0.069
		l-0.011-0.012v-0.023v-0.01v-0.047L6.813,25.9v-0.033v-0.023V25.81v-0.023v-0.012l0.012-0.067v-0.034V25.66v-0.011v-0.011v-0.046
		v-0.035L6.813,25.49l-0.035-0.071l-0.01-0.011l-0.023-0.033L6.71,25.306l-0.034-0.067l-0.023-0.023l-0.011-0.013v-0.011
		l-0.035-0.045l-0.046-0.058l-0.023-0.023l-0.022-0.034l-0.012-0.022l-0.011-0.023l-0.011-0.011L6.47,24.94l-0.011-0.034
		l-0.012-0.034v-0.023v-0.012l-0.012-0.069v-0.01v-0.014v-0.01V24.7v-0.012l-0.011-0.046l-0.023-0.045L6.39,24.562L6.333,24.47
		l-0.035-0.034l-0.045-0.045l-0.058-0.046L6.138,24.31l-0.091-0.034l-0.012-0.01H5.989l-0.113-0.023L5.829,24.23H5.818H5.784H5.75
		l-0.069-0.034l-0.023-0.012l-0.012-0.012H5.635v-0.012l-0.011-0.012l-0.013-0.01v-0.012l-0.022-0.08v-0.046v-0.034v-0.045v-0.023
		v-0.046l0.012-0.022l-0.023-0.057l-0.022-0.07L5.521,23.67l-0.023-0.022l-0.034-0.023l-0.045-0.012H5.361l-0.035,0.012
		l-0.034,0.023L5.269,23.67l-0.011,0.023l-0.034,0.058l-0.012,0.01l-0.011,0.014l-0.012,0.01H5.177l-0.011,0.023l-0.034,0.011
		l-0.023,0.013l-0.045,0.011H5.052H5.028H5.018l-0.081-0.047l-0.011-0.011l-0.012-0.01H4.903H4.858l-0.023,0.01l-0.023,0.023
		l-0.044,0.068H4.755l-0.023,0.023L4.72,23.91l-0.136,0.034l-0.035,0.012l-0.012,0.012H4.525l-0.011,0.011H4.503H4.492H4.468H4.424
		H4.411L4.4,23.968H4.389l-0.057-0.023l-0.013-0.021l-0.092-0.104l-0.045-0.023l-0.057-0.021l-0.068-0.014l-0.046-0.01l-0.022-0.035
		H3.977v-0.012l-0.022-0.022l-0.022-0.034L3.909,23.59L3.84,23.498l-0.013-0.022L3.805,23.44l-0.034-0.023l-0.012-0.01l-0.034-0.023
		l-0.08-0.023H3.6H3.576l-0.022,0.023l-0.058,0.045L3.394,23.59l-0.035,0.022l-0.034,0.012l-0.103,0.033L3.21,23.67l-0.011,0.012
		H3.153l0.012-0.047v-0.068v-0.068v-0.034V23.36v-0.034l0.011-0.067v-0.023v-0.286l0.012-0.183v-0.012V22.72v-0.023v-0.012v-0.011
		V22.56v-0.023v-0.01v-0.023v-0.035v-0.011l0.011-0.035V22.41v-0.033v-0.011v-0.013v-0.011v-0.047L3.21,22.068z M16.546,3.545
		l0.024,0.046l0.057,0.012l0.058-0.069l0.022,0.011L16.696,3.67l-0.011,0.068l-0.035,0.057l-0.01,0.012h-0.08l-0.149-0.08
		l-0.058-0.046V3.67V3.66l0.07-0.092l0.034-0.034h0.068L16.546,3.545z M15.873,3.327l-0.08,0.092l-0.046,0.034l-0.045,0.012V3.304
		l0.057-0.08l0.057-0.012l0.092-0.023l0.023-0.022l0.056-0.013l0.023,0.013L15.998,3.19l-0.022,0.035l-0.092,0.103H15.873z
		 M15.93,3.087V3.11l-0.047,0.011l-0.08-0.114l0.08-0.058l0.057-0.022l0.103-0.023l0.023,0.023l-0.045,0.034l-0.069,0.058
		L15.93,3.087z M15.883,2.687l0.011,0.023l0.012,0.102L15.86,2.824l-0.114-0.012V2.789l0.022-0.034l0.034-0.057l0.035-0.011H15.883z
		"/>
</g>
<polyline fill="none" stroke="#404041" stroke-width="0.1" stroke-linecap="round" stroke-linejoin="round" stroke-miterlimit="3.85" points="
	3.21,22.068 3.21,22.034 3.222,21.713 3.233,21.37 3.256,21.038 3.267,20.671 3.267,20.661 3.267,20.545 3.279,20.409 3.279,20.397 
	3.279,20.318 3.279,20.101 3.291,19.974 3.291,19.962 3.291,19.951 3.291,19.938 3.291,19.905 3.291,19.894 3.291,19.734 
	3.291,19.722 3.301,19.447 3.313,19.368 3.313,19.345 3.313,19.254 3.313,19.23 3.313,19.128 3.313,19.036 3.325,18.659 
	3.335,18.521 3.335,18.188 3.335,18.178 3.348,18.063 3.348,17.972 3.348,17.948 3.348,17.869 3.348,17.846 3.348,17.836 
	3.358,17.822 3.358,17.789 3.358,17.72 3.358,17.663 3.358,17.652 3.358,17.64 3.37,17.479 3.37,17.331 3.37,17.32 3.382,17.239 
	3.382,17.125 3.382,17.08 3.382,17.034 3.394,16.668 3.394,16.656 3.405,16.485 3.405,16.404 3.417,16.29 3.417,16.177 
	3.427,16.049 3.44,15.695 3.44,15.581 3.451,15.421 3.451,15.409 3.474,14.997 3.474,14.906 3.474,14.895 3.484,14.848 
	3.484,14.826 3.484,14.814 3.484,14.756 3.484,14.745 3.484,14.642 3.508,14.289 3.519,14.002 3.519,13.945 3.531,13.602 
	3.531,13.361 3.531,13.235 3.531,13.189 3.531,13.133 3.531,13.122 3.542,13.075 3.542,12.823 3.554,12.709 3.554,12.687 
	3.554,12.674 3.554,12.618 3.565,12.526 3.565,12.389 3.565,12.332 3.576,12.183 3.576,11.977 3.588,11.816 3.588,11.623 
	3.6,11.268 3.6,11.233 3.6,11.142 3.6,11.107 3.61,10.993 3.61,10.879 3.61,10.856 3.61,10.765 3.61,10.638 3.622,10.559 
	3.622,10.443 3.622,10.41 3.622,10.26 3.622,10.215 3.633,10.112 3.633,9.975 3.633,9.86 3.633,9.757 3.633,9.7 3.657,9.151 
	3.657,8.991 3.667,8.453 3.667,8.282 3.679,7.733 3.691,7.642 3.691,7.584 3.691,7.377 3.691,7.309 3.691,7.229 3.702,7.115 
	3.702,7.058 3.702,7.034 3.702,6.966 3.702,6.954 3.702,6.862 3.725,6.326 3.725,6.165 3.736,5.73 3.736,5.615 3.736,5.478 
	3.748,5.387 3.748,5.055 3.748,5.032 3.759,4.918 3.759,4.837 3.759,4.769 3.759,4.597 3.771,4.415 3.771,4.311 3.771,4.209 
	3.771,4.071 3.771,3.979 3.782,3.625 3.782,3.407 3.782,3.373 3.782,3.351 3.793,3.259 3.793,3.247 3.793,3.076 3.793,2.904 
	3.793,2.789 3.805,2.733 4.136,2.721 4.159,2.721 4.389,2.721 4.503,2.721 4.628,2.721 5.212,2.721 5.475,2.721 5.578,2.721 
	5.807,2.71 5.92,2.71 6.036,2.71 6.265,2.71 6.287,2.71 6.504,2.71 7.03,2.698 7.294,2.698 7.351,2.698 7.408,2.698 7.465,2.698 
	7.82,2.687 7.969,2.687 7.992,2.687 8.117,2.675 8.631,2.663 8.7,2.663 8.94,2.663 9.296,2.653 9.41,2.653 9.547,2.653 9.592,2.653 
	9.833,2.641 10.015,2.641 10.13,2.641 10.245,2.629 10.371,2.629 10.381,2.629 10.428,2.629 10.451,2.629 10.519,2.629 
	10.599,2.619 10.714,2.619 10.816,2.619 10.839,2.619 10.874,2.619 10.896,2.619 10.931,2.619 10.965,2.606 11.022,2.606 
	11.045,2.606 11.08,2.606 11.148,2.606 11.206,2.606 11.32,2.606 11.434,2.595 11.538,2.595 11.548,2.595 11.595,2.595 
	11.697,2.595 11.72,2.595 11.732,2.595 11.766,2.595 11.789,2.595 11.834,2.595 11.846,2.595 11.857,2.595 11.925,2.584 
	11.938,2.584 12.006,2.584 11.994,2.629 12.018,2.744 12.03,2.755 12.03,2.767 12.052,2.802 12.143,2.858 12.27,2.927 12.372,2.927 
	12.475,2.961 12.521,2.961 12.59,2.961 12.612,2.938 12.681,2.916 12.704,2.87 12.704,2.835 12.773,2.847 12.795,2.87 12.967,3.019 
	12.99,3.053 13.024,3.076 13.058,3.087 13.299,3.259 13.309,3.259 13.333,3.304 13.344,3.316 13.356,3.327 13.562,3.43 
	13.745,3.487 13.859,3.534 13.985,3.556 14.111,3.568 14.213,3.625 14.225,3.625 14.236,3.636 14.34,3.716 14.351,3.728 
	14.375,3.762 14.385,3.785 14.408,3.831 14.442,3.888 14.455,3.888 14.477,3.935 14.488,3.945 14.488,3.957 14.557,4.026 
	14.568,4.048 14.579,4.048 14.626,4.083 14.74,4.186 14.923,4.3 14.969,4.311 15.105,4.369 15.14,4.38 15.289,4.356 15.368,4.345 
	15.426,4.311 15.494,4.266 15.506,4.254 15.541,4.22 15.609,4.105 15.621,4.014 15.621,3.979 15.597,3.876 15.644,3.819 
	15.667,3.808 15.735,3.796 15.758,3.785 15.838,3.922 15.873,3.969 15.873,3.979 15.883,3.979 15.998,4.128 16.043,4.174 
	16.124,4.174 16.261,4.128 16.295,4.128 16.318,4.128 16.456,4.162 16.501,4.209 16.501,4.277 16.432,4.369 16.432,4.38 
	16.444,4.415 16.478,4.483 16.501,4.518 16.594,4.552 16.639,4.563 16.822,4.814 17.027,5.01 17.062,5.055 17.062,5.067 
	17.073,5.078 17.118,5.112 17.222,5.181 17.269,5.204 17.394,5.295 17.429,5.307 17.439,5.318 17.474,5.329 17.554,5.376 
	17.623,5.41 17.669,5.421 17.68,5.433 17.702,5.444 17.782,5.456 17.782,5.467 17.896,5.467 17.977,5.444 18.022,5.421 
	18.205,5.342 18.241,5.318 18.4,5.204 18.445,5.181 18.605,5.101 18.629,5.101 18.709,5.078 18.788,5.067 18.994,5.078 19.04,5.078 
	19.053,5.078 19.098,5.078 19.189,5.055 19.28,5.032 19.292,5.02 19.315,5.01 19.441,4.918 19.475,4.907 19.612,4.814 19.646,4.792 
	19.658,4.78 19.669,4.769 19.681,4.757 19.681,4.723 19.692,4.712 19.704,4.712 19.716,4.723 19.738,4.723 19.762,4.723 
	19.806,4.712 19.818,4.701 19.887,4.677 19.909,4.677 20.036,4.62 20.196,4.563 20.253,4.54 20.321,4.518 20.344,4.506 20.38,4.495 
	20.413,4.483 20.436,4.471 20.538,4.437 20.551,4.437 20.698,4.38 20.71,4.38 20.744,4.369 20.848,4.38 20.858,4.38 20.905,4.392 
	21.02,4.437 21.031,4.449 21.053,4.483 21.076,4.506 21.1,4.518 21.202,4.563 21.294,4.575 21.386,4.597 21.567,4.62 21.591,4.62 
	21.671,4.62 21.728,4.597 21.82,4.575 21.981,4.518 22.003,4.518 22.072,4.518 22.152,4.518 22.231,4.552 22.335,4.575 22.38,4.586 
	22.415,4.575 22.449,4.552 22.46,4.552 22.46,4.54 22.586,4.471 22.586,4.46 22.608,4.437 22.666,4.38 22.861,4.22 22.941,4.197 
	23.021,4.162 23.044,4.151 23.066,4.14 23.09,4.118 23.249,3.979 23.329,3.912 23.398,3.843 23.455,3.785 23.479,3.762 23.558,3.67 
	23.593,3.625 23.639,3.591 23.662,3.556 23.674,3.545 23.753,3.511 23.8,3.487 23.845,3.465 23.925,3.407 24.062,3.259 
	24.073,3.225 24.097,3.202 24.107,3.19 24.153,3.121 24.165,3.11 24.198,3.064 24.233,3.03 24.278,2.984 24.382,2.904 24.394,2.893 
	24.52,2.778 24.656,2.675 24.736,2.619 24.76,2.595 24.839,2.55 24.954,2.48 25.046,2.424 25.091,2.377 25.103,2.367 25.113,2.355 
	25.126,2.344 25.171,2.344 25.263,2.355 25.274,2.355 25.366,2.332 25.469,2.275 25.48,2.263 25.651,2.172 25.709,2.149 
	25.743,2.127 25.755,2.127 25.846,2.069 25.972,1.988 26.143,1.886 26.177,1.863 26.223,1.852 26.235,1.84 26.246,1.84 26.28,1.829 
	26.303,1.817 26.338,1.794 26.395,1.761 26.431,1.748 26.464,1.726 26.544,1.68 26.556,1.68 26.635,1.646 26.704,1.622 
	26.761,1.577 26.784,1.564 26.795,1.564 26.841,1.554 26.875,1.543 26.989,1.531 27.035,1.52 27.069,1.52 27.242,1.486 
	27.322,1.462 27.356,1.452 27.437,1.428 27.447,1.428 27.459,1.428 27.653,1.337 27.733,1.303 27.744,1.291 27.894,1.222 
	27.916,1.211 27.938,1.199 27.95,1.199 27.974,1.188 27.996,1.165 27.996,1.153 28.008,1.153 28.054,1.085 28.064,1.085 
	28.087,1.085 28.134,1.073 28.146,1.073 28.156,1.096 28.169,1.108 28.191,1.096 28.306,1.05 28.533,0.994 28.579,0.981 
	28.637,0.959 28.705,0.925 28.979,0.822 29.049,0.799 29.095,0.776 29.141,0.764 29.197,0.742 29.369,0.673 29.403,0.65 
	29.449,0.627 29.529,0.594 29.529,0.581 29.562,0.57 29.734,0.502 29.734,0.513 29.746,0.719 29.746,0.776 29.746,0.833 
	29.746,0.89 29.758,1.073 29.758,1.199 29.758,1.269 29.758,1.405 29.758,1.428 29.758,1.439 29.758,1.543 29.77,2.011 29.78,2.218 
	29.78,2.287 29.78,2.32 29.78,2.436 29.792,2.629 29.792,2.733 29.792,2.984 29.792,2.995 29.792,3.064 29.803,3.202 29.803,3.499 
	29.814,3.728 29.814,3.796 29.814,3.945 29.814,4.048 29.826,4.105 29.826,4.128 29.826,4.369 29.826,4.449 29.826,4.46 
	29.837,4.666 29.837,4.849 29.837,4.884 29.837,4.941 29.837,4.986 29.85,5.043 29.85,5.285 29.85,5.342 29.85,5.398 29.85,5.49 
	29.85,5.501 29.85,5.57 29.859,5.65 29.859,5.661 29.859,5.673 29.859,5.684 29.859,5.695 29.859,5.707 29.859,5.879 29.859,5.936 
	29.872,6.2 29.872,6.245 29.872,6.268 29.872,6.394 29.883,6.451 29.883,6.531 29.883,6.565 29.883,6.623 29.883,6.634 
	29.883,6.645 29.883,6.714 29.883,6.771 29.883,6.783 29.883,6.852 29.883,6.897 29.883,7.022 29.896,7.103 29.896,7.229 
	29.896,7.333 29.896,7.4 29.896,7.469 29.896,7.561 29.905,7.595 29.905,7.675 29.905,7.744 29.905,7.801 29.905,7.824 
	29.905,7.835 29.905,7.903 29.905,7.916 29.905,7.995 29.917,8.167 29.917,8.213 29.917,8.282 29.917,8.453 29.917,8.465 
	29.917,8.51 29.929,8.522 29.929,8.683 29.929,8.75 29.929,8.785 29.929,8.796 29.929,8.808 29.929,8.865 29.929,8.876 
	29.929,8.968 29.94,9.049 29.929,9.117 29.929,9.163 29.929,9.208 29.929,9.219 29.94,9.403 29.953,9.608 29.953,9.62 29.953,9.632 
	29.953,9.746 29.953,9.929 29.953,10.021 29.964,10.089 29.964,10.112 29.964,10.181 29.964,10.238 29.964,10.273 29.977,10.535 
	29.977,10.626 29.977,10.695 29.977,10.925 29.987,11.05 29.987,11.084 29.987,11.21 29.987,11.246 29.987,11.301 29.987,11.336 
	29.977,11.348 29.964,11.348 29.953,11.359 29.94,11.359 29.917,11.359 29.905,11.359 29.883,11.37 29.872,11.382 29.859,11.394 
	29.826,11.404 29.814,11.417 29.792,11.417 29.746,11.45 29.734,11.462 29.712,11.484 29.688,11.508 29.688,11.519 29.679,11.519 
	29.666,11.519 29.666,11.531 29.643,11.531 29.632,11.542 29.62,11.542 29.608,11.542 29.608,11.531 29.598,11.531 29.586,11.531 
	29.575,11.508 29.562,11.496 29.552,11.496 29.541,11.474 29.529,11.462 29.495,11.45 29.472,11.45 29.426,11.474 29.392,11.484 
	29.381,11.484 29.335,11.496 29.324,11.496 29.301,11.519 29.289,11.519 29.289,11.531 29.278,11.531 29.266,11.553 29.255,11.565 
	29.255,11.576 29.221,11.634 29.175,11.68 29.164,11.691 29.151,11.691 29.141,11.702 29.105,11.737 29.095,11.76 29.084,11.806 
	29.084,11.84 29.084,11.874 29.117,11.909 29.164,11.942 29.175,11.965 29.243,12.08 29.255,12.08 29.266,12.104 29.266,12.115 
	29.301,12.159 29.324,12.159 29.335,12.183 29.346,12.217 29.369,12.275 29.369,12.308 29.381,12.332 29.381,12.366 29.403,12.457 
	29.426,12.492 29.461,12.549 29.495,12.595 29.506,12.595 29.518,12.606 29.529,12.629 29.541,12.664 29.552,12.698 29.552,12.709 
	29.541,12.767 29.529,12.8 29.506,12.858 29.495,12.869 29.495,12.892 29.495,12.903 29.461,12.972 29.449,12.995 29.449,13.041 
	29.449,13.053 29.449,13.064 29.449,13.098 29.449,13.122 29.449,13.213 29.461,13.247 29.461,13.258 29.438,13.282 29.392,13.292 
	29.358,13.315 29.335,13.327 29.324,13.361 29.335,13.396 29.346,13.396 29.346,13.407 29.369,13.407 29.414,13.43 29.449,13.454 
	29.472,13.476 29.495,13.522 29.483,13.579 29.472,13.613 29.461,13.636 29.461,13.705 29.472,13.75 29.495,13.797 29.506,13.819 
	29.518,13.83 29.518,13.853 29.529,13.853 29.541,13.911 29.541,13.945 29.541,13.957 29.541,13.991 29.541,14.002 29.529,14.024 
	29.506,14.059 29.483,14.105 29.461,14.15 29.449,14.186 29.449,14.208 29.449,14.254 29.449,14.311 29.438,14.357 29.438,14.368 
	29.414,14.392 29.324,14.459 29.324,14.448 29.278,14.483 29.266,14.494 29.232,14.54 29.232,14.551 29.187,14.642 29.175,14.665 
	29.164,14.745 29.164,14.769 29.164,14.803 29.151,14.848 29.141,14.906 29.117,14.963 29.071,15.008 29.061,15.02 29.049,15.031 
	29.038,15.055 29.025,15.066 29.003,15.112 28.979,15.169 28.968,15.18 28.957,15.215 28.934,15.248 28.934,15.261 28.923,15.272 
	28.923,15.283 28.923,15.295 28.911,15.295 28.911,15.33 28.911,15.34 28.911,15.353 28.899,15.363 28.899,15.409 28.888,15.409 
	28.888,15.421 28.888,15.479 28.888,15.512 28.899,15.57 28.911,15.581 28.911,15.591 28.911,15.604 28.923,15.627 28.911,15.672 
	28.911,15.707 28.899,15.719 28.877,15.74 28.854,15.764 28.797,15.811 28.786,15.821 28.773,15.832 28.763,15.845 28.74,15.878 
	28.729,15.913 28.729,15.947 28.74,16.004 28.75,16.038 28.75,16.049 28.763,16.049 28.763,16.062 28.763,16.073 28.773,16.085 
	28.773,16.096 28.773,16.118 28.773,16.129 28.773,16.141 28.773,16.153 28.773,16.211 28.773,16.221 28.763,16.255 28.75,16.29 
	28.74,16.302 28.74,16.347 28.74,16.358 28.74,16.37 28.729,16.404 28.717,16.462 28.717,16.472 28.717,16.485 28.717,16.496 
	28.717,16.519 28.717,16.53 28.729,16.553 28.729,16.577 28.729,16.598 28.74,16.61 28.74,16.621 28.74,16.645 28.74,16.691 
	28.74,16.713 28.74,16.724 28.74,16.736 28.74,16.771 28.717,16.782 28.694,16.805 28.659,16.829 28.648,16.838 28.637,16.838 
	28.637,16.852 28.625,16.862 28.613,16.873 28.592,16.908 28.592,16.931 28.592,16.954 28.592,16.964 28.603,17.057 28.613,17.102 
	28.637,17.16 28.637,17.171 28.637,17.181 28.637,17.194 28.648,17.194 28.648,17.204 28.648,17.218 28.637,17.228 28.625,17.251 
	28.625,17.262 28.613,17.262 28.613,17.273 28.603,17.273 28.603,17.262 28.579,17.262 28.569,17.262 28.557,17.262 28.546,17.251 
	28.477,17.204 28.453,17.194 28.396,17.181 28.362,17.181 28.362,17.194 28.352,17.194 28.34,17.204 28.328,17.204 28.328,17.218 
	28.328,17.228 28.316,17.239 28.316,17.262 28.316,17.297 28.316,17.32 28.316,17.331 28.34,17.365 28.362,17.412 28.396,17.457 
	28.408,17.47 28.408,17.479 28.42,17.491 28.432,17.526 28.432,17.538 28.432,17.549 28.442,17.572 28.432,17.605 28.42,17.64 
	28.386,17.674 28.306,17.72 28.282,17.731 28.249,17.755 28.226,17.777 28.214,17.801 28.214,17.822 28.226,17.869 28.236,17.938 
	28.249,17.961 28.249,18.063 28.249,18.097 28.236,18.131 28.236,18.144 28.226,18.167 28.169,18.235 28.099,18.293 27.996,18.361 
	27.984,18.396 27.961,18.419 27.961,18.43 27.961,18.44 27.961,18.453 27.961,18.464 27.974,18.498 27.974,18.51 27.984,18.521 
	27.984,18.545 28.054,18.624 28.064,18.636 28.087,18.646 28.11,18.659 28.169,18.772 28.191,18.796 28.203,18.806 28.214,18.853 
	28.214,18.876 28.203,18.922 28.191,18.944 28.156,18.955 28.146,18.967 28.122,18.979 28.077,18.979 28.064,18.989 28.041,19.002 
	28.031,19.013 28.019,19.024 28.008,19.036 28.008,19.046 27.996,19.08 27.996,19.104 27.996,19.151 27.996,19.173 27.996,19.277 
	27.996,19.301 27.996,19.356 27.974,19.402 27.974,19.426 27.974,19.438 27.974,19.447 27.974,19.459 27.974,19.471 27.961,19.481 
	27.961,19.494 27.938,19.562 27.916,19.619 27.837,19.643 27.813,19.643 27.757,19.631 27.677,19.631 27.664,19.643 27.631,19.643 
	27.585,19.664 27.562,19.688 27.517,19.734 27.493,19.756 27.356,19.871 27.333,19.894 27.311,19.917 27.311,19.928 27.253,19.974 
	27.206,20.03 27.195,20.044 "/>
<polyline fill="none" stroke="#404041" stroke-width="0.1" stroke-linecap="round" stroke-linejoin="round" stroke-miterlimit="3.85" points="
	27.195,20.044 27.185,20.054 27.161,20.067 27.149,20.077 27.139,20.077 27.115,20.101 27.104,20.111 27.048,20.158 27.024,20.18 
	27.012,20.214 27.001,20.227 26.989,20.237 26.978,20.25 26.968,20.261 26.932,20.284 26.898,20.318 26.864,20.352 26.864,20.363 
	26.853,20.375 26.83,20.397 26.807,20.42 26.807,20.431 26.772,20.443 26.738,20.478 26.738,20.488 26.704,20.535 26.681,20.559 
	26.658,20.58 26.611,20.626 26.611,20.638 26.578,20.685 26.556,20.705 26.556,20.718 26.476,20.889 26.464,20.889 26.431,20.959 
	26.407,20.993 26.384,21.027 26.361,21.051 26.35,21.061 26.327,21.072 26.269,21.072 26.257,21.072 26.246,21.084 26.235,21.084 
	26.212,21.084 26.188,21.096 26.166,21.096 26.143,21.107 26.12,21.119 26.063,21.153 26.052,21.163 26.029,21.187 25.994,21.244 
	25.96,21.279 25.938,21.301 25.938,21.312 25.902,21.347 25.892,21.381 25.869,21.403 25.869,21.417 25.869,21.461 25.869,21.496 
	25.857,21.508 25.846,21.529 25.835,21.529 25.812,21.553 25.801,21.553 25.675,21.519 25.641,21.519 25.584,21.542 25.572,21.542 
	25.503,21.553 25.469,21.563 25.469,21.576 25.435,21.61 25.424,21.61 25.388,21.621 25.377,21.634 25.33,21.645 25.32,21.654 
	25.297,21.668 25.285,21.678 25.193,21.759 25.159,21.782 25.091,21.827 25.057,21.862 25.046,21.875 25.033,21.886 25.022,21.886 
	25,21.896 24.977,21.909 24.966,21.909 24.931,21.909 24.92,21.909 24.896,21.919 24.874,21.919 24.839,21.919 24.816,21.919 
	24.793,21.909 24.783,21.909 24.76,21.875 24.748,21.862 24.726,21.838 24.714,21.804 24.68,21.701 24.668,21.634 24.656,21.576 
	24.646,21.553 24.611,21.496 24.555,21.45 24.52,21.417 24.509,21.403 24.496,21.403 24.462,21.394 24.462,21.381 24.394,21.37 
	24.382,21.37 24.337,21.381 24.256,21.427 24.256,21.438 24.222,21.45 24.176,21.519 24.165,21.542 24.13,21.587 24.05,21.668 
	24.039,21.678 24.004,21.701 23.981,21.725 23.971,21.735 23.937,21.759 23.913,21.771 23.901,21.771 23.845,21.793 23.822,21.815 
	23.8,21.838 23.707,21.953 23.696,22 23.696,22.021 23.684,22.126 23.674,22.205 23.662,22.319 23.662,22.354 23.662,22.366 
	23.662,22.41 23.662,22.468 23.65,22.503 23.65,22.513 23.628,22.536 23.558,22.526 23.535,22.526 23.524,22.526 23.512,22.513 
	23.501,22.513 23.479,22.491 23.466,22.491 23.455,22.479 23.444,22.479 23.421,22.468 23.409,22.468 23.398,22.468 23.386,22.468 
	23.375,22.468 23.364,22.468 23.353,22.479 23.329,22.479 23.308,22.491 23.169,22.457 23.158,22.457 23.09,22.457 23.044,22.468 
	22.998,22.468 22.987,22.479 22.952,22.491 22.918,22.513 22.884,22.56 22.873,22.56 22.873,22.57 22.861,22.583 22.85,22.594 
	22.838,22.628 22.838,22.662 22.838,22.696 22.838,22.708 22.838,22.72 22.838,22.743 22.85,22.767 22.861,22.788 22.861,22.801 
	22.873,22.812 22.873,22.824 22.873,22.846 22.873,22.869 22.861,22.869 22.861,22.88 22.85,22.893 22.827,22.916 22.815,22.916 
	22.815,22.926 22.804,22.926 22.781,22.926 22.747,22.938 22.7,22.949 22.666,22.961 22.653,22.961 22.644,22.972 22.632,22.995 
	22.608,23.042 22.608,23.052 22.597,23.12 22.586,23.144 22.563,23.178 22.506,23.2 22.482,23.212 22.482,23.224 22.473,23.235 
	22.473,23.246 22.473,23.259 22.46,23.281 22.473,23.281 22.473,23.292 22.482,23.326 22.54,23.51 22.552,23.566 22.54,23.59 
	22.54,23.647 22.54,23.682 22.563,23.761 22.552,23.854 22.552,23.887 22.54,23.923 22.528,23.944 22.495,23.979 22.46,24.014 
	22.46,24.025 22.449,24.035 22.426,24.048 22.415,24.048 22.357,24.07 22.346,24.082 22.312,24.082 22.289,24.082 22.277,24.07 
	22.255,24.07 22.208,24.048 22.175,24.035 22.152,24.035 22.129,24.035 22.118,24.048 22.105,24.07 22.105,24.116 22.118,24.161 
	22.118,24.185 22.118,24.208 22.129,24.23 22.129,24.242 22.14,24.266 22.152,24.275 22.163,24.299 22.175,24.333 22.186,24.333 
	22.186,24.345 22.198,24.345 22.22,24.368 22.243,24.391 22.289,24.414 22.335,24.459 22.346,24.47 22.369,24.506 22.38,24.506 
	22.402,24.55 22.415,24.562 22.426,24.586 22.426,24.598 22.426,24.643 22.426,24.653 22.426,24.688 22.415,24.711 22.38,24.734 
	22.369,24.768 22.357,24.781 22.357,24.791 22.346,24.837 22.346,24.86 22.357,24.872 22.335,24.928 22.335,24.94 22.323,24.975 
	22.323,24.998 22.323,25.009 22.323,25.02 22.323,25.042 22.335,25.055 22.335,25.065 22.369,25.101 22.392,25.123 22.426,25.168 
	22.449,25.191 22.482,25.226 22.482,25.249 22.473,25.282 22.473,25.294 22.46,25.317 22.437,25.329 22.415,25.34 22.402,25.34 
	22.369,25.34 22.346,25.329 22.323,25.317 22.3,25.306 22.243,25.282 22.231,25.259 22.163,25.18 22.118,25.146 22.082,25.146 
	22.072,25.146 22.049,25.146 22.037,25.157 22.003,25.168 21.969,25.226 21.923,25.294 21.911,25.419 21.923,25.442 21.9,25.512 
	21.854,25.581 21.832,25.603 21.798,25.639 21.739,25.684 21.647,25.73 21.647,25.741 21.637,25.741 21.626,25.741 21.613,25.741 
	21.591,25.73 21.522,25.707 21.511,25.694 21.477,25.66 21.407,25.593 21.396,25.581 21.396,25.569 21.407,25.523 21.419,25.501 
	21.453,25.455 21.466,25.442 21.488,25.408 21.499,25.398 21.522,25.385 21.567,25.329 21.58,25.317 21.58,25.282 21.58,25.259 
	21.567,25.226 21.534,25.157 21.522,25.146 21.511,25.123 21.499,25.101 21.499,25.089 21.477,25.055 21.453,24.985 21.407,24.906 
	21.386,24.872 21.363,24.825 21.351,24.803 21.34,24.803 21.306,24.781 21.26,24.758 21.248,24.758 21.202,24.758 21.19,24.768 
	21.169,24.768 21.146,24.781 21.1,24.781 21.076,24.781 21.065,24.781 21.053,24.768 21.053,24.758 21.053,24.724 21.053,24.711 
	21.043,24.7 21.043,24.677 21.031,24.643 21.02,24.643 21.02,24.632 21.02,24.619 20.997,24.574 20.974,24.55 20.974,24.539 
	20.951,24.517 20.939,24.506 20.928,24.506 20.928,24.493 20.917,24.493 20.905,24.493 20.895,24.482 20.824,24.482 20.778,24.493 
	20.768,24.493 20.755,24.506 20.71,24.517 20.698,24.539 20.677,24.574 20.677,24.586 20.677,24.598 20.664,24.608 20.664,24.653 
	20.653,24.653 20.653,24.688 20.63,24.744 20.618,24.768 20.607,24.768 20.597,24.781 20.584,24.791 20.573,24.803 20.517,24.837 
	20.505,24.849 20.436,24.884 20.401,24.906 20.38,24.917 20.38,24.928 20.367,24.928 20.367,24.94 20.356,24.951 20.356,24.963 
	20.344,25.009 20.321,25.065 20.311,25.089 20.299,25.089 20.287,25.123 20.253,25.157 20.253,25.168 20.241,25.215 20.241,25.249 
	20.241,25.259 20.241,25.272 20.23,25.294 20.219,25.294 20.196,25.329 20.173,25.363 20.161,25.398 20.15,25.408 20.127,25.455 
	20.093,25.49 20.036,25.547 20.036,25.558 20.036,25.603 20.024,25.66 20.024,25.673 20.024,25.684 20.047,25.718 20.047,25.752 
	20.06,25.752 20.06,25.774 20.06,25.798 20.06,25.81 20.07,25.821 20.06,25.844 20.06,25.855 20.06,25.867 20.06,25.891 20.06,25.9 
	20.047,25.935 20.047,25.947 20.036,25.97 20.036,25.981 20.036,25.991 20.036,26.015 20.024,26.015 20.014,26.038 20.014,26.05 
	20.002,26.061 19.99,26.072 19.99,26.084 19.933,26.141 19.921,26.151 19.897,26.164 19.806,26.209 19.784,26.209 19.762,26.222 
	19.738,26.222 19.738,26.232 19.681,26.279 19.624,26.324 19.612,26.335 19.601,26.348 19.589,26.358 19.578,26.382 19.544,26.45 
	19.544,26.484 19.544,26.507 19.544,26.519 19.544,26.53 19.555,26.553 19.555,26.565 19.578,26.6 19.601,26.623 19.635,26.644 
	19.669,26.667 19.692,26.69 19.716,26.735 19.726,26.827 19.749,26.851 19.762,26.884 19.762,26.941 19.771,26.976 19.784,27.021 
	19.795,27.08 19.795,27.091 19.795,27.101 19.795,27.114 19.784,27.147 19.784,27.158 19.771,27.182 19.762,27.205 19.749,27.25 
	19.749,27.263 19.749,27.284 19.738,27.319 19.762,27.376 19.771,27.411 19.771,27.423 19.771,27.435 19.771,27.48 19.818,27.572 
	19.829,27.616 19.852,27.697 19.864,27.721 19.864,27.732 19.864,27.755 19.864,27.812 19.852,27.88 19.852,27.892 19.841,27.892 
	19.829,27.926 19.829,27.938 19.818,27.949 19.806,27.972 19.762,28.006 19.749,28.006 19.726,28.017 19.669,28.029 19.658,28.029 
	19.646,28.029 19.567,28.029 19.544,28.04 19.441,27.995 19.396,27.982 19.372,27.982 19.351,27.972 19.351,27.982 19.292,27.982 
	19.271,27.995 19.234,28.006 19.225,28.006 19.225,28.017 19.212,28.017 19.212,28.029 19.144,28.098 19.133,28.108 19.109,28.143 
	19.098,28.166 19.087,28.189 19.098,28.213 19.098,28.292 19.098,28.305 19.087,28.451 19.087,28.465 19.063,28.509 19.053,28.544 
	19.053,28.556 19.04,28.566 19.04,28.59 19.029,28.601 19.029,28.613 19.029,28.635 19.029,28.738 19.029,28.796 19.029,28.807 
	19.029,28.818 19.017,28.854 18.982,28.909 18.982,28.944 18.972,28.956 18.972,28.966 18.972,29.013 18.972,29.023 18.972,29.036 
	18.959,29.047 18.959,29.07 18.949,29.081 18.937,29.116 18.903,29.185 18.857,29.23 18.8,29.254 18.675,29.276 18.595,29.288 
	18.583,29.299 18.571,29.299 18.538,29.311 18.491,29.311 18.479,29.311 18.469,29.299 18.389,29.265 18.366,29.276 18.354,29.288 
	18.263,29.322 18.229,29.333 18.218,29.333 18.205,29.346 18.194,29.346 18.183,29.356 18.113,29.367 18.091,29.379 18.033,29.391 
	18.022,29.391 18.011,29.401 17.999,29.401 17.987,29.401 17.965,29.414 17.862,29.448 17.816,29.472 17.736,29.505 17.6,29.551 
	17.577,29.551 17.554,29.551 17.53,29.562 17.462,29.562 17.416,29.562 17.394,29.551 17.336,29.539 17.325,29.528 17.291,29.516 
	17.279,29.505 17.269,29.505 17.245,29.481 17.222,29.472 17.222,29.458 17.21,29.448 17.188,29.414 17.164,29.379 17.164,29.367 
	17.164,29.356 17.141,29.288 17.131,29.241 17.118,29.116 17.118,29.104 17.107,29.059 17.095,29.036 17.085,29.023 17.085,29.013 
	17.073,29.013 17.073,29 17.062,28.989 17.05,28.979 17.038,28.979 17.027,28.966 16.993,28.944 16.958,28.933 16.947,28.922 
	16.901,28.909 16.901,28.898 16.844,28.863 16.833,28.854 16.822,28.841 16.798,28.818 16.787,28.807 16.765,28.783 16.765,28.772 
	16.73,28.726 16.673,28.67 16.662,28.646 16.627,28.579 16.604,28.544 16.594,28.532 16.594,28.521 16.594,28.509 16.582,28.498 
	16.57,28.488 16.535,28.441 16.512,28.418 16.478,28.396 16.456,28.384 16.444,28.384 16.422,28.372 16.41,28.36 16.386,28.339 
	16.364,28.315 16.352,28.315 16.318,28.292 16.261,28.305 16.239,28.292 16.227,28.292 16.193,28.292 16.112,28.292 16.021,28.292 
	16.009,28.305 15.986,28.292 15.94,28.292 15.93,28.292 15.93,28.281 15.895,28.269 15.873,28.269 15.838,28.234 15.803,28.225 
	15.781,28.201 15.769,28.201 15.747,28.189 15.747,28.178 15.701,28.143 15.667,28.108 15.644,28.098 15.632,28.087 15.621,28.074 
	15.609,28.051 15.597,28.04 15.575,28.006 15.552,27.926 15.529,27.856 15.529,27.834 15.529,27.823 15.529,27.8 15.517,27.697 
	15.517,27.616 15.517,27.594 15.517,27.583 15.506,27.48 15.484,27.411 15.472,27.399 15.438,27.332 15.403,27.298 15.403,27.273 
	15.392,27.239 15.392,27.171 15.403,27.114 15.426,27.033 15.426,27.01 15.438,26.976 15.438,26.931 15.438,26.919 15.426,26.851 
	15.426,26.84 15.426,26.805 15.415,26.782 15.403,26.771 15.38,26.735 15.346,26.714 15.312,26.702 15.289,26.702 15.277,26.702 
	15.14,26.735 15.129,26.735 15.094,26.748 15.071,26.759 15.014,26.782 14.992,26.793 14.969,26.805 14.957,26.816 14.946,26.827 
	14.876,26.863 14.876,26.873 14.843,26.896 14.809,26.919 14.785,26.931 14.74,26.941 14.717,26.941 14.705,26.941 14.694,26.941 
	14.649,26.919 14.636,26.919 14.614,26.907 14.603,26.907 14.545,26.907 14.534,26.907 14.522,26.907 14.477,26.919 14.431,26.931 
	14.419,26.941 14.408,26.954 14.385,26.988 14.375,27.021 14.34,27.08 14.271,27.182 14.202,27.239 14.122,27.284 14.1,27.284 
	14.076,27.298 13.963,27.332 13.927,27.343 13.893,27.376 13.859,27.423 13.836,27.48 13.824,27.491 13.813,27.572 13.801,27.594 
	13.801,27.606 13.79,27.616 13.79,27.63 13.756,27.686 13.756,27.697 13.733,27.721 13.699,27.755 13.619,27.789 13.607,27.789 
	13.562,27.789 13.517,27.789 13.448,27.8 13.401,27.812 13.391,27.812 13.378,27.812 13.344,27.812 13.333,27.812 13.321,27.812 
	13.309,27.812 13.265,27.8 13.196,27.755 13.184,27.755 13.161,27.742 13.139,27.732 13.127,27.732 13.092,27.721 13.048,27.721 
	13.012,27.732 12.99,27.755 12.956,27.766 12.933,27.776 12.909,27.8 12.898,27.823 12.807,27.926 12.784,27.949 12.784,27.959 
	12.773,27.959 12.761,27.972 12.738,27.972 12.692,27.959 12.681,27.959 12.681,27.949 12.669,27.949 12.658,27.949 12.647,27.938 
	12.647,27.926 12.635,27.926 12.624,27.914 12.59,27.868 12.59,27.856 12.578,27.847 12.578,27.812 12.578,27.766 12.567,27.697 
	12.532,27.64 12.452,27.572 12.349,27.502 12.292,27.468 12.281,27.468 12.27,27.468 12.234,27.446 12.224,27.446 12.166,27.435 
	11.994,27.399 11.949,27.389 11.834,27.376 11.812,27.376 11.777,27.365 11.708,27.343 11.697,27.343 11.64,27.319 11.617,27.309 
	11.595,27.273 11.525,27.205 11.48,27.171 11.411,27.124 11.365,27.114 11.308,27.101 11.229,27.101 11.125,27.124 11.045,27.158 
	10.999,27.171 10.965,27.182 10.839,27.205 10.829,27.217 10.725,27.239 10.714,27.239 10.702,27.239 10.68,27.25 10.668,27.263 
	10.646,27.273 10.633,27.273 10.633,27.284 10.588,27.332 10.576,27.355 10.565,27.376 10.554,27.446 10.554,27.502 10.542,27.502 
	10.53,27.572 10.507,27.616 10.507,27.63 10.485,27.651 10.462,27.674 10.451,27.686 10.428,27.686 10.393,27.697 10.371,27.697 
	10.302,27.674 10.291,27.674 10.256,27.663 10.141,27.594 10.13,27.594 10.119,27.594 10.084,27.583 10.062,27.56 10.05,27.549 
	10.039,27.549 10.039,27.537 10.028,27.537 9.924,27.525 9.867,27.515 9.856,27.515 9.798,27.491 9.776,27.491 9.753,27.48 
	9.729,27.468 9.718,27.446 9.707,27.446 9.707,27.423 9.696,27.399 9.684,27.365 9.684,27.332 9.662,27.229 9.662,27.205 
	9.639,27.136 9.627,27.101 9.615,27.101 9.592,27.091 9.547,27.057 9.501,27.045 9.456,27.033 9.398,27.021 9.33,26.965 
	9.307,26.954 9.307,26.941 9.296,26.931 9.284,26.919 9.284,26.907 9.272,26.896 9.272,26.884 9.272,26.873 9.272,26.851 
	9.261,26.793 9.25,26.759 9.25,26.748 9.238,26.735 9.238,26.714 9.227,26.69 9.214,26.69 9.214,26.68 9.214,26.667 9.17,26.633 
	9.124,26.609 9.112,26.6 9.089,26.588 9.078,26.588 8.998,26.565 8.884,26.542 8.827,26.519 8.814,26.519 8.804,26.519 8.78,26.519 
	8.746,26.507 8.735,26.497 8.735,26.484 8.631,26.405 8.575,26.382 8.529,26.382 8.518,26.368 8.483,26.368 8.415,26.368 
	8.312,26.416 8.244,26.427 8.231,26.427 8.186,26.45 8.152,26.462 8.14,26.462 8.14,26.474 8.105,26.474 8.037,26.497 8.003,26.507 
	7.957,26.497 7.946,26.497 7.877,26.497 7.831,26.497 7.683,26.462 7.637,26.439 7.591,26.427 7.569,26.416 7.545,26.393 
	7.443,26.348 7.431,26.335 7.385,26.324 7.374,26.324 7.328,26.301 7.316,26.301 7.294,26.289 7.271,26.289 7.111,26.256 
	7.087,26.256 7.03,26.232 6.985,26.222 6.951,26.209 6.938,26.198 6.904,26.151 6.894,26.151 6.894,26.141 6.882,26.131 
	6.859,26.096 6.836,26.026 6.825,26.015 6.825,25.991 6.825,25.981 6.825,25.935 6.813,25.9 6.813,25.867 6.813,25.844 6.813,25.81 
	6.813,25.786 6.813,25.774 "/>
<polyline fill="none" stroke="#404041" stroke-width="0.1" stroke-linecap="round" stroke-linejoin="round" stroke-miterlimit="3.85" points="
	6.813,25.774 6.825,25.707 6.825,25.673 6.825,25.66 6.825,25.649 6.825,25.639 6.825,25.593 6.825,25.558 6.813,25.49 
	6.778,25.419 6.768,25.408 6.745,25.375 6.71,25.306 6.676,25.238 6.653,25.215 6.642,25.202 6.642,25.191 6.607,25.146 
	6.562,25.089 6.538,25.065 6.516,25.031 6.504,25.009 6.493,24.985 6.481,24.975 6.47,24.94 6.459,24.906 6.447,24.872 
	6.447,24.849 6.447,24.837 6.436,24.768 6.436,24.758 6.436,24.744 6.436,24.734 6.436,24.7 6.436,24.688 6.425,24.643 
	6.402,24.598 6.39,24.562 6.333,24.47 6.298,24.436 6.253,24.391 6.195,24.345 6.138,24.31 6.047,24.275 6.036,24.266 5.989,24.266 
	5.876,24.242 5.829,24.23 5.818,24.23 5.784,24.23 5.75,24.23 5.682,24.196 5.659,24.185 5.646,24.173 5.635,24.173 5.635,24.161 
	5.624,24.149 5.611,24.14 5.611,24.128 5.589,24.048 5.589,24.002 5.589,23.968 5.589,23.923 5.589,23.899 5.589,23.854 
	5.601,23.831 5.578,23.774 5.555,23.704 5.521,23.67 5.498,23.647 5.463,23.624 5.418,23.612 5.361,23.612 5.326,23.624 
	5.292,23.647 5.269,23.67 5.258,23.693 5.224,23.751 5.212,23.761 5.201,23.774 5.189,23.784 5.177,23.784 5.167,23.808 
	5.132,23.818 5.109,23.831 5.063,23.842 5.052,23.842 5.028,23.842 5.018,23.842 4.937,23.795 4.926,23.784 4.915,23.774 
	4.903,23.774 4.858,23.774 4.834,23.784 4.811,23.808 4.767,23.876 4.755,23.876 4.731,23.899 4.72,23.91 4.583,23.944 
	4.549,23.956 4.537,23.968 4.525,23.968 4.514,23.979 4.503,23.979 4.492,23.979 4.468,23.979 4.424,23.979 4.411,23.979 
	4.4,23.968 4.389,23.968 4.332,23.944 4.319,23.923 4.228,23.818 4.183,23.795 4.125,23.774 4.057,23.761 4.011,23.751 
	3.988,23.716 3.977,23.716 3.977,23.704 3.954,23.682 3.932,23.647 3.909,23.59 3.84,23.498 3.828,23.476 3.805,23.44 3.771,23.417 
	3.759,23.407 3.725,23.384 3.645,23.36 3.6,23.36 3.576,23.36 3.554,23.384 3.496,23.429 3.394,23.59 3.358,23.612 3.325,23.624 
	3.222,23.657 3.21,23.67 3.199,23.682 3.153,23.682 3.165,23.635 3.165,23.566 3.165,23.498 3.165,23.464 3.165,23.36 3.165,23.326 
	3.176,23.259 3.176,23.235 3.176,22.949 3.188,22.767 3.188,22.755 3.188,22.72 3.188,22.696 3.188,22.685 3.188,22.674 
	3.188,22.56 3.188,22.536 3.188,22.526 3.188,22.503 3.188,22.468 3.188,22.457 3.199,22.422 3.199,22.41 3.199,22.377 
	3.199,22.366 3.199,22.354 3.199,22.343 3.199,22.296 3.21,22.068 "/>
<polyline fill="none" stroke="#404041" stroke-width="0.1" stroke-linecap="round" stroke-linejoin="round" stroke-miterlimit="3.85" points="
	16.546,3.545 16.57,3.591 16.627,3.603 16.685,3.534 16.707,3.545 16.696,3.67 16.685,3.739 16.649,3.796 16.639,3.808 
	16.559,3.808 16.41,3.728 16.352,3.682 16.352,3.67 16.352,3.66 16.422,3.568 16.456,3.534 16.523,3.534 16.546,3.545 "/>
<polyline fill="none" stroke="#404041" stroke-width="0.1" stroke-linecap="round" stroke-linejoin="round" stroke-miterlimit="3.85" points="
	15.873,3.327 15.792,3.419 15.747,3.453 15.701,3.465 15.701,3.304 15.758,3.225 15.814,3.213 15.907,3.19 15.93,3.168 
	15.986,3.155 16.009,3.168 15.998,3.19 15.976,3.225 15.883,3.327 15.873,3.327 "/>
<polyline fill="none" stroke="#404041" stroke-width="0.1" stroke-linecap="round" stroke-linejoin="round" stroke-miterlimit="3.85" points="
	15.93,3.087 15.93,3.11 15.883,3.121 15.803,3.007 15.883,2.95 15.94,2.927 16.043,2.904 16.067,2.927 16.021,2.961 15.952,3.019 
	15.93,3.087 "/>
<polyline fill="none" stroke="#404041" stroke-width="0.1" stroke-linecap="round" stroke-linejoin="round" stroke-miterlimit="3.85" points="
	15.883,2.687 15.895,2.71 15.907,2.812 15.86,2.824 15.747,2.812 15.747,2.789 15.769,2.755 15.803,2.698 15.838,2.687 
	15.883,2.687 "/>
</svg>
