<?xml version="1.0" encoding="utf-8"?>
<!-- Generator: Adobe Illustrator 16.0.0, SVG Export Plug-In . SVG Version: 6.00 Build 0)  -->
<!DOCTYPE svg PUBLIC "-//W3C//DTD SVG 1.1//EN" "http://www.w3.org/Graphics/SVG/1.1/DTD/svg11.dtd">
<svg version="1.1" id="Layer_1" xmlns="http://www.w3.org/2000/svg" xmlns:xlink="http://www.w3.org/1999/xlink" x="0px" y="0px"
	 width="32px" height="42px" viewBox="0 0 32 42" enable-background="new 0 0 32 42" xml:space="preserve">
<g id="pa">
	
		<linearGradient id="SVGID_1_" gradientUnits="userSpaceOnUse" x1="15.9399" y1="13.1812" x2="15.9399" y2="30.5864" gradientTransform="matrix(1 0 0 -1 0 43)">
		<stop  offset="0" style="stop-color:#808080"/>
		<stop  offset="1" style="stop-color:#BFBFBF"/>
	</linearGradient>
	<polygon display="none" fill="url(#SVGID_1_)" points="1.275,15.165 1.284,15.078 1.284,15.069 1.284,15.049 1.284,14.933 
		1.284,14.875 1.294,14.77 1.294,14.625 1.294,14.567 1.294,14.519 1.303,14.48 1.303,14.306 1.303,14.296 1.352,14.277 
		1.487,14.219 1.737,14.113 1.776,14.104 1.863,14.084 1.988,14.026 2.008,14.016 2.056,13.997 2.056,14.007 2.095,13.979 
		2.105,13.979 2.114,13.979 2.172,13.968 2.172,13.958 2.201,13.958 2.201,13.949 2.278,13.929 2.278,13.92 2.297,13.91 
		2.433,13.853 2.443,13.842 2.529,13.804 2.616,13.746 2.654,13.728 2.752,13.678 2.79,13.659 2.877,13.611 2.896,13.602 
		2.935,13.583 2.964,13.572 3.002,13.553 3.041,13.524 3.05,13.524 3.061,13.514 3.069,13.505 3.118,13.476 3.138,13.456 
		3.175,13.418 3.253,13.234 3.273,13.187 3.301,13.138 3.369,13.07 3.407,13.062 3.427,13.062 3.456,13.051 3.523,13.032 
		3.572,13.042 3.59,13.062 3.562,13.099 3.601,13.157 3.562,13.176 3.582,13.205 3.601,13.215 3.619,13.224 3.649,13.224 
		3.726,13.187 3.755,13.167 3.784,13.157 3.822,13.138 3.861,13.109 3.9,13.089 3.909,13.08 3.957,13.062 3.997,13.032 
		4.015,13.022 4.026,13.022 4.045,13.003 4.074,12.983 4.17,12.917 4.209,12.897 4.277,12.848 4.315,12.829 4.353,12.819 
		4.441,12.78 4.46,12.771 4.469,12.761 4.527,12.723 4.547,12.703 4.643,12.665 4.758,12.635 4.817,12.607 4.855,12.588 5,12.51 
		5.116,12.452 5.184,12.414 5.184,12.433 5.173,12.539 5.173,12.597 5.173,12.607 5.164,13.003 5.164,13.032 5.164,13.07 
		5.164,13.147 5.164,13.195 5.164,13.224 5.154,13.36 5.154,13.438 5.154,13.659 5.145,13.958 5.145,14.123 5.145,14.258 
		5.184,14.258 5.435,14.258 5.599,14.258 5.666,14.268 5.734,14.268 5.801,14.268 5.831,14.268 5.908,14.268 6.206,14.277 
		6.265,14.277 6.323,14.286 6.409,14.286 6.506,14.286 6.603,14.286 6.911,14.296 6.999,14.296 7.065,14.296 7.259,14.296 
		7.5,14.306 7.548,14.306 7.732,14.306 7.78,14.306 7.809,14.306 8.079,14.306 8.089,14.306 8.137,14.306 8.262,14.315 8.33,14.315 
		8.677,14.315 8.726,14.325 9.045,14.325 9.073,14.325 9.102,14.325 9.122,14.325 9.19,14.335 9.277,14.335 9.402,14.335 
		9.469,14.344 9.614,14.344 9.623,14.344 9.865,14.344 10.107,14.344 10.261,14.344 10.434,14.344 10.522,14.344 10.772,14.344 
		10.801,14.344 10.927,14.344 11.033,14.344 11.081,14.344 11.1,14.344 11.12,14.344 11.158,14.344 11.341,14.344 11.419,14.354 
		11.709,14.354 12.094,14.354 12.278,14.354 12.288,14.354 12.298,14.354 12.413,14.364 12.49,14.364 12.674,14.364 12.693,14.364 
		12.76,14.364 13.002,14.364 13.079,14.364 13.195,14.364 13.32,14.354 13.417,14.354 13.436,14.354 13.601,14.364 13.668,14.364 
		13.745,14.364 13.764,14.364 13.89,14.364 14.006,14.373 14.054,14.373 14.064,14.373 14.237,14.373 14.266,14.373 14.354,14.373 
		14.546,14.373 14.652,14.373 14.826,14.373 14.855,14.373 14.894,14.373 14.942,14.373 15.309,14.373 15.424,14.373 15.888,14.373 
		15.898,14.373 16.023,14.364 16.554,14.364 16.66,14.364 16.699,14.364 16.795,14.364 16.882,14.364 17.123,14.364 17.441,14.364 
		17.499,14.364 17.635,14.364 17.99,14.364 18.089,14.364 18.214,14.354 18.301,14.354 18.389,14.354 18.475,14.354 18.523,14.354 
		18.581,14.354 18.688,14.354 18.783,14.344 18.841,14.344 18.947,14.344 19.064,14.344 19.275,14.335 19.391,14.335 19.421,14.335 
		19.479,14.335 19.498,14.335 19.508,14.335 19.604,14.335 19.943,14.325 19.961,14.325 20.038,14.325 20.183,14.325 20.376,14.325 
		20.386,14.325 20.463,14.325 20.473,14.325 20.482,14.325 20.617,14.325 20.936,14.325 21.341,14.325 21.39,14.325 21.428,14.325 
		21.457,14.325 21.477,14.325 21.486,14.325 21.516,14.325 21.525,14.325 21.544,14.325 21.572,14.325 21.611,14.325 21.766,14.325 
		21.805,14.325 21.824,14.325 22.23,14.315 22.395,14.315 22.423,14.315 22.77,14.315 22.826,14.306 23.127,14.306 23.417,14.296 
		23.503,14.296 23.531,14.296 23.59,14.296 23.629,14.296 23.841,14.286 23.859,14.286 24.141,14.286 24.218,14.277 24.247,14.277 
		24.266,14.277 24.372,14.277 24.72,14.268 24.816,14.268 25,14.268 25.309,14.268 25.347,14.268 25.365,14.268 25.463,14.258 
		25.521,14.258 25.811,14.248 25.906,14.248 26.129,14.238 26.139,14.238 26.148,14.238 26.195,14.238 26.419,14.229 26.775,14.219 
		26.805,14.219 27.018,14.209 27.035,14.209 27.172,14.209 27.402,14.2 27.432,14.219 27.471,14.229 27.488,14.238 27.499,14.248 
		27.509,14.286 27.509,14.296 27.488,14.373 27.488,14.383 27.509,14.394 27.527,14.394 27.558,14.412 27.596,14.45 27.605,14.46 
		27.615,14.5 27.645,14.528 27.654,14.538 27.693,14.538 27.701,14.538 27.701,14.519 27.701,14.508 27.712,14.5 27.722,14.5 
		27.732,14.5 27.74,14.5 27.75,14.508 27.75,14.547 27.76,14.557 27.77,14.576 27.818,14.605 27.826,14.634 27.826,14.645 
		27.837,14.682 27.837,14.712 27.837,14.731 27.876,14.789 27.886,14.818 27.886,14.846 27.857,14.885 27.857,14.914 27.865,14.953 
		27.886,14.963 27.914,14.963 27.924,14.972 27.943,15.021 27.934,15.03 27.924,15.04 27.914,15.049 27.904,15.06 27.914,15.078 
		27.914,15.088 27.924,15.097 27.924,15.107 27.943,15.117 27.973,15.117 27.982,15.107 27.99,15.107 28.012,15.088 28.021,15.078 
		28.04,15.088 28.061,15.117 28.079,15.136 28.107,15.146 28.117,15.146 28.137,15.126 28.156,15.078 28.165,15.069 28.186,15.06 
		28.214,15.06 28.242,15.069 28.262,15.078 28.271,15.088 28.281,15.088 28.281,15.107 28.291,15.117 28.301,15.117 28.311,15.126 
		28.311,15.117 28.318,15.117 28.318,15.107 28.329,15.107 28.329,15.097 28.329,15.078 28.339,15.06 28.339,15.049 28.349,15.049 
		28.349,15.04 28.359,15.04 28.359,15.03 28.367,15.04 28.378,15.04 28.388,15.049 28.396,15.069 28.396,15.126 28.406,15.165 
		28.416,15.175 28.436,15.185 28.455,15.194 28.474,15.194 28.504,15.175 28.523,15.175 28.542,15.165 28.59,15.214 28.6,15.214 
		28.648,15.204 28.667,15.214 28.667,15.223 28.677,15.242 28.677,15.271 28.667,15.311 28.667,15.329 28.677,15.349 28.677,15.367 
		28.754,15.387 28.783,15.425 28.803,15.436 28.82,15.436 28.852,15.417 28.859,15.406 28.88,15.406 28.889,15.417 28.889,15.425 
		28.898,15.425 28.898,15.436 28.889,15.445 28.889,15.455 28.889,15.484 28.88,15.493 28.88,15.503 28.869,15.522 28.859,15.532 
		28.852,15.532 28.812,15.532 28.793,15.542 28.783,15.551 28.764,15.58 28.754,15.59 28.744,15.599 28.744,15.609 28.734,15.638 
		28.734,15.657 28.734,15.687 28.734,15.696 28.734,15.706 28.744,15.715 28.754,15.726 28.764,15.726 28.783,15.726 28.793,15.726 
		28.859,15.706 28.869,15.706 28.88,15.706 28.889,15.706 28.889,15.715 28.898,15.715 28.898,15.726 28.919,15.735 28.938,15.735 
		28.957,15.744 28.977,15.783 28.986,15.802 28.996,15.831 29.005,15.88 28.996,15.947 29.005,15.986 29.005,15.995 29.005,16.005 
		29.025,16.083 29.025,16.092 29.025,16.102 29.015,16.111 28.967,16.102 28.938,16.102 28.928,16.121 28.928,16.131 28.938,16.15 
		28.977,16.189 28.996,16.217 29.015,16.266 29.025,16.304 29.025,16.323 29.025,16.333 29.015,16.333 28.986,16.362 28.986,16.372 
		28.996,16.391 28.996,16.401 29.015,16.401 29.033,16.44 29.044,16.479 29.044,16.526 29.044,16.574 29.044,16.584 29.054,16.632 
		29.054,16.643 29.072,16.7 29.072,16.738 29.072,16.748 29.064,16.758 29.054,16.758 29.044,16.748 29.033,16.738 29.025,16.738 
		29.015,16.738 28.996,16.748 28.986,16.758 28.996,16.768 28.996,16.777 28.996,16.787 28.996,16.797 28.986,16.797 28.977,16.797 
		28.957,16.797 28.938,16.797 28.938,16.806 28.928,16.806 28.919,16.816 28.919,16.825 28.947,16.855 28.967,16.875 28.977,16.903 
		28.996,16.922 29.005,16.932 29.033,16.951 29.072,16.98 29.082,17.028 29.102,17.067 29.121,17.086 29.141,17.096 29.158,17.096 
		29.169,17.106 29.218,17.183 29.236,17.221 29.236,17.231 29.227,17.25 29.197,17.26 29.189,17.271 29.189,17.299 29.197,17.308 
		29.236,17.318 29.246,17.318 29.266,17.337 29.304,17.366 29.314,17.396 29.314,17.404 29.314,17.415 29.304,17.435 29.304,17.453 
		29.304,17.463 29.304,17.472 29.304,17.482 29.324,17.482 29.354,17.472 29.382,17.472 29.402,17.472 29.402,17.482 29.402,17.492 
		29.41,17.492 29.41,17.501 29.41,17.521 29.42,17.54 29.41,17.549 29.402,17.598 29.402,17.607 29.402,17.617 29.402,17.627 
		29.402,17.636 29.41,17.646 29.41,17.656 29.42,17.665 29.488,17.686 29.507,17.686 29.527,17.686 29.546,17.686 29.556,17.686 
		29.594,17.656 29.604,17.636 29.623,17.636 29.643,17.636 29.671,17.636 29.671,17.646 29.699,17.665 29.719,17.675 29.749,17.675 
		29.758,17.675 29.777,17.686 29.787,17.704 29.796,17.704 29.796,17.733 29.796,17.762 29.807,17.781 29.826,17.792 29.874,17.8 
		29.884,17.811 29.895,17.82 29.902,17.839 29.902,17.849 29.874,17.878 29.863,17.907 29.863,17.926 29.884,17.926 29.902,17.937 
		29.922,17.926 29.951,17.917 29.971,17.917 30.027,17.887 30.058,17.887 30.076,17.897 30.105,17.917 30.125,17.926 30.174,17.965 
		30.183,17.974 30.201,17.974 30.212,17.974 30.232,17.965 30.24,17.937 30.25,17.926 30.26,17.917 30.26,17.907 30.27,17.907 
		30.279,17.897 30.299,17.887 30.318,17.887 30.326,17.897 30.357,17.917 30.357,17.926 30.357,17.937 30.357,17.955 30.365,17.965 
		30.365,17.974 30.386,18.013 30.396,18.023 30.404,18.023 30.414,18.032 30.443,18.023 30.473,18.003 30.501,17.993 30.511,17.993 
		30.54,18.003 30.55,18.013 30.568,18.013 30.578,18.013 30.589,18.003 30.598,17.993 30.607,17.974 30.646,17.955 30.666,17.955 
		30.675,17.955 30.686,17.965 30.693,17.984 30.693,17.993 30.693,18.013 30.675,18.07 30.666,18.09 30.666,18.11 30.666,18.129 
		30.686,18.158 30.693,18.177 30.704,18.188 30.724,18.196 30.771,18.196 30.801,18.216 30.811,18.235 30.818,18.244 30.829,18.283 
		30.839,18.302 30.859,18.322 30.867,18.333 30.888,18.341 30.896,18.352 30.906,18.361 30.926,18.38 30.936,18.399 30.936,18.418 
		30.936,18.428 30.906,18.447 30.916,18.447 30.888,18.467 30.867,18.467 30.849,18.477 30.781,18.515 30.734,18.534 30.704,18.525 
		30.627,18.534 30.617,18.534 30.607,18.544 30.589,18.573 30.578,18.573 30.578,18.603 30.568,18.621 30.568,18.631 30.568,18.64 
		30.559,18.65 30.55,18.66 30.54,18.669 30.529,18.679 30.521,18.679 30.511,18.689 30.501,18.689 30.482,18.689 30.473,18.689 
		30.453,18.689 30.443,18.698 30.434,18.698 30.424,18.698 30.414,18.718 30.404,18.728 30.424,18.756 30.424,18.776 30.424,18.785 
		30.357,18.833 30.326,18.872 30.309,18.882 30.279,18.901 30.24,18.949 30.222,18.988 30.212,19.007 30.201,19.018 30.193,19.027 
		30.193,19.036 30.183,19.055 30.164,19.113 30.164,19.123 30.174,19.143 30.164,19.172 30.164,19.181 30.152,19.191 30.125,19.2 
		30.115,19.2 30.105,19.21 30.086,19.258 30.086,19.287 30.066,19.326 30.058,19.355 30.066,19.364 30.096,19.394 30.105,19.403 
		30.105,19.413 30.096,19.423 30.066,19.48 30.048,19.528 30.048,19.538 30.038,19.558 30.02,19.606 30.02,19.635 29.999,19.674 
		29.961,19.721 29.912,19.779 29.902,19.799 29.902,19.81 29.884,19.847 29.796,19.973 29.758,20.002 29.691,20.04 29.671,20.06 
		29.671,20.069 29.671,20.079 29.594,20.136 29.584,20.146 29.566,20.146 29.546,20.146 29.518,20.167 29.497,20.186 29.459,20.292 
		29.459,20.32 29.479,20.32 29.488,20.32 29.497,20.311 29.507,20.311 29.535,20.281 29.556,20.272 29.566,20.262 29.574,20.272 
		29.584,20.272 29.584,20.281 29.574,20.32 29.566,20.34 29.507,20.378 29.469,20.388 29.439,20.398 29.42,20.417 29.382,20.465 
		29.361,20.465 29.354,20.476 29.343,20.513 29.343,20.532 29.334,20.552 29.324,20.562 29.295,20.61 29.285,20.619 29.295,20.649 
		29.295,20.658 29.266,20.668 29.246,20.677 29.218,20.716 29.197,20.727 29.064,20.803 29.044,20.813 29.015,20.822 28.967,20.841 
		28.967,20.852 28.957,20.861 28.938,20.88 28.919,20.89 28.869,20.909 28.859,20.928 28.803,20.967 28.783,20.986 28.773,20.986 
		28.773,20.996 28.764,21.006 28.764,21.015 28.764,21.044 28.754,21.064 28.754,21.073 28.744,21.103 28.744,21.121 28.754,21.141 
		28.764,21.15 28.773,21.15 28.812,21.141 28.812,21.15 28.82,21.15 28.82,21.17 28.82,21.179 28.82,21.189 28.82,21.199 
		28.831,21.237 28.842,21.257 28.869,21.285 28.898,21.343 28.908,21.372 28.938,21.411 28.947,21.43 28.957,21.45 28.996,21.479 
		29.005,21.488 29.044,21.518 29.044,21.527 29.054,21.536 29.054,21.547 29.064,21.566 29.064,21.613 29.064,21.644 29.072,21.653 
		29.072,21.662 29.121,21.711 29.131,21.711 29.141,21.73 29.158,21.758 29.189,21.787 29.189,21.797 29.197,21.807 29.197,21.826 
		29.197,21.836 29.197,21.846 29.189,21.865 29.189,21.875 29.189,21.885 29.15,21.924 29.131,21.961 29.102,21.971 29.082,21.952 
		29.072,21.952 28.996,21.961 28.977,21.971 28.967,21.99 28.967,22 28.967,22.01 28.967,22.029 28.977,22.039 29.015,22.077 
		29.025,22.077 29.033,22.088 29.033,22.096 29.033,22.106 29.033,22.127 29.033,22.146 29.005,22.184 28.977,22.202 28.977,22.213 
		28.967,22.223 28.957,22.241 28.957,22.252 28.957,22.271 28.957,22.28 28.957,22.29 28.919,22.357 28.908,22.357 28.908,22.367 
		28.88,22.367 28.869,22.377 28.842,22.387 28.831,22.405 28.82,22.424 28.803,22.463 28.793,22.473 28.764,22.473 28.716,22.473 
		28.656,22.454 28.639,22.444 28.629,22.444 28.609,22.454 28.6,22.454 28.59,22.463 28.581,22.473 28.581,22.483 28.57,22.512 
		28.57,22.551 28.562,22.561 28.542,22.58 28.494,22.608 28.474,22.627 28.474,22.637 28.474,22.646 28.474,22.666 28.484,22.676 
		28.513,22.705 28.531,22.723 28.531,22.734 28.552,22.754 28.552,22.772 28.552,22.782 28.531,22.812 28.531,22.82 28.513,22.859 
		28.504,22.879 28.494,22.879 28.494,22.889 28.484,22.907 28.474,22.937 28.474,22.946 28.465,22.976 28.455,23.014 28.455,23.023 
		28.445,23.043 28.455,23.062 28.455,23.072 28.465,23.081 28.484,23.11 28.513,23.12 28.523,23.12 28.552,23.12 28.562,23.12 
		28.57,23.12 28.581,23.131 28.59,23.131 28.59,23.139 28.59,23.149 28.59,23.168 28.581,23.178 28.57,23.197 28.57,23.207 
		28.562,23.217 28.531,23.227 28.523,23.245 28.513,23.245 28.494,23.295 28.474,23.332 28.474,23.342 28.513,23.37 28.513,23.381 
		28.523,23.391 28.523,23.4 28.531,23.428 28.542,23.496 28.542,23.506 28.542,23.516 28.531,23.525 28.494,23.535 28.474,23.535 
		28.474,23.545 28.474,23.564 28.494,23.584 28.504,23.603 28.504,23.613 28.523,23.641 28.531,23.709 28.531,23.719 28.542,23.719 
		28.542,23.729 28.531,23.748 28.531,23.758 28.523,23.776 28.513,23.786 28.513,23.797 28.513,23.805 28.523,23.824 28.531,23.834 
		28.552,23.854 28.562,23.863 28.562,23.873 28.57,23.873 28.57,23.883 28.581,23.883 28.59,23.883 28.609,23.893 28.619,23.893 
		28.629,23.902 28.648,23.902 28.656,23.902 28.667,23.902 28.688,23.902 28.706,23.893 28.754,23.844 28.764,23.834 28.773,23.834 
		28.783,23.824 28.793,23.824 28.803,23.824 28.812,23.814 28.82,23.814 28.889,23.824 28.919,23.834 28.957,23.844 29.005,23.863 
		29.015,23.873 29.033,23.893 29.082,23.941 29.092,23.959 29.121,24 29.179,24.037 29.189,24.057 29.189,24.076 29.197,24.143 
		29.197,24.191 29.197,24.201 29.197,24.25 29.197,24.288 29.218,24.365 29.218,24.375 29.227,24.414 29.227,24.443 29.208,24.481 
		29.197,24.5 29.197,24.529 29.197,24.559 29.197,24.568 29.197,24.578 29.189,24.616 29.189,24.627 29.197,24.674 29.227,24.771 
		29.236,24.838 29.246,24.848 29.246,24.857 29.256,24.877 29.266,24.887 29.275,24.887 29.304,24.896 29.314,24.896 29.324,24.906 
		29.334,24.916 29.343,24.926 29.361,24.944 29.372,24.944 29.393,24.955 29.41,24.965 29.42,24.965 29.43,24.965 29.469,24.955 
		29.546,24.936 29.566,24.916 29.574,24.916 29.613,24.926 29.633,24.936 29.633,24.944 29.643,24.944 29.652,24.955 29.66,24.955 
		29.671,24.965 29.719,24.983 29.729,24.992 29.738,25.002 29.749,25.012 29.787,25.09 29.807,25.139 29.816,25.156 29.835,25.215 
		29.855,25.264 29.855,25.283 29.855,25.321 29.855,25.33 29.863,25.369 29.874,25.369 29.884,25.398 29.922,25.428 29.961,25.456 
		30.009,25.496 30.058,25.533 30.086,25.543 30.096,25.543 30.115,25.543 30.145,25.562 30.164,25.572 30.174,25.582 30.193,25.592 
		30.201,25.61 30.27,25.678 30.289,25.707 30.309,25.746 30.337,25.795 30.357,25.842 30.386,25.92 30.414,25.977 30.443,25.996 
		30.501,26.025 30.511,26.035 30.529,26.055 30.627,26.094 30.666,26.104 30.693,26.133 30.704,26.133 30.714,26.143 30.724,26.151 
		30.734,26.161 30.742,26.161 30.752,26.172 30.762,26.18 30.791,26.199 30.811,26.238 30.811,26.248 30.829,26.277 30.849,26.305 
		30.849,26.315 30.867,26.375 30.878,26.393 30.888,26.402 30.896,26.412 30.936,26.432 30.974,26.451 30.992,26.471 31.061,26.557 
		31.061,26.576 31.061,26.605 31.061,26.635 31.051,26.653 31.042,26.663 30.965,26.74 30.955,26.74 30.945,26.74 30.896,26.74 
		30.888,26.74 30.878,26.75 30.849,26.76 30.818,26.779 30.791,26.807 30.752,26.836 30.742,26.846 30.734,26.846 30.724,26.846 
		30.714,26.846 30.656,26.826 30.636,26.826 30.607,26.807 30.598,26.807 30.578,26.799 30.559,26.799 30.55,26.807 30.529,26.826 
		30.511,26.855 30.511,26.866 30.511,26.875 30.501,26.885 30.49,26.914 30.49,26.943 30.482,26.963 30.473,26.981 30.443,27.01 
		30.424,27.02 30.414,27.02 30.404,27.029 30.396,27.029 30.386,27.039 30.376,27.049 30.376,27.059 30.365,27.068 30.357,27.098 
		30.357,27.107 30.337,27.117 30.309,27.127 30.25,27.146 30.212,27.165 30.164,27.184 30.135,27.193 30.105,27.203 30.096,27.213 
		30.048,27.203 30.027,27.203 30.02,27.203 30.009,27.213 29.988,27.223 29.98,27.223 29.922,27.262 29.912,27.271 29.835,27.32 
		29.807,27.34 29.768,27.367 29.738,27.396 29.719,27.406 29.71,27.416 29.71,27.426 29.691,27.444 29.633,27.512 29.604,27.543 
		29.584,27.551 29.574,27.561 29.566,27.57 29.535,27.58 29.497,27.6 29.488,27.6 29.449,27.609 29.439,27.619 29.43,27.619 
		29.42,27.629 29.402,27.647 29.382,27.676 29.372,27.687 29.343,27.754 29.334,27.773 29.304,27.801 29.295,27.812 29.295,27.821 
		29.275,27.842 29.189,27.879 29.169,27.889 29.092,27.918 29.072,27.928 29.033,27.947 29.005,27.967 29.005,27.977 28.996,27.985 
		28.986,27.995 28.977,27.995 28.957,28.024 28.957,28.045 28.957,28.062 28.957,28.072 28.947,28.082 28.947,28.092 28.947,28.102 
		28.947,28.121 28.957,28.17 28.957,28.178 28.957,28.198 28.957,28.207 28.967,28.227 28.977,28.246 28.977,28.266 28.986,28.284 
		28.996,28.295 28.996,28.305 28.996,28.314 28.996,28.353 28.996,28.362 28.986,28.391 28.977,28.42 28.957,28.439 28.938,28.478 
		28.928,28.487 28.919,28.508 28.889,28.516 28.764,28.526 28.716,28.526 28.706,28.526 28.688,28.536 28.656,28.564 28.629,28.584 
		28.581,28.641 28.523,28.672 28.484,28.69 28.455,28.709 28.406,28.719 28.339,28.739 28.262,28.758 28.252,28.758 28.186,28.768 
		28.175,28.768 28.146,28.768 28.117,28.768 28.107,28.768 28.061,28.758 28.029,28.768 28.021,28.768 27.99,28.768 27.953,28.768 
		27.896,28.797 27.886,28.797 27.876,28.807 27.857,28.816 27.857,28.825 27.826,28.836 27.826,28.844 27.76,28.902 27.74,28.922 
		27.732,28.941 27.722,28.941 27.701,28.951 27.693,28.971 27.645,29.008 27.605,29.038 27.596,29.049 27.576,29.066 27.52,29.105 
		27.451,29.057 27.422,29.038 27.402,29.028 27.335,29 27.335,28.989 27.316,28.989 27.316,28.979 27.287,28.971 27.268,28.961 
		27.22,28.941 27.21,28.941 27.172,28.932 27.113,28.912 27.074,28.902 27.007,28.894 26.979,28.883 26.861,28.875 26.795,28.875 
		26.697,28.875 26.65,28.875 26.582,28.883 26.572,28.894 26.457,28.912 26.369,28.941 26.332,28.951 26.244,29 26.227,29.008 
		26.156,29.049 26.129,29.057 26.119,29.066 26.1,29.076 26.1,29.086 26.062,29.115 26.023,29.133 26.013,29.154 26.003,29.154 
		25.984,29.174 25.945,29.213 25.936,29.221 25.926,29.231 25.917,29.24 25.906,29.25 25.898,29.26 25.898,29.27 25.878,29.289 
		25.859,29.309 25.85,29.327 25.84,29.338 25.829,29.346 25.818,29.356 25.801,29.377 25.801,29.385 25.791,29.395 25.771,29.434 
		25.762,29.443 25.752,29.463 25.724,29.521 25.693,29.588 25.693,29.598 25.665,29.674 25.656,29.685 25.579,29.694 25.521,29.694 
		25.472,29.694 25.463,29.694 25.414,29.694 25.299,29.704 25.125,29.704 24.807,29.715 24.672,29.715 24.574,29.715 24.479,29.723 
		24.402,29.723 24.333,29.723 24.121,29.723 23.822,29.733 23.783,29.733 23.764,29.733 23.667,29.733 23.656,29.733 23.301,29.742 
		23.252,29.742 23.214,29.742 23.088,29.752 22.732,29.752 22.712,29.752 22.673,29.752 22.48,29.762 22.402,29.762 22.355,29.762 
		22.287,29.762 22.277,29.762 22.171,29.762 22.162,29.762 22.066,29.762 21.902,29.771 21.766,29.771 21.718,29.771 21.631,29.771 
		21.593,29.771 21.494,29.771 21.283,29.781 21.168,29.781 21.052,29.781 21.031,29.781 20.888,29.781 20.82,29.781 20.801,29.781 
		20.742,29.781 20.724,29.781 20.511,29.791 20.473,29.791 20.357,29.791 20.279,29.791 20.251,29.791 20.24,29.791 20.02,29.801 
		19.865,29.801 19.816,29.801 19.777,29.801 19.681,29.801 19.652,29.801 19.574,29.801 19.488,29.801 19.459,29.801 19.373,29.801 
		19.285,29.811 19.236,29.811 19.016,29.811 18.996,29.811 18.939,29.811 18.928,29.811 18.89,29.811 18.678,29.811 18.602,29.811 
		18.436,29.811 18.367,29.811 18.109,29.819 18.099,29.819 17.982,29.819 17.963,29.819 17.701,29.819 17.693,29.819 17.568,29.819 
		17.402,29.819 17.345,29.819 17.336,29.819 17.316,29.819 17.307,29.819 17.287,29.819 17.249,29.819 17.238,29.819 17.23,29.819 
		17.181,29.819 17.104,29.819 16.834,29.819 16.785,29.819 16.641,29.819 16.583,29.819 16.448,29.819 16.438,29.819 16.39,29.819 
		16.264,29.819 16.235,29.819 16.071,29.819 15.734,29.819 15.724,29.819 15.705,29.819 15.444,29.819 15.434,29.819 15.405,29.819 
		15.367,29.819 15.347,29.819 15.29,29.819 15.212,29.811 15.144,29.811 15.106,29.811 14.865,29.811 14.855,29.811 14.806,29.811 
		14.71,29.811 14.662,29.811 14.652,29.811 14.633,29.811 14.517,29.811 14.334,29.811 14.325,29.811 14.276,29.811 14.025,29.811 
		13.687,29.801 13.62,29.801 13.61,29.801 13.484,29.801 13.32,29.801 13.282,29.801 13.224,29.801 13.079,29.801 12.944,29.801 
		12.934,29.801 12.828,29.801 12.741,29.801 12.732,29.801 12.596,29.801 12.528,29.801 12.268,29.791 12.239,29.801 12.23,29.801 
		12.22,29.801 12.21,29.801 12.007,29.791 11.776,29.791 11.709,29.791 11.67,29.791 11.641,29.791 11.592,29.791 11.506,29.791 
		11.429,29.791 11.381,29.791 11.187,29.791 11.168,29.791 11.158,29.791 11.139,29.781 11.081,29.781 10.985,29.781 10.917,29.781 
		10.859,29.781 10.762,29.781 10.685,29.781 10.579,29.781 10.55,29.781 10.463,29.781 10.424,29.781 10.309,29.771 10.232,29.771 
		10.213,29.771 10.144,29.771 10.116,29.771 10.019,29.771 9.981,29.771 9.961,29.771 9.894,29.771 9.884,29.771 9.769,29.771 
		9.739,29.771 9.701,29.771 9.575,29.771 9.546,29.771 9.537,29.771 9.363,29.762 9.266,29.762 9.208,29.762 9.131,29.762 
		8.533,29.752 8.513,29.752 8.475,29.752 8.311,29.752 7.683,29.742 7.462,29.742 7.443,29.742 7.403,29.742 7.201,29.742 
		7.105,29.733 7.017,29.733 6.718,29.733 6.275,29.723 6.023,29.723 5.898,29.723 5.666,29.715 5.637,29.715 5.589,29.715 
		5.569,29.715 5.492,29.715 5.309,29.704 5.048,29.704 5,29.704 4.904,29.694 4.769,29.694 4.537,29.694 4.305,29.685 4.296,29.685 
		4.286,29.685 4.277,29.685 3.997,29.674 3.977,29.674 3.619,29.665 3.582,29.665 3.311,29.656 3.263,29.656 3.215,29.656 
		3.204,29.656 3.195,29.656 3.138,29.656 2.858,29.646 2.626,29.637 2.558,29.637 2.462,29.637 2.452,29.637 2.443,29.637 
		2.384,29.627 2.268,29.627 2.259,29.627 2.095,29.627 2.027,29.617 1.922,29.617 1.911,29.617 1.756,29.617 1.448,29.607 
		1.332,29.598 1.168,29.598 1.158,29.598 1.139,29.598 1.12,29.588 1.043,29.588 0.82,29.579 0.83,29.105 0.83,29.008 0.84,28.797 
		0.84,28.719 0.849,28.68 0.849,28.613 0.849,28.547 0.849,28.516 0.86,28.43 0.86,28.121 0.869,28.111 0.869,27.985 0.869,27.967 
		0.869,27.947 0.869,27.928 0.879,27.58 0.888,27.396 0.888,27.232 0.898,27.193 0.898,27.174 0.898,27.165 0.898,27.049 
		0.898,26.991 0.907,26.895 0.907,26.721 0.917,26.615 0.917,26.528 0.917,26.363 0.926,26.035 0.926,26.025 0.937,25.948 
		0.937,25.871 0.937,25.785 0.946,25.697 0.946,25.553 0.946,25.456 0.956,25.379 0.956,25.369 0.956,25.342 0.966,25.244 
		0.966,25.205 0.966,24.992 0.975,24.955 0.975,24.829 0.985,24.559 0.985,24.549 0.985,24.481 0.985,24.463 0.985,24.434 
		0.985,24.395 0.995,24.182 0.995,23.959 1.004,23.902 1.004,23.699 1.004,23.68 1.014,23.516 1.014,23.37 1.014,23.361 
		1.014,23.332 1.024,23.295 1.024,23.284 1.024,23.264 1.024,23.158 1.024,23.131 1.024,23.023 1.033,22.83 1.033,22.772 
		1.043,22.705 1.043,22.473 1.043,22.444 1.043,22.396 1.052,22.348 1.052,22.328 1.052,22.26 1.052,22.184 1.062,22.029 
		1.062,21.942 1.062,21.932 1.062,21.924 1.072,21.75 1.072,21.594 1.072,21.586 1.072,21.547 1.072,21.508 1.081,21.45 
		1.081,21.382 1.081,21.315 1.081,21.295 1.081,21.247 1.081,21.237 1.081,21.199 1.091,21.141 1.091,21.015 1.091,21.006 
		1.091,20.967 1.091,20.947 1.101,20.813 1.101,20.755 1.101,20.716 1.11,20.562 1.11,20.504 1.11,20.494 1.11,20.437 1.11,20.426 
		1.11,20.407 1.11,20.359 1.11,20.301 1.12,20.233 1.12,20.204 1.12,20.136 1.12,20.069 1.12,20.011 1.13,19.935 1.13,19.828 
		1.13,19.76 1.139,19.645 1.139,19.606 1.139,19.558 1.139,19.538 1.139,19.5 1.139,19.432 1.139,19.423 1.149,19.375 1.149,19.345 
		1.149,19.278 1.149,19.269 1.149,19.229 1.149,19.123 1.149,19.104 1.158,19.065 1.158,18.843 1.158,18.804 1.168,18.66 
		1.168,18.64 1.168,18.631 1.168,18.621 1.168,18.612 1.168,18.544 1.168,18.477 1.168,18.467 1.178,18.399 1.178,18.352 
		1.178,18.293 1.187,18.101 1.187,18.042 1.187,18.013 1.187,17.965 1.187,17.937 1.197,17.781 1.197,17.607 1.197,17.598 
		1.207,17.53 1.207,17.337 1.207,17.308 1.207,17.26 1.216,17.173 1.216,17.048 1.216,17 1.226,16.806 1.235,16.555 1.235,16.44 
		1.235,16.382 1.235,16.372 1.245,16.169 1.245,16.072 1.255,15.908 1.255,15.821 1.255,15.783 1.255,15.735 1.264,15.562 	"/>
	<g display="none">
		
			<image display="inline" overflow="visible" opacity="0.75" enable-background="new    " width="142" height="92" xlink:href="E68F74DE48FA44DA.png"  transform="matrix(0.2349 0 0 0.2243 -0.6802 11.4141)">
		</image>
		<g display="inline">
			<polygon fill="#FFFFFF" points="1.275,15.165 1.284,15.078 1.284,15.069 1.284,15.049 1.284,14.933 1.284,14.875 1.294,14.77 
				1.294,14.625 1.294,14.567 1.294,14.519 1.303,14.48 1.303,14.306 1.303,14.296 1.352,14.277 1.487,14.219 1.737,14.113 
				1.776,14.104 1.863,14.084 1.988,14.026 2.008,14.016 2.056,13.997 2.056,14.007 2.095,13.979 2.105,13.979 2.114,13.979 
				2.172,13.968 2.172,13.958 2.201,13.958 2.201,13.949 2.278,13.929 2.278,13.92 2.297,13.91 2.433,13.853 2.443,13.842 
				2.529,13.804 2.616,13.746 2.654,13.728 2.752,13.678 2.79,13.659 2.877,13.611 2.896,13.602 2.935,13.583 2.964,13.572 
				3.002,13.553 3.041,13.524 3.05,13.524 3.061,13.514 3.069,13.505 3.118,13.476 3.138,13.456 3.175,13.418 3.253,13.234 
				3.273,13.187 3.301,13.138 3.369,13.07 3.407,13.062 3.427,13.062 3.456,13.051 3.523,13.032 3.572,13.042 3.59,13.062 
				3.562,13.099 3.601,13.157 3.562,13.176 3.582,13.205 3.601,13.215 3.619,13.224 3.649,13.224 3.726,13.187 3.755,13.167 
				3.784,13.157 3.822,13.138 3.861,13.109 3.9,13.089 3.909,13.08 3.957,13.062 3.997,13.032 4.015,13.022 4.026,13.022 
				4.045,13.003 4.074,12.983 4.17,12.917 4.209,12.897 4.277,12.848 4.315,12.829 4.353,12.819 4.441,12.78 4.46,12.771 
				4.469,12.761 4.527,12.723 4.547,12.703 4.643,12.665 4.758,12.635 4.817,12.607 4.855,12.588 5,12.51 5.116,12.452 
				5.184,12.414 5.184,12.433 5.173,12.539 5.173,12.597 5.173,12.607 5.164,13.003 5.164,13.032 5.164,13.07 5.164,13.147 
				5.164,13.195 5.164,13.224 5.154,13.36 5.154,13.438 5.154,13.659 5.145,13.958 5.145,14.123 5.145,14.258 5.184,14.258 
				5.435,14.258 5.599,14.258 5.666,14.268 5.734,14.268 5.801,14.268 5.831,14.268 5.908,14.268 6.206,14.277 6.265,14.277 
				6.323,14.286 6.409,14.286 6.506,14.286 6.603,14.286 6.911,14.296 6.999,14.296 7.065,14.296 7.259,14.296 7.5,14.306 
				7.548,14.306 7.732,14.306 7.78,14.306 7.809,14.306 8.079,14.306 8.089,14.306 8.137,14.306 8.262,14.315 8.33,14.315 
				8.677,14.315 8.726,14.325 9.045,14.325 9.073,14.325 9.102,14.325 9.122,14.325 9.19,14.335 9.277,14.335 9.402,14.335 
				9.469,14.344 9.614,14.344 9.623,14.344 9.865,14.344 10.107,14.344 10.261,14.344 10.434,14.344 10.522,14.344 10.772,14.344 
				10.801,14.344 10.927,14.344 11.033,14.344 11.081,14.344 11.1,14.344 11.12,14.344 11.158,14.344 11.341,14.344 11.419,14.354 
				11.709,14.354 12.094,14.354 12.278,14.354 12.288,14.354 12.298,14.354 12.413,14.364 12.49,14.364 12.674,14.364 
				12.693,14.364 12.76,14.364 13.002,14.364 13.079,14.364 13.195,14.364 13.32,14.354 13.417,14.354 13.436,14.354 13.601,14.364 
				13.668,14.364 13.745,14.364 13.764,14.364 13.89,14.364 14.006,14.373 14.054,14.373 14.064,14.373 14.237,14.373 
				14.266,14.373 14.354,14.373 14.546,14.373 14.652,14.373 14.826,14.373 14.855,14.373 14.894,14.373 14.942,14.373 
				15.309,14.373 15.424,14.373 15.888,14.373 15.898,14.373 16.023,14.364 16.554,14.364 16.66,14.364 16.699,14.364 
				16.795,14.364 16.882,14.364 17.123,14.364 17.441,14.364 17.499,14.364 17.635,14.364 17.99,14.364 18.089,14.364 
				18.214,14.354 18.301,14.354 18.389,14.354 18.475,14.354 18.523,14.354 18.581,14.354 18.688,14.354 18.783,14.344 
				18.841,14.344 18.947,14.344 19.064,14.344 19.275,14.335 19.391,14.335 19.421,14.335 19.479,14.335 19.498,14.335 
				19.508,14.335 19.604,14.335 19.943,14.325 19.961,14.325 20.038,14.325 20.183,14.325 20.376,14.325 20.386,14.325 
				20.463,14.325 20.473,14.325 20.482,14.325 20.617,14.325 20.936,14.325 21.341,14.325 21.39,14.325 21.428,14.325 
				21.457,14.325 21.477,14.325 21.486,14.325 21.516,14.325 21.525,14.325 21.544,14.325 21.572,14.325 21.611,14.325 
				21.766,14.325 21.805,14.325 21.824,14.325 22.23,14.315 22.395,14.315 22.423,14.315 22.77,14.315 22.826,14.306 23.127,14.306 
				23.417,14.296 23.503,14.296 23.531,14.296 23.59,14.296 23.629,14.296 23.841,14.286 23.859,14.286 24.141,14.286 
				24.218,14.277 24.247,14.277 24.266,14.277 24.372,14.277 24.72,14.268 24.816,14.268 25,14.268 25.309,14.268 25.347,14.268 
				25.365,14.268 25.463,14.258 25.521,14.258 25.811,14.248 25.906,14.248 26.129,14.238 26.139,14.238 26.148,14.238 
				26.195,14.238 26.419,14.229 26.775,14.219 26.805,14.219 27.018,14.209 27.035,14.209 27.172,14.209 27.402,14.2 27.432,14.219 
				27.471,14.229 27.488,14.238 27.499,14.248 27.509,14.286 27.509,14.296 27.488,14.373 27.488,14.383 27.509,14.394 
				27.527,14.394 27.558,14.412 27.596,14.45 27.605,14.46 27.615,14.5 27.645,14.528 27.654,14.538 27.693,14.538 27.701,14.538 
				27.701,14.519 27.701,14.508 27.712,14.5 27.722,14.5 27.732,14.5 27.74,14.5 27.75,14.508 27.75,14.547 27.76,14.557 
				27.77,14.576 27.818,14.605 27.826,14.634 27.826,14.645 27.837,14.682 27.837,14.712 27.837,14.731 27.876,14.789 
				27.886,14.818 27.886,14.846 27.857,14.885 27.857,14.914 27.865,14.953 27.886,14.963 27.914,14.963 27.924,14.972 
				27.943,15.021 27.934,15.03 27.924,15.04 27.914,15.049 27.904,15.06 27.914,15.078 27.914,15.088 27.924,15.097 27.924,15.107 
				27.943,15.117 27.973,15.117 27.982,15.107 27.99,15.107 28.012,15.088 28.021,15.078 28.04,15.088 28.061,15.117 28.079,15.136 
				28.107,15.146 28.117,15.146 28.137,15.126 28.156,15.078 28.165,15.069 28.186,15.06 28.214,15.06 28.242,15.069 28.262,15.078 
				28.271,15.088 28.281,15.088 28.281,15.107 28.291,15.117 28.301,15.117 28.311,15.126 28.311,15.117 28.318,15.117 
				28.318,15.107 28.329,15.107 28.329,15.097 28.329,15.078 28.339,15.06 28.339,15.049 28.349,15.049 28.349,15.04 28.359,15.04 
				28.359,15.03 28.367,15.04 28.378,15.04 28.388,15.049 28.396,15.069 28.396,15.126 28.406,15.165 28.416,15.175 28.436,15.185 
				28.455,15.194 28.474,15.194 28.504,15.175 28.523,15.175 28.542,15.165 28.59,15.214 28.6,15.214 28.648,15.204 28.667,15.214 
				28.667,15.223 28.677,15.242 28.677,15.271 28.667,15.311 28.667,15.329 28.677,15.349 28.677,15.367 28.754,15.387 
				28.783,15.425 28.803,15.436 28.82,15.436 28.852,15.417 28.859,15.406 28.88,15.406 28.889,15.417 28.889,15.425 28.898,15.425 
				28.898,15.436 28.889,15.445 28.889,15.455 28.889,15.484 28.88,15.493 28.88,15.503 28.869,15.522 28.859,15.532 28.852,15.532 
				28.812,15.532 28.793,15.542 28.783,15.551 28.764,15.58 28.754,15.59 28.744,15.599 28.744,15.609 28.734,15.638 28.734,15.657 
				28.734,15.687 28.734,15.696 28.734,15.706 28.744,15.715 28.754,15.726 28.764,15.726 28.783,15.726 28.793,15.726 
				28.859,15.706 28.869,15.706 28.88,15.706 28.889,15.706 28.889,15.715 28.898,15.715 28.898,15.726 28.919,15.735 
				28.938,15.735 28.957,15.744 28.977,15.783 28.986,15.802 28.996,15.831 29.005,15.88 28.996,15.947 29.005,15.986 
				29.005,15.995 29.005,16.005 29.025,16.083 29.025,16.092 29.025,16.102 29.015,16.111 28.967,16.102 28.938,16.102 
				28.928,16.121 28.928,16.131 28.938,16.15 28.977,16.189 28.996,16.217 29.015,16.266 29.025,16.304 29.025,16.323 
				29.025,16.333 29.015,16.333 28.986,16.362 28.986,16.372 28.996,16.391 28.996,16.401 29.015,16.401 29.033,16.44 
				29.044,16.479 29.044,16.526 29.044,16.574 29.044,16.584 29.054,16.632 29.054,16.643 29.072,16.7 29.072,16.738 29.072,16.748 
				29.064,16.758 29.054,16.758 29.044,16.748 29.033,16.738 29.025,16.738 29.015,16.738 28.996,16.748 28.986,16.758 
				28.996,16.768 28.996,16.777 28.996,16.787 28.996,16.797 28.986,16.797 28.977,16.797 28.957,16.797 28.938,16.797 
				28.938,16.806 28.928,16.806 28.919,16.816 28.919,16.825 28.947,16.855 28.967,16.875 28.977,16.903 28.996,16.922 
				29.005,16.932 29.033,16.951 29.072,16.98 29.082,17.028 29.102,17.067 29.121,17.086 29.141,17.096 29.158,17.096 
				29.169,17.106 29.218,17.183 29.236,17.221 29.236,17.231 29.227,17.25 29.197,17.26 29.189,17.271 29.189,17.299 29.197,17.308 
				29.236,17.318 29.246,17.318 29.266,17.337 29.304,17.366 29.314,17.396 29.314,17.404 29.314,17.415 29.304,17.435 
				29.304,17.453 29.304,17.463 29.304,17.472 29.304,17.482 29.324,17.482 29.354,17.472 29.382,17.472 29.402,17.472 
				29.402,17.482 29.402,17.492 29.41,17.492 29.41,17.501 29.41,17.521 29.42,17.54 29.41,17.549 29.402,17.598 29.402,17.607 
				29.402,17.617 29.402,17.627 29.402,17.636 29.41,17.646 29.41,17.656 29.42,17.665 29.488,17.686 29.507,17.686 29.527,17.686 
				29.546,17.686 29.556,17.686 29.594,17.656 29.604,17.636 29.623,17.636 29.643,17.636 29.671,17.636 29.671,17.646 
				29.699,17.665 29.719,17.675 29.749,17.675 29.758,17.675 29.777,17.686 29.787,17.704 29.796,17.704 29.796,17.733 
				29.796,17.762 29.807,17.781 29.826,17.792 29.874,17.8 29.884,17.811 29.895,17.82 29.902,17.839 29.902,17.849 29.874,17.878 
				29.863,17.907 29.863,17.926 29.884,17.926 29.902,17.937 29.922,17.926 29.951,17.917 29.971,17.917 30.027,17.887 
				30.058,17.887 30.076,17.897 30.105,17.917 30.125,17.926 30.174,17.965 30.183,17.974 30.201,17.974 30.212,17.974 
				30.232,17.965 30.24,17.937 30.25,17.926 30.26,17.917 30.26,17.907 30.27,17.907 30.279,17.897 30.299,17.887 30.318,17.887 
				30.326,17.897 30.357,17.917 30.357,17.926 30.357,17.937 30.357,17.955 30.365,17.965 30.365,17.974 30.386,18.013 
				30.396,18.023 30.404,18.023 30.414,18.032 30.443,18.023 30.473,18.003 30.501,17.993 30.511,17.993 30.54,18.003 30.55,18.013 
				30.568,18.013 30.578,18.013 30.589,18.003 30.598,17.993 30.607,17.974 30.646,17.955 30.666,17.955 30.675,17.955 
				30.686,17.965 30.693,17.984 30.693,17.993 30.693,18.013 30.675,18.07 30.666,18.09 30.666,18.11 30.666,18.129 30.686,18.158 
				30.693,18.177 30.704,18.188 30.724,18.196 30.771,18.196 30.801,18.216 30.811,18.235 30.818,18.244 30.829,18.283 
				30.839,18.302 30.859,18.322 30.867,18.333 30.888,18.341 30.896,18.352 30.906,18.361 30.926,18.38 30.936,18.399 
				30.936,18.418 30.936,18.428 30.906,18.447 30.916,18.447 30.888,18.467 30.867,18.467 30.849,18.477 30.781,18.515 
				30.734,18.534 30.704,18.525 30.627,18.534 30.617,18.534 30.607,18.544 30.589,18.573 30.578,18.573 30.578,18.603 
				30.568,18.621 30.568,18.631 30.568,18.64 30.559,18.65 30.55,18.66 30.54,18.669 30.529,18.679 30.521,18.679 30.511,18.689 
				30.501,18.689 30.482,18.689 30.473,18.689 30.453,18.689 30.443,18.698 30.434,18.698 30.424,18.698 30.414,18.718 
				30.404,18.728 30.424,18.756 30.424,18.776 30.424,18.785 30.357,18.833 30.326,18.872 30.309,18.882 30.279,18.901 
				30.24,18.949 30.222,18.988 30.212,19.007 30.201,19.018 30.193,19.027 30.193,19.036 30.183,19.055 30.164,19.113 
				30.164,19.123 30.174,19.143 30.164,19.172 30.164,19.181 30.152,19.191 30.125,19.2 30.115,19.2 30.105,19.21 30.086,19.258 
				30.086,19.287 30.066,19.326 30.058,19.355 30.066,19.364 30.096,19.394 30.105,19.403 30.105,19.413 30.096,19.423 
				30.066,19.48 30.048,19.528 30.048,19.538 30.038,19.558 30.02,19.606 30.02,19.635 29.999,19.674 29.961,19.721 29.912,19.779 
				29.902,19.799 29.902,19.81 29.884,19.847 29.796,19.973 29.758,20.002 29.691,20.04 29.671,20.06 29.671,20.069 29.671,20.079 
				29.594,20.136 29.584,20.146 29.566,20.146 29.546,20.146 29.518,20.167 29.497,20.186 29.459,20.292 29.459,20.32 29.479,20.32 
				29.488,20.32 29.497,20.311 29.507,20.311 29.535,20.281 29.556,20.272 29.566,20.262 29.574,20.272 29.584,20.272 
				29.584,20.281 29.574,20.32 29.566,20.34 29.507,20.378 29.469,20.388 29.439,20.398 29.42,20.417 29.382,20.465 29.361,20.465 
				29.354,20.476 29.343,20.513 29.343,20.532 29.334,20.552 29.324,20.562 29.295,20.61 29.285,20.619 29.295,20.649 
				29.295,20.658 29.266,20.668 29.246,20.677 29.218,20.716 29.197,20.727 29.064,20.803 29.044,20.813 29.015,20.822 
				28.967,20.841 28.967,20.852 28.957,20.861 28.938,20.88 28.919,20.89 28.869,20.909 28.859,20.928 28.803,20.967 28.783,20.986 
				28.773,20.986 28.773,20.996 28.764,21.006 28.764,21.015 28.764,21.044 28.754,21.064 28.754,21.073 28.744,21.103 
				28.744,21.121 28.754,21.141 28.764,21.15 28.773,21.15 28.812,21.141 28.812,21.15 28.82,21.15 28.82,21.17 28.82,21.179 
				28.82,21.189 28.82,21.199 28.831,21.237 28.842,21.257 28.869,21.285 28.898,21.343 28.908,21.372 28.938,21.411 28.947,21.43 
				28.957,21.45 28.996,21.479 29.005,21.488 29.044,21.518 29.044,21.527 29.054,21.536 29.054,21.547 29.064,21.566 
				29.064,21.613 29.064,21.644 29.072,21.653 29.072,21.662 29.121,21.711 29.131,21.711 29.141,21.73 29.158,21.758 
				29.189,21.787 29.189,21.797 29.197,21.807 29.197,21.826 29.197,21.836 29.197,21.846 29.189,21.865 29.189,21.875 
				29.189,21.885 29.15,21.924 29.131,21.961 29.102,21.971 29.082,21.952 29.072,21.952 28.996,21.961 28.977,21.971 28.967,21.99 
				28.967,22 28.967,22.01 28.967,22.029 28.977,22.039 29.015,22.077 29.025,22.077 29.033,22.088 29.033,22.096 29.033,22.106 
				29.033,22.127 29.033,22.146 29.005,22.184 28.977,22.202 28.977,22.213 28.967,22.223 28.957,22.241 28.957,22.252 
				28.957,22.271 28.957,22.28 28.957,22.29 28.919,22.357 28.908,22.357 28.908,22.367 28.88,22.367 28.869,22.377 28.842,22.387 
				28.831,22.405 28.82,22.424 28.803,22.463 28.793,22.473 28.764,22.473 28.716,22.473 28.656,22.454 28.639,22.444 
				28.629,22.444 28.609,22.454 28.6,22.454 28.59,22.463 28.581,22.473 28.581,22.483 28.57,22.512 28.57,22.551 28.562,22.561 
				28.542,22.58 28.494,22.608 28.474,22.627 28.474,22.637 28.474,22.646 28.474,22.666 28.484,22.676 28.513,22.705 
				28.531,22.723 28.531,22.734 28.552,22.754 28.552,22.772 28.552,22.782 28.531,22.812 28.531,22.82 28.513,22.859 
				28.504,22.879 28.494,22.879 28.494,22.889 28.484,22.907 28.474,22.937 28.474,22.946 28.465,22.976 28.455,23.014 
				28.455,23.023 28.445,23.043 28.455,23.062 28.455,23.072 28.465,23.081 28.484,23.11 28.513,23.12 28.523,23.12 28.552,23.12 
				28.562,23.12 28.57,23.12 28.581,23.131 28.59,23.131 28.59,23.139 28.59,23.149 28.59,23.168 28.581,23.178 28.57,23.197 
				28.57,23.207 28.562,23.217 28.531,23.227 28.523,23.245 28.513,23.245 28.494,23.295 28.474,23.332 28.474,23.342 28.513,23.37 
				28.513,23.381 28.523,23.391 28.523,23.4 28.531,23.428 28.542,23.496 28.542,23.506 28.542,23.516 28.531,23.525 28.494,23.535 
				28.474,23.535 28.474,23.545 28.474,23.564 28.494,23.584 28.504,23.603 28.504,23.613 28.523,23.641 28.531,23.709 
				28.531,23.719 28.542,23.719 28.542,23.729 28.531,23.748 28.531,23.758 28.523,23.776 28.513,23.786 28.513,23.797 
				28.513,23.805 28.523,23.824 28.531,23.834 28.552,23.854 28.562,23.863 28.562,23.873 28.57,23.873 28.57,23.883 28.581,23.883 
				28.59,23.883 28.609,23.893 28.619,23.893 28.629,23.902 28.648,23.902 28.656,23.902 28.667,23.902 28.688,23.902 
				28.706,23.893 28.754,23.844 28.764,23.834 28.773,23.834 28.783,23.824 28.793,23.824 28.803,23.824 28.812,23.814 
				28.82,23.814 28.889,23.824 28.919,23.834 28.957,23.844 29.005,23.863 29.015,23.873 29.033,23.893 29.082,23.941 
				29.092,23.959 29.121,24 29.179,24.037 29.189,24.057 29.189,24.076 29.197,24.143 29.197,24.191 29.197,24.201 29.197,24.25 
				29.197,24.288 29.218,24.365 29.218,24.375 29.227,24.414 29.227,24.443 29.208,24.481 29.197,24.5 29.197,24.529 29.197,24.559 
				29.197,24.568 29.197,24.578 29.189,24.616 29.189,24.627 29.197,24.674 29.227,24.771 29.236,24.838 29.246,24.848 
				29.246,24.857 29.256,24.877 29.266,24.887 29.275,24.887 29.304,24.896 29.314,24.896 29.324,24.906 29.334,24.916 
				29.343,24.926 29.361,24.944 29.372,24.944 29.393,24.955 29.41,24.965 29.42,24.965 29.43,24.965 29.469,24.955 29.546,24.936 
				29.566,24.916 29.574,24.916 29.613,24.926 29.633,24.936 29.633,24.944 29.643,24.944 29.652,24.955 29.66,24.955 
				29.671,24.965 29.719,24.983 29.729,24.992 29.738,25.002 29.749,25.012 29.787,25.09 29.807,25.139 29.816,25.156 
				29.835,25.215 29.855,25.264 29.855,25.283 29.855,25.321 29.855,25.33 29.863,25.369 29.874,25.369 29.884,25.398 
				29.922,25.428 29.961,25.456 30.009,25.496 30.058,25.533 30.086,25.543 30.096,25.543 30.115,25.543 30.145,25.562 
				30.164,25.572 30.174,25.582 30.193,25.592 30.201,25.61 30.27,25.678 30.289,25.707 30.309,25.746 30.337,25.795 30.357,25.842 
				30.386,25.92 30.414,25.977 30.443,25.996 30.501,26.025 30.511,26.035 30.529,26.055 30.627,26.094 30.666,26.104 
				30.693,26.133 30.704,26.133 30.714,26.143 30.724,26.151 30.734,26.161 30.742,26.161 30.752,26.172 30.762,26.18 
				30.791,26.199 30.811,26.238 30.811,26.248 30.829,26.277 30.849,26.305 30.849,26.315 30.867,26.375 30.878,26.393 
				30.888,26.402 30.896,26.412 30.936,26.432 30.974,26.451 30.992,26.471 31.061,26.557 31.061,26.576 31.061,26.605 
				31.061,26.635 31.051,26.653 31.042,26.663 30.965,26.74 30.955,26.74 30.945,26.74 30.896,26.74 30.888,26.74 30.878,26.75 
				30.849,26.76 30.818,26.779 30.791,26.807 30.752,26.836 30.742,26.846 30.734,26.846 30.724,26.846 30.714,26.846 
				30.656,26.826 30.636,26.826 30.607,26.807 30.598,26.807 30.578,26.799 30.559,26.799 30.55,26.807 30.529,26.826 
				30.511,26.855 30.511,26.866 30.511,26.875 30.501,26.885 30.49,26.914 30.49,26.943 30.482,26.963 30.473,26.981 30.443,27.01 
				30.424,27.02 30.414,27.02 30.404,27.029 30.396,27.029 30.386,27.039 30.376,27.049 30.376,27.059 30.365,27.068 30.357,27.098 
				30.357,27.107 30.337,27.117 30.309,27.127 30.25,27.146 30.212,27.165 30.164,27.184 30.135,27.193 30.105,27.203 
				30.096,27.213 30.048,27.203 30.027,27.203 30.02,27.203 30.009,27.213 29.988,27.223 29.98,27.223 29.922,27.262 29.912,27.271 
				29.835,27.32 29.807,27.34 29.768,27.367 29.738,27.396 29.719,27.406 29.71,27.416 29.71,27.426 29.691,27.444 29.633,27.512 
				29.604,27.543 29.584,27.551 29.574,27.561 29.566,27.57 29.535,27.58 29.497,27.6 29.488,27.6 29.449,27.609 29.439,27.619 
				29.43,27.619 29.42,27.629 29.402,27.647 29.382,27.676 29.372,27.687 29.343,27.754 29.334,27.773 29.304,27.801 29.295,27.812 
				29.295,27.821 29.275,27.842 29.189,27.879 29.169,27.889 29.092,27.918 29.072,27.928 29.033,27.947 29.005,27.967 
				29.005,27.977 28.996,27.985 28.986,27.995 28.977,27.995 28.957,28.024 28.957,28.045 28.957,28.062 28.957,28.072 
				28.947,28.082 28.947,28.092 28.947,28.102 28.947,28.121 28.957,28.17 28.957,28.178 28.957,28.198 28.957,28.207 
				28.967,28.227 28.977,28.246 28.977,28.266 28.986,28.284 28.996,28.295 28.996,28.305 28.996,28.314 28.996,28.353 
				28.996,28.362 28.986,28.391 28.977,28.42 28.957,28.439 28.938,28.478 28.928,28.487 28.919,28.508 28.889,28.516 
				28.764,28.526 28.716,28.526 28.706,28.526 28.688,28.536 28.656,28.564 28.629,28.584 28.581,28.641 28.523,28.672 
				28.484,28.69 28.455,28.709 28.406,28.719 28.339,28.739 28.262,28.758 28.252,28.758 28.186,28.768 28.175,28.768 
				28.146,28.768 28.117,28.768 28.107,28.768 28.061,28.758 28.029,28.768 28.021,28.768 27.99,28.768 27.953,28.768 
				27.896,28.797 27.886,28.797 27.876,28.807 27.857,28.816 27.857,28.825 27.826,28.836 27.826,28.844 27.76,28.902 27.74,28.922 
				27.732,28.941 27.722,28.941 27.701,28.951 27.693,28.971 27.645,29.008 27.605,29.038 27.596,29.049 27.576,29.066 
				27.52,29.105 27.451,29.057 27.422,29.038 27.402,29.028 27.335,29 27.335,28.989 27.316,28.989 27.316,28.979 27.287,28.971 
				27.268,28.961 27.22,28.941 27.21,28.941 27.172,28.932 27.113,28.912 27.074,28.902 27.007,28.894 26.979,28.883 26.861,28.875 
				26.795,28.875 26.697,28.875 26.65,28.875 26.582,28.883 26.572,28.894 26.457,28.912 26.369,28.941 26.332,28.951 26.244,29 
				26.227,29.008 26.156,29.049 26.129,29.057 26.119,29.066 26.1,29.076 26.1,29.086 26.062,29.115 26.023,29.133 26.013,29.154 
				26.003,29.154 25.984,29.174 25.945,29.213 25.936,29.221 25.926,29.231 25.917,29.24 25.906,29.25 25.898,29.26 25.898,29.27 
				25.878,29.289 25.859,29.309 25.85,29.327 25.84,29.338 25.829,29.346 25.818,29.356 25.801,29.377 25.801,29.385 25.791,29.395 
				25.771,29.434 25.762,29.443 25.752,29.463 25.724,29.521 25.693,29.588 25.693,29.598 25.665,29.674 25.656,29.685 
				25.579,29.694 25.521,29.694 25.472,29.694 25.463,29.694 25.414,29.694 25.299,29.704 25.125,29.704 24.807,29.715 
				24.672,29.715 24.574,29.715 24.479,29.723 24.402,29.723 24.333,29.723 24.121,29.723 23.822,29.733 23.783,29.733 
				23.764,29.733 23.667,29.733 23.656,29.733 23.301,29.742 23.252,29.742 23.214,29.742 23.088,29.752 22.732,29.752 
				22.712,29.752 22.673,29.752 22.48,29.762 22.402,29.762 22.355,29.762 22.287,29.762 22.277,29.762 22.171,29.762 
				22.162,29.762 22.066,29.762 21.902,29.771 21.766,29.771 21.718,29.771 21.631,29.771 21.593,29.771 21.494,29.771 
				21.283,29.781 21.168,29.781 21.052,29.781 21.031,29.781 20.888,29.781 20.82,29.781 20.801,29.781 20.742,29.781 
				20.724,29.781 20.511,29.791 20.473,29.791 20.357,29.791 20.279,29.791 20.251,29.791 20.24,29.791 20.02,29.801 19.865,29.801 
				19.816,29.801 19.777,29.801 19.681,29.801 19.652,29.801 19.574,29.801 19.488,29.801 19.459,29.801 19.373,29.801 
				19.285,29.811 19.236,29.811 19.016,29.811 18.996,29.811 18.939,29.811 18.928,29.811 18.89,29.811 18.678,29.811 
				18.602,29.811 18.436,29.811 18.367,29.811 18.109,29.819 18.099,29.819 17.982,29.819 17.963,29.819 17.701,29.819 
				17.693,29.819 17.568,29.819 17.402,29.819 17.345,29.819 17.336,29.819 17.316,29.819 17.307,29.819 17.287,29.819 
				17.249,29.819 17.238,29.819 17.23,29.819 17.181,29.819 17.104,29.819 16.834,29.819 16.785,29.819 16.641,29.819 
				16.583,29.819 16.448,29.819 16.438,29.819 16.39,29.819 16.264,29.819 16.235,29.819 16.071,29.819 15.734,29.819 
				15.724,29.819 15.705,29.819 15.444,29.819 15.434,29.819 15.405,29.819 15.367,29.819 15.347,29.819 15.29,29.819 
				15.212,29.811 15.144,29.811 15.106,29.811 14.865,29.811 14.855,29.811 14.806,29.811 14.71,29.811 14.662,29.811 
				14.652,29.811 14.633,29.811 14.517,29.811 14.334,29.811 14.325,29.811 14.276,29.811 14.025,29.811 13.687,29.801 
				13.62,29.801 13.61,29.801 13.484,29.801 13.32,29.801 13.282,29.801 13.224,29.801 13.079,29.801 12.944,29.801 12.934,29.801 
				12.828,29.801 12.741,29.801 12.732,29.801 12.596,29.801 12.528,29.801 12.268,29.791 12.239,29.801 12.23,29.801 12.22,29.801 
				12.21,29.801 12.007,29.791 11.776,29.791 11.709,29.791 11.67,29.791 11.641,29.791 11.592,29.791 11.506,29.791 11.429,29.791 
				11.381,29.791 11.187,29.791 11.168,29.791 11.158,29.791 11.139,29.781 11.081,29.781 10.985,29.781 10.917,29.781 
				10.859,29.781 10.762,29.781 10.685,29.781 10.579,29.781 10.55,29.781 10.463,29.781 10.424,29.781 10.309,29.771 
				10.232,29.771 10.213,29.771 10.144,29.771 10.116,29.771 10.019,29.771 9.981,29.771 9.961,29.771 9.894,29.771 9.884,29.771 
				9.769,29.771 9.739,29.771 9.701,29.771 9.575,29.771 9.546,29.771 9.537,29.771 9.363,29.762 9.266,29.762 9.208,29.762 
				9.131,29.762 8.533,29.752 8.513,29.752 8.475,29.752 8.311,29.752 7.683,29.742 7.462,29.742 7.443,29.742 7.403,29.742 
				7.201,29.742 7.105,29.733 7.017,29.733 6.718,29.733 6.275,29.723 6.023,29.723 5.898,29.723 5.666,29.715 5.637,29.715 
				5.589,29.715 5.569,29.715 5.492,29.715 5.309,29.704 5.048,29.704 5,29.704 4.904,29.694 4.769,29.694 4.537,29.694 
				4.305,29.685 4.296,29.685 4.286,29.685 4.277,29.685 3.997,29.674 3.977,29.674 3.619,29.665 3.582,29.665 3.311,29.656 
				3.263,29.656 3.215,29.656 3.204,29.656 3.195,29.656 3.138,29.656 2.858,29.646 2.626,29.637 2.558,29.637 2.462,29.637 
				2.452,29.637 2.443,29.637 2.384,29.627 2.268,29.627 2.259,29.627 2.095,29.627 2.027,29.617 1.922,29.617 1.911,29.617 
				1.756,29.617 1.448,29.607 1.332,29.598 1.168,29.598 1.158,29.598 1.139,29.598 1.12,29.588 1.043,29.588 0.82,29.579 
				0.83,29.105 0.83,29.008 0.84,28.797 0.84,28.719 0.849,28.68 0.849,28.613 0.849,28.547 0.849,28.516 0.86,28.43 0.86,28.121 
				0.869,28.111 0.869,27.985 0.869,27.967 0.869,27.947 0.869,27.928 0.879,27.58 0.888,27.396 0.888,27.232 0.898,27.193 
				0.898,27.174 0.898,27.165 0.898,27.049 0.898,26.991 0.907,26.895 0.907,26.721 0.917,26.615 0.917,26.528 0.917,26.363 
				0.926,26.035 0.926,26.025 0.937,25.948 0.937,25.871 0.937,25.785 0.946,25.697 0.946,25.553 0.946,25.456 0.956,25.379 
				0.956,25.369 0.956,25.342 0.966,25.244 0.966,25.205 0.966,24.992 0.975,24.955 0.975,24.829 0.985,24.559 0.985,24.549 
				0.985,24.481 0.985,24.463 0.985,24.434 0.985,24.395 0.995,24.182 0.995,23.959 1.004,23.902 1.004,23.699 1.004,23.68 
				1.014,23.516 1.014,23.37 1.014,23.361 1.014,23.332 1.024,23.295 1.024,23.284 1.024,23.264 1.024,23.158 1.024,23.131 
				1.024,23.023 1.033,22.83 1.033,22.772 1.043,22.705 1.043,22.473 1.043,22.444 1.043,22.396 1.052,22.348 1.052,22.328 
				1.052,22.26 1.052,22.184 1.062,22.029 1.062,21.942 1.062,21.932 1.062,21.924 1.072,21.75 1.072,21.594 1.072,21.586 
				1.072,21.547 1.072,21.508 1.081,21.45 1.081,21.382 1.081,21.315 1.081,21.295 1.081,21.247 1.081,21.237 1.081,21.199 
				1.091,21.141 1.091,21.015 1.091,21.006 1.091,20.967 1.091,20.947 1.101,20.813 1.101,20.755 1.101,20.716 1.11,20.562 
				1.11,20.504 1.11,20.494 1.11,20.437 1.11,20.426 1.11,20.407 1.11,20.359 1.11,20.301 1.12,20.233 1.12,20.204 1.12,20.136 
				1.12,20.069 1.12,20.011 1.13,19.935 1.13,19.828 1.13,19.76 1.139,19.645 1.139,19.606 1.139,19.558 1.139,19.538 1.139,19.5 
				1.139,19.432 1.139,19.423 1.149,19.375 1.149,19.345 1.149,19.278 1.149,19.269 1.149,19.229 1.149,19.123 1.149,19.104 
				1.158,19.065 1.158,18.843 1.158,18.804 1.168,18.66 1.168,18.64 1.168,18.631 1.168,18.621 1.168,18.612 1.168,18.544 
				1.168,18.477 1.168,18.467 1.178,18.399 1.178,18.352 1.178,18.293 1.187,18.101 1.187,18.042 1.187,18.013 1.187,17.965 
				1.187,17.937 1.197,17.781 1.197,17.607 1.197,17.598 1.207,17.53 1.207,17.337 1.207,17.308 1.207,17.26 1.216,17.173 
				1.216,17.048 1.216,17 1.226,16.806 1.235,16.555 1.235,16.44 1.235,16.382 1.235,16.372 1.245,16.169 1.245,16.072 
				1.255,15.908 1.255,15.821 1.255,15.783 1.255,15.735 1.264,15.562 			"/>
		</g>
	</g>
	<g>
		
			<polyline fill="#FFFFFF" stroke="#404041" stroke-width="0.1" stroke-linecap="round" stroke-linejoin="round" stroke-miterlimit="3.85" points="
			1.275,15.165 1.284,15.078 1.284,15.069 1.284,15.049 1.284,14.933 1.284,14.875 1.294,14.77 1.294,14.625 1.294,14.567 
			1.294,14.519 1.303,14.48 1.303,14.306 1.303,14.296 1.352,14.277 1.487,14.219 1.737,14.113 1.776,14.104 1.863,14.084 
			1.988,14.026 2.008,14.016 2.056,13.997 2.056,14.007 2.095,13.979 2.105,13.979 2.114,13.979 2.172,13.968 2.172,13.958 
			2.201,13.958 2.201,13.949 2.278,13.929 2.278,13.92 2.297,13.91 2.433,13.853 2.443,13.842 2.529,13.804 2.616,13.746 
			2.654,13.728 2.752,13.678 2.79,13.659 2.877,13.611 2.896,13.602 2.935,13.583 2.964,13.572 3.002,13.553 3.041,13.524 
			3.05,13.524 3.061,13.514 3.069,13.505 3.118,13.476 3.138,13.456 3.175,13.418 3.253,13.234 3.273,13.187 3.301,13.138 
			3.369,13.07 3.407,13.062 3.427,13.062 3.456,13.051 3.523,13.032 3.572,13.042 3.59,13.062 3.562,13.099 3.601,13.157 
			3.562,13.176 3.582,13.205 3.601,13.215 3.619,13.224 3.649,13.224 3.726,13.187 3.755,13.167 3.784,13.157 3.822,13.138 
			3.861,13.109 3.9,13.089 3.909,13.08 3.957,13.062 3.997,13.032 4.015,13.022 4.026,13.022 4.045,13.003 4.074,12.983 
			4.17,12.917 4.209,12.897 4.277,12.848 4.315,12.829 4.353,12.819 4.441,12.78 4.46,12.771 4.469,12.761 4.527,12.723 
			4.547,12.703 4.643,12.665 4.758,12.635 4.817,12.607 4.855,12.588 5,12.51 5.116,12.452 5.184,12.414 5.184,12.433 5.173,12.539 
			5.173,12.597 5.173,12.607 5.164,13.003 5.164,13.032 5.164,13.07 5.164,13.147 5.164,13.195 5.164,13.224 5.154,13.36 
			5.154,13.438 5.154,13.659 5.145,13.958 5.145,14.123 5.145,14.258 5.184,14.258 5.435,14.258 5.599,14.258 5.666,14.268 
			5.734,14.268 5.801,14.268 5.831,14.268 5.908,14.268 6.206,14.277 6.265,14.277 6.323,14.286 6.409,14.286 6.506,14.286 
			6.603,14.286 6.911,14.296 6.999,14.296 7.065,14.296 7.259,14.296 7.5,14.306 7.548,14.306 7.732,14.306 7.78,14.306 
			7.809,14.306 8.079,14.306 8.089,14.306 8.137,14.306 8.262,14.315 8.33,14.315 8.677,14.315 8.726,14.325 9.045,14.325 
			9.073,14.325 9.102,14.325 9.122,14.325 9.19,14.335 9.277,14.335 9.402,14.335 9.469,14.344 9.614,14.344 9.623,14.344 
			9.865,14.344 10.107,14.344 10.261,14.344 10.434,14.344 10.522,14.344 10.772,14.344 10.801,14.344 10.927,14.344 11.033,14.344 
			11.081,14.344 11.1,14.344 11.12,14.344 11.158,14.344 11.341,14.344 11.419,14.354 11.709,14.354 12.094,14.354 12.278,14.354 
			12.288,14.354 12.298,14.354 12.413,14.364 12.49,14.364 12.674,14.364 12.693,14.364 12.76,14.364 13.002,14.364 13.079,14.364 
			13.195,14.364 13.32,14.354 13.417,14.354 13.436,14.354 13.601,14.364 13.668,14.364 13.745,14.364 13.764,14.364 13.89,14.364 
			14.006,14.373 14.054,14.373 14.064,14.373 14.237,14.373 14.266,14.373 14.354,14.373 14.546,14.373 14.652,14.373 
			14.826,14.373 14.855,14.373 14.894,14.373 14.942,14.373 15.309,14.373 15.424,14.373 15.888,14.373 15.898,14.373 
			16.023,14.364 16.554,14.364 16.66,14.364 16.699,14.364 16.795,14.364 16.882,14.364 17.123,14.364 17.441,14.364 17.499,14.364 
			17.635,14.364 17.99,14.364 18.089,14.364 18.214,14.354 18.301,14.354 18.389,14.354 18.475,14.354 18.523,14.354 18.581,14.354 
			18.688,14.354 18.783,14.344 18.841,14.344 18.947,14.344 19.064,14.344 19.275,14.335 19.391,14.335 19.421,14.335 
			19.479,14.335 19.498,14.335 19.508,14.335 19.604,14.335 19.943,14.325 19.961,14.325 20.038,14.325 20.183,14.325 
			20.376,14.325 20.386,14.325 20.463,14.325 20.473,14.325 20.482,14.325 20.617,14.325 20.936,14.325 21.341,14.325 21.39,14.325 
			21.428,14.325 21.457,14.325 21.477,14.325 21.486,14.325 21.516,14.325 21.525,14.325 21.544,14.325 21.572,14.325 
			21.611,14.325 21.766,14.325 21.805,14.325 21.824,14.325 22.23,14.315 22.395,14.315 22.423,14.315 22.77,14.315 22.826,14.306 
			23.127,14.306 23.417,14.296 23.503,14.296 23.531,14.296 23.59,14.296 23.629,14.296 23.841,14.286 23.859,14.286 24.141,14.286 
			24.218,14.277 24.247,14.277 24.266,14.277 24.372,14.277 24.72,14.268 24.816,14.268 25,14.268 25.309,14.268 25.347,14.268 
			25.365,14.268 25.463,14.258 25.521,14.258 25.811,14.248 25.906,14.248 26.129,14.238 26.139,14.238 26.148,14.238 
			26.195,14.238 26.419,14.229 26.775,14.219 26.805,14.219 27.018,14.209 27.035,14.209 27.172,14.209 27.402,14.2 27.432,14.219 
			27.471,14.229 27.488,14.238 27.499,14.248 27.509,14.286 27.509,14.296 27.488,14.373 27.488,14.383 27.509,14.394 
			27.527,14.394 27.558,14.412 27.596,14.45 27.605,14.46 27.615,14.5 27.645,14.528 27.654,14.538 27.693,14.538 27.701,14.538 
			27.701,14.519 27.701,14.508 27.712,14.5 27.722,14.5 27.732,14.5 27.74,14.5 27.75,14.508 27.75,14.547 27.76,14.557 
			27.77,14.576 27.818,14.605 27.826,14.634 27.826,14.645 27.837,14.682 27.837,14.712 27.837,14.731 27.876,14.789 27.886,14.818 
			27.886,14.846 27.857,14.885 27.857,14.914 27.865,14.953 27.886,14.963 27.914,14.963 27.924,14.972 27.943,15.021 27.934,15.03 
			27.924,15.04 27.914,15.049 27.904,15.06 27.914,15.078 27.914,15.088 27.924,15.097 27.924,15.107 27.943,15.117 27.973,15.117 
			27.982,15.107 27.99,15.107 28.012,15.088 28.021,15.078 28.04,15.088 28.061,15.117 28.079,15.136 28.107,15.146 28.117,15.146 
			28.137,15.126 28.156,15.078 28.165,15.069 28.186,15.06 28.214,15.06 28.242,15.069 28.262,15.078 28.271,15.088 28.281,15.088 
			28.281,15.107 28.291,15.117 28.301,15.117 28.311,15.126 28.311,15.117 28.318,15.117 28.318,15.107 28.329,15.107 
			28.329,15.097 28.329,15.078 28.339,15.06 28.339,15.049 28.349,15.049 28.349,15.04 28.359,15.04 28.359,15.03 28.367,15.04 
			28.378,15.04 28.388,15.049 28.396,15.069 28.396,15.126 28.406,15.165 28.416,15.175 28.436,15.185 28.455,15.194 28.474,15.194 
			28.504,15.175 28.523,15.175 28.542,15.165 28.59,15.214 28.6,15.214 28.648,15.204 28.667,15.214 28.667,15.223 28.677,15.242 
			28.677,15.271 28.667,15.311 28.667,15.329 28.677,15.349 28.677,15.367 28.754,15.387 28.783,15.425 28.803,15.436 28.82,15.436 
			28.852,15.417 28.859,15.406 28.88,15.406 28.889,15.417 28.889,15.425 28.898,15.425 28.898,15.436 28.889,15.445 28.889,15.455 
			28.889,15.484 28.88,15.493 28.88,15.503 28.869,15.522 28.859,15.532 28.852,15.532 28.812,15.532 28.793,15.542 28.783,15.551 
			28.764,15.58 28.754,15.59 28.744,15.599 28.744,15.609 28.734,15.638 28.734,15.657 28.734,15.687 28.734,15.696 28.734,15.706 
			28.744,15.715 28.754,15.726 28.764,15.726 28.783,15.726 28.793,15.726 28.859,15.706 28.869,15.706 28.88,15.706 28.889,15.706 
			28.889,15.715 28.898,15.715 28.898,15.726 28.919,15.735 28.938,15.735 28.957,15.744 28.977,15.783 28.986,15.802 
			28.996,15.831 29.005,15.88 28.996,15.947 29.005,15.986 29.005,15.995 29.005,16.005 29.025,16.083 29.025,16.092 29.025,16.102 
			29.015,16.111 28.967,16.102 28.938,16.102 28.928,16.121 28.928,16.131 28.938,16.15 28.977,16.189 28.996,16.217 29.015,16.266 
			29.025,16.304 29.025,16.323 29.025,16.333 29.015,16.333 28.986,16.362 28.986,16.372 28.996,16.391 28.996,16.401 
			29.015,16.401 29.033,16.44 29.044,16.479 29.044,16.526 29.044,16.574 29.044,16.584 29.054,16.632 29.054,16.643 29.072,16.7 
			29.072,16.738 29.072,16.748 29.064,16.758 29.054,16.758 29.044,16.748 29.033,16.738 29.025,16.738 29.015,16.738 
			28.996,16.748 28.986,16.758 28.996,16.768 28.996,16.777 28.996,16.787 28.996,16.797 28.986,16.797 28.977,16.797 
			28.957,16.797 28.938,16.797 28.938,16.806 28.928,16.806 28.919,16.816 28.919,16.825 28.947,16.855 28.967,16.875 
			28.977,16.903 28.996,16.922 29.005,16.932 29.033,16.951 29.072,16.98 29.082,17.028 29.102,17.067 29.121,17.086 29.141,17.096 
			29.158,17.096 29.169,17.106 29.218,17.183 29.236,17.221 29.236,17.231 29.227,17.25 29.197,17.26 29.189,17.271 29.189,17.299 
			29.197,17.308 29.236,17.318 29.246,17.318 29.266,17.337 29.304,17.366 29.314,17.396 29.314,17.404 29.314,17.415 
			29.304,17.435 29.304,17.453 29.304,17.463 29.304,17.472 29.304,17.482 29.324,17.482 29.354,17.472 29.382,17.472 
			29.402,17.472 29.402,17.482 29.402,17.492 29.41,17.492 29.41,17.501 29.41,17.521 29.42,17.54 29.41,17.549 29.402,17.598 
			29.402,17.607 29.402,17.617 29.402,17.627 29.402,17.636 29.41,17.646 29.41,17.656 29.42,17.665 29.488,17.686 29.507,17.686 
			29.527,17.686 29.546,17.686 29.556,17.686 29.594,17.656 29.604,17.636 29.623,17.636 29.643,17.636 29.671,17.636 
			29.671,17.646 29.699,17.665 29.719,17.675 29.749,17.675 29.758,17.675 29.777,17.686 29.787,17.704 29.796,17.704 
			29.796,17.733 29.796,17.762 29.807,17.781 29.826,17.792 29.874,17.8 29.884,17.811 29.895,17.82 29.902,17.839 29.902,17.849 
			29.874,17.878 29.863,17.907 29.863,17.926 29.884,17.926 29.902,17.937 29.922,17.926 29.951,17.917 29.971,17.917 
			30.027,17.887 30.058,17.887 30.076,17.897 30.105,17.917 30.125,17.926 30.174,17.965 30.183,17.974 30.201,17.974 
			30.212,17.974 30.232,17.965 30.24,17.937 30.25,17.926 30.26,17.917 30.26,17.907 30.27,17.907 30.279,17.897 30.299,17.887 
			30.318,17.887 30.326,17.897 30.357,17.917 30.357,17.926 30.357,17.937 30.357,17.955 30.365,17.965 30.365,17.974 
			30.386,18.013 30.396,18.023 30.404,18.023 30.414,18.032 30.443,18.023 30.473,18.003 30.501,17.993 30.511,17.993 30.54,18.003 
			30.55,18.013 30.568,18.013 30.578,18.013 30.589,18.003 30.598,17.993 30.607,17.974 30.646,17.955 30.666,17.955 30.675,17.955 
			30.686,17.965 30.693,17.984 30.693,17.993 30.693,18.013 30.675,18.07 30.666,18.09 30.666,18.11 30.666,18.129 30.686,18.158 
			30.693,18.177 30.704,18.188 30.724,18.196 30.771,18.196 30.801,18.216 30.811,18.235 30.818,18.244 30.829,18.283 
			30.839,18.302 30.859,18.322 30.867,18.333 30.888,18.341 30.896,18.352 30.906,18.361 30.926,18.38 30.936,18.399 30.936,18.418 
			30.936,18.428 30.906,18.447 30.916,18.447 30.888,18.467 30.867,18.467 30.849,18.477 30.781,18.515 30.734,18.534 
			30.704,18.525 30.627,18.534 30.617,18.534 30.607,18.544 30.589,18.573 30.578,18.573 30.578,18.603 30.568,18.621 
			30.568,18.631 30.568,18.64 30.559,18.65 30.55,18.66 30.54,18.669 30.529,18.679 30.521,18.679 30.511,18.689 30.501,18.689 
			30.482,18.689 30.473,18.689 30.453,18.689 30.443,18.698 30.434,18.698 30.424,18.698 30.414,18.718 30.404,18.728 
			30.424,18.756 30.424,18.776 30.424,18.785 30.357,18.833 30.326,18.872 30.309,18.882 30.279,18.901 30.24,18.949 30.222,18.988 
			30.212,19.007 30.201,19.018 30.193,19.027 30.193,19.036 30.183,19.055 30.164,19.113 30.164,19.123 30.174,19.143 
			30.164,19.172 30.164,19.181 30.152,19.191 30.125,19.2 30.115,19.2 30.105,19.21 30.086,19.258 30.086,19.287 30.066,19.326 
			30.058,19.355 30.066,19.364 30.096,19.394 30.105,19.403 30.105,19.413 30.096,19.423 30.066,19.48 30.048,19.528 30.048,19.538 
			30.038,19.558 30.02,19.606 30.02,19.635 29.999,19.674 29.961,19.721 29.912,19.779 29.902,19.799 29.902,19.81 29.884,19.847 
			29.796,19.973 29.758,20.002 29.691,20.04 29.671,20.06 29.671,20.069 29.671,20.079 29.594,20.136 29.584,20.146 29.566,20.146 
			29.546,20.146 29.518,20.167 29.497,20.186 29.459,20.292 29.459,20.32 29.479,20.32 29.488,20.32 29.497,20.311 29.507,20.311 
			29.535,20.281 29.556,20.272 29.566,20.262 29.574,20.272 29.584,20.272 29.584,20.281 29.574,20.32 29.566,20.34 29.507,20.378 
			29.469,20.388 29.439,20.398 29.42,20.417 29.382,20.465 29.361,20.465 29.354,20.476 29.343,20.513 29.343,20.532 29.334,20.552 
			29.324,20.562 29.295,20.61 29.285,20.619 29.295,20.649 29.295,20.658 29.266,20.668 29.246,20.677 29.218,20.716 29.197,20.727 
			29.064,20.803 29.044,20.813 29.015,20.822 28.967,20.841 28.967,20.852 28.957,20.861 28.938,20.88 28.919,20.89 28.869,20.909 
			28.859,20.928 28.803,20.967 28.783,20.986 28.773,20.986 28.773,20.996 28.764,21.006 28.764,21.015 28.764,21.044 
			28.754,21.064 28.754,21.073 28.744,21.103 28.744,21.121 28.754,21.141 28.764,21.15 28.773,21.15 28.812,21.141 28.812,21.15 
			28.82,21.15 28.82,21.17 28.82,21.179 28.82,21.189 28.82,21.199 28.831,21.237 28.842,21.257 28.869,21.285 28.898,21.343 
			28.908,21.372 28.938,21.411 28.947,21.43 28.957,21.45 28.996,21.479 29.005,21.488 29.044,21.518 29.044,21.527 29.054,21.536 
			29.054,21.547 29.064,21.566 29.064,21.613 29.064,21.644 29.072,21.653 29.072,21.662 29.121,21.711 29.131,21.711 29.141,21.73 
			29.158,21.758 29.189,21.787 29.189,21.797 29.197,21.807 29.197,21.826 29.197,21.836 29.197,21.846 29.189,21.865 
			29.189,21.875 29.189,21.885 29.15,21.924 29.131,21.961 29.102,21.971 29.082,21.952 29.072,21.952 28.996,21.961 28.977,21.971 
			28.967,21.99 28.967,22 28.967,22.01 28.967,22.029 28.977,22.039 29.015,22.077 29.025,22.077 29.033,22.088 29.033,22.096 
			29.033,22.106 29.033,22.127 29.033,22.146 29.005,22.184 28.977,22.202 28.977,22.213 28.967,22.223 28.957,22.241 
			28.957,22.252 28.957,22.271 28.957,22.28 28.957,22.29 28.919,22.357 28.908,22.357 28.908,22.367 28.88,22.367 28.869,22.377 
			28.842,22.387 28.831,22.405 28.82,22.424 28.803,22.463 28.793,22.473 28.764,22.473 28.716,22.473 28.656,22.454 28.639,22.444 
			28.629,22.444 28.609,22.454 28.6,22.454 28.59,22.463 28.581,22.473 28.581,22.483 28.57,22.512 28.57,22.551 28.562,22.561 
			28.542,22.58 28.494,22.608 28.474,22.627 28.474,22.637 28.474,22.646 28.474,22.666 28.484,22.676 28.513,22.705 28.531,22.723 
			28.531,22.734 28.552,22.754 28.552,22.772 28.552,22.782 28.531,22.812 28.531,22.82 28.513,22.859 28.504,22.879 28.494,22.879 
			28.494,22.889 28.484,22.907 28.474,22.937 28.474,22.946 28.465,22.976 28.455,23.014 28.455,23.023 28.445,23.043 
			28.455,23.062 28.455,23.072 28.465,23.081 28.484,23.11 28.513,23.12 28.523,23.12 28.552,23.12 28.562,23.12 28.57,23.12 
			28.581,23.131 28.59,23.131 28.59,23.139 28.59,23.149 28.59,23.168 28.581,23.178 28.57,23.197 28.57,23.207 28.562,23.217 
			28.531,23.227 28.523,23.245 28.513,23.245 28.494,23.295 28.474,23.332 28.474,23.342 28.513,23.37 28.513,23.381 28.523,23.391 
			28.523,23.4 28.531,23.428 28.542,23.496 28.542,23.506 28.542,23.516 28.531,23.525 28.494,23.535 28.474,23.535 28.474,23.545 
			28.474,23.564 28.494,23.584 28.504,23.603 28.504,23.613 28.523,23.641 28.531,23.709 28.531,23.719 28.542,23.719 
			28.542,23.729 28.531,23.748 28.531,23.758 28.523,23.776 28.513,23.786 28.513,23.797 28.513,23.805 28.523,23.824 
			28.531,23.834 28.552,23.854 28.562,23.863 28.562,23.873 28.57,23.873 28.57,23.883 28.581,23.883 28.59,23.883 28.609,23.893 
			28.619,23.893 28.629,23.902 28.648,23.902 28.656,23.902 28.667,23.902 28.688,23.902 28.706,23.893 28.754,23.844 
			28.764,23.834 28.773,23.834 28.783,23.824 28.793,23.824 28.803,23.824 28.812,23.814 28.82,23.814 28.889,23.824 28.919,23.834 
			28.957,23.844 29.005,23.863 29.015,23.873 29.033,23.893 29.082,23.941 29.092,23.959 29.121,24 29.179,24.037 29.189,24.057 
			29.189,24.076 29.197,24.143 		"/>
		
			<polyline fill="#FFFFFF" stroke="#404041" stroke-width="0.1" stroke-linecap="round" stroke-linejoin="round" stroke-miterlimit="3.85" points="
			29.197,24.143 29.197,24.191 29.197,24.201 29.197,24.25 29.197,24.288 29.218,24.365 29.218,24.375 29.227,24.414 29.227,24.443 
			29.208,24.481 29.197,24.5 29.197,24.529 29.197,24.559 29.197,24.568 29.197,24.578 29.189,24.616 29.189,24.627 29.197,24.674 
			29.227,24.771 29.236,24.838 29.246,24.848 29.246,24.857 29.256,24.877 29.266,24.887 29.275,24.887 29.304,24.896 
			29.314,24.896 29.324,24.906 29.334,24.916 29.343,24.926 29.361,24.944 29.372,24.944 29.393,24.955 29.41,24.965 29.42,24.965 
			29.43,24.965 29.469,24.955 29.546,24.936 29.566,24.916 29.574,24.916 29.613,24.926 29.633,24.936 29.633,24.944 29.643,24.944 
			29.652,24.955 29.66,24.955 29.671,24.965 29.719,24.983 29.729,24.992 29.738,25.002 29.749,25.012 29.787,25.09 29.807,25.139 
			29.816,25.156 29.835,25.215 29.855,25.264 29.855,25.283 29.855,25.321 29.855,25.33 29.863,25.369 29.874,25.369 29.884,25.398 
			29.922,25.428 29.961,25.456 30.009,25.496 30.058,25.533 30.086,25.543 30.096,25.543 30.115,25.543 30.145,25.562 
			30.164,25.572 30.174,25.582 30.193,25.592 30.201,25.61 30.27,25.678 30.289,25.707 30.309,25.746 30.337,25.795 30.357,25.842 
			30.386,25.92 30.414,25.977 30.443,25.996 30.501,26.025 30.511,26.035 30.529,26.055 30.627,26.094 30.666,26.104 30.693,26.133 
			30.704,26.133 30.714,26.143 30.724,26.151 30.734,26.161 30.742,26.161 30.752,26.172 30.762,26.18 30.791,26.199 30.811,26.238 
			30.811,26.248 30.829,26.277 30.849,26.305 30.849,26.315 30.867,26.375 30.878,26.393 30.888,26.402 30.896,26.412 
			30.936,26.432 30.974,26.451 30.992,26.471 31.061,26.557 31.061,26.576 31.061,26.605 31.061,26.635 31.051,26.653 
			31.042,26.663 30.965,26.74 30.955,26.74 30.945,26.74 30.896,26.74 30.888,26.74 30.878,26.75 30.849,26.76 30.818,26.779 
			30.791,26.807 30.752,26.836 30.742,26.846 30.734,26.846 30.724,26.846 30.714,26.846 30.656,26.826 30.636,26.826 
			30.607,26.807 30.598,26.807 30.578,26.799 30.559,26.799 30.55,26.807 30.529,26.826 30.511,26.855 30.511,26.866 30.511,26.875 
			30.501,26.885 30.49,26.914 30.49,26.943 30.482,26.963 30.473,26.981 30.443,27.01 30.424,27.02 30.414,27.02 30.404,27.029 
			30.396,27.029 30.386,27.039 30.376,27.049 30.376,27.059 30.365,27.068 30.357,27.098 30.357,27.107 30.337,27.117 
			30.309,27.127 30.25,27.146 30.212,27.165 30.164,27.184 30.135,27.193 30.105,27.203 30.096,27.213 30.048,27.203 30.027,27.203 
			30.02,27.203 30.009,27.213 29.988,27.223 29.98,27.223 29.922,27.262 29.912,27.271 29.835,27.32 29.807,27.34 29.768,27.367 
			29.738,27.396 29.719,27.406 29.71,27.416 29.71,27.426 29.691,27.444 29.633,27.512 29.604,27.543 29.584,27.551 29.574,27.561 
			29.566,27.57 29.535,27.58 29.497,27.6 29.488,27.6 29.449,27.609 29.439,27.619 29.43,27.619 29.42,27.629 29.402,27.647 
			29.382,27.676 29.372,27.687 29.343,27.754 29.334,27.773 29.304,27.801 29.295,27.812 29.295,27.821 29.275,27.842 
			29.189,27.879 29.169,27.889 29.092,27.918 29.072,27.928 29.033,27.947 29.005,27.967 29.005,27.977 28.996,27.985 
			28.986,27.995 28.977,27.995 28.957,28.024 28.957,28.045 28.957,28.062 28.957,28.072 28.947,28.082 28.947,28.092 
			28.947,28.102 28.947,28.121 28.957,28.17 28.957,28.178 28.957,28.198 28.957,28.207 28.967,28.227 28.977,28.246 28.977,28.266 
			28.986,28.284 28.996,28.295 28.996,28.305 28.996,28.314 28.996,28.353 28.996,28.362 28.986,28.391 28.977,28.42 28.957,28.439 
			28.938,28.478 28.928,28.487 28.919,28.508 28.889,28.516 28.764,28.526 28.716,28.526 28.706,28.526 28.688,28.536 
			28.656,28.564 28.629,28.584 28.581,28.641 28.523,28.672 28.484,28.69 28.455,28.709 28.406,28.719 28.339,28.739 28.262,28.758 
			28.252,28.758 28.186,28.768 28.175,28.768 28.146,28.768 28.117,28.768 28.107,28.768 28.061,28.758 28.029,28.768 
			28.021,28.768 27.99,28.768 27.953,28.768 27.896,28.797 27.886,28.797 27.876,28.807 27.857,28.816 27.857,28.825 27.826,28.836 
			27.826,28.844 27.76,28.902 27.74,28.922 27.732,28.941 27.722,28.941 27.701,28.951 27.693,28.971 27.645,29.008 27.605,29.038 
			27.596,29.049 27.576,29.066 27.52,29.105 27.451,29.057 27.422,29.038 27.402,29.028 27.335,29 27.335,28.989 27.316,28.989 
			27.316,28.979 27.287,28.971 27.268,28.961 27.22,28.941 27.21,28.941 27.172,28.932 27.113,28.912 27.074,28.902 27.007,28.894 
			26.979,28.883 26.861,28.875 26.795,28.875 26.697,28.875 26.65,28.875 26.582,28.883 26.572,28.894 26.457,28.912 26.369,28.941 
			26.332,28.951 26.244,29 26.227,29.008 26.156,29.049 26.129,29.057 26.119,29.066 26.1,29.076 26.1,29.086 26.062,29.115 
			26.023,29.133 26.013,29.154 26.003,29.154 25.984,29.174 25.945,29.213 25.936,29.221 25.926,29.231 25.917,29.24 25.906,29.25 
			25.898,29.26 25.898,29.27 25.878,29.289 25.859,29.309 25.85,29.327 25.84,29.338 25.829,29.346 25.818,29.356 25.801,29.377 
			25.801,29.385 25.791,29.395 25.771,29.434 25.762,29.443 25.752,29.463 25.724,29.521 25.693,29.588 25.693,29.598 
			25.665,29.674 25.656,29.685 25.579,29.694 25.521,29.694 25.472,29.694 25.463,29.694 25.414,29.694 25.299,29.704 
			25.125,29.704 24.807,29.715 24.672,29.715 24.574,29.715 24.479,29.723 24.402,29.723 24.333,29.723 24.121,29.723 
			23.822,29.733 23.783,29.733 23.764,29.733 23.667,29.733 23.656,29.733 23.301,29.742 23.252,29.742 23.214,29.742 
			23.088,29.752 22.732,29.752 22.712,29.752 22.673,29.752 22.48,29.762 22.402,29.762 22.355,29.762 22.287,29.762 22.277,29.762 
			22.171,29.762 22.162,29.762 22.066,29.762 21.902,29.771 21.766,29.771 21.718,29.771 21.631,29.771 21.593,29.771 
			21.494,29.771 21.283,29.781 21.168,29.781 21.052,29.781 21.031,29.781 20.888,29.781 20.82,29.781 20.801,29.781 20.742,29.781 
			20.724,29.781 20.511,29.791 20.473,29.791 20.357,29.791 20.279,29.791 20.251,29.791 20.24,29.791 20.02,29.801 19.865,29.801 
			19.816,29.801 19.777,29.801 19.681,29.801 19.652,29.801 19.574,29.801 19.488,29.801 19.459,29.801 19.373,29.801 
			19.285,29.811 19.236,29.811 19.016,29.811 18.996,29.811 18.939,29.811 18.928,29.811 18.89,29.811 18.678,29.811 18.602,29.811 
			18.436,29.811 18.367,29.811 18.109,29.819 18.099,29.819 17.982,29.819 17.963,29.819 17.701,29.819 17.693,29.819 
			17.568,29.819 17.402,29.819 17.345,29.819 17.336,29.819 17.316,29.819 17.307,29.819 17.287,29.819 17.249,29.819 
			17.238,29.819 17.23,29.819 17.181,29.819 17.104,29.819 16.834,29.819 16.785,29.819 16.641,29.819 16.583,29.819 16.448,29.819 
			16.438,29.819 16.39,29.819 16.264,29.819 16.235,29.819 16.071,29.819 15.734,29.819 15.724,29.819 15.705,29.819 15.444,29.819 
			15.434,29.819 15.405,29.819 15.367,29.819 15.347,29.819 15.29,29.819 15.212,29.811 15.144,29.811 15.106,29.811 14.865,29.811 
			14.855,29.811 14.806,29.811 14.71,29.811 14.662,29.811 14.652,29.811 14.633,29.811 14.517,29.811 14.334,29.811 14.325,29.811 
			14.276,29.811 14.025,29.811 13.687,29.801 13.62,29.801 13.61,29.801 13.484,29.801 13.32,29.801 13.282,29.801 13.224,29.801 
			13.079,29.801 12.944,29.801 12.934,29.801 12.828,29.801 12.741,29.801 12.732,29.801 12.596,29.801 12.528,29.801 
			12.268,29.791 12.239,29.801 12.23,29.801 12.22,29.801 12.21,29.801 12.007,29.791 11.776,29.791 11.709,29.791 11.67,29.791 
			11.641,29.791 11.592,29.791 11.506,29.791 11.429,29.791 11.381,29.791 11.187,29.791 11.168,29.791 11.158,29.791 
			11.139,29.781 11.081,29.781 10.985,29.781 10.917,29.781 10.859,29.781 10.762,29.781 10.685,29.781 10.579,29.781 10.55,29.781 
			10.463,29.781 10.424,29.781 10.309,29.771 10.232,29.771 10.213,29.771 10.144,29.771 10.116,29.771 10.019,29.771 9.981,29.771 
			9.961,29.771 9.894,29.771 9.884,29.771 9.769,29.771 9.739,29.771 9.701,29.771 9.575,29.771 9.546,29.771 9.537,29.771 
			9.363,29.762 9.266,29.762 9.208,29.762 9.131,29.762 8.533,29.752 8.513,29.752 8.475,29.752 8.311,29.752 7.683,29.742 
			7.462,29.742 7.443,29.742 7.403,29.742 7.201,29.742 7.105,29.733 7.017,29.733 6.718,29.733 6.275,29.723 6.023,29.723 
			5.898,29.723 5.666,29.715 5.637,29.715 5.589,29.715 5.569,29.715 5.492,29.715 5.309,29.704 5.048,29.704 5,29.704 
			4.904,29.694 4.769,29.694 4.537,29.694 4.305,29.685 4.296,29.685 4.286,29.685 4.277,29.685 3.997,29.674 3.977,29.674 
			3.619,29.665 3.582,29.665 3.311,29.656 3.263,29.656 3.215,29.656 3.204,29.656 3.195,29.656 3.138,29.656 2.858,29.646 
			2.626,29.637 2.558,29.637 2.462,29.637 2.452,29.637 2.443,29.637 2.384,29.627 2.268,29.627 2.259,29.627 2.095,29.627 
			2.027,29.617 1.922,29.617 1.911,29.617 1.756,29.617 1.448,29.607 1.332,29.598 1.168,29.598 1.158,29.598 1.139,29.598 
			1.12,29.588 1.043,29.588 0.82,29.579 0.83,29.105 0.83,29.008 0.84,28.797 0.84,28.719 0.849,28.68 0.849,28.613 0.849,28.547 
			0.849,28.516 0.86,28.43 0.86,28.121 0.869,28.111 0.869,27.985 0.869,27.967 0.869,27.947 0.869,27.928 0.879,27.58 
			0.888,27.396 0.888,27.232 0.898,27.193 0.898,27.174 0.898,27.165 0.898,27.049 0.898,26.991 0.907,26.895 0.907,26.721 
			0.917,26.615 0.917,26.528 0.917,26.363 0.926,26.035 0.926,26.025 0.937,25.948 0.937,25.871 0.937,25.785 0.946,25.697 
			0.946,25.553 0.946,25.456 0.956,25.379 0.956,25.369 0.956,25.342 0.966,25.244 0.966,25.205 0.966,24.992 0.975,24.955 
			0.975,24.829 0.985,24.559 0.985,24.549 0.985,24.481 0.985,24.463 0.985,24.434 0.985,24.395 0.995,24.182 0.995,23.959 
			1.004,23.902 1.004,23.699 1.004,23.68 1.014,23.516 1.014,23.37 1.014,23.361 1.014,23.332 1.024,23.295 1.024,23.284 
			1.024,23.264 1.024,23.158 1.024,23.131 1.024,23.023 1.033,22.83 1.033,22.772 1.043,22.705 1.043,22.473 1.043,22.444 
			1.043,22.396 1.052,22.348 1.052,22.328 1.052,22.26 1.052,22.184 1.062,22.029 1.062,21.942 1.062,21.932 1.062,21.924 
			1.072,21.75 1.072,21.594 1.072,21.586 1.072,21.547 1.072,21.508 1.081,21.45 1.081,21.382 1.081,21.315 1.081,21.295 
			1.081,21.247 1.081,21.237 1.081,21.199 1.091,21.141 1.091,21.015 1.091,21.006 1.091,20.967 1.091,20.947 1.101,20.813 
			1.101,20.755 1.101,20.716 1.11,20.562 1.11,20.504 1.11,20.494 1.11,20.437 1.11,20.426 1.11,20.407 1.11,20.359 1.11,20.301 
			1.12,20.233 1.12,20.204 1.12,20.136 1.12,20.069 1.12,20.011 1.13,19.935 1.13,19.828 1.13,19.76 1.139,19.645 1.139,19.606 
			1.139,19.558 1.139,19.538 1.139,19.5 1.139,19.432 1.139,19.423 1.149,19.375 1.149,19.345 1.149,19.278 1.149,19.269 
			1.149,19.229 1.149,19.123 1.149,19.104 1.158,19.065 1.158,18.843 1.158,18.804 1.168,18.66 1.168,18.64 1.168,18.631 
			1.168,18.621 1.168,18.612 1.168,18.544 1.168,18.477 1.168,18.467 1.178,18.399 1.178,18.352 1.178,18.293 1.187,18.101 
			1.187,18.042 1.187,18.013 1.187,17.965 1.187,17.937 1.197,17.781 1.197,17.607 1.197,17.598 1.207,17.53 1.207,17.337 
			1.207,17.308 1.207,17.26 1.216,17.173 1.216,17.048 1.216,17 1.226,16.806 1.235,16.555 1.235,16.44 1.235,16.382 1.235,16.372 
			1.245,16.169 1.245,16.072 1.255,15.908 1.255,15.821 1.255,15.783 1.255,15.735 1.264,15.562 1.275,15.165 		"/>
	</g>
</g>
</svg>
