<?xml version="1.0" encoding="utf-8"?>
<!-- Generator: Adobe Illustrator 16.0.0, SVG Export Plug-In . SVG Version: 6.00 Build 0)  -->
<!DOCTYPE svg PUBLIC "-//W3C//DTD SVG 1.1//EN" "http://www.w3.org/Graphics/SVG/1.1/DTD/svg11.dtd">
<svg version="1.1" id="sc" xmlns="http://www.w3.org/2000/svg" xmlns:xlink="http://www.w3.org/1999/xlink" x="0px" y="0px"
	 width="32px" height="32px" viewBox="0 0 32 32" enable-background="new 0 0 32 32" xml:space="preserve">
<polyline fill="none" stroke="#404041" stroke-width="0.1" stroke-linecap="round" stroke-linejoin="round" stroke-miterlimit="3.85" points="
	3.045,10.057 3.045,10.067 3.024,10.087 3.024,10.097 3.024,10.107 3.014,10.107 2.973,10.107 2.964,10.107 2.811,10.016 
	2.79,10.026 2.78,10.026 2.72,9.975 2.699,9.945 2.678,9.924 2.669,9.884 2.659,9.874 2.639,9.863 2.587,9.884 2.567,9.874 
	2.527,9.843 2.455,9.772 2.455,9.751 2.516,9.711 2.516,9.701 2.506,9.701 2.476,9.66 2.465,9.65 2.455,9.65 2.425,9.64 2.415,9.64 
	2.395,9.65 2.364,9.64 2.353,9.629 2.353,9.609 2.353,9.579 2.313,9.528 2.292,9.508 2.232,9.426 2.211,9.417 2.19,9.417 
	2.14,9.375 2.13,9.365 2.049,9.284 2.039,9.213 1.958,9.182 1.947,9.182 1.937,9.172 1.937,9.132 1.947,9.101 1.947,9.091 
	1.947,9.081 1.937,9.071 1.927,9.061 1.907,9.061 1.886,9.061 1.774,9.071 1.754,9.05 1.683,9.03 1.622,9.04 1.582,9.03 1.571,9.03 
	1.561,9.03 1.561,9.02 1.551,9.02 1.51,8.989 1.49,8.969 1.5,8.928 1.5,8.918 1.48,8.908 1.459,8.868 1.419,8.817 1.368,8.796 
	1.307,8.786 1.276,8.766 1.256,8.746 1.236,8.735 1.226,8.715 1.206,8.705 1.185,8.695 1.134,8.624 1.134,8.593 1.114,8.573 
	1.083,8.562 1.053,8.573 1.033,8.573 1.022,8.532 1.022,8.522 1.002,8.512 0.982,8.492 0.972,8.492 0.952,8.481 0.941,8.481 
	0.921,8.481 0.911,8.481 0.901,8.471 0.901,8.461 0.901,8.44 0.891,8.44 0.891,8.431 0.891,8.42 0.88,8.4 0.86,8.379 0.85,8.37 
	0.84,8.359 0.83,8.349 0.83,8.339 0.83,8.329 0.84,8.309 0.85,8.309 0.85,8.298 0.85,8.288 0.83,8.268 0.83,8.237 0.83,8.228 
	0.819,8.207 0.819,8.115 0.819,8.105 0.84,8.054 0.911,8.014 0.952,7.973 0.982,7.933 1.033,7.882 1.022,7.841 1.033,7.78 
	1.012,7.658 1.073,7.577 1.134,7.557 1.155,7.546 1.155,7.516 1.145,7.496 1.145,7.485 1.145,7.475 1.155,7.475 1.165,7.475 
	1.175,7.475 1.185,7.475 1.195,7.465 1.215,7.435 1.226,7.414 1.226,7.394 1.256,7.404 1.267,7.424 1.317,7.455 1.348,7.445 
	1.368,7.424 1.368,7.333 1.358,7.303 1.368,7.242 1.389,7.231 1.409,7.231 1.419,7.242 1.429,7.242 1.45,7.242 1.45,7.231 
	1.459,7.221 1.47,7.181 1.48,7.16 1.5,7.15 1.5,7.14 1.5,7.129 1.5,7.12 1.5,7.109 1.51,7.089 1.531,7.089 1.541,7.079 1.561,7.059 
	1.561,7.039 1.561,7.018 1.571,7.008 1.602,6.998 1.622,6.978 1.622,6.987 1.673,6.998 1.683,6.998 1.724,6.967 1.744,6.978 
	1.764,6.987 1.795,6.947 1.774,6.906 1.785,6.875 1.795,6.875 1.815,6.875 1.825,6.865 1.835,6.855 1.855,6.855 1.866,6.855 
	1.886,6.835 1.927,6.804 1.927,6.784 1.937,6.774 1.958,6.764 1.968,6.754 1.988,6.733 2.008,6.703 2.029,6.693 2.049,6.703 
	2.069,6.683 2.09,6.652 2.1,6.642 2.12,6.632 2.161,6.652 2.181,6.652 2.242,6.611 2.252,6.601 2.242,6.571 2.252,6.561 2.262,6.55 
	2.283,6.561 2.292,6.55 2.303,6.55 2.313,6.53 2.303,6.52 2.292,6.51 2.272,6.469 2.272,6.439 2.283,6.418 2.313,6.398 2.303,6.357 
	2.313,6.327 2.364,6.266 2.384,6.235 2.404,6.215 2.415,6.164 2.415,6.144 2.415,6.114 2.395,6.083 2.72,5.981 2.841,5.94 
	2.953,5.91 3.004,5.89 3.024,5.89 3.075,5.87 3.726,5.687 4.274,5.524 4.406,5.473 4.417,5.473 4.437,5.473 4.457,5.483 
	4.467,5.483 4.487,5.504 4.477,5.534 4.477,5.544 4.467,5.565 4.457,5.575 4.457,5.585 4.457,5.595 4.447,5.615 4.467,5.626 
	4.477,5.636 4.487,5.636 4.518,5.626 4.558,5.605 4.6,5.605 4.62,5.595 4.64,5.565 4.64,5.554 4.65,5.534 4.67,5.524 4.701,5.534 
	4.721,5.524 4.731,5.504 4.772,5.473 4.772,5.463 4.772,5.443 4.782,5.433 4.792,5.412 4.812,5.412 4.833,5.422 4.863,5.422 
	4.914,5.392 4.935,5.392 4.955,5.392 4.965,5.392 4.975,5.392 4.995,5.382 5.025,5.341 5.025,5.331 5.037,5.331 5.037,5.321 
	5.037,5.311 5.025,5.28 5.016,5.27 5.016,5.26 5.025,5.25 5.037,5.24 5.046,5.229 5.046,5.219 5.046,5.209 5.057,5.189 5.067,5.179 
	5.087,5.179 5.097,5.179 5.107,5.179 5.118,5.199 5.127,5.219 5.138,5.229 5.158,5.24 5.199,5.24 5.229,5.229 5.26,5.209 
	5.27,5.199 5.27,5.189 5.29,5.168 5.311,5.158 5.331,5.158 5.341,5.158 5.351,5.168 5.362,5.168 5.371,5.179 5.392,5.179 
	5.412,5.179 5.422,5.168 5.432,5.148 5.463,5.118 5.483,5.107 5.503,5.097 5.513,5.087 5.534,5.087 5.575,5.087 5.605,5.097 
	5.636,5.087 5.666,5.057 5.676,5.057 5.706,5.057 5.717,5.067 5.727,5.067 5.768,5.046 5.778,5.046 5.778,5.036 5.788,5.026 
	5.798,5.026 5.808,5.006 5.818,4.996 5.838,4.996 5.849,4.996 5.869,4.996 5.88,4.986 5.88,4.965 5.88,4.955 5.89,4.945 5.9,4.935 
	5.92,4.925 5.94,4.925 5.971,4.925 5.992,4.935 5.992,4.945 6.001,4.955 6.011,4.965 6.031,4.965 6.042,4.965 6.052,4.955 
	6.062,4.955 6.083,4.945 6.103,4.925 6.113,4.914 6.123,4.904 6.185,4.904 6.225,4.904 6.245,4.904 6.275,4.864 6.296,4.843 
	6.317,4.833 6.367,4.823 6.398,4.823 6.418,4.823 6.468,4.803 6.5,4.803 6.51,4.823 6.52,4.833 6.52,4.843 6.52,4.854 6.51,4.874 
	6.52,4.894 6.54,4.904 6.561,4.894 6.591,4.894 6.601,4.894 6.621,4.884 6.631,4.874 6.631,4.854 6.651,4.803 6.672,4.762 
	6.692,4.691 6.723,4.65 6.733,4.64 6.773,4.62 6.824,4.609 6.875,4.539 6.885,4.539 6.896,4.528 6.896,4.518 6.905,4.518 
	6.905,4.528 6.916,4.528 6.946,4.559 6.946,4.579 6.966,4.62 6.977,4.66 6.977,4.67 6.977,4.681 6.966,4.691 6.966,4.711 
	6.966,4.721 6.977,4.742 6.986,4.762 7.018,4.772 7.028,4.782 7.038,4.782 7.058,4.772 7.068,4.762 7.068,4.751 7.079,4.751 
	7.079,4.731 7.079,4.721 7.088,4.711 7.129,4.701 7.14,4.701 7.16,4.701 7.19,4.691 7.21,4.711 7.221,4.721 7.221,4.731 7.23,4.731 
	7.261,4.711 7.281,4.731 7.281,4.742 7.302,4.762 7.322,4.762 7.353,4.742 7.363,4.742 7.363,4.731 7.373,4.721 7.373,4.711 
	7.383,4.711 7.423,4.701 7.505,4.681 7.516,4.681 7.546,4.66 7.576,4.65 7.627,4.65 7.739,4.66 7.769,4.66 7.86,4.67 7.901,4.681 
	7.932,4.681 7.962,4.681 7.993,4.681 8.043,4.691 8.125,4.691 8.186,4.701 8.236,4.701 8.298,4.701 8.48,4.711 8.684,4.721 
	8.724,4.731 8.785,4.731 9.05,4.742 9.101,4.742 9.293,4.751 9.303,4.751 9.334,4.751 9.436,4.762 9.507,4.762 9.538,4.762 
	9.812,4.782 9.853,4.782 10.126,4.792 10.228,4.803 10.279,4.803 10.319,4.803 10.583,4.823 10.746,4.823 10.767,4.833 
	10.788,4.833 10.818,4.833 10.95,4.833 10.98,4.833 11.062,4.843 11.092,4.843 11.113,4.843 11.194,4.843 11.234,4.854 
	11.336,4.854 11.366,4.854 11.549,4.874 11.691,4.874 11.752,4.884 11.782,4.884 11.956,4.894 12.006,4.894 12.068,4.894 
	12.169,4.904 12.179,4.904 12.23,4.904 12.362,4.914 12.504,4.925 12.504,4.914 12.656,4.925 12.677,4.925 12.707,4.935 
	12.758,4.935 12.779,4.935 12.809,4.935 12.819,4.935 12.83,4.935 12.85,4.935 13.297,4.965 13.541,4.975 13.591,4.975 
	13.622,4.975 13.672,4.975 13.774,4.986 13.906,4.996 13.927,4.996 14.079,4.996 14.089,5.006 14.272,5.016 14.466,5.026 
	14.526,5.026 14.729,5.036 14.78,5.036 14.81,5.046 14.882,5.046 14.892,5.046 14.902,5.046 15.004,5.057 15.105,5.067 
	15.237,5.077 15.319,5.077 15.319,5.087 15.309,5.097 15.298,5.118 15.289,5.128 15.268,5.199 15.268,5.209 15.268,5.219 
	15.278,5.219 15.349,5.26 15.359,5.291 15.379,5.351 15.39,5.382 15.379,5.392 15.379,5.402 15.37,5.422 15.359,5.433 15.359,5.443 
	15.339,5.443 15.328,5.443 15.309,5.453 15.298,5.453 15.289,5.463 15.278,5.463 15.258,5.483 15.258,5.504 15.237,5.554 
	15.227,5.565 15.227,5.636 15.227,5.656 15.227,5.667 15.227,5.748 15.237,5.758 15.278,5.798 15.328,5.88 15.654,5.656 
	15.685,5.626 15.725,5.605 15.847,5.514 15.888,5.494 15.897,5.483 15.908,5.473 15.918,5.463 16,5.402 16.02,5.433 16.091,5.524 
	16.172,5.636 16.223,5.707 16.304,5.809 16.396,5.94 16.446,6.001 16.518,6.103 16.589,6.205 16.7,6.378 16.803,6.5 16.914,6.652 
	16.954,6.703 16.954,6.713 16.944,6.825 16.924,6.957 16.873,7.455 16.873,7.475 16.873,7.485 16.863,7.516 16.863,7.557 
	16.854,7.587 16.985,7.587 17.016,7.587 17.3,7.587 17.341,7.597 17.351,7.597 17.503,7.597 17.514,7.597 17.574,7.597 
	17.584,7.597 17.646,7.597 17.696,7.597 17.809,7.597 17.818,7.597 17.931,7.597 17.961,7.597 18.153,7.597 18.336,7.597 
	18.561,7.597 18.723,7.597 18.773,7.607 18.804,7.607 18.813,7.607 18.916,7.607 18.936,7.607 19.027,7.607 19.048,7.607 
	19.068,7.607 19.129,7.607 19.189,7.607 19.23,7.607 19.241,7.607 19.353,7.618 19.667,7.618 19.729,7.618 19.85,7.618 
	19.952,7.618 20.023,7.618 20.084,7.618 20.114,7.618 20.389,7.627 20.419,7.627 20.663,7.627 20.674,7.627 20.826,7.627 
	20.856,7.627 20.928,7.638 20.968,7.638 21.039,7.638 21.09,7.638 21.242,7.638 21.374,7.638 21.405,7.638 21.415,7.638 
	21.588,7.648 21.639,7.648 21.689,7.648 21.781,7.648 21.812,7.648 21.852,7.648 21.902,7.648 21.954,7.648 22.055,7.648 
	22.319,7.658 22.543,7.658 22.554,7.658 22.675,7.658 23.284,7.648 23.346,7.648 23.457,7.648 23.468,7.648 23.59,7.648 
	23.671,7.648 23.803,7.648 23.812,7.648 23.823,7.648 23.895,7.648 23.935,7.688 24.006,7.76 24.098,7.841 24.159,7.902 
	24.179,7.922 24.24,7.983 24.312,8.054 24.393,8.136 24.615,8.349 24.667,8.39 24.809,8.522 24.88,8.603 24.89,8.603 24.981,8.695 
	25.073,8.786 25.145,8.847 25.195,8.908 25.215,8.918 25.256,8.959 25.266,8.969 25.327,9.03 25.53,9.223 25.865,9.548 
	25.917,9.599 26.089,9.772 26.13,9.812 26.14,9.823 26.181,9.863 26.241,9.924 26.252,9.935 26.303,9.996 26.373,10.067 
	26.444,10.138 26.536,10.239 26.607,10.311 26.647,10.341 26.668,10.372 26.698,10.402 26.811,10.503 26.831,10.524 26.922,10.615 
	26.933,10.636 26.983,10.676 26.993,10.687 27.237,10.931 27.298,10.981 27.512,11.195 27.756,11.438 27.938,11.611 27.969,11.642 
	28.172,11.835 28.243,11.906 28.283,11.947 28.294,11.957 28.386,12.048 28.426,12.079 28.446,12.109 28.467,12.129 28.518,12.17 
	28.538,12.201 28.66,12.312 28.761,12.414 28.791,12.445 28.913,12.556 28.975,12.617 29.016,12.658 29.025,12.668 29.035,12.678 
	29.147,12.79 29.33,12.963 29.432,13.064 29.523,13.146 29.544,13.176 29.594,13.217 29.706,13.329 29.889,13.512 29.93,13.542 
	30.071,13.685 30.082,13.695 30.082,13.705 30.133,13.746 30.396,14 30.458,14.06 30.469,14.071 30.479,14.081 30.61,14.203 
	30.661,14.253 30.702,14.294 30.844,14.437 30.854,14.446 30.885,14.477 30.926,14.518 30.966,14.559 30.977,14.568 31.067,14.66 
	31.18,14.772 31.108,14.792 31.099,14.802 30.905,14.833 30.885,14.843 30.813,14.863 30.793,14.874 30.651,14.924 30.57,14.965 
	30.539,14.975 30.356,15.046 30.347,15.056 30.315,15.066 30.225,15.117 30.184,15.138 30.103,15.178 30.093,15.178 30.093,15.188 
	30.082,15.199 30.071,15.199 30.041,15.219 29.96,15.27 29.949,15.28 29.919,15.3 29.889,15.321 29.736,15.422 29.727,15.432 
	29.706,15.442 29.655,15.483 29.594,15.534 29.585,15.544 29.513,15.595 29.493,15.615 29.473,15.625 29.473,15.635 29.422,15.686 
	29.279,15.809 29.219,15.87 29.178,15.91 29.168,15.92 29.147,15.94 29.138,15.951 29.127,15.971 29.056,16.042 28.985,16.113 
	28.894,16.215 28.883,16.225 28.873,16.246 28.833,16.286 28.721,16.408 28.7,16.428 28.69,16.438 28.568,16.591 28.558,16.611 
	28.497,16.703 28.477,16.723 28.426,16.794 28.305,16.957 28.264,16.998 28.142,17.252 28.101,17.291 28.061,17.322 28.061,17.333 
	27.908,17.506 27.877,17.535 27.796,17.627 27.786,17.638 27.766,17.678 27.735,17.729 27.684,17.811 27.634,17.912 27.471,18.246 
	27.461,18.288 27.461,18.298 27.399,18.451 27.38,18.653 27.339,18.797 27.328,18.807 27.318,18.836 27.277,19.02 27.217,19.365 
	27.206,19.396 27.206,19.518 27.247,19.659 27.268,19.752 27.228,19.854 27.187,19.954 27.176,20.005 27.125,20.065 27.115,20.065 
	27.003,20.147 26.993,20.147 26.963,20.178 26.912,20.229 26.851,20.29 26.811,20.382 26.8,20.382 26.668,20.442 26.628,20.453 
	26.525,20.503 26.516,20.503 26.506,20.503 26.425,20.564 26.354,20.604 26.343,20.616 26.272,20.655 26.231,20.788 26.241,20.849 
	26.221,20.96 26.14,21.164 26.089,21.297 26.038,21.297 25.855,21.315 25.814,21.315 25.733,21.297 25.723,21.297 25.683,21.234 
	25.662,21.245 25.601,21.255 25.448,21.297 25.307,21.346 25.297,21.346 25.266,21.234 25.145,21.113 25.053,21.093 25.012,21.113 
	24.829,21.204 24.677,21.315 24.677,21.327 24.646,21.428 24.555,21.52 24.515,21.58 24.442,21.723 24.442,21.784 24.483,21.865 
	24.524,21.927 24.656,21.927 24.677,21.885 24.728,21.865 24.737,21.865 24.737,21.875 24.758,21.927 24.737,22.018 24.718,22.078 
	24.646,22.109 24.372,22.21 24.372,22.222 24.361,22.222 24.312,22.262 24.24,22.322 24.22,22.333 24.209,22.343 24.148,22.384 
	24.047,22.444 23.965,22.505 23.955,22.515 23.955,22.535 23.945,22.547 23.935,22.587 23.915,22.628 23.803,22.698 23.812,22.739 
	23.823,22.77 23.823,22.79 23.762,22.851 23.579,22.933 23.356,23.023 23.224,23.074 23.213,23.084 23.213,23.095 23.173,23.155 
	23.152,23.177 23.102,23.197 23.071,23.216 23.041,23.237 22.99,23.247 22.979,23.247 22.868,23.228 22.827,23.268 22.827,23.298 
	22.827,23.318 22.827,23.328 22.838,23.349 22.857,23.399 22.857,23.409 22.848,23.45 22.848,23.46 22.838,23.48 22.807,23.542 
	22.767,23.634 22.736,23.704 22.736,23.715 22.746,23.755 22.757,23.785 22.736,23.806 22.705,23.827 22.562,23.938 22.421,24.02 
	22.218,24.132 22.177,24.132 22.106,24.233 22.096,24.264 22.096,24.273 22.076,24.314 22.024,24.345 21.954,24.375 21.781,24.365 
	21.526,24.415 21.242,24.518 21.08,24.608 21.069,24.608 20.947,24.752 20.947,24.761 20.917,24.853 20.815,24.803 20.774,24.791 
	20.704,24.782 20.439,24.975 20.419,24.984 20.236,25.086 20.216,25.107 20.145,25.168 20.125,25.188 19.891,25.381 19.85,25.381 
	19.819,25.29 19.81,25.279 19.738,25.259 19.688,25.249 19.576,25.32 19.535,25.381 19.505,25.402 19.372,25.442 19.353,25.433 
	19.342,25.402 19.332,25.29 19.322,25.27 19.302,25.229 19.2,25.188 19.119,25.239 19.027,25.259 18.986,25.239 18.956,25.33 
	18.936,25.391 18.936,25.412 18.905,25.514 18.936,25.615 18.936,25.625 19.017,25.788 19.159,25.798 19.18,25.818 19.23,25.89 
	19.241,25.899 19.261,25.96 19.271,26.062 19.241,26.164 19.169,26.357 19.099,26.459 19.099,26.499 "/>
<polyline fill="none" stroke="#404041" stroke-width="0.1" stroke-linecap="round" stroke-linejoin="round" stroke-miterlimit="3.85" points="
	19.099,26.499 19.108,26.54 19.038,26.59 19.027,26.601 18.854,26.683 18.824,26.692 18.813,26.703 18.804,26.703 18.753,26.733 
	18.702,26.753 18.561,26.845 18.52,26.875 18.428,26.915 18.356,26.947 18.286,26.947 18.225,26.947 18.194,26.947 18.052,27.048 
	17.92,27.078 17.798,27.129 17.798,27.14 17.736,27.333 17.727,27.384 17.687,27.414 17.666,27.444 17.595,27.495 17.595,27.505 
	17.584,27.525 17.554,27.565 17.523,27.616 17.412,27.779 17.392,27.81 17.331,27.86 17.219,27.953 17.209,27.963 17.076,28.034 
	16.944,28.095 16.843,28.165 16.803,28.197 16.741,28.206 16.7,28.165 16.681,28.176 16.659,28.176 16.599,28.197 16.497,28.276 
	16.376,28.42 16.203,28.634 16.284,28.694 16.325,28.765 16.284,28.765 16.162,28.755 16.122,28.745 16.091,28.734 16.06,28.715 
	16.02,28.664 15.959,28.593 15.888,28.511 15.847,28.49 15.796,28.471 15.725,28.439 15.695,28.43 15.664,28.39 15.644,28.339 
	15.623,28.309 15.593,28.276 15.572,28.268 15.552,28.268 15.542,28.258 15.512,28.268 15.481,28.288 15.46,28.328 15.451,28.339 
	15.379,28.379 15.339,28.39 15.319,28.39 15.278,28.379 15.268,28.379 15.258,28.379 15.207,28.369 15.197,28.369 15.197,28.358 
	15.177,28.349 15.156,28.339 15.044,28.268 15.024,28.246 15.014,28.237 15.004,28.216 14.994,28.186 14.984,28.186 14.942,28.186 
	14.872,28.176 14.852,28.165 14.831,28.135 14.81,28.034 14.81,28.014 14.81,28.003 14.81,27.993 14.821,27.953 14.821,27.933 
	14.81,27.86 14.81,27.851 14.8,27.8 14.79,27.79 14.76,27.779 14.75,27.77 14.75,27.759 14.76,27.739 14.78,27.719 14.8,27.698 
	14.821,27.698 14.821,27.678 14.81,27.668 14.81,27.647 14.821,27.616 14.821,27.586 14.81,27.565 14.81,27.546 14.79,27.495 
	14.76,27.444 14.709,27.414 14.709,27.403 14.659,27.343 14.647,27.312 14.638,27.303 14.627,27.282 14.607,27.24 14.597,27.221 
	14.587,27.21 14.587,27.2 14.577,27.189 14.577,27.17 14.577,27.159 14.587,27.159 14.627,27.089 14.647,27.026 14.689,26.978 
	14.709,26.957 14.74,26.947 14.76,26.926 14.8,26.865 14.81,26.845 14.81,26.834 14.81,26.824 14.8,26.713 14.79,26.692 
	14.79,26.683 14.78,26.683 14.75,26.622 14.709,26.56 14.699,26.529 14.699,26.52 14.729,26.489 14.729,26.448 14.729,26.438 
	14.719,26.428 14.679,26.378 14.668,26.367 14.668,26.357 14.659,26.357 14.638,26.378 14.627,26.388 14.627,26.397 14.617,26.397 
	14.607,26.397 14.597,26.397 14.587,26.397 14.587,26.388 14.587,26.378 14.587,26.367 14.567,26.346 14.547,26.327 14.486,26.285 
	14.486,26.275 14.486,26.265 14.496,26.255 14.496,26.245 14.496,26.234 14.496,26.225 14.466,26.194 14.445,26.164 14.424,26.144 
	14.424,26.134 14.435,26.103 14.445,26.053 14.424,26.011 14.364,25.93 14.333,25.899 14.312,25.869 14.262,25.809 14.242,25.716 
	14.252,25.707 14.272,25.697 14.282,25.686 14.292,25.676 14.292,25.665 14.292,25.655 14.282,25.646 14.282,25.635 14.282,25.625 
	14.282,25.615 14.282,25.604 14.292,25.595 14.312,25.595 14.343,25.564 14.384,25.514 14.384,25.503 14.374,25.493 14.364,25.493 
	14.343,25.493 14.333,25.493 14.303,25.473 14.222,25.391 14.12,25.27 14.079,25.239 14.048,25.178 14.048,25.158 14.048,25.147 
	14.059,25.138 14.079,25.138 14.079,25.117 14.079,25.107 14.059,25.096 14.008,25.086 13.987,25.086 13.978,25.096 13.967,25.086 
	13.957,25.086 13.896,25.035 13.866,25.005 13.825,24.975 13.805,24.965 13.805,24.954 13.805,24.934 13.815,24.914 13.815,24.894 
	13.815,24.884 13.794,24.812 13.774,24.791 13.734,24.771 13.724,24.771 13.704,24.761 13.683,24.752 13.672,24.752 13.662,24.752 
	13.652,24.752 13.642,24.752 13.602,24.761 13.53,24.771 13.52,24.771 13.469,24.761 13.348,24.7 13.287,24.67 13.225,24.64 
	13.216,24.589 13.216,24.538 13.206,24.528 13.195,24.528 13.186,24.528 13.165,24.548 13.144,24.548 13.134,24.538 13.083,24.496 
	13.053,24.447 13.032,24.415 12.981,24.375 12.941,24.324 12.9,24.253 12.9,24.243 12.891,24.243 12.891,24.233 12.9,24.203 
	12.911,24.192 12.911,24.183 12.921,24.183 12.93,24.183 12.941,24.213 12.951,24.223 12.972,24.223 13.002,24.192 13.002,24.183 
	12.992,24.171 12.981,24.141 12.992,24.132 13.053,24.09 13.062,24.07 13.053,24.06 13.023,24.04 13.002,24.029 12.981,24.029 
	12.972,23.999 12.972,23.989 12.992,23.948 13.012,23.878 13.012,23.857 12.981,23.797 12.961,23.745 12.961,23.734 12.951,23.734 
	12.951,23.745 12.941,23.745 12.941,23.755 12.93,23.755 12.911,23.745 12.85,23.694 12.839,23.684 12.88,23.613 12.891,23.553 
	12.9,23.45 12.941,23.409 12.941,23.399 12.951,23.39 12.951,23.369 12.951,23.359 12.951,23.349 12.941,23.339 12.93,23.339 
	12.93,23.328 12.921,23.328 12.911,23.318 12.911,23.309 12.911,23.298 12.911,23.288 12.921,23.268 12.911,23.247 12.911,23.228 
	12.891,23.207 12.88,23.197 12.86,23.186 12.85,23.186 12.85,23.177 12.85,23.165 12.85,23.155 12.86,23.155 12.86,23.146 
	12.87,23.146 12.88,23.135 12.88,23.125 12.88,23.115 12.88,23.104 12.88,23.095 12.86,23.095 12.85,23.084 12.839,23.074 
	12.839,23.064 12.83,23.054 12.839,23.034 12.86,23.014 12.86,22.983 12.86,22.933 12.87,22.86 12.891,22.84 12.9,22.82 12.9,22.8 
	12.891,22.709 12.88,22.678 12.85,22.628 12.749,22.557 12.737,22.557 12.707,22.565 12.697,22.577 12.687,22.577 12.677,22.565 
	12.667,22.525 12.677,22.484 12.697,22.424 12.687,22.394 12.687,22.384 12.677,22.384 12.677,22.373 12.636,22.373 12.586,22.353 
	12.575,22.363 12.535,22.353 12.514,22.322 12.524,22.272 12.565,22.252 12.606,22.21 12.616,22.2 12.596,22.18 12.586,22.17 
	12.514,22.14 12.514,22.078 12.494,22.018 12.412,21.936 12.382,21.936 12.372,21.915 12.372,21.905 12.362,21.885 12.382,21.845 
	12.382,21.834 12.362,21.814 12.342,21.794 12.332,21.773 12.332,21.753 12.332,21.743 12.332,21.733 12.332,21.723 12.342,21.713 
	12.342,21.703 12.352,21.703 12.362,21.703 12.372,21.703 12.382,21.692 12.392,21.683 12.423,21.58 12.443,21.459 12.443,21.448 
	12.443,21.438 12.443,21.357 12.433,21.346 12.372,21.307 12.312,21.204 12.301,21.204 12.261,21.194 12.138,21.123 12.128,21.113 
	12.118,21.072 12.107,21.062 12.088,21.062 12.068,21.072 12.057,21.083 12.047,21.083 12.026,21.072 12.017,21.062 12.006,21.053 
	12.006,21.042 12.006,21.021 12.006,21.012 12.006,21.002 11.996,21.002 11.996,20.99 11.986,20.99 11.976,21.002 11.956,21.012 
	11.945,21.012 11.925,21.002 11.884,20.972 11.874,20.941 11.854,20.909 11.824,20.879 11.803,20.879 11.793,20.89 11.782,20.89 
	11.752,20.869 11.752,20.859 11.743,20.849 11.752,20.839 11.752,20.828 11.762,20.818 11.762,20.798 11.752,20.778 11.743,20.768 
	11.722,20.778 11.701,20.798 11.691,20.798 11.681,20.788 11.681,20.768 11.691,20.758 11.691,20.737 11.681,20.707 11.671,20.697 
	11.661,20.697 11.651,20.697 11.631,20.686 11.569,20.697 11.539,20.697 11.529,20.707 11.508,20.707 11.488,20.707 11.478,20.707 
	11.468,20.707 11.457,20.697 11.448,20.697 11.448,20.686 11.407,20.655 11.387,20.635 11.376,20.635 11.376,20.625 11.356,20.616 
	11.213,20.554 11.133,20.523 11.113,20.523 11.092,20.534 11.082,20.523 11,20.473 10.99,20.463 10.98,20.453 10.959,20.422 
	10.95,20.422 10.827,20.33 10.788,20.29 10.756,20.259 10.706,20.198 10.706,20.188 10.706,20.147 10.686,20.107 10.655,20.035 
	10.655,20.026 10.686,19.984 10.695,19.984 10.716,19.975 10.726,19.975 10.746,19.903 10.746,19.884 10.726,19.873 10.716,19.863 
	10.706,19.863 10.686,19.791 10.686,19.771 10.675,19.762 10.675,19.752 10.655,19.74 10.645,19.73 10.614,19.721 10.604,19.73 
	10.594,19.74 10.604,19.752 10.625,19.771 10.625,19.803 10.614,19.812 10.574,19.822 10.543,19.822 10.441,19.803 10.432,19.791 
	10.421,19.781 10.421,19.74 10.411,19.711 10.401,19.701 10.351,19.68 10.299,19.67 10.279,19.629 10.238,19.599 10.218,19.589 
	10.177,19.568 10.146,19.528 10.137,19.496 10.177,19.396 10.177,19.375 10.208,19.375 10.228,19.375 10.238,19.355 10.238,19.334 
	10.218,19.314 10.208,19.294 10.198,19.285 10.146,19.253 10.086,19.233 10.086,19.223 10.086,19.213 10.076,19.213 10.076,19.203 
	10.086,19.141 10.116,19.131 10.146,19.131 10.167,19.131 10.188,19.102 10.188,19.09 10.177,19.07 10.157,19.061 10.137,19.051 
	10.056,19.02 10.045,19.02 10.035,19.02 9.995,19.07 9.944,19.041 9.934,18.99 9.903,18.979 9.863,18.959 9.863,18.948 
	9.863,18.938 9.863,18.908 9.853,18.896 9.842,18.888 9.833,18.888 9.821,18.896 9.821,18.918 9.801,18.938 9.791,18.938 
	9.781,18.938 9.781,18.928 9.771,18.908 9.761,18.896 9.73,18.867 9.72,18.857 9.73,18.807 9.7,18.785 9.69,18.775 9.659,18.785 
	9.639,18.785 9.608,18.785 9.598,18.775 9.588,18.775 9.588,18.756 9.608,18.746 9.619,18.725 9.628,18.695 9.588,18.664 
	9.558,18.634 9.547,18.602 9.547,18.583 9.558,18.583 9.568,18.572 9.598,18.572 9.628,18.593 9.649,18.602 9.679,18.583 
	9.679,18.572 9.69,18.562 9.69,18.553 9.67,18.541 9.649,18.512 9.628,18.379 9.608,18.349 9.619,18.328 9.628,18.318 9.659,18.309 
	9.7,18.298 9.72,18.278 9.73,18.258 9.73,18.237 9.72,18.228 9.69,18.217 9.679,18.186 9.679,18.156 9.69,18.135 9.72,18.125 
	9.74,18.115 9.751,18.105 9.751,18.096 9.761,18.084 9.761,18.074 9.771,18.074 9.771,18.054 9.771,18.044 9.761,18.044 
	9.761,18.023 9.751,18.014 9.72,17.963 9.72,17.953 9.7,17.902 9.69,17.902 9.69,17.881 9.67,17.861 9.639,17.84 9.588,17.83 
	9.558,17.811 9.507,17.779 9.476,17.77 9.446,17.759 9.426,17.74 9.384,17.729 9.345,17.719 9.334,17.709 9.303,17.698 
	9.283,17.668 9.273,17.638 9.283,17.607 9.283,17.586 9.273,17.566 9.253,17.516 9.212,17.445 9.191,17.424 9.182,17.424 
	9.171,17.424 9.171,17.414 9.161,17.363 9.151,17.354 9.141,17.354 9.101,17.322 9.07,17.303 9.07,17.282 9.039,17.252 9.009,17.24 
	8.999,17.221 8.989,17.18 8.928,17.109 8.917,17.099 8.877,17.099 8.866,17.089 8.856,17.078 8.785,17.018 8.765,16.998 
	8.745,16.998 8.673,16.978 8.623,16.957 8.613,16.946 8.603,16.936 8.552,16.865 8.531,16.855 8.491,16.855 8.48,16.855 
	8.46,16.865 8.429,16.896 8.42,16.896 8.409,16.896 8.409,16.906 8.399,16.906 8.39,16.896 8.378,16.896 8.369,16.896 8.318,16.865 
	8.278,16.835 8.267,16.815 8.257,16.773 8.236,16.764 8.216,16.753 8.196,16.743 8.186,16.743 8.115,16.723 8.095,16.703 
	8.084,16.703 8.043,16.662 7.983,16.591 7.983,16.581 7.953,16.469 7.962,16.388 7.962,16.357 7.962,16.347 7.953,16.327 
	7.911,16.286 7.901,16.276 7.881,16.235 7.851,16.174 7.84,16.165 7.82,16.144 7.81,16.123 7.78,16.093 7.769,16.083 7.749,16.053 
	7.729,16.002 7.739,15.951 7.718,15.839 7.718,15.818 7.708,15.788 7.678,15.707 7.667,15.656 7.617,15.605 7.597,15.595 
	7.566,15.585 7.556,15.575 7.556,15.554 7.546,15.544 7.536,15.544 7.525,15.544 7.474,15.503 7.455,15.473 7.423,15.442 
	7.403,15.432 7.383,15.432 7.373,15.432 7.342,15.422 7.342,15.402 7.342,15.392 7.342,15.331 7.342,15.321 7.342,15.31 7.342,15.3 
	7.342,15.29 7.333,15.29 7.322,15.28 7.322,15.27 7.281,15.25 7.251,15.219 7.241,15.208 7.241,15.199 7.23,15.199 7.221,15.178 
	7.18,15.138 7.16,15.127 7.149,15.117 7.119,15.097 7.099,15.086 7.088,15.066 7.048,15.026 7.018,15.016 6.986,14.995 
	6.977,14.995 6.905,14.965 6.885,14.955 6.875,14.944 6.835,14.894 6.804,14.874 6.773,14.853 6.733,14.833 6.703,14.802 
	6.682,14.782 6.661,14.782 6.621,14.782 6.601,14.792 6.591,14.792 6.57,14.802 6.54,14.792 6.53,14.782 6.51,14.772 6.468,14.721 
	6.458,14.711 6.408,14.69 6.367,14.66 6.337,14.62 6.266,14.568 6.205,14.507 6.194,14.498 6.123,14.446 6.103,14.416 6.083,14.375 
	6.062,14.314 6.031,14.274 6.001,14.233 5.93,14.182 5.92,14.182 5.9,14.182 5.88,14.182 5.869,14.182 5.859,14.182 5.829,14.192 
	5.808,14.203 5.737,14.182 5.727,14.162 5.676,14.081 5.666,14.06 5.666,14.02 5.656,13.989 5.646,13.969 5.615,13.949 
	5.595,13.918 5.585,13.897 5.575,13.877 5.575,13.857 5.585,13.847 5.595,13.837 5.605,13.827 5.615,13.816 5.615,13.806 
	5.605,13.796 5.595,13.796 5.564,13.786 5.543,13.766 5.523,13.746 5.513,13.685 5.513,13.674 5.503,13.664 5.493,13.654 
	5.493,13.644 5.483,13.624 5.483,13.603 5.503,13.552 5.493,13.532 5.483,13.512 5.443,13.481 5.402,13.44 5.382,13.39 
	5.341,13.349 5.331,13.329 5.331,13.309 5.32,13.298 5.29,13.257 5.28,13.248 5.27,13.248 5.26,13.248 5.25,13.248 5.239,13.248 
	5.208,13.227 5.188,13.197 5.178,13.176 5.178,13.166 5.178,13.136 5.199,13.125 5.208,13.085 5.219,13.075 5.208,13.075 
	5.208,13.064 5.208,13.054 5.208,13.044 5.168,12.993 5.138,12.983 5.127,12.973 5.097,12.953 5.087,12.922 5.076,12.922 
	5.067,12.892 5.046,12.882 5.046,12.871 5.046,12.861 5.046,12.821 4.995,12.75 4.985,12.739 4.924,12.719 4.904,12.688 
	4.894,12.678 4.874,12.678 4.843,12.678 4.812,12.668 4.742,12.607 4.731,12.587 4.701,12.485 4.701,12.475 4.69,12.455 
	4.681,12.445 4.65,12.394 4.65,12.374 4.64,12.363 4.65,12.262 4.64,12.251 4.588,12.15 4.588,12.14 4.588,12.129 4.579,12.109 
	4.6,12.068 4.6,12.059 4.568,12.018 4.579,12.007 4.588,11.977 4.579,11.916 4.568,11.886 4.568,11.865 4.579,11.814 4.568,11.784 
	4.558,11.753 4.548,11.723 4.558,11.703 4.548,11.672 4.507,11.632 4.467,11.591 4.467,11.581 4.447,11.591 4.417,11.561 
	4.396,11.53 4.386,11.52 4.355,11.469 4.345,11.428 4.314,11.367 4.294,11.266 4.294,11.255 4.284,11.235 4.294,11.215 
	4.294,11.205 4.284,11.205 4.274,11.144 4.274,11.134 4.264,11.134 4.244,11.134 4.172,11.062 4.142,11.032 4.091,10.992 
	4.03,10.951 4.02,10.94 4.02,10.91 4.02,10.879 4.02,10.87 4.01,10.818 4.01,10.809 3.989,10.778 3.979,10.758 3.979,10.748 
	3.979,10.737 3.979,10.727 3.979,10.697 3.979,10.687 3.979,10.676 3.949,10.605 3.949,10.585 3.949,10.524 3.939,10.503 
	3.939,10.493 3.928,10.473 3.908,10.432 3.898,10.341 3.888,10.331 3.868,10.3 3.868,10.29 3.868,10.26 3.868,10.239 3.857,10.229 
	3.837,10.219 3.776,10.188 3.776,10.178 3.776,10.158 3.787,10.148 3.787,10.127 3.776,10.107 3.766,10.107 3.735,10.077 
	3.613,10.016 3.573,10.026 3.482,10.046 3.461,10.046 3.451,10.026 3.37,10.016 3.329,10.067 3.278,10.077 3.248,10.046 
	3.217,10.036 3.126,10.036 3.045,10.057 "/>
<g>
	<polygon fill="#FFFFFF" points="3.045,10.057 3.045,10.067 3.024,10.087 3.024,10.097 3.024,10.107 3.014,10.107 2.973,10.107 
		2.964,10.107 2.811,10.016 2.79,10.026 2.78,10.026 2.72,9.975 2.699,9.945 2.678,9.924 2.669,9.884 2.659,9.874 2.639,9.863 
		2.587,9.884 2.567,9.874 2.527,9.843 2.455,9.772 2.455,9.751 2.516,9.711 2.516,9.701 2.506,9.701 2.476,9.66 2.465,9.65 
		2.455,9.65 2.425,9.64 2.415,9.64 2.395,9.65 2.364,9.64 2.353,9.629 2.353,9.609 2.353,9.579 2.313,9.528 2.292,9.508 
		2.232,9.426 2.211,9.417 2.19,9.417 2.14,9.375 2.13,9.365 2.049,9.284 2.039,9.213 1.958,9.182 1.947,9.182 1.937,9.172 
		1.937,9.132 1.947,9.101 1.947,9.091 1.947,9.081 1.937,9.071 1.927,9.061 1.907,9.061 1.886,9.061 1.774,9.071 1.754,9.05 
		1.683,9.03 1.622,9.04 1.582,9.03 1.571,9.03 1.561,9.03 1.561,9.02 1.551,9.02 1.51,8.989 1.49,8.969 1.5,8.928 1.5,8.918 
		1.48,8.908 1.459,8.868 1.419,8.817 1.368,8.796 1.307,8.786 1.276,8.766 1.256,8.746 1.236,8.735 1.226,8.715 1.206,8.705 
		1.185,8.695 1.134,8.624 1.134,8.593 1.114,8.573 1.083,8.562 1.053,8.573 1.033,8.573 1.022,8.532 1.022,8.522 1.002,8.512 
		0.982,8.492 0.972,8.492 0.952,8.481 0.941,8.481 0.921,8.481 0.911,8.481 0.901,8.471 0.901,8.461 0.901,8.44 0.891,8.44 
		0.891,8.431 0.891,8.42 0.88,8.4 0.86,8.379 0.85,8.37 0.84,8.359 0.83,8.349 0.83,8.339 0.83,8.329 0.84,8.309 0.85,8.309 
		0.85,8.298 0.85,8.288 0.83,8.268 0.83,8.237 0.83,8.228 0.819,8.207 0.819,8.115 0.819,8.105 0.84,8.054 0.911,8.014 0.952,7.973 
		0.982,7.933 1.033,7.882 1.022,7.841 1.033,7.78 1.012,7.658 1.073,7.577 1.134,7.557 1.155,7.546 1.155,7.516 1.145,7.496 
		1.145,7.485 1.145,7.475 1.155,7.475 1.165,7.475 1.175,7.475 1.185,7.475 1.195,7.465 1.215,7.435 1.226,7.414 1.226,7.394 
		1.256,7.404 1.267,7.424 1.317,7.455 1.348,7.445 1.368,7.424 1.368,7.333 1.358,7.303 1.368,7.242 1.389,7.231 1.409,7.231 
		1.419,7.242 1.429,7.242 1.45,7.242 1.45,7.231 1.459,7.221 1.47,7.181 1.48,7.16 1.5,7.15 1.5,7.14 1.5,7.129 1.5,7.12 1.5,7.109 
		1.51,7.089 1.531,7.089 1.541,7.079 1.561,7.059 1.561,7.039 1.561,7.018 1.571,7.008 1.602,6.998 1.622,6.978 1.622,6.987 
		1.673,6.998 1.683,6.998 1.724,6.967 1.744,6.978 1.764,6.987 1.795,6.947 1.774,6.906 1.785,6.875 1.795,6.875 1.815,6.875 
		1.825,6.865 1.835,6.855 1.855,6.855 1.866,6.855 1.886,6.835 1.927,6.804 1.927,6.784 1.937,6.774 1.958,6.764 1.968,6.754 
		1.988,6.733 2.008,6.703 2.029,6.693 2.049,6.703 2.069,6.683 2.09,6.652 2.1,6.642 2.12,6.632 2.161,6.652 2.181,6.652 
		2.242,6.611 2.252,6.601 2.242,6.571 2.252,6.561 2.262,6.55 2.283,6.561 2.292,6.55 2.303,6.55 2.313,6.53 2.303,6.52 2.292,6.51 
		2.272,6.469 2.272,6.439 2.283,6.418 2.313,6.398 2.303,6.357 2.313,6.327 2.364,6.266 2.384,6.235 2.404,6.215 2.415,6.164 
		2.415,6.144 2.415,6.114 2.395,6.083 2.72,5.981 2.841,5.94 2.953,5.91 3.004,5.89 3.024,5.89 3.075,5.87 3.726,5.687 4.274,5.524 
		4.406,5.473 4.417,5.473 4.437,5.473 4.457,5.483 4.467,5.483 4.487,5.504 4.477,5.534 4.477,5.544 4.467,5.565 4.457,5.575 
		4.457,5.585 4.457,5.595 4.447,5.615 4.467,5.626 4.477,5.636 4.487,5.636 4.518,5.626 4.558,5.605 4.6,5.605 4.62,5.595 
		4.64,5.565 4.64,5.554 4.65,5.534 4.67,5.524 4.701,5.534 4.721,5.524 4.731,5.504 4.772,5.473 4.772,5.463 4.772,5.443 
		4.782,5.433 4.792,5.412 4.812,5.412 4.833,5.422 4.863,5.422 4.914,5.392 4.935,5.392 4.955,5.392 4.965,5.392 4.975,5.392 
		4.995,5.382 5.025,5.341 5.025,5.331 5.037,5.331 5.037,5.321 5.037,5.311 5.025,5.28 5.016,5.27 5.016,5.26 5.025,5.25 
		5.037,5.24 5.046,5.229 5.046,5.219 5.046,5.209 5.057,5.189 5.067,5.179 5.087,5.179 5.097,5.179 5.107,5.179 5.118,5.199 
		5.127,5.219 5.138,5.229 5.158,5.24 5.199,5.24 5.229,5.229 5.26,5.209 5.27,5.199 5.27,5.189 5.29,5.168 5.311,5.158 5.331,5.158 
		5.341,5.158 5.351,5.168 5.362,5.168 5.371,5.179 5.392,5.179 5.412,5.179 5.422,5.168 5.432,5.148 5.463,5.118 5.483,5.107 
		5.503,5.097 5.513,5.087 5.534,5.087 5.575,5.087 5.605,5.097 5.636,5.087 5.666,5.057 5.676,5.057 5.706,5.057 5.717,5.067 
		5.727,5.067 5.768,5.046 5.778,5.046 5.778,5.036 5.788,5.026 5.798,5.026 5.808,5.006 5.818,4.996 5.838,4.996 5.849,4.996 
		5.869,4.996 5.88,4.986 5.88,4.965 5.88,4.955 5.89,4.945 5.9,4.935 5.92,4.925 5.94,4.925 5.971,4.925 5.992,4.935 5.992,4.945 
		6.001,4.955 6.011,4.965 6.031,4.965 6.042,4.965 6.052,4.955 6.062,4.955 6.083,4.945 6.103,4.925 6.113,4.914 6.123,4.904 
		6.185,4.904 6.225,4.904 6.245,4.904 6.275,4.864 6.296,4.843 6.317,4.833 6.367,4.823 6.398,4.823 6.418,4.823 6.468,4.803 
		6.5,4.803 6.51,4.823 6.52,4.833 6.52,4.843 6.52,4.854 6.51,4.874 6.52,4.894 6.54,4.904 6.561,4.894 6.591,4.894 6.601,4.894 
		6.621,4.884 6.631,4.874 6.631,4.854 6.651,4.803 6.672,4.762 6.692,4.691 6.723,4.65 6.733,4.64 6.773,4.62 6.824,4.609 
		6.875,4.539 6.885,4.539 6.896,4.528 6.896,4.518 6.905,4.518 6.905,4.528 6.916,4.528 6.946,4.559 6.946,4.579 6.966,4.62 
		6.977,4.66 6.977,4.67 6.977,4.681 6.966,4.691 6.966,4.711 6.966,4.721 6.977,4.742 6.986,4.762 7.018,4.772 7.028,4.782 
		7.038,4.782 7.058,4.772 7.068,4.762 7.068,4.751 7.079,4.751 7.079,4.731 7.079,4.721 7.088,4.711 7.129,4.701 7.14,4.701 
		7.16,4.701 7.19,4.691 7.21,4.711 7.221,4.721 7.221,4.731 7.23,4.731 7.261,4.711 7.281,4.731 7.281,4.742 7.302,4.762 
		7.322,4.762 7.353,4.742 7.363,4.742 7.363,4.731 7.373,4.721 7.373,4.711 7.383,4.711 7.423,4.701 7.505,4.681 7.516,4.681 
		7.546,4.66 7.576,4.65 7.627,4.65 7.739,4.66 7.769,4.66 7.86,4.67 7.901,4.681 7.932,4.681 7.962,4.681 7.993,4.681 8.043,4.691 
		8.125,4.691 8.186,4.701 8.236,4.701 8.298,4.701 8.48,4.711 8.684,4.721 8.724,4.731 8.785,4.731 9.05,4.742 9.101,4.742 
		9.293,4.751 9.303,4.751 9.334,4.751 9.436,4.762 9.507,4.762 9.538,4.762 9.812,4.782 9.853,4.782 10.126,4.792 10.228,4.803 
		10.279,4.803 10.319,4.803 10.583,4.823 10.746,4.823 10.767,4.833 10.788,4.833 10.818,4.833 10.95,4.833 10.98,4.833 
		11.062,4.843 11.092,4.843 11.113,4.843 11.194,4.843 11.234,4.854 11.336,4.854 11.366,4.854 11.549,4.874 11.691,4.874 
		11.752,4.884 11.782,4.884 11.956,4.894 12.006,4.894 12.068,4.894 12.169,4.904 12.179,4.904 12.23,4.904 12.362,4.914 
		12.504,4.925 12.504,4.914 12.656,4.925 12.677,4.925 12.707,4.935 12.758,4.935 12.779,4.935 12.809,4.935 12.819,4.935 
		12.83,4.935 12.85,4.935 13.297,4.965 13.541,4.975 13.591,4.975 13.622,4.975 13.672,4.975 13.774,4.986 13.906,4.996 
		13.927,4.996 14.079,4.996 14.089,5.006 14.272,5.016 14.466,5.026 14.526,5.026 14.729,5.036 14.78,5.036 14.81,5.046 
		14.882,5.046 14.892,5.046 14.902,5.046 15.004,5.057 15.105,5.067 15.237,5.077 15.319,5.077 15.319,5.087 15.309,5.097 
		15.298,5.118 15.289,5.128 15.268,5.199 15.268,5.209 15.268,5.219 15.278,5.219 15.349,5.26 15.359,5.291 15.379,5.351 
		15.39,5.382 15.379,5.392 15.379,5.402 15.37,5.422 15.359,5.433 15.359,5.443 15.339,5.443 15.328,5.443 15.309,5.453 
		15.298,5.453 15.289,5.463 15.278,5.463 15.258,5.483 15.258,5.504 15.237,5.554 15.227,5.565 15.227,5.636 15.227,5.656 
		15.227,5.667 15.227,5.748 15.237,5.758 15.278,5.798 15.328,5.88 15.654,5.656 15.685,5.626 15.725,5.605 15.847,5.514 
		15.888,5.494 15.897,5.483 15.908,5.473 15.918,5.463 16,5.402 16.02,5.433 16.091,5.524 16.172,5.636 16.223,5.707 16.304,5.809 
		16.396,5.94 16.446,6.001 16.518,6.103 16.589,6.205 16.7,6.378 16.803,6.5 16.914,6.652 16.954,6.703 16.954,6.713 16.944,6.825 
		16.924,6.957 16.873,7.455 16.873,7.475 16.873,7.485 16.863,7.516 16.863,7.557 16.854,7.587 16.985,7.587 17.016,7.587 
		17.3,7.587 17.341,7.597 17.351,7.597 17.503,7.597 17.514,7.597 17.574,7.597 17.584,7.597 17.646,7.597 17.696,7.597 
		17.809,7.597 17.818,7.597 17.931,7.597 17.961,7.597 18.153,7.597 18.336,7.597 18.561,7.597 18.723,7.597 18.773,7.607 
		18.804,7.607 18.813,7.607 18.916,7.607 18.936,7.607 19.027,7.607 19.048,7.607 19.068,7.607 19.129,7.607 19.189,7.607 
		19.23,7.607 19.241,7.607 19.353,7.618 19.667,7.618 19.729,7.618 19.85,7.618 19.952,7.618 20.023,7.618 20.084,7.618 
		20.114,7.618 20.389,7.627 20.419,7.627 20.663,7.627 20.674,7.627 20.826,7.627 20.856,7.627 20.928,7.638 20.968,7.638 
		21.039,7.638 21.09,7.638 21.242,7.638 21.374,7.638 21.405,7.638 21.415,7.638 21.588,7.648 21.639,7.648 21.689,7.648 
		21.781,7.648 21.812,7.648 21.852,7.648 21.902,7.648 21.954,7.648 22.055,7.648 22.319,7.658 22.543,7.658 22.554,7.658 
		22.675,7.658 23.284,7.648 23.346,7.648 23.457,7.648 23.468,7.648 23.59,7.648 23.671,7.648 23.803,7.648 23.812,7.648 
		23.823,7.648 23.895,7.648 23.935,7.688 24.006,7.76 24.098,7.841 24.159,7.902 24.179,7.922 24.24,7.983 24.312,8.054 
		24.393,8.136 24.615,8.349 24.667,8.39 24.809,8.522 24.88,8.603 24.89,8.603 24.981,8.695 25.073,8.786 25.145,8.847 
		25.195,8.908 25.215,8.918 25.256,8.959 25.266,8.969 25.327,9.03 25.53,9.223 25.865,9.548 25.917,9.599 26.089,9.772 
		26.13,9.812 26.14,9.823 26.181,9.863 26.241,9.924 26.252,9.935 26.303,9.996 26.373,10.067 26.444,10.138 26.536,10.239 
		26.607,10.311 26.647,10.341 26.668,10.372 26.698,10.402 26.811,10.503 26.831,10.524 26.922,10.615 26.933,10.636 26.983,10.676 
		26.993,10.687 27.237,10.931 27.298,10.981 27.512,11.195 27.756,11.438 27.938,11.611 27.969,11.642 28.172,11.835 28.243,11.906 
		28.283,11.947 28.294,11.957 28.386,12.048 28.426,12.079 28.446,12.109 28.467,12.129 28.518,12.17 28.538,12.201 28.66,12.312 
		28.761,12.414 28.791,12.445 28.913,12.556 28.975,12.617 29.016,12.658 29.025,12.668 29.035,12.678 29.147,12.79 29.33,12.963 
		29.432,13.064 29.523,13.146 29.544,13.176 29.594,13.217 29.706,13.329 29.889,13.512 29.93,13.542 30.071,13.685 30.082,13.695 
		30.082,13.705 30.133,13.746 30.396,14 30.458,14.06 30.469,14.071 30.479,14.081 30.61,14.203 30.661,14.253 30.702,14.294 
		30.844,14.437 30.854,14.446 30.885,14.477 30.926,14.518 30.966,14.559 30.977,14.568 31.067,14.66 31.18,14.772 31.108,14.792 
		31.099,14.802 30.905,14.833 30.885,14.843 30.813,14.863 30.793,14.874 30.651,14.924 30.57,14.965 30.539,14.975 30.356,15.046 
		30.347,15.056 30.315,15.066 30.225,15.117 30.184,15.138 30.103,15.178 30.093,15.178 30.093,15.188 30.082,15.199 30.071,15.199 
		30.041,15.219 29.96,15.27 29.949,15.28 29.919,15.3 29.889,15.321 29.736,15.422 29.727,15.432 29.706,15.442 29.655,15.483 
		29.594,15.534 29.585,15.544 29.513,15.595 29.493,15.615 29.473,15.625 29.473,15.635 29.422,15.686 29.279,15.809 29.219,15.87 
		29.178,15.91 29.168,15.92 29.147,15.94 29.138,15.951 29.127,15.971 29.056,16.042 28.985,16.113 28.894,16.215 28.883,16.225 
		28.873,16.246 28.833,16.286 28.721,16.408 28.7,16.428 28.69,16.438 28.568,16.591 28.558,16.611 28.497,16.703 28.477,16.723 
		28.426,16.794 28.305,16.957 28.264,16.998 28.142,17.252 28.101,17.291 28.061,17.322 28.061,17.333 27.908,17.506 27.877,17.535 
		27.796,17.627 27.786,17.638 27.766,17.678 27.735,17.729 27.684,17.811 27.634,17.912 27.471,18.246 27.461,18.288 27.461,18.298 
		27.399,18.451 27.38,18.653 27.339,18.797 27.328,18.807 27.318,18.836 27.277,19.02 27.217,19.365 27.206,19.396 27.206,19.518 
		27.247,19.659 27.268,19.752 27.228,19.854 27.187,19.954 27.176,20.005 27.125,20.065 27.115,20.065 27.003,20.147 26.993,20.147 
		26.963,20.178 26.912,20.229 26.851,20.29 26.811,20.382 26.8,20.382 26.668,20.442 26.628,20.453 26.525,20.503 26.516,20.503 
		26.506,20.503 26.425,20.564 26.354,20.604 26.343,20.616 26.272,20.655 26.231,20.788 26.241,20.849 26.221,20.96 26.14,21.164 
		26.089,21.297 26.038,21.297 25.855,21.315 25.814,21.315 25.733,21.297 25.723,21.297 25.683,21.234 25.662,21.245 25.601,21.255 
		25.448,21.297 25.307,21.346 25.297,21.346 25.266,21.234 25.145,21.113 25.053,21.093 25.012,21.113 24.829,21.204 24.677,21.315 
		24.677,21.327 24.646,21.428 24.555,21.52 24.515,21.58 24.442,21.723 24.442,21.784 24.483,21.865 24.524,21.927 24.656,21.927 
		24.677,21.885 24.728,21.865 24.737,21.865 24.737,21.875 24.758,21.927 24.737,22.018 24.718,22.078 24.646,22.109 24.372,22.21 
		24.372,22.222 24.361,22.222 24.312,22.262 24.24,22.322 24.22,22.333 24.209,22.343 24.148,22.384 24.047,22.444 23.965,22.505 
		23.955,22.515 23.955,22.535 23.945,22.547 23.935,22.587 23.915,22.628 23.803,22.698 23.812,22.739 23.823,22.77 23.823,22.79 
		23.762,22.851 23.579,22.933 23.356,23.023 23.224,23.074 23.213,23.084 23.213,23.095 23.173,23.155 23.152,23.177 23.102,23.197 
		23.071,23.216 23.041,23.237 22.99,23.247 22.979,23.247 22.868,23.228 22.827,23.268 22.827,23.298 22.827,23.318 22.827,23.328 
		22.838,23.349 22.857,23.399 22.857,23.409 22.848,23.45 22.848,23.46 22.838,23.48 22.807,23.542 22.767,23.634 22.736,23.704 
		22.736,23.715 22.746,23.755 22.757,23.785 22.736,23.806 22.705,23.827 22.562,23.938 22.421,24.02 22.218,24.132 22.177,24.132 
		22.106,24.233 22.096,24.264 22.096,24.273 22.076,24.314 22.024,24.345 21.954,24.375 21.781,24.365 21.526,24.415 21.242,24.518 
		21.08,24.608 21.069,24.608 20.947,24.752 20.947,24.761 20.917,24.853 20.815,24.803 20.774,24.791 20.704,24.782 20.439,24.975 
		20.419,24.984 20.236,25.086 20.216,25.107 20.145,25.168 20.125,25.188 19.891,25.381 19.85,25.381 19.819,25.29 19.81,25.279 
		19.738,25.259 19.688,25.249 19.576,25.32 19.535,25.381 19.505,25.402 19.372,25.442 19.353,25.433 19.342,25.402 19.332,25.29 
		19.322,25.27 19.302,25.229 19.2,25.188 19.119,25.239 19.027,25.259 18.986,25.239 18.956,25.33 18.936,25.391 18.936,25.412 
		18.905,25.514 18.936,25.615 18.936,25.625 19.017,25.788 19.159,25.798 19.18,25.818 19.23,25.89 19.241,25.899 19.261,25.96 
		19.271,26.062 19.241,26.164 19.169,26.357 19.099,26.459 19.099,26.499 19.108,26.54 19.038,26.59 19.027,26.601 18.854,26.683 
		18.824,26.692 18.813,26.703 18.804,26.703 18.753,26.733 18.702,26.753 18.561,26.845 18.52,26.875 18.428,26.915 18.356,26.947 
		18.286,26.947 18.225,26.947 18.194,26.947 18.052,27.048 17.92,27.078 17.798,27.129 17.798,27.14 17.736,27.333 17.727,27.384 
		17.687,27.414 17.666,27.444 17.595,27.495 17.595,27.505 17.584,27.525 17.554,27.565 17.523,27.616 17.412,27.779 17.392,27.81 
		17.331,27.86 17.219,27.953 17.209,27.963 17.076,28.034 16.944,28.095 16.843,28.165 16.803,28.197 16.741,28.206 16.7,28.165 
		16.681,28.176 16.659,28.176 16.599,28.197 16.497,28.276 16.376,28.42 16.203,28.634 16.284,28.694 16.325,28.765 16.284,28.765 
		16.162,28.755 16.122,28.745 16.091,28.734 16.06,28.715 16.02,28.664 15.959,28.593 15.888,28.511 15.847,28.49 15.796,28.471 
		15.725,28.439 15.695,28.43 15.664,28.39 15.644,28.339 15.623,28.309 15.593,28.276 15.572,28.268 15.552,28.268 15.542,28.258 
		15.512,28.268 15.481,28.288 15.46,28.328 15.451,28.339 15.379,28.379 15.339,28.39 15.319,28.39 15.278,28.379 15.268,28.379 
		15.258,28.379 15.207,28.369 15.197,28.369 15.197,28.358 15.177,28.349 15.156,28.339 15.044,28.268 15.024,28.246 15.014,28.237 
		15.004,28.216 14.994,28.186 14.984,28.186 14.942,28.186 14.872,28.176 14.852,28.165 14.831,28.135 14.81,28.034 14.81,28.014 
		14.81,28.003 14.81,27.993 14.821,27.953 14.821,27.933 14.81,27.86 14.81,27.851 14.8,27.8 14.79,27.79 14.76,27.779 14.75,27.77 
		14.75,27.759 14.76,27.739 14.78,27.719 14.8,27.698 14.821,27.698 14.821,27.678 14.81,27.668 14.81,27.647 14.821,27.616 
		14.821,27.586 14.81,27.565 14.81,27.546 14.79,27.495 14.76,27.444 14.709,27.414 14.709,27.403 14.659,27.343 14.647,27.312 
		14.638,27.303 14.627,27.282 14.607,27.24 14.597,27.221 14.587,27.21 14.587,27.2 14.577,27.189 14.577,27.17 14.577,27.159 
		14.587,27.159 14.627,27.089 14.647,27.026 14.689,26.978 14.709,26.957 14.74,26.947 14.76,26.926 14.8,26.865 14.81,26.845 
		14.81,26.834 14.81,26.824 14.8,26.713 14.79,26.692 14.79,26.683 14.78,26.683 14.75,26.622 14.709,26.56 14.699,26.529 
		14.699,26.52 14.729,26.489 14.729,26.448 14.729,26.438 14.719,26.428 14.679,26.378 14.668,26.367 14.668,26.357 14.659,26.357 
		14.638,26.378 14.627,26.388 14.627,26.397 14.617,26.397 14.607,26.397 14.597,26.397 14.587,26.397 14.587,26.388 14.587,26.378 
		14.587,26.367 14.567,26.346 14.547,26.327 14.486,26.285 14.486,26.275 14.486,26.265 14.496,26.255 14.496,26.245 14.496,26.234 
		14.496,26.225 14.466,26.194 14.445,26.164 14.424,26.144 14.424,26.134 14.435,26.103 14.445,26.053 14.424,26.011 14.364,25.93 
		14.333,25.899 14.312,25.869 14.262,25.809 14.242,25.716 14.252,25.707 14.272,25.697 14.282,25.686 14.292,25.676 14.292,25.665 
		14.292,25.655 14.282,25.646 14.282,25.635 14.282,25.625 14.282,25.615 14.282,25.604 14.292,25.595 14.312,25.595 14.343,25.564 
		14.384,25.514 14.384,25.503 14.374,25.493 14.364,25.493 14.343,25.493 14.333,25.493 14.303,25.473 14.222,25.391 14.12,25.27 
		14.079,25.239 14.048,25.178 14.048,25.158 14.048,25.147 14.059,25.138 14.079,25.138 14.079,25.117 14.079,25.107 14.059,25.096 
		14.008,25.086 13.987,25.086 13.978,25.096 13.967,25.086 13.957,25.086 13.896,25.035 13.866,25.005 13.825,24.975 13.805,24.965 
		13.805,24.954 13.805,24.934 13.815,24.914 13.815,24.894 13.815,24.884 13.794,24.812 13.774,24.791 13.734,24.771 13.724,24.771 
		13.704,24.761 13.683,24.752 13.672,24.752 13.662,24.752 13.652,24.752 13.642,24.752 13.602,24.761 13.53,24.771 13.52,24.771 
		13.469,24.761 13.348,24.7 13.287,24.67 13.225,24.64 13.216,24.589 13.216,24.538 13.206,24.528 13.195,24.528 13.186,24.528 
		13.165,24.548 13.144,24.548 13.134,24.538 13.083,24.496 13.053,24.447 13.032,24.415 12.981,24.375 12.941,24.324 12.9,24.253 
		12.9,24.243 12.891,24.243 12.891,24.233 12.9,24.203 12.911,24.192 12.911,24.183 12.921,24.183 12.93,24.183 12.941,24.213 
		12.951,24.223 12.972,24.223 13.002,24.192 13.002,24.183 12.992,24.171 12.981,24.141 12.992,24.132 13.053,24.09 13.062,24.07 
		13.053,24.06 13.023,24.04 13.002,24.029 12.981,24.029 12.972,23.999 12.972,23.989 12.992,23.948 13.012,23.878 13.012,23.857 
		12.981,23.797 12.961,23.745 12.961,23.734 12.951,23.734 12.951,23.745 12.941,23.745 12.941,23.755 12.93,23.755 12.911,23.745 
		12.85,23.694 12.839,23.684 12.88,23.613 12.891,23.553 12.9,23.45 12.941,23.409 12.941,23.399 12.951,23.39 12.951,23.369 
		12.951,23.359 12.951,23.349 12.941,23.339 12.93,23.339 12.93,23.328 12.921,23.328 12.911,23.318 12.911,23.309 12.911,23.298 
		12.911,23.288 12.921,23.268 12.911,23.247 12.911,23.228 12.891,23.207 12.88,23.197 12.86,23.186 12.85,23.186 12.85,23.177 
		12.85,23.165 12.85,23.155 12.86,23.155 12.86,23.146 12.87,23.146 12.88,23.135 12.88,23.125 12.88,23.115 12.88,23.104 
		12.88,23.095 12.86,23.095 12.85,23.084 12.839,23.074 12.839,23.064 12.83,23.054 12.839,23.034 12.86,23.014 12.86,22.983 
		12.86,22.933 12.87,22.86 12.891,22.84 12.9,22.82 12.9,22.8 12.891,22.709 12.88,22.678 12.85,22.628 12.749,22.557 
		12.737,22.557 12.707,22.565 12.697,22.577 12.687,22.577 12.677,22.565 12.667,22.525 12.677,22.484 12.697,22.424 12.687,22.394 
		12.687,22.384 12.677,22.384 12.677,22.373 12.636,22.373 12.586,22.353 12.575,22.363 12.535,22.353 12.514,22.322 12.524,22.272 
		12.565,22.252 12.606,22.21 12.616,22.2 12.596,22.18 12.586,22.17 12.514,22.14 12.514,22.078 12.494,22.018 12.412,21.936 
		12.382,21.936 12.372,21.915 12.372,21.905 12.362,21.885 12.382,21.845 12.382,21.834 12.362,21.814 12.342,21.794 12.332,21.773 
		12.332,21.753 12.332,21.743 12.332,21.733 12.332,21.723 12.342,21.713 12.342,21.703 12.352,21.703 12.362,21.703 12.372,21.703 
		12.382,21.692 12.392,21.683 12.423,21.58 12.443,21.459 12.443,21.448 12.443,21.438 12.443,21.357 12.433,21.346 12.372,21.307 
		12.312,21.204 12.301,21.204 12.261,21.194 12.138,21.123 12.128,21.113 12.118,21.072 12.107,21.062 12.088,21.062 12.068,21.072 
		12.057,21.083 12.047,21.083 12.026,21.072 12.017,21.062 12.006,21.053 12.006,21.042 12.006,21.021 12.006,21.012 12.006,21.002 
		11.996,21.002 11.996,20.99 11.986,20.99 11.976,21.002 11.956,21.012 11.945,21.012 11.925,21.002 11.884,20.972 11.874,20.941 
		11.854,20.909 11.824,20.879 11.803,20.879 11.793,20.89 11.782,20.89 11.752,20.869 11.752,20.859 11.743,20.849 11.752,20.839 
		11.752,20.828 11.762,20.818 11.762,20.798 11.752,20.778 11.743,20.768 11.722,20.778 11.701,20.798 11.691,20.798 11.681,20.788 
		11.681,20.768 11.691,20.758 11.691,20.737 11.681,20.707 11.671,20.697 11.661,20.697 11.651,20.697 11.631,20.686 11.569,20.697 
		11.539,20.697 11.529,20.707 11.508,20.707 11.488,20.707 11.478,20.707 11.468,20.707 11.457,20.697 11.448,20.697 11.448,20.686 
		11.407,20.655 11.387,20.635 11.376,20.635 11.376,20.625 11.356,20.616 11.213,20.554 11.133,20.523 11.113,20.523 11.092,20.534 
		11.082,20.523 11,20.473 10.99,20.463 10.98,20.453 10.959,20.422 10.95,20.422 10.827,20.33 10.788,20.29 10.756,20.259 
		10.706,20.198 10.706,20.188 10.706,20.147 10.686,20.107 10.655,20.035 10.655,20.026 10.686,19.984 10.695,19.984 10.716,19.975 
		10.726,19.975 10.746,19.903 10.746,19.884 10.726,19.873 10.716,19.863 10.706,19.863 10.686,19.791 10.686,19.771 10.675,19.762 
		10.675,19.752 10.655,19.74 10.645,19.73 10.614,19.721 10.604,19.73 10.594,19.74 10.604,19.752 10.625,19.771 10.625,19.803 
		10.614,19.812 10.574,19.822 10.543,19.822 10.441,19.803 10.432,19.791 10.421,19.781 10.421,19.74 10.411,19.711 10.401,19.701 
		10.351,19.68 10.299,19.67 10.279,19.629 10.238,19.599 10.218,19.589 10.177,19.568 10.146,19.528 10.137,19.496 10.177,19.396 
		10.177,19.375 10.208,19.375 10.228,19.375 10.238,19.355 10.238,19.334 10.218,19.314 10.208,19.294 10.198,19.285 10.146,19.253 
		10.086,19.233 10.086,19.223 10.086,19.213 10.076,19.213 10.076,19.203 10.086,19.141 10.116,19.131 10.146,19.131 10.167,19.131 
		10.188,19.102 10.188,19.09 10.177,19.07 10.157,19.061 10.137,19.051 10.056,19.02 10.045,19.02 10.035,19.02 9.995,19.07 
		9.944,19.041 9.934,18.99 9.903,18.979 9.863,18.959 9.863,18.948 9.863,18.938 9.863,18.908 9.853,18.896 9.842,18.888 
		9.833,18.888 9.821,18.896 9.821,18.918 9.801,18.938 9.791,18.938 9.781,18.938 9.781,18.928 9.771,18.908 9.761,18.896 
		9.73,18.867 9.72,18.857 9.73,18.807 9.7,18.785 9.69,18.775 9.659,18.785 9.639,18.785 9.608,18.785 9.598,18.775 9.588,18.775 
		9.588,18.756 9.608,18.746 9.619,18.725 9.628,18.695 9.588,18.664 9.558,18.634 9.547,18.602 9.547,18.583 9.558,18.583 
		9.568,18.572 9.598,18.572 9.628,18.593 9.649,18.602 9.679,18.583 9.679,18.572 9.69,18.562 9.69,18.553 9.67,18.541 
		9.649,18.512 9.628,18.379 9.608,18.349 9.619,18.328 9.628,18.318 9.659,18.309 9.7,18.298 9.72,18.278 9.73,18.258 9.73,18.237 
		9.72,18.228 9.69,18.217 9.679,18.186 9.679,18.156 9.69,18.135 9.72,18.125 9.74,18.115 9.751,18.105 9.751,18.096 9.761,18.084 
		9.761,18.074 9.771,18.074 9.771,18.054 9.771,18.044 9.761,18.044 9.761,18.023 9.751,18.014 9.72,17.963 9.72,17.953 9.7,17.902 
		9.69,17.902 9.69,17.881 9.67,17.861 9.639,17.84 9.588,17.83 9.558,17.811 9.507,17.779 9.476,17.77 9.446,17.759 9.426,17.74 
		9.384,17.729 9.345,17.719 9.334,17.709 9.303,17.698 9.283,17.668 9.273,17.638 9.283,17.607 9.283,17.586 9.273,17.566 
		9.253,17.516 9.212,17.445 9.191,17.424 9.182,17.424 9.171,17.424 9.171,17.414 9.161,17.363 9.151,17.354 9.141,17.354 
		9.101,17.322 9.07,17.303 9.07,17.282 9.039,17.252 9.009,17.24 8.999,17.221 8.989,17.18 8.928,17.109 8.917,17.099 8.877,17.099 
		8.866,17.089 8.856,17.078 8.785,17.018 8.765,16.998 8.745,16.998 8.673,16.978 8.623,16.957 8.613,16.946 8.603,16.936 
		8.552,16.865 8.531,16.855 8.491,16.855 8.48,16.855 8.46,16.865 8.429,16.896 8.42,16.896 8.409,16.896 8.409,16.906 
		8.399,16.906 8.39,16.896 8.378,16.896 8.369,16.896 8.318,16.865 8.278,16.835 8.267,16.815 8.257,16.773 8.236,16.764 
		8.216,16.753 8.196,16.743 8.186,16.743 8.115,16.723 8.095,16.703 8.084,16.703 8.043,16.662 7.983,16.591 7.983,16.581 
		7.953,16.469 7.962,16.388 7.962,16.357 7.962,16.347 7.953,16.327 7.911,16.286 7.901,16.276 7.881,16.235 7.851,16.174 
		7.84,16.165 7.82,16.144 7.81,16.123 7.78,16.093 7.769,16.083 7.749,16.053 7.729,16.002 7.739,15.951 7.718,15.839 7.718,15.818 
		7.708,15.788 7.678,15.707 7.667,15.656 7.617,15.605 7.597,15.595 7.566,15.585 7.556,15.575 7.556,15.554 7.546,15.544 
		7.536,15.544 7.525,15.544 7.474,15.503 7.455,15.473 7.423,15.442 7.403,15.432 7.383,15.432 7.373,15.432 7.342,15.422 
		7.342,15.402 7.342,15.392 7.342,15.331 7.342,15.321 7.342,15.31 7.342,15.3 7.342,15.29 7.333,15.29 7.322,15.28 7.322,15.27 
		7.281,15.25 7.251,15.219 7.241,15.208 7.241,15.199 7.23,15.199 7.221,15.178 7.18,15.138 7.16,15.127 7.149,15.117 7.119,15.097 
		7.099,15.086 7.088,15.066 7.048,15.026 7.018,15.016 6.986,14.995 6.977,14.995 6.905,14.965 6.885,14.955 6.875,14.944 
		6.835,14.894 6.804,14.874 6.773,14.853 6.733,14.833 6.703,14.802 6.682,14.782 6.661,14.782 6.621,14.782 6.601,14.792 
		6.591,14.792 6.57,14.802 6.54,14.792 6.53,14.782 6.51,14.772 6.468,14.721 6.458,14.711 6.408,14.69 6.367,14.66 6.337,14.62 
		6.266,14.568 6.205,14.507 6.194,14.498 6.123,14.446 6.103,14.416 6.083,14.375 6.062,14.314 6.031,14.274 6.001,14.233 
		5.93,14.182 5.92,14.182 5.9,14.182 5.88,14.182 5.869,14.182 5.859,14.182 5.829,14.192 5.808,14.203 5.737,14.182 5.727,14.162 
		5.676,14.081 5.666,14.06 5.666,14.02 5.656,13.989 5.646,13.969 5.615,13.949 5.595,13.918 5.585,13.897 5.575,13.877 
		5.575,13.857 5.585,13.847 5.595,13.837 5.605,13.827 5.615,13.816 5.615,13.806 5.605,13.796 5.595,13.796 5.564,13.786 
		5.543,13.766 5.523,13.746 5.513,13.685 5.513,13.674 5.503,13.664 5.493,13.654 5.493,13.644 5.483,13.624 5.483,13.603 
		5.503,13.552 5.493,13.532 5.483,13.512 5.443,13.481 5.402,13.44 5.382,13.39 5.341,13.349 5.331,13.329 5.331,13.309 
		5.32,13.298 5.29,13.257 5.28,13.248 5.27,13.248 5.26,13.248 5.25,13.248 5.239,13.248 5.208,13.227 5.188,13.197 5.178,13.176 
		5.178,13.166 5.178,13.136 5.199,13.125 5.208,13.085 5.219,13.075 5.208,13.075 5.208,13.064 5.208,13.054 5.208,13.044 
		5.168,12.993 5.138,12.983 5.127,12.973 5.097,12.953 5.087,12.922 5.076,12.922 5.067,12.892 5.046,12.882 5.046,12.871 
		5.046,12.861 5.046,12.821 4.995,12.75 4.985,12.739 4.924,12.719 4.904,12.688 4.894,12.678 4.874,12.678 4.843,12.678 
		4.812,12.668 4.742,12.607 4.731,12.587 4.701,12.485 4.701,12.475 4.69,12.455 4.681,12.445 4.65,12.394 4.65,12.374 4.64,12.363 
		4.65,12.262 4.64,12.251 4.588,12.15 4.588,12.14 4.588,12.129 4.579,12.109 4.6,12.068 4.6,12.059 4.568,12.018 4.579,12.007 
		4.588,11.977 4.579,11.916 4.568,11.886 4.568,11.865 4.579,11.814 4.568,11.784 4.558,11.753 4.548,11.723 4.558,11.703 
		4.548,11.672 4.507,11.632 4.467,11.591 4.467,11.581 4.447,11.591 4.417,11.561 4.396,11.53 4.386,11.52 4.355,11.469 
		4.345,11.428 4.314,11.367 4.294,11.266 4.294,11.255 4.284,11.235 4.294,11.215 4.294,11.205 4.284,11.205 4.274,11.144 
		4.274,11.134 4.264,11.134 4.244,11.134 4.172,11.062 4.142,11.032 4.091,10.992 4.03,10.951 4.02,10.94 4.02,10.91 4.02,10.879 
		4.02,10.87 4.01,10.818 4.01,10.809 3.989,10.778 3.979,10.758 3.979,10.748 3.979,10.737 3.979,10.727 3.979,10.697 3.979,10.687 
		3.979,10.676 3.949,10.605 3.949,10.585 3.949,10.524 3.939,10.503 3.939,10.493 3.928,10.473 3.908,10.432 3.898,10.341 
		3.888,10.331 3.868,10.3 3.868,10.29 3.868,10.26 3.868,10.239 3.857,10.229 3.837,10.219 3.776,10.188 3.776,10.178 3.776,10.158 
		3.787,10.148 3.787,10.127 3.776,10.107 3.766,10.107 3.735,10.077 3.613,10.016 3.573,10.026 3.482,10.046 3.461,10.046 
		3.451,10.026 3.37,10.016 3.329,10.067 3.278,10.077 3.248,10.046 3.217,10.036 3.126,10.036 	"/>
</g>
</svg>
