<?xml version="1.0" encoding="utf-8"?>
<!-- Generator: Adobe Illustrator 16.0.0, SVG Export Plug-In . SVG Version: 6.00 Build 0)  -->
<!DOCTYPE svg PUBLIC "-//W3C//DTD SVG 1.1//EN" "http://www.w3.org/Graphics/SVG/1.1/DTD/svg11.dtd">
<svg version="1.1" id="Layer_1" xmlns="http://www.w3.org/2000/svg" xmlns:xlink="http://www.w3.org/1999/xlink" x="0px" y="0px"
	 width="32px" height="32px" viewBox="0 0 32 32" enable-background="new 0 0 32 32" xml:space="preserve">
<g>
	<g>
		<path fill="#FFFFFF" d="M14.765,0c0.834,0,1.668,0,2.502,0c0.284,0.217,0.979,1.019,0.998,1.189
			c0.099,0.833,0.188,1.668,0.266,2.373c0.749,1.163,1.956,1.331,2.985,1.783c0.42,0.185,0.938,0.145,1.335,0.197
			c0.407-0.305,0.714-0.559,1.044-0.777c0.421-0.281,0.874-0.516,1.29-0.804c0.419-0.291,0.752-0.2,1.209-0.01
			c0.54,0.224,0.832,0.652,1.201,1.014c0.873,0.854,0.901,1.417,0.21,2.39c-0.434,0.61-0.871,1.217-1.214,1.695
			c-0.312,1.333,0.498,2.263,0.734,3.292c0.37,0.394,0.739,0.787,1.061,1.128c0.891,0.125,1.723,0.243,2.721,0.384
			c0.263,0.276,0.627,0.658,0.926,0.972c0,0.549-0.025,0.967,0.005,1.383c0.07,0.972-0.179,1.74-0.881,1.951
			c-1.165,0.174-1.993,0.297-2.801,0.418c-0.371,0.366-0.726,0.718-0.868,0.858c-0.233,0.499-0.355,0.739-0.459,0.985
			c-0.541,1.299-0.948,2.579,0.422,3.666c0.138,0.109,0.149,0.368,0.277,0.502c0.634,0.662,0.737,1.365,0.224,2.142
			c-0.113,0.029-0.261,0.023-0.331,0.095c-0.138,0.136-0.233,0.314-0.342,0.479c-0.742,1.113-1.523,1.27-2.595,0.506
			c-0.357-0.254-0.722-0.504-1.042-0.8c-0.602-0.555-1.35-0.665-2.026-0.414c-1.127,0.42-2.336,0.771-3.099,1.851
			c-0.108,0.82-0.219,1.654-0.329,2.488c-0.267,0.93-0.976,1.15-1.855,1.103c-0.494-0.026-0.99-0.005-1.558-0.005
			c-0.349-0.366-0.712-0.75-0.916-0.964c-0.159-1.068-0.281-1.897-0.414-2.787c-1.224-1.08-2.606-1.843-4.277-1.753
			c-0.941,0.646-1.812,1.242-2.619,1.797c-0.498-0.148-0.869-0.259-1.098-0.328c-0.62-0.618-1.147-1.145-1.681-1.678
			c0-0.381,0-0.793,0-1.073c0.64-0.856,1.21-1.622,1.765-2.365c-0.042-1.771-0.722-3.189-1.886-4.362
			c-0.356,0-0.652,0.033-0.938-0.009c-0.263-0.039-0.511-0.212-0.773-0.232C0.837,18.192,0.64,18.104,0,17.268
			c0-0.834,0-1.668,0-2.502c0.217-0.285,1.02-0.978,1.19-0.999c0.833-0.098,1.668-0.187,2.527-0.281
			c1.104-1.263,1.884-2.639,1.784-4.36c-0.265-0.353-0.519-0.66-0.737-0.989C4.483,7.714,4.248,7.263,3.96,6.845
			C3.671,6.427,3.758,6.094,3.953,5.636c0.228-0.535,0.651-0.833,1.013-1.202c0.855-0.87,1.417-0.897,2.392-0.205
			c0.61,0.433,1.22,0.868,1.613,1.147c1.185,0.424,1.92-0.236,2.738-0.479c0.715-0.212,1.372-0.643,1.704-1.17
			c0.138-0.702,0.293-1.241,0.342-1.79C13.852,0.837,13.929,0.64,14.765,0z M20.021,16.142c0.148-2.251-1.844-4.088-3.878-4.147
			c-2.253-0.068-4.071,1.864-4.152,3.896c-0.098,2.477,2.254,4.091,3.9,4.156C17.77,20.121,20.096,18.354,20.021,16.142z"/>
	</g>
</g>
</svg>
