<?xml version="1.0" encoding="utf-8"?>
<!-- Generator: Adobe Illustrator 16.0.0, SVG Export Plug-In . SVG Version: 6.00 Build 0)  -->
<!DOCTYPE svg PUBLIC "-//W3C//DTD SVG 1.1//EN" "http://www.w3.org/Graphics/SVG/1.1/DTD/svg11.dtd">
<svg version="1.1" id="Layer_1" xmlns="http://www.w3.org/2000/svg" xmlns:xlink="http://www.w3.org/1999/xlink" x="0px" y="0px"
	 width="32px" height="32px" viewBox="0 0 32 32" enable-background="new 0 0 32 32" xml:space="preserve">
<g>
	<g>
		<path fill="#FFFFFF" d="M32,15.812c0,0.126,0,0.251,0,0.376c-0.021,0.034-0.053,0.066-0.062,0.106
			c-0.173,0.634-0.686,0.921-1.315,0.931c-0.374,0.004-0.747,0-1.079,0c-1.195,7.04-5.278,11.124-12.32,12.319
			c0,0.28,0.016,0.603-0.004,0.922c-0.016,0.254-0.039,0.52-0.114,0.762c-0.139,0.44-0.526,0.615-0.918,0.772
			c-0.125,0-0.249,0-0.375,0c-0.026-0.02-0.048-0.048-0.075-0.054c-0.688-0.171-0.954-0.726-0.96-1.323
			c-0.004-0.373-0.001-0.747-0.001-1.075c-7.039-1.202-11.125-5.28-12.32-12.323c-0.28,0-0.601,0.014-0.921-0.006
			c-0.256-0.015-0.52-0.038-0.763-0.114C0.332,16.967,0.156,16.579,0,16.188c0-0.125,0-0.25,0-0.376
			c0.021-0.034,0.052-0.068,0.062-0.106c0.172-0.635,0.685-0.922,1.316-0.929c0.374-0.004,0.746-0.001,1.074-0.001
			C3.654,7.736,7.733,3.65,14.775,2.455c0-0.28-0.014-0.601,0.004-0.922c0.015-0.256,0.039-0.52,0.116-0.762
			C15.032,0.332,15.419,0.155,15.812,0c0.126,0,0.25,0,0.375,0c0.025,0.018,0.048,0.045,0.077,0.052
			c0.688,0.173,0.951,0.728,0.959,1.325c0.003,0.373,0,0.746,0,1.074c7.04,1.202,11.126,5.281,12.32,12.324
			c0.279,0,0.601-0.014,0.921,0.004c0.257,0.015,0.52,0.039,0.764,0.115C31.668,15.031,31.844,15.419,32,15.812z M25.733,14.752
			c-0.388-4.395-4.345-8.161-8.488-8.479c-0.02,0.435-0.012,0.872-0.063,1.301c-0.086,0.718-0.843,1.177-1.53,0.96
			c-0.554-0.175-0.859-0.621-0.874-1.295c-0.009-0.329-0.002-0.657-0.002-0.989c-4.874,0.516-8.285,4.827-8.49,8.523
			c0.208,0,0.415-0.004,0.621,0.001c0.208,0.005,0.417,0.005,0.622,0.032c0.643,0.086,1.045,0.557,1.057,1.218
			c0.01,0.579-0.426,1.081-1.052,1.154c-0.418,0.052-0.844,0.046-1.267,0.065c0.387,4.396,4.344,8.16,8.488,8.479
			c0.019-0.434,0.012-0.871,0.063-1.301c0.087-0.719,0.842-1.179,1.53-0.963c0.555,0.175,0.858,0.622,0.874,1.295
			c0.008,0.33,0.001,0.658,0.001,0.991c4.874-0.517,8.285-4.828,8.491-8.557c-0.417,0-0.834,0.034-1.243-0.007
			c-0.645-0.062-1.045-0.552-1.059-1.212c-0.009-0.581,0.428-1.082,1.053-1.156C24.885,14.766,25.311,14.771,25.733,14.752z"/>
	</g>
</g>
</svg>
