<?xml version="1.0" encoding="utf-8"?>
<!-- Generator: Adobe Illustrator 16.0.0, SVG Export Plug-In . SVG Version: 6.00 Build 0)  -->
<!DOCTYPE svg PUBLIC "-//W3C//DTD SVG 1.1//EN" "http://www.w3.org/Graphics/SVG/1.1/DTD/svg11.dtd">
<svg version="1.1" id="ar" xmlns="http://www.w3.org/2000/svg" xmlns:xlink="http://www.w3.org/1999/xlink" x="0px" y="0px"
	 width="31.68px" height="41.76px" viewBox="0 0 31.68 41.76" enable-background="new 0 0 31.68 41.76" xml:space="preserve">
<g id="ar">
	<g>
		
			<polyline fill="none" stroke="#404041" stroke-width="0.1" stroke-linecap="round" stroke-linejoin="round" stroke-miterlimit="3.85" points="
			1.551,5.889 1.732,5.9 1.767,5.9 2.004,5.9 2.027,5.9 2.141,5.9 2.163,5.912 2.197,5.912 2.39,5.912 2.4,5.912 2.434,5.912 
			2.547,5.912 2.57,5.912 2.582,5.912 2.707,5.912 2.718,5.923 2.809,5.923 2.853,5.923 2.91,5.923 3.001,5.923 3.171,5.934 
			3.228,5.934 3.239,5.934 3.262,5.934 3.273,5.934 3.59,5.945 3.715,5.945 3.727,5.945 3.771,5.945 3.782,5.945 3.794,5.945 
			3.838,5.945 4.111,5.957 4.201,5.957 4.224,5.957 4.292,5.957 4.303,5.957 4.327,5.957 4.428,5.957 4.87,5.968 4.916,5.968 
			5.039,5.968 5.062,5.968 5.107,5.98 5.119,5.98 5.142,5.98 5.312,5.98 5.334,5.98 5.369,5.98 5.459,5.98 5.697,5.98 5.866,5.991 
			5.901,5.991 6.376,5.991 6.388,5.991 6.422,5.991 6.489,6.002 6.501,6.002 6.534,6.002 6.591,6.002 6.648,6.002 6.705,6.002 
			6.75,6.002 6.829,6.002 7.407,6.014 7.826,6.025 7.86,6.025 7.905,6.025 7.961,6.025 7.974,6.025 8.042,6.025 8.143,6.025 
			8.267,6.025 8.279,6.025 8.302,6.025 8.347,6.025 8.404,6.025 8.438,6.025 8.472,6.025 8.516,6.036 8.528,6.036 8.539,6.036 
			8.597,6.036 8.857,6.036 9.026,6.036 9.14,6.036 9.412,6.047 9.593,6.047 9.661,6.047 9.989,6.059 10.012,6.059 10.125,6.059 
			10.17,6.059 10.385,6.059 10.397,6.059 10.51,6.059 10.816,6.059 10.839,6.059 11.008,6.059 11.088,6.07 11.315,6.07 11.349,6.07 
			11.427,6.07 11.564,6.07 11.802,6.07 11.893,6.07 11.903,6.07 12.22,6.081 12.3,6.081 12.356,6.081 13.115,6.081 13.149,6.081 
			13.229,6.081 13.263,6.081 13.557,6.081 13.58,6.081 13.682,6.081 13.75,6.081 13.761,6.081 13.841,6.081 14.033,6.081 
			14.044,6.081 14.226,6.081 14.281,6.081 14.339,6.081 14.384,6.093 14.417,6.093 14.633,6.093 14.69,6.093 14.713,6.093 
			14.725,6.093 14.848,6.093 15.041,6.093 15.086,6.093 15.38,6.093 15.392,6.093 15.653,6.093 15.664,6.093 15.674,6.093 
			15.754,6.093 16.049,6.093 16.127,6.093 16.23,6.081 16.366,6.093 16.501,6.093 16.615,6.093 16.695,6.093 16.786,6.093 
			16.842,6.093 17.022,6.093 17.046,6.093 17.227,6.093 17.34,6.093 17.374,6.093 17.545,6.093 17.76,6.093 17.771,6.081 
			17.884,6.081 17.94,6.081 18.123,6.081 18.145,6.081 18.166,6.081 18.258,6.081 18.27,6.081 18.371,6.081 18.609,6.081 
			18.835,6.081 18.846,6.081 18.938,6.081 19.106,6.081 19.175,6.081 19.265,6.081 19.355,6.081 19.391,6.081 19.47,6.081 
			19.583,6.081 19.594,6.081 19.639,6.081 19.65,6.081 19.661,6.081 19.674,6.081 19.708,6.081 19.729,6.081 19.752,6.081 
			19.787,6.081 19.809,6.081 19.934,6.081 19.946,6.081 19.968,6.081 20.002,6.081 20.104,6.081 20.273,6.093 20.296,6.093 
			20.353,6.093 20.376,6.093 20.534,6.093 20.546,6.093 21.011,6.081 21.157,6.081 21.564,6.081 21.61,6.081 21.666,6.081 
			21.679,6.081 21.95,6.081 22.222,6.07 22.323,6.07 22.403,6.07 22.878,6.07 22.89,6.059 22.936,6.059 23.106,6.059 23.207,6.059 
			23.218,6.059 23.343,6.059 23.434,6.059 23.444,6.059 23.717,6.059 23.728,6.059 23.75,6.059 23.808,6.059 23.829,6.047 
			23.887,6.047 24.181,6.047 24.282,6.047 24.294,6.047 24.317,6.047 24.396,6.047 24.725,6.047 24.838,6.036 25.076,6.036 
			25.11,6.036 25.166,6.036 25.324,6.036 25.37,6.036 25.438,6.036 25.483,6.036 25.495,6.036 25.54,6.025 25.913,6.025 
			26.004,6.025 26.027,6.025 26.038,6.025 26.197,6.025 26.367,6.025 26.412,6.014 26.445,6.014 26.741,6.014 26.968,6.014 
			27.047,6.014 27.104,6.014 27.42,6.002 27.533,6.002 27.636,6.002 27.681,6.002 27.704,6.002 27.852,6.002 27.964,5.991 
			28.1,5.991 28.088,6.002 28.088,6.014 28.078,6.025 28.066,6.025 28.055,6.025 28.055,6.036 28.066,6.036 28.078,6.047 
			28.078,6.07 28.055,6.07 28.055,6.081 28.066,6.093 28.055,6.116 28.055,6.127 28.066,6.127 28.122,6.161 28.146,6.149 
			28.157,6.161 28.168,6.184 28.168,6.194 28.134,6.206 28.122,6.206 28.1,6.194 28.078,6.229 28.078,6.252 28.146,6.252 
			28.157,6.252 28.168,6.252 28.168,6.263 28.168,6.274 28.179,6.297 28.19,6.308 28.201,6.342 28.201,6.376 28.201,6.399 
			28.201,6.41 28.213,6.41 28.213,6.444 28.201,6.489 28.19,6.489 28.168,6.489 28.157,6.512 28.157,6.534 28.157,6.546 
			28.19,6.568 28.201,6.568 28.213,6.557 28.213,6.546 28.213,6.557 28.213,6.58 28.213,6.591 28.213,6.603 28.201,6.613 
			28.19,6.613 28.213,6.625 28.236,6.613 28.247,6.636 28.293,6.636 28.326,6.659 28.338,6.67 28.372,6.693 28.384,6.693 
			28.395,6.682 28.405,6.682 28.463,6.693 28.541,6.716 28.553,6.727 28.564,6.739 28.564,6.75 28.587,6.761 28.587,6.772 
			28.62,6.795 28.644,6.852 28.644,6.919 28.644,6.965 28.632,7.021 28.61,7.044 28.587,7.089 28.564,7.089 28.564,7.101 
			28.587,7.124 28.587,7.146 28.576,7.158 28.564,7.192 28.587,7.203 28.587,7.214 28.576,7.237 28.564,7.259 28.553,7.271 
			28.541,7.293 28.553,7.305 28.553,7.316 28.564,7.328 28.576,7.316 28.62,7.361 28.644,7.396 28.644,7.418 28.654,7.441 
			28.62,7.498 28.62,7.509 28.61,7.509 28.576,7.554 28.587,7.6 28.541,7.667 28.53,7.678 28.496,7.678 28.439,7.701 28.417,7.713 
			28.384,7.713 28.372,7.713 28.36,7.724 28.35,7.77 28.338,7.814 28.305,7.883 28.293,7.894 28.27,7.894 28.27,7.905 28.27,7.917 
			28.28,7.939 28.293,7.951 28.305,7.951 28.305,7.962 28.293,7.996 28.259,8.019 28.236,8.019 28.225,8.019 28.19,8.007 
			28.146,8.075 28.134,8.098 28.111,8.12 28.088,8.109 28.078,8.098 28.042,8.12 28.009,8.143 27.975,8.154 27.952,8.188 
			27.931,8.188 27.919,8.177 27.907,8.211 27.896,8.223 27.885,8.223 27.873,8.223 27.861,8.256 27.852,8.245 27.84,8.256 
			27.84,8.279 27.852,8.279 27.828,8.325 27.815,8.325 27.782,8.347 27.771,8.347 27.76,8.336 27.727,8.336 27.681,8.426 
			27.669,8.46 27.669,8.472 27.636,8.528 27.669,8.573 27.669,8.619 27.646,8.664 27.646,8.676 27.613,8.698 27.59,8.698 
			27.579,8.732 27.567,8.755 27.533,8.766 27.533,8.777 27.521,8.777 27.51,8.777 27.5,8.766 27.488,8.777 27.454,8.823 
			27.42,8.845 27.387,8.845 27.308,8.868 27.295,8.868 27.295,8.879 27.283,8.879 27.262,8.925 27.273,8.948 27.273,8.958 
			27.262,8.993 27.216,9.016 27.183,9.027 27.148,9.061 27.137,9.061 27.137,9.083 27.137,9.117 27.148,9.14 27.148,9.163 
			27.137,9.197 27.059,9.23 27.047,9.276 27.047,9.287 27.035,9.344 27.035,9.377 27.023,9.377 27.001,9.4 26.978,9.423 
			26.968,9.423 26.968,9.435 26.968,9.446 26.968,9.468 26.956,9.503 26.956,9.525 26.956,9.537 26.956,9.548 26.922,9.593 
			26.877,9.627 26.854,9.661 26.831,9.707 26.797,9.763 26.854,9.763 27.013,9.763 27.035,9.763 27.319,9.752 27.341,9.752 
			27.59,9.752 27.907,9.74 27.964,9.74 28.122,9.729 28.314,9.729 28.326,9.729 28.36,9.729 28.372,9.729 28.395,9.729 
			28.417,9.717 28.428,9.717 28.463,9.717 28.654,9.717 28.666,9.717 28.757,9.717 29.119,9.707 29.255,9.695 29.3,9.695 
			29.323,9.695 29.335,9.695 29.414,9.695 29.686,9.684 29.719,9.684 29.844,9.684 29.855,9.684 29.89,9.684 29.935,9.684 
			29.991,9.672 30.048,9.672 30.274,9.672 30.479,9.661 30.489,9.661 30.682,9.661 30.705,9.661 30.716,9.684 30.739,9.707 
			30.796,9.763 30.796,9.774 30.796,9.854 30.796,9.876 30.796,9.899 30.829,9.933 30.853,9.956 30.92,10.001 30.999,10.046 
			31.056,10.092 31.091,10.137 31.192,10.205 31.214,10.239 31.226,10.262 31.248,10.341 31.26,10.363 31.248,10.431 31.226,10.465 
			31.202,10.499 31.181,10.499 31.135,10.522 31.112,10.522 31.067,10.511 31.033,10.477 30.999,10.42 30.829,10.363 30.716,10.375 
			30.603,10.431 30.592,10.431 30.569,10.442 30.523,10.477 30.513,10.511 30.489,10.567 30.489,10.579 30.489,10.589 
			30.479,10.624 30.489,10.658 30.489,10.669 30.513,10.692 30.513,10.703 30.547,10.726 30.637,10.76 30.67,10.771 30.75,10.794 
			30.875,10.862 30.908,10.884 30.92,10.896 30.92,10.907 30.932,10.918 30.932,10.941 30.932,10.964 30.932,10.975 30.92,10.998 
			30.896,11.009 30.818,11.066 30.796,11.077 30.739,11.111 30.682,11.111 30.592,11.077 30.547,11.077 30.547,11.088 
			30.443,11.123 30.354,11.213 30.343,11.247 30.354,11.292 30.354,11.314 30.343,11.349 30.286,11.428 30.264,11.451 
			30.253,11.462 30.218,11.485 30.195,11.496 30.138,11.507 30.06,11.496 29.991,11.542 29.957,11.564 29.901,11.609 29.878,11.609 
			29.832,11.587 29.811,11.542 29.696,11.485 29.686,11.485 29.675,11.485 29.651,11.496 29.641,11.519 29.459,11.621 
			29.425,11.644 29.402,11.655 29.391,11.677 29.379,11.723 29.379,11.757 29.379,11.791 29.391,11.848 29.402,11.961 
			29.402,11.995 29.414,12.028 29.425,12.028 29.437,12.062 29.481,12.108 29.516,12.187 29.55,12.209 29.55,12.221 29.562,12.221 
			29.562,12.232 29.605,12.255 29.651,12.278 29.663,12.278 29.708,12.289 29.754,12.289 29.811,12.278 29.832,12.266 
			29.844,12.255 29.844,12.244 29.855,12.244 29.855,12.232 29.878,12.187 29.89,12.176 29.901,12.165 29.911,12.153 29.935,12.153 
			29.957,12.142 29.98,12.142 29.991,12.142 29.991,12.153 30.002,12.153 30.026,12.187 30.037,12.209 30.048,12.232 30.048,12.244 
			30.048,12.289 30.048,12.334 30.037,12.368 30.037,12.38 30.026,12.391 30.014,12.402 30.014,12.414 29.969,12.437 29.901,12.471 
			29.89,12.471 29.844,12.504 29.788,12.55 29.775,12.561 29.765,12.561 29.754,12.561 29.719,12.55 29.686,12.539 29.641,12.584 
			29.562,12.618 29.481,12.663 29.448,12.697 29.425,12.72 29.414,12.743 29.402,12.776 29.402,12.788 29.414,12.811 29.425,12.856 
			29.481,12.946 29.492,12.969 29.516,13.003 29.584,13.037 29.617,13.037 29.663,13.037 29.675,13.048 29.696,13.06 29.708,13.083 
			29.708,13.093 29.696,13.104 29.696,13.127 29.708,13.127 29.73,13.139 29.742,13.15 29.742,13.162 29.719,13.24 29.719,13.263 
			29.696,13.286 29.675,13.309 29.651,13.309 29.629,13.309 29.572,13.286 29.562,13.286 29.492,13.275 29.481,13.275 
			29.459,13.263 29.448,13.252 29.425,13.229 29.414,13.218 29.414,13.195 29.425,13.173 29.425,13.162 29.425,13.127 
			29.414,13.116 29.402,13.104 29.3,13.026 29.222,12.98 29.198,12.969 29.164,12.969 29.152,12.969 29.108,12.98 29.085,12.991 
			29.052,13.014 29.04,13.014 29.006,13.014 28.983,13.014 28.949,13.037 28.927,13.06 28.916,13.071 28.904,13.15 28.882,13.195 
			28.882,13.207 28.858,13.263 28.858,13.32 28.87,13.399 28.882,13.456 28.893,13.49 28.949,13.58 29.04,13.648 29.052,13.671 
			29.052,13.683 29.052,13.693 29.028,13.751 29.017,13.773 29.006,13.818 29.006,13.841 29.006,13.875 29.006,13.898 
			28.995,13.909 28.983,13.965 28.927,14.011 28.916,14.022 28.904,14.034 28.893,14.068 28.893,14.079 28.882,14.102 
			28.858,14.125 28.837,14.136 28.825,14.125 28.801,14.125 28.791,14.102 28.791,14.068 28.745,14.011 28.723,13.932 
			28.723,13.886 28.733,13.807 28.757,13.728 28.757,13.693 28.757,13.683 28.723,13.648 28.711,13.638 28.678,13.615 
			28.644,13.592 28.61,13.592 28.564,13.603 28.541,13.615 28.507,13.615 28.463,13.648 28.439,13.671 28.428,13.693 28.417,13.739 
			28.384,13.875 28.314,13.92 28.146,14.034 28.134,14.057 28.134,14.113 28.088,14.305 28.088,14.328 28.122,14.363 28.168,14.385 
			28.293,14.385 28.35,14.363 28.305,14.283 28.28,14.227 28.28,14.192 28.293,14.158 28.305,14.136 28.314,14.125 28.338,14.102 
			28.35,14.09 28.384,14.09 28.463,14.102 28.484,14.113 28.496,14.125 28.52,14.158 28.541,14.17 28.587,14.215 28.61,14.237 
			28.644,14.25 28.689,14.294 28.7,14.294 28.723,14.305 28.666,14.418 28.644,14.453 28.632,14.475 28.61,14.475 28.587,14.51 
			28.576,14.543 28.53,14.611 28.52,14.611 28.507,14.611 28.553,14.679 28.553,14.69 28.53,14.747 28.52,14.895 28.474,14.906 
			28.451,14.895 28.439,14.906 28.384,14.929 28.338,14.94 28.27,14.917 28.259,14.917 28.225,14.929 28.201,14.951 28.19,14.963 
			28.179,14.985 28.157,15.076 28.157,15.099 28.179,15.132 28.225,15.212 28.27,15.269 28.338,15.291 28.395,15.28 28.439,15.269 
			28.484,15.269 28.52,15.269 28.553,15.269 28.587,15.291 28.599,15.302 28.644,15.359 28.678,15.404 28.689,15.438 28.711,15.472 
			28.711,15.495 28.723,15.529 28.723,15.541 28.723,15.562 28.711,15.562 28.7,15.575 28.689,15.575 28.678,15.575 28.666,15.585 
			28.654,15.597 28.632,15.654 28.62,15.71 28.61,15.722 28.541,15.688 28.496,15.688 28.484,15.755 28.484,15.767 28.507,15.812 
			28.53,15.835 28.541,15.835 28.541,15.869 28.541,15.902 28.541,15.914 28.553,15.925 28.564,15.937 28.587,15.948 28.61,15.971 
			28.644,15.994 28.666,16.004 28.791,16.016 28.801,16.027 28.801,16.039 28.813,16.107 28.813,16.118 28.813,16.141 
			28.801,16.152 28.779,16.186 28.757,16.209 28.711,16.266 28.689,16.276 28.666,16.288 28.599,16.299 28.553,16.288 28.36,16.175 
			28.338,16.163 28.326,16.163 28.259,16.197 28.236,16.22 28.201,16.243 28.201,16.254 28.19,16.254 28.168,16.288 28.157,16.288 
			28.157,16.299 28.134,16.344 28.111,16.492 28.066,16.616 28.032,16.719 28.032,16.764 28.042,16.798 28.042,16.866 28.032,16.9 
			27.998,16.934 27.998,16.945 27.941,16.979 27.919,16.991 27.907,16.991 27.852,16.956 27.815,16.956 27.658,16.934 
			27.625,16.911 27.613,16.911 27.613,16.888 27.602,16.888 27.442,16.877 27.42,16.888 27.409,16.911 27.387,16.979 27.353,17.059 
			27.329,17.115 27.329,17.161 27.329,17.171 27.329,17.183 27.341,17.228 27.363,17.308 27.375,17.33 27.42,17.364 27.442,17.375 
			27.477,17.398 27.51,17.432 27.533,17.455 27.646,17.5 27.658,17.511 27.681,17.522 27.704,17.545 27.715,17.58 27.727,17.591 
			27.727,17.602 27.737,17.647 27.737,17.772 27.737,17.828 27.727,17.863 27.715,17.874 27.533,18.01 27.398,18.089 27.353,18.123 
			27.329,18.146 27.375,18.226 27.387,18.236 27.398,18.259 27.398,18.282 27.387,18.304 27.363,18.338 27.341,18.361 27.295,18.35 
			27.273,18.338 27.216,18.293 27.16,18.236 27.114,18.282 27.093,18.293 26.922,18.35 26.797,18.429 26.787,18.429 26.751,18.452 
			26.729,18.452 26.707,18.463 26.661,18.44 26.65,18.44 26.616,18.384 26.604,18.327 26.604,18.282 26.604,18.259 26.616,18.213 
			26.616,18.191 26.604,18.168 26.57,18.089 26.57,18.078 26.561,18.066 26.536,18.055 26.515,18.044 26.457,18.021 26.424,18.01 
			26.39,18.021 26.334,18.055 26.299,18.078 26.276,18.123 26.276,18.146 26.276,18.18 26.276,18.236 26.276,18.248 26.288,18.248 
			26.288,18.259 26.288,18.271 26.299,18.271 26.299,18.282 26.345,18.327 26.401,18.44 26.445,18.52 26.445,18.531 26.445,18.542 
			26.435,18.587 26.401,18.622 26.378,18.655 26.367,18.667 26.355,18.678 26.345,18.712 26.345,18.735 26.345,18.758 
			26.345,18.769 26.355,18.78 26.367,18.848 26.445,18.961 26.48,19.041 26.48,19.052 26.491,19.085 26.491,19.108 26.491,19.12 
			26.491,19.131 26.491,19.143 26.48,19.154 26.469,19.177 26.457,19.199 26.378,19.245 		"/>
		
			<polyline fill="none" stroke="#404041" stroke-width="0.1" stroke-linecap="round" stroke-linejoin="round" stroke-miterlimit="3.85" points="
			26.378,19.245 26.322,19.267 26.265,19.267 26.186,19.267 26.107,19.233 26.083,19.211 26.062,19.165 26.062,19.131 
			26.062,19.085 26.062,19.052 26.096,19.018 26.163,18.972 26.175,18.927 26.186,18.927 26.186,18.916 26.186,18.893 
			26.163,18.848 26.107,18.735 26.096,18.689 26.083,18.689 26.05,18.689 26.004,18.701 25.992,18.701 25.959,18.712 25.937,18.735 
			25.913,18.769 25.892,18.825 25.892,18.848 25.892,18.859 25.902,18.905 25.925,18.972 25.925,19.063 25.925,19.085 
			25.913,19.108 25.902,19.12 25.88,19.131 25.869,19.143 25.846,19.143 25.823,19.154 25.8,19.165 25.789,19.188 25.777,19.211 
			25.777,19.245 25.777,19.256 25.777,19.267 25.777,19.278 25.789,19.301 25.857,19.37 25.913,19.438 25.959,19.46 26.004,19.471 
			26.016,19.471 26.027,19.471 26.038,19.471 26.062,19.483 26.072,19.471 26.141,19.46 26.197,19.448 26.209,19.448 26.219,19.448 
			26.276,19.438 26.322,19.438 26.355,19.438 26.378,19.448 26.378,19.46 26.39,19.471 26.401,19.483 26.412,19.494 26.424,19.517 
			26.424,19.528 26.435,19.539 26.435,19.562 26.424,19.584 26.412,19.642 26.39,19.676 26.378,19.686 26.334,19.743 26.276,19.789 
			26.219,19.833 26.186,19.89 26.175,19.901 26.163,19.913 26.151,19.924 26.096,19.97 26.062,19.981 26.05,19.981 26.038,19.992 
			26.016,19.992 26.004,19.992 25.992,19.992 25.982,19.992 25.971,19.992 25.948,19.981 25.937,19.981 25.925,19.97 25.913,19.97 
			25.913,19.958 25.892,19.924 25.869,19.901 25.869,19.89 25.869,19.856 25.869,19.789 25.88,19.754 25.892,19.732 25.959,19.676 
			25.971,19.652 25.959,19.584 25.948,19.562 25.937,19.539 25.902,19.505 25.892,19.483 25.88,19.471 25.857,19.471 25.812,19.483 
			25.789,19.505 25.744,19.562 25.71,19.573 25.698,19.607 25.653,19.676 25.653,19.686 25.665,19.72 25.677,19.823 25.677,19.856 
			25.687,19.879 25.687,19.89 25.677,19.935 25.665,20.003 25.665,20.083 25.71,20.173 25.744,20.242 25.777,20.298 25.812,20.332 
			25.857,20.377 25.913,20.435 25.925,20.479 25.959,20.569 25.959,20.582 25.959,20.604 25.948,20.649 25.937,20.66 25.88,20.717 
			25.789,20.763 25.732,20.831 25.722,20.841 25.722,20.854 25.698,20.921 25.687,20.944 25.677,20.978 25.677,21.012 
			25.665,21.068 25.677,21.17 25.698,21.238 25.71,21.261 25.756,21.284 25.767,21.306 25.812,21.385 25.812,21.396 25.812,21.409 
			25.812,21.419 25.823,21.431 25.823,21.442 25.823,21.465 25.812,21.476 25.812,21.487 25.8,21.51 25.8,21.522 25.8,21.533 
			25.789,21.544 25.767,21.578 25.732,21.613 25.529,21.771 25.495,21.782 25.416,21.793 25.393,21.805 25.359,21.816 
			25.257,21.885 25.268,21.907 25.245,21.963 25.2,22.031 25.2,22.043 25.2,22.088 25.245,22.179 25.268,22.247 25.268,22.28 
			25.245,22.338 25.189,22.348 25.145,22.348 25.087,22.338 25.064,22.314 25.041,22.28 25.041,22.224 25.054,22.167 25.11,22.054 
			25.121,21.986 25.11,21.952 25.099,21.94 25.054,21.94 24.997,21.963 24.928,21.975 24.849,21.975 24.814,21.975 24.792,21.963 
			24.735,21.952 24.691,21.952 24.646,21.952 24.611,21.975 24.589,21.997 24.589,22.009 24.577,22.054 24.577,22.11 24.589,22.121 
			24.601,22.134 24.68,22.201 24.691,22.224 24.701,22.224 24.713,22.247 24.725,22.258 24.725,22.27 24.735,22.303 24.747,22.348 
			24.747,22.405 24.735,22.439 24.68,22.529 24.668,22.553 24.646,22.563 24.601,22.597 24.565,22.608 24.555,22.608 24.544,22.608 
			24.532,22.597 24.509,22.597 24.498,22.597 24.396,22.587 24.386,22.587 24.374,22.587 24.362,22.597 24.306,22.608 24.26,22.62 
			24.249,22.631 24.238,22.644 24.227,22.644 24.215,22.654 24.203,22.666 24.203,22.677 24.192,22.677 24.192,22.699 
			24.181,22.733 24.181,22.745 24.169,22.768 24.159,22.835 24.159,22.847 24.147,22.893 24.147,22.938 24.147,22.949 
			24.147,22.972 24.147,22.982 24.147,23.017 24.147,23.039 24.136,23.051 24.136,23.062 24.136,23.084 24.113,23.131 
			24.102,23.164 24.067,23.142 24.045,23.119 23.977,23.119 23.898,23.097 23.808,23.028 23.785,23.006 23.773,22.994 
			23.739,22.903 23.739,22.893 23.728,22.881 23.717,22.881 23.706,22.869 23.694,22.869 23.683,22.869 23.627,22.869 
			23.591,22.881 23.558,22.915 23.547,22.938 23.547,22.949 23.547,22.96 23.535,22.96 23.547,23.017 23.558,23.073 23.569,23.097 
			23.569,23.107 23.671,23.221 23.671,23.231 23.683,23.243 23.694,23.255 23.706,23.255 23.706,23.266 23.829,23.322 
			23.854,23.346 23.887,23.322 23.909,23.322 23.933,23.334 23.954,23.334 23.966,23.334 23.988,23.334 24,23.334 24.033,23.312 
			24.045,23.312 24.102,23.312 24.159,23.322 24.215,23.322 24.282,23.334 24.294,23.334 24.317,23.346 24.328,23.368 24.34,23.379 
			24.34,23.391 24.35,23.447 24.35,23.493 24.328,23.537 24.294,23.584 24.26,23.628 24.238,23.641 24.215,23.651 24.169,23.674 
			24.102,23.674 24.067,23.674 24,23.651 23.977,23.641 23.921,23.594 23.887,23.572 23.808,23.504 23.75,23.481 23.717,23.47 
			23.547,23.594 23.444,23.674 23.41,23.73 23.422,23.775 23.434,23.81 23.444,23.82 23.479,23.878 23.49,23.89 23.648,24.002 
			23.671,24.014 23.694,24.014 23.773,24.002 23.818,23.968 23.854,23.968 23.887,23.979 23.909,23.99 23.933,24.014 23.954,24.06 
			23.966,24.081 23.966,24.104 23.954,24.127 23.943,24.161 23.898,24.229 23.875,24.263 23.863,24.285 23.854,24.309 
			23.854,24.354 23.863,24.41 23.863,24.433 23.863,24.443 23.863,24.455 23.854,24.478 23.842,24.5 23.829,24.5 23.796,24.524 
			23.694,24.546 23.648,24.534 23.637,24.534 23.569,24.558 23.523,24.568 23.479,24.568 23.422,24.558 23.354,24.546 
			23.309,24.546 23.274,24.558 23.241,24.568 23.297,24.705 23.309,24.738 23.354,24.772 23.41,24.853 23.41,24.864 23.41,24.874 
			23.41,24.886 23.41,24.897 23.4,24.954 23.389,24.966 23.377,24.978 23.354,24.987 23.321,24.999 23.274,25.011 23.253,24.999 
			23.229,24.999 23.207,24.987 23.196,24.978 23.174,24.966 23.15,24.932 23.139,24.886 23.082,24.749 23.049,24.682 22.958,24.749 
			22.924,24.795 22.901,24.807 22.868,24.829 22.788,24.829 22.731,24.829 22.697,24.841 22.675,24.853 22.652,24.864 22.63,24.897 
			22.618,24.92 22.618,24.942 22.618,24.954 22.618,24.966 22.618,24.978 22.618,24.987 22.618,24.999 22.618,25.011 22.63,25.021 
			22.652,25.045 22.686,25.057 22.878,25.101 22.947,25.135 23.049,25.181 23.094,25.215 23.106,25.237 23.106,25.25 23.116,25.259 
			23.106,25.271 23.07,25.316 23.015,25.396 22.947,25.464 22.936,25.485 22.844,25.577 22.834,25.588 22.799,25.623 22.743,25.712 
			22.731,25.736 22.721,25.78 22.731,25.838 22.765,25.905 22.776,25.927 22.834,25.984 22.856,26.03 22.868,26.064 22.89,26.086 
			22.911,26.109 23.025,26.155 23.037,26.166 23.059,26.166 23.139,26.189 23.174,26.199 23.184,26.199 23.229,26.257 23.253,26.29 
			23.253,26.302 23.253,26.312 23.253,26.348 23.241,26.37 23.218,26.404 23.184,26.428 23.106,26.472 23.037,26.483 23.015,26.472 
			22.844,26.358 22.811,26.37 22.652,26.381 22.63,26.393 22.516,26.428 22.493,26.393 22.482,26.393 22.471,26.381 22.448,26.37 
			22.415,26.348 22.38,26.337 22.357,26.337 22.347,26.337 22.335,26.348 22.323,26.358 22.312,26.381 22.3,26.404 22.278,26.449 
			22.278,26.483 22.29,26.495 22.3,26.505 22.312,26.505 22.3,26.539 22.29,26.574 22.29,26.585 22.29,26.607 22.278,26.688 
			22.278,26.71 22.278,26.743 22.29,26.755 22.369,26.847 22.403,26.891 22.459,26.914 22.516,26.925 22.528,26.914 22.538,26.914 
			22.562,26.914 22.572,26.914 22.63,26.901 22.721,26.847 22.765,26.834 22.788,26.834 22.799,26.834 22.811,26.834 22.811,26.847 
			22.821,26.847 22.834,26.857 22.844,26.857 22.901,26.901 22.936,26.948 22.947,26.97 22.958,27.004 22.969,27.027 22.98,27.038 
			23.003,27.038 23.003,27.083 22.991,27.117 22.98,27.141 22.98,27.151 22.958,27.163 22.901,27.187 22.878,27.187 22.821,27.196 
			22.776,27.23 22.709,27.264 22.663,27.276 22.652,27.276 22.642,27.276 22.642,27.264 22.618,27.264 22.605,27.264 22.562,27.254 
			22.38,27.141 22.357,27.129 22.29,27.038 22.267,27.004 22.188,26.914 22.188,26.901 22.177,26.901 22.152,26.914 22.097,26.937 
			22.006,26.948 21.938,26.948 21.904,26.948 21.904,26.958 21.883,26.97 21.87,26.97 21.859,26.981 21.813,27.016 21.791,27.049 
			21.77,27.083 21.77,27.129 21.77,27.174 21.779,27.196 21.803,27.22 21.803,27.23 21.825,27.242 21.837,27.254 21.859,27.264 
			21.87,27.264 21.894,27.276 21.927,27.276 22.029,27.298 22.04,27.311 22.075,27.321 22.085,27.321 22.131,27.344 22.165,27.379 
			22.256,27.457 22.323,27.502 22.323,27.514 22.335,27.525 22.357,27.56 22.38,27.616 22.38,27.661 22.38,27.695 22.38,27.707 
			22.369,27.729 22.357,27.74 22.335,27.774 22.244,27.832 22.222,27.843 22.199,27.843 22.097,27.832 22.085,27.832 22.075,27.843 
			22.018,27.876 21.961,27.911 21.927,27.922 21.825,27.944 21.813,27.944 21.803,27.944 21.77,27.967 21.757,27.989 21.757,28.001 
			21.746,28.024 21.746,28.058 21.757,28.092 21.77,28.103 21.791,28.148 21.837,28.205 21.859,28.228 22.029,28.375 22.04,28.397 
			22.052,28.42 22.052,28.443 22.04,28.478 22.018,28.499 21.984,28.533 21.961,28.579 21.916,28.646 21.916,28.67 21.904,28.681 
			21.859,28.714 21.837,28.726 21.813,28.726 21.757,28.771 21.757,28.794 21.746,28.873 21.746,28.885 21.734,28.896 
			21.734,28.907 21.825,28.931 21.847,28.94 21.894,28.94 21.916,28.94 21.927,28.94 21.961,28.931 21.994,28.931 22.04,28.907 
			22.075,28.896 22.097,28.873 22.152,28.805 22.131,28.726 22.109,28.658 22.119,28.602 22.119,28.567 22.119,28.533 
			22.143,28.511 22.152,28.511 22.165,28.511 22.199,28.499 22.222,28.499 22.357,28.591 22.425,28.646 22.459,28.748 
			22.471,28.794 22.471,28.828 22.448,28.873 22.403,28.919 22.391,28.94 22.391,28.952 22.38,28.964 22.335,28.998 22.3,28.986 
			22.29,28.986 22.188,29.031 22.131,29.056 22.109,29.066 22.085,29.066 22.052,29.056 22.006,29.066 21.961,29.066 21.938,29.077 
			21.927,29.089 21.904,29.134 21.904,29.146 21.904,29.167 21.916,29.179 21.927,29.202 22.006,29.27 22.018,29.27 22.075,29.304 
			22.109,29.326 22.143,29.338 22.177,29.35 22.244,29.338 22.323,29.326 22.415,29.258 22.471,29.213 22.516,29.179 22.572,29.111 
			22.596,29.056 22.596,28.998 22.596,28.952 22.596,28.94 22.605,28.907 22.618,28.873 22.642,28.851 22.663,28.805 22.697,28.783 
			22.721,28.771 22.743,28.771 22.788,28.783 22.799,28.794 22.834,28.817 22.844,28.84 22.844,28.851 22.844,28.976 22.844,28.986 
			22.821,29.031 22.776,29.1 22.743,29.146 22.709,29.179 22.686,29.202 22.652,29.247 22.596,29.304 22.584,29.304 22.55,29.338 
			22.459,29.463 22.438,29.496 22.335,29.553 22.323,29.564 22.323,29.576 22.335,29.666 22.335,29.689 22.323,29.689 
			22.323,29.699 22.323,29.711 22.323,29.723 22.323,29.735 22.335,29.836 22.335,29.926 22.335,29.938 22.347,29.961 
			22.438,30.085 22.438,30.131 22.415,30.176 22.482,30.222 22.493,30.233 22.505,30.278 22.505,30.289 22.528,30.347 
			22.562,30.369 22.596,30.402 22.605,30.402 22.618,30.369 22.63,30.312 22.652,30.278 22.652,30.256 22.663,30.233 22.686,30.131 
			22.697,30.097 22.709,30.074 22.731,30.062 22.765,30.041 22.799,30.029 22.856,30.029 22.89,30.041 22.924,30.062 22.936,30.097 
			22.947,30.12 22.947,30.164 22.936,30.188 22.924,30.233 22.911,30.301 22.89,30.335 22.821,30.402 22.811,30.437 22.799,30.437 
			22.776,30.46 22.776,30.481 22.765,30.481 22.743,30.481 22.731,30.481 22.731,30.506 22.709,30.527 22.686,30.527 22.652,30.527 
			22.663,30.606 22.686,30.696 22.697,30.821 22.697,30.969 22.697,30.98 22.697,31.002 22.697,31.015 22.686,31.037 22.686,31.07 
			22.686,31.094 22.675,31.105 22.663,31.139 22.652,31.149 22.572,31.195 22.516,31.207 22.415,31.219 22.403,31.219 
			22.335,31.207 22.29,31.207 22.278,31.195 22.267,31.173 22.222,31.128 22.222,31.116 22.21,31.116 22.199,31.116 22.177,31.116 
			22.165,31.116 22.152,31.116 22.075,31.128 22.052,31.139 22.04,31.139 22.018,31.161 22.006,31.173 21.961,31.253 21.961,31.274 
			21.972,31.365 21.972,31.376 21.972,31.388 21.984,31.388 21.994,31.399 22.006,31.399 22.052,31.422 22.063,31.434 
			22.097,31.445 22.143,31.501 22.143,31.513 22.152,31.524 22.199,31.535 22.222,31.535 22.29,31.569 22.323,31.592 22.459,31.693 
			22.471,31.739 22.482,31.762 22.482,31.773 22.459,31.83 22.448,31.887 22.425,31.933 22.38,31.966 22.347,31.978 22.3,31.978 
			22.256,32 22.222,32.034 22.199,32.091 22.199,32.146 21.576,32.146 21.451,32.146 21.315,32.146 21.281,32.146 21.214,32.146 
			21.202,32.146 21.191,32.146 21.168,32.146 21.146,32.146 20.987,32.146 20.873,32.146 20.567,32.146 20.5,32.146 20.387,32.146 
			20.353,32.146 20.171,32.146 20.093,32.146 19.729,32.146 19.639,32.146 19.594,32.146 19.412,32.146 19.355,32.146 
			19.322,32.146 19.299,32.146 19.096,32.146 18.982,32.146 18.938,32.146 18.846,32.146 18.619,32.146 18.496,32.146 
			18.213,32.146 18.11,32.146 17.964,32.146 17.771,32.146 17.737,32.146 17.272,32.146 17.261,32.146 17.092,32.146 16.954,32.146 
			16.525,32.135 15.766,32.135 15.562,32.135 15.551,32.135 15.121,32.124 14.927,32.124 14.848,32.124 14.792,32.124 
			14.677,32.113 14.644,32.113 14.633,32.113 14.497,32.113 14.191,32.113 13.999,32.102 13.807,32.102 13.795,32.102 13.67,32.102 
			13.659,32.102 13.625,32.102 12.787,32.079 12.606,32.079 12.538,32.079 12.504,32.079 12.481,32.079 12.458,32.079 
			12.414,32.079 12.402,32.079 12.345,32.079 11.949,32.067 11.88,32.067 11.734,32.067 11.655,32.057 11.586,32.057 11.507,32.057 
			11.336,32.057 11.008,32.045 10.929,32.045 10.85,32.045 10.781,32.045 10.737,32.045 10.442,32.034 10.228,32.034 10.216,32.034 
			10.159,32.034 10.035,32.034 9.922,32.034 9.865,32.034 9.832,32.034 9.707,32.023 9.684,32.023 9.434,32.023 9.321,32.023 
			9.275,32.023 9.264,32.023 9.173,32.023 8.732,32.012 8.528,32.012 8.302,32.012 8.211,32 8.189,32 7.996,32 7.917,32 7.769,32 
			7.736,32 7.599,32 7.588,32 7.577,32 7.396,31.988 7.373,31.988 7.328,31.988 6.829,31.978 6.648,31.978 6.433,31.966 
			6.422,31.966 6.33,31.966 6.24,31.966 6.229,31.966 6.127,31.966 5.617,31.954 5.55,31.954 5.074,31.944 5.039,31.944 
			4.893,31.944 4.689,31.944 4.236,31.933 4.213,31.933 4.168,31.933 4.123,31.933 4.123,31.479 4.133,31.376 4.133,31.195 
			4.133,31.07 4.133,31.037 4.133,31.002 4.146,30.879 4.146,30.584 4.146,30.562 4.146,30.47 4.157,30.268 4.157,30.21 
			4.157,30.131 4.157,30.052 4.168,29.609 4.168,29.542 4.168,29.509 4.168,29.484 4.168,29.451 4.168,29.439 4.168,29.394 
			4.168,29.304 4.168,29.258 4.168,29.247 4.168,29.202 4.168,29.179 4.18,29.089 4.18,29.044 4.18,28.986 4.18,28.94 4.18,28.873 
			4.18,28.861 4.18,28.828 4.18,28.817 4.18,28.805 4.18,28.794 4.18,28.748 4.18,28.726 4.18,28.692 4.18,28.658 4.18,28.635 
			4.18,28.567 4.19,28.42 4.19,28.408 4.19,28.397 4.19,28.387 4.19,28.024 4.19,27.955 4.18,27.955 4.157,27.955 4.146,27.944 
			4.111,27.967 4.077,27.967 4.055,27.955 4.032,27.944 4.021,27.934 4.009,27.922 4.009,27.899 4.021,27.899 		"/>
		
			<polyline fill="none" stroke="#404041" stroke-width="0.1" stroke-linecap="round" stroke-linejoin="round" stroke-miterlimit="3.85" points="
			4.021,27.899 4.042,27.888 4.055,27.888 4.089,27.899 4.111,27.888 4.123,27.876 4.123,27.843 4.111,27.832 4.089,27.832 
			4.055,27.832 4.042,27.819 4.042,27.809 4.042,27.786 4.032,27.786 4.021,27.786 4.021,27.797 4.009,27.797 3.952,27.774 
			3.918,27.774 3.861,27.786 3.838,27.797 3.827,27.809 3.76,27.832 3.715,27.832 3.715,27.843 3.715,27.876 3.704,27.934 
			3.692,27.944 3.669,27.955 3.659,27.955 3.646,27.934 3.636,27.899 3.625,27.819 3.625,27.797 3.612,27.797 3.568,27.843 
			3.556,27.843 3.544,27.843 3.521,27.819 3.521,27.809 3.521,27.797 3.533,27.786 3.556,27.763 3.579,27.752 3.579,27.74 
			3.579,27.719 3.568,27.719 3.556,27.719 3.544,27.729 3.511,27.763 3.488,27.763 3.465,27.74 3.454,27.729 3.465,27.673 
			3.454,27.661 3.374,27.649 3.341,27.64 3.318,27.616 3.306,27.649 3.283,27.673 3.25,27.707 3.239,27.719 3.228,27.719 
			3.193,27.719 3.183,27.719 3.148,27.707 3.137,27.695 3.125,27.695 3.115,27.719 3.115,27.729 3.115,27.752 3.148,27.774 
			3.16,27.774 3.171,27.763 3.193,27.763 3.216,27.752 3.239,27.763 3.25,27.774 3.262,27.797 3.283,27.854 3.273,27.899 
			3.262,27.911 3.239,27.911 3.228,27.911 3.216,27.899 3.206,27.888 3.206,27.854 3.193,27.832 3.183,27.819 3.171,27.819 
			3.137,27.843 3.137,27.854 3.091,27.899 3.068,27.922 3.046,27.922 3.012,27.934 2.978,27.922 2.9,27.888 2.9,27.876 
			2.887,27.865 2.887,27.854 2.9,27.832 2.945,27.763 2.978,27.74 2.99,27.719 2.99,27.673 2.99,27.661 2.968,27.649 2.956,27.649 
			2.933,27.649 2.887,27.673 2.865,27.695 2.832,27.74 2.809,27.763 2.774,27.832 2.774,27.843 2.763,27.854 2.752,27.876 
			2.741,27.876 2.718,27.888 2.672,27.888 2.662,27.876 2.65,27.876 2.65,27.832 2.65,27.809 2.707,27.763 2.718,27.752 
			2.718,27.74 2.707,27.707 2.695,27.695 2.672,27.695 2.662,27.695 2.638,27.707 2.604,27.74 2.593,27.763 2.57,27.797 
			2.547,27.865 2.559,27.876 2.547,27.888 2.537,27.922 2.469,27.944 2.447,27.934 2.424,27.922 2.4,27.911 2.39,27.911 
			2.39,27.888 2.378,27.876 2.378,27.843 2.378,27.832 2.356,27.809 2.356,27.797 2.344,27.797 2.322,27.797 2.31,27.797 
			2.265,27.843 2.265,27.854 2.299,27.911 2.299,27.922 2.288,27.944 2.242,27.979 2.219,27.979 2.208,27.967 2.197,27.967 
			2.141,27.967 2.128,27.967 2.084,27.967 2.05,27.967 2.027,27.944 2.015,27.911 1.982,27.888 1.971,27.876 1.971,27.865 
			1.971,27.843 1.982,27.832 2.004,27.819 2.015,27.809 2.05,27.809 2.084,27.797 2.094,27.786 2.105,27.763 2.105,27.74 
			2.105,27.719 2.094,27.695 2.084,27.673 2.061,27.684 1.994,27.763 1.948,27.786 1.914,27.786 1.892,27.786 1.892,27.774 
			1.812,27.649 1.8,27.627 1.789,27.616 1.789,27.605 1.732,27.582 1.709,27.605 1.665,27.605 1.654,27.605 1.641,27.605 
			1.631,27.593 1.608,27.549 1.585,27.549 1.551,27.549 1.529,27.525 1.529,27.514 1.529,27.502 1.541,27.48 1.585,27.457 
			1.641,27.423 1.654,27.412 1.654,27.401 1.654,27.379 1.631,27.367 1.608,27.354 1.596,27.354 1.585,27.311 1.619,27.298 
			1.676,27.287 1.688,27.276 1.688,27.242 1.676,27.22 1.641,27.208 1.619,27.208 1.596,27.22 1.585,27.254 1.573,27.264 
			1.506,27.242 1.473,27.242 1.45,27.254 1.45,27.141 1.45,27.061 1.46,26.88 1.46,26.857 1.473,26.71 1.473,26.664 1.473,26.585 
			1.483,26.517 1.483,26.415 1.483,26.393 1.483,26.37 1.495,26.132 1.506,26.075 1.506,26.03 1.506,26.019 1.518,25.871 
			1.518,25.815 1.518,25.667 1.529,25.623 1.529,25.44 1.541,25.44 1.551,25.021 1.551,24.999 1.551,24.987 1.563,24.897 
			1.563,24.874 1.585,24.41 1.585,24.387 1.596,24.115 1.608,24.002 1.608,23.787 1.619,23.572 1.631,23.402 1.631,23.368 
			1.641,23.142 1.654,22.982 1.654,22.96 1.665,22.778 1.665,22.699 1.698,21.93 1.698,21.872 1.709,21.748 1.709,21.737 
			1.721,21.556 1.721,21.465 1.721,21.431 1.721,21.419 1.732,21.328 1.732,21.227 1.732,21.216 1.755,20.774 1.755,20.751 
			1.755,20.729 1.767,20.569 1.767,20.491 1.767,20.468 1.789,20.083 1.8,19.97 1.8,19.823 1.8,19.766 1.8,19.754 1.823,19.483 
			1.823,19.438 1.823,19.38 1.823,19.29 1.834,19.12 1.846,19.063 1.846,19.052 1.846,19.041 1.846,19.018 1.856,18.836 
			1.856,18.701 1.879,18.384 1.879,18.361 1.892,18.191 1.892,18.18 1.892,18.157 1.892,18.134 1.892,18.033 1.903,17.953 
			1.903,17.931 1.903,17.919 1.903,17.886 1.903,17.874 1.914,17.591 1.937,17.262 1.937,17.115 1.937,17.092 1.948,16.956 
			1.971,16.627 1.982,16.266 1.994,16.209 1.994,16.141 2.004,15.88 2.004,15.835 2.004,15.823 2.015,15.722 2.015,15.699 
			2.015,15.654 2.015,15.631 2.015,15.597 2.027,15.541 2.027,15.529 2.027,15.449 2.027,15.438 2.027,15.416 2.027,15.382 
			2.027,15.313 2.038,15.291 2.038,15.235 2.038,15.178 2.05,15.076 2.05,15.053 2.05,15.042 2.05,15.008 2.05,14.951 2.061,14.929 
			2.061,14.917 2.061,14.815 2.072,14.792 2.072,14.747 2.072,14.736 2.072,14.713 2.072,14.646 2.084,14.566 2.084,14.521 
			2.084,14.498 2.084,14.475 2.084,14.464 2.094,14.396 2.094,14.385 2.094,14.363 2.094,14.34 2.084,14.294 2.084,14.26 
			2.084,14.215 2.094,14.181 2.094,14.158 2.094,14.136 2.072,13.955 2.05,13.773 2.05,13.739 2.05,13.716 2.004,13.388 
			2.004,13.376 1.982,13.173 1.971,13.116 1.971,13.071 1.971,13.06 1.971,13.048 1.959,12.913 1.937,12.753 1.937,12.72 
			1.937,12.697 1.925,12.663 1.903,12.402 1.892,12.334 1.834,11.881 1.834,11.825 1.812,11.677 1.812,11.655 1.8,11.496 
			1.789,11.428 1.789,11.406 1.778,11.36 1.755,11.179 1.755,11.167 1.755,11.145 1.755,11.1 1.744,11.088 1.744,11.077 
			1.732,10.987 1.732,10.918 1.721,10.874 1.721,10.794 1.709,10.782 1.665,10.363 1.665,10.341 1.665,10.329 1.665,10.318 
			1.654,10.284 1.641,10.137 1.641,10.115 1.641,10.103 1.631,10.046 1.631,10.035 1.608,9.876 1.596,9.717 1.585,9.65 1.573,9.604 
			1.573,9.593 1.573,9.582 1.573,9.559 1.563,9.491 1.541,9.31 1.541,9.242 1.518,9.05 1.518,9.038 1.495,8.857 1.473,8.653 
			1.46,8.551 1.45,8.54 1.45,8.483 1.438,8.415 1.438,8.403 1.438,8.37 1.427,8.325 1.427,8.302 1.427,8.291 1.427,8.268 
			1.416,8.245 1.416,8.223 1.416,8.2 1.404,8.154 1.393,8.041 1.393,8.019 1.393,7.962 1.382,7.905 1.382,7.883 1.382,7.871 
			1.37,7.826 1.358,7.758 1.358,7.747 1.358,7.656 1.335,7.543 1.335,7.52 1.325,7.441 1.325,7.373 1.302,7.135 1.291,7.044 
			1.291,7.033 1.291,7.011 1.268,6.795 1.256,6.716 1.256,6.67 1.245,6.613 1.245,6.603 1.245,6.591 1.235,6.466 1.2,6.161 
			1.2,6.116 1.188,6.059 1.177,5.991 1.166,5.877 1.313,5.889 1.518,5.889 1.551,5.889 		"/>
		<polygon fill="#FFFFFF" points="1.551,5.889 1.732,5.9 1.767,5.9 2.004,5.9 2.027,5.9 2.141,5.9 2.163,5.912 2.197,5.912 
			2.39,5.912 2.4,5.912 2.434,5.912 2.547,5.912 2.57,5.912 2.582,5.912 2.707,5.912 2.718,5.923 2.809,5.923 2.853,5.923 
			2.91,5.923 3.001,5.923 3.171,5.934 3.228,5.934 3.239,5.934 3.262,5.934 3.273,5.934 3.59,5.945 3.715,5.945 3.727,5.945 
			3.771,5.945 3.782,5.945 3.794,5.945 3.838,5.945 4.111,5.957 4.201,5.957 4.224,5.957 4.292,5.957 4.303,5.957 4.327,5.957 
			4.428,5.957 4.87,5.968 4.916,5.968 5.039,5.968 5.062,5.968 5.107,5.98 5.119,5.98 5.142,5.98 5.312,5.98 5.334,5.98 5.369,5.98 
			5.459,5.98 5.697,5.98 5.866,5.991 5.901,5.991 6.376,5.991 6.388,5.991 6.422,5.991 6.489,6.002 6.501,6.002 6.534,6.002 
			6.591,6.002 6.648,6.002 6.705,6.002 6.75,6.002 6.829,6.002 7.407,6.014 7.826,6.025 7.86,6.025 7.905,6.025 7.961,6.025 
			7.974,6.025 8.042,6.025 8.143,6.025 8.267,6.025 8.279,6.025 8.302,6.025 8.347,6.025 8.404,6.025 8.438,6.025 8.472,6.025 
			8.516,6.036 8.528,6.036 8.539,6.036 8.597,6.036 8.857,6.036 9.026,6.036 9.14,6.036 9.412,6.047 9.593,6.047 9.661,6.047 
			9.989,6.059 10.012,6.059 10.125,6.059 10.17,6.059 10.385,6.059 10.397,6.059 10.51,6.059 10.816,6.059 10.839,6.059 
			11.008,6.059 11.088,6.07 11.315,6.07 11.349,6.07 11.427,6.07 11.564,6.07 11.802,6.07 11.893,6.07 11.903,6.07 12.22,6.081 
			12.3,6.081 12.356,6.081 13.115,6.081 13.149,6.081 13.229,6.081 13.263,6.081 13.557,6.081 13.58,6.081 13.682,6.081 
			13.75,6.081 13.761,6.081 13.841,6.081 14.033,6.081 14.044,6.081 14.226,6.081 14.281,6.081 14.339,6.081 14.384,6.093 
			14.417,6.093 14.633,6.093 14.69,6.093 14.713,6.093 14.725,6.093 14.848,6.093 15.041,6.093 15.086,6.093 15.38,6.093 
			15.392,6.093 15.653,6.093 15.664,6.093 15.674,6.093 15.754,6.093 16.049,6.093 16.127,6.093 16.23,6.081 16.366,6.093 
			16.501,6.093 16.615,6.093 16.695,6.093 16.786,6.093 16.842,6.093 17.022,6.093 17.046,6.093 17.227,6.093 17.34,6.093 
			17.374,6.093 17.545,6.093 17.76,6.093 17.771,6.081 17.884,6.081 17.94,6.081 18.123,6.081 18.145,6.081 18.166,6.081 
			18.258,6.081 18.27,6.081 18.371,6.081 18.609,6.081 18.835,6.081 18.846,6.081 18.938,6.081 19.106,6.081 19.175,6.081 
			19.265,6.081 19.355,6.081 19.391,6.081 19.47,6.081 19.583,6.081 19.594,6.081 19.639,6.081 19.65,6.081 19.661,6.081 
			19.674,6.081 19.708,6.081 19.729,6.081 19.752,6.081 19.787,6.081 19.809,6.081 19.934,6.081 19.946,6.081 19.968,6.081 
			20.002,6.081 20.104,6.081 20.273,6.093 20.296,6.093 20.353,6.093 20.376,6.093 20.534,6.093 20.546,6.093 21.011,6.081 
			21.157,6.081 21.564,6.081 21.61,6.081 21.666,6.081 21.679,6.081 21.95,6.081 22.222,6.07 22.323,6.07 22.403,6.07 22.878,6.07 
			22.89,6.059 22.936,6.059 23.106,6.059 23.207,6.059 23.218,6.059 23.343,6.059 23.434,6.059 23.444,6.059 23.717,6.059 
			23.728,6.059 23.75,6.059 23.808,6.059 23.829,6.047 23.887,6.047 24.181,6.047 24.282,6.047 24.294,6.047 24.317,6.047 
			24.396,6.047 24.725,6.047 24.838,6.036 25.076,6.036 25.11,6.036 25.166,6.036 25.324,6.036 25.37,6.036 25.438,6.036 
			25.483,6.036 25.495,6.036 25.54,6.025 25.913,6.025 26.004,6.025 26.027,6.025 26.038,6.025 26.197,6.025 26.367,6.025 
			26.412,6.014 26.445,6.014 26.741,6.014 26.968,6.014 27.047,6.014 27.104,6.014 27.42,6.002 27.533,6.002 27.636,6.002 
			27.681,6.002 27.704,6.002 27.852,6.002 27.964,5.991 28.1,5.991 28.088,6.002 28.088,6.014 28.078,6.025 28.066,6.025 
			28.055,6.025 28.055,6.036 28.066,6.036 28.078,6.047 28.078,6.07 28.055,6.07 28.055,6.081 28.066,6.093 28.055,6.116 
			28.055,6.127 28.066,6.127 28.122,6.161 28.146,6.149 28.157,6.161 28.168,6.184 28.168,6.194 28.134,6.206 28.122,6.206 
			28.1,6.194 28.078,6.229 28.078,6.252 28.146,6.252 28.157,6.252 28.168,6.252 28.168,6.263 28.168,6.274 28.179,6.297 
			28.19,6.308 28.201,6.342 28.201,6.376 28.201,6.399 28.201,6.41 28.213,6.41 28.213,6.444 28.201,6.489 28.19,6.489 
			28.168,6.489 28.157,6.512 28.157,6.534 28.157,6.546 28.19,6.568 28.201,6.568 28.213,6.557 28.213,6.546 28.213,6.557 
			28.213,6.58 28.213,6.591 28.213,6.603 28.201,6.613 28.19,6.613 28.213,6.625 28.236,6.613 28.247,6.636 28.293,6.636 
			28.326,6.659 28.338,6.67 28.372,6.693 28.384,6.693 28.395,6.682 28.405,6.682 28.463,6.693 28.541,6.716 28.553,6.727 
			28.564,6.739 28.564,6.75 28.587,6.761 28.587,6.772 28.62,6.795 28.644,6.852 28.644,6.919 28.644,6.965 28.632,7.021 
			28.61,7.044 28.587,7.089 28.564,7.089 28.564,7.101 28.587,7.124 28.587,7.146 28.576,7.158 28.564,7.192 28.587,7.203 
			28.587,7.214 28.576,7.237 28.564,7.259 28.553,7.271 28.541,7.293 28.553,7.305 28.553,7.316 28.564,7.328 28.576,7.316 
			28.62,7.361 28.644,7.396 28.644,7.418 28.654,7.441 28.62,7.498 28.62,7.509 28.61,7.509 28.576,7.554 28.587,7.6 28.541,7.667 
			28.53,7.678 28.496,7.678 28.439,7.701 28.417,7.713 28.384,7.713 28.372,7.713 28.36,7.724 28.35,7.77 28.338,7.814 
			28.305,7.883 28.293,7.894 28.27,7.894 28.27,7.905 28.27,7.917 28.28,7.939 28.293,7.951 28.305,7.951 28.305,7.962 
			28.293,7.996 28.259,8.019 28.236,8.019 28.225,8.019 28.19,8.007 28.146,8.075 28.134,8.098 28.111,8.12 28.088,8.109 
			28.078,8.098 28.042,8.12 28.009,8.143 27.975,8.154 27.952,8.188 27.931,8.188 27.919,8.177 27.907,8.211 27.896,8.223 
			27.885,8.223 27.873,8.223 27.861,8.256 27.852,8.245 27.84,8.256 27.84,8.279 27.852,8.279 27.828,8.325 27.815,8.325 
			27.782,8.347 27.771,8.347 27.76,8.336 27.727,8.336 27.681,8.426 27.669,8.46 27.669,8.472 27.636,8.528 27.669,8.573 
			27.669,8.619 27.646,8.664 27.646,8.676 27.613,8.698 27.59,8.698 27.579,8.732 27.567,8.755 27.533,8.766 27.533,8.777 
			27.521,8.777 27.51,8.777 27.5,8.766 27.488,8.777 27.454,8.823 27.42,8.845 27.387,8.845 27.308,8.868 27.295,8.868 
			27.295,8.879 27.283,8.879 27.262,8.925 27.273,8.948 27.273,8.958 27.262,8.993 27.216,9.016 27.183,9.027 27.148,9.061 
			27.137,9.061 27.137,9.083 27.137,9.117 27.148,9.14 27.148,9.163 27.137,9.197 27.059,9.23 27.047,9.276 27.047,9.287 
			27.035,9.344 27.035,9.377 27.023,9.377 27.001,9.4 26.978,9.423 26.968,9.423 26.968,9.435 26.968,9.446 26.968,9.468 
			26.956,9.503 26.956,9.525 26.956,9.537 26.956,9.548 26.922,9.593 26.877,9.627 26.854,9.661 26.831,9.707 26.797,9.763 
			26.854,9.763 27.013,9.763 27.035,9.763 27.319,9.752 27.341,9.752 27.59,9.752 27.907,9.74 27.964,9.74 28.122,9.729 
			28.314,9.729 28.326,9.729 28.36,9.729 28.372,9.729 28.395,9.729 28.417,9.717 28.428,9.717 28.463,9.717 28.654,9.717 
			28.666,9.717 28.757,9.717 29.119,9.707 29.255,9.695 29.3,9.695 29.323,9.695 29.335,9.695 29.414,9.695 29.686,9.684 
			29.719,9.684 29.844,9.684 29.855,9.684 29.89,9.684 29.935,9.684 29.991,9.672 30.048,9.672 30.274,9.672 30.479,9.661 
			30.489,9.661 30.682,9.661 30.705,9.661 30.716,9.684 30.739,9.707 30.796,9.763 30.796,9.774 30.796,9.854 30.796,9.876 
			30.796,9.899 30.829,9.933 30.853,9.956 30.92,10.001 30.999,10.046 31.056,10.092 31.091,10.137 31.192,10.205 31.214,10.239 
			31.226,10.262 31.248,10.341 31.26,10.363 31.248,10.431 31.226,10.465 31.202,10.499 31.181,10.499 31.135,10.522 31.112,10.522 
			31.067,10.511 31.033,10.477 30.999,10.42 30.829,10.363 30.716,10.375 30.603,10.431 30.592,10.431 30.569,10.442 30.523,10.477 
			30.513,10.511 30.489,10.567 30.489,10.579 30.489,10.589 30.479,10.624 30.489,10.658 30.489,10.669 30.513,10.692 
			30.513,10.703 30.547,10.726 30.637,10.76 30.67,10.771 30.75,10.794 30.875,10.862 30.908,10.884 30.92,10.896 30.92,10.907 
			30.932,10.918 30.932,10.941 30.932,10.964 30.932,10.975 30.92,10.998 30.896,11.009 30.818,11.066 30.796,11.077 30.739,11.111 
			30.682,11.111 30.592,11.077 30.547,11.077 30.547,11.088 30.443,11.123 30.354,11.213 30.343,11.247 30.354,11.292 
			30.354,11.314 30.343,11.349 30.286,11.428 30.264,11.451 30.253,11.462 30.218,11.485 30.195,11.496 30.138,11.507 30.06,11.496 
			29.991,11.542 29.957,11.564 29.901,11.609 29.878,11.609 29.832,11.587 29.811,11.542 29.696,11.485 29.686,11.485 
			29.675,11.485 29.651,11.496 29.641,11.519 29.459,11.621 29.425,11.644 29.402,11.655 29.391,11.677 29.379,11.723 
			29.379,11.757 29.379,11.791 29.391,11.848 29.402,11.961 29.402,11.995 29.414,12.028 29.425,12.028 29.437,12.062 
			29.481,12.108 29.516,12.187 29.55,12.209 29.55,12.221 29.562,12.221 29.562,12.232 29.605,12.255 29.651,12.278 29.663,12.278 
			29.708,12.289 29.754,12.289 29.811,12.278 29.832,12.266 29.844,12.255 29.844,12.244 29.855,12.244 29.855,12.232 
			29.878,12.187 29.89,12.176 29.901,12.165 29.911,12.153 29.935,12.153 29.957,12.142 29.98,12.142 29.991,12.142 29.991,12.153 
			30.002,12.153 30.026,12.187 30.037,12.209 30.048,12.232 30.048,12.244 30.048,12.289 30.048,12.334 30.037,12.368 30.037,12.38 
			30.026,12.391 30.014,12.402 30.014,12.414 29.969,12.437 29.901,12.471 29.89,12.471 29.844,12.504 29.788,12.55 29.775,12.561 
			29.765,12.561 29.754,12.561 29.719,12.55 29.686,12.539 29.641,12.584 29.562,12.618 29.481,12.663 29.448,12.697 29.425,12.72 
			29.414,12.743 29.402,12.776 29.402,12.788 29.414,12.811 29.425,12.856 29.481,12.946 29.492,12.969 29.516,13.003 
			29.584,13.037 29.617,13.037 29.663,13.037 29.675,13.048 29.696,13.06 29.708,13.083 29.708,13.093 29.696,13.104 29.696,13.127 
			29.708,13.127 29.73,13.139 29.742,13.15 29.742,13.162 29.719,13.24 29.719,13.263 29.696,13.286 29.675,13.309 29.651,13.309 
			29.629,13.309 29.572,13.286 29.562,13.286 29.492,13.275 29.481,13.275 29.459,13.263 29.448,13.252 29.425,13.229 
			29.414,13.218 29.414,13.195 29.425,13.173 29.425,13.162 29.425,13.127 29.414,13.116 29.402,13.104 29.3,13.026 29.222,12.98 
			29.198,12.969 29.164,12.969 29.152,12.969 29.108,12.98 29.085,12.991 29.052,13.014 29.04,13.014 29.006,13.014 28.983,13.014 
			28.949,13.037 28.927,13.06 28.916,13.071 28.904,13.15 28.882,13.195 28.882,13.207 28.858,13.263 28.858,13.32 28.87,13.399 
			28.882,13.456 28.893,13.49 28.949,13.58 29.04,13.648 29.052,13.671 29.052,13.683 29.052,13.693 29.028,13.751 29.017,13.773 
			29.006,13.818 29.006,13.841 29.006,13.875 29.006,13.898 28.995,13.909 28.983,13.965 28.927,14.011 28.916,14.022 
			28.904,14.034 28.893,14.068 28.893,14.079 28.882,14.102 28.858,14.125 28.837,14.136 28.825,14.125 28.801,14.125 
			28.791,14.102 28.791,14.068 28.745,14.011 28.723,13.932 28.723,13.886 28.733,13.807 28.757,13.728 28.757,13.693 
			28.757,13.683 28.723,13.648 28.711,13.638 28.678,13.615 28.644,13.592 28.61,13.592 28.564,13.603 28.541,13.615 28.507,13.615 
			28.463,13.648 28.439,13.671 28.428,13.693 28.417,13.739 28.384,13.875 28.314,13.92 28.146,14.034 28.134,14.057 28.134,14.113 
			28.088,14.305 28.088,14.328 28.122,14.363 28.168,14.385 28.293,14.385 28.35,14.363 28.305,14.283 28.28,14.227 28.28,14.192 
			28.293,14.158 28.305,14.136 28.314,14.125 28.338,14.102 28.35,14.09 28.384,14.09 28.463,14.102 28.484,14.113 28.496,14.125 
			28.52,14.158 28.541,14.17 28.587,14.215 28.61,14.237 28.644,14.25 28.689,14.294 28.7,14.294 28.723,14.305 28.666,14.418 
			28.644,14.453 28.632,14.475 28.61,14.475 28.587,14.51 28.576,14.543 28.53,14.611 28.52,14.611 28.507,14.611 28.553,14.679 
			28.553,14.69 28.53,14.747 28.52,14.895 28.474,14.906 28.451,14.895 28.439,14.906 28.384,14.929 28.338,14.94 28.27,14.917 
			28.259,14.917 28.225,14.929 28.201,14.951 28.19,14.963 28.179,14.985 28.157,15.076 28.157,15.099 28.179,15.132 28.225,15.212 
			28.27,15.269 28.338,15.291 28.395,15.28 28.439,15.269 28.484,15.269 28.52,15.269 28.553,15.269 28.587,15.291 28.599,15.302 
			28.644,15.359 28.678,15.404 28.689,15.438 28.711,15.472 28.711,15.495 28.723,15.529 28.723,15.541 28.723,15.562 
			28.711,15.562 28.7,15.575 28.689,15.575 28.678,15.575 28.666,15.585 28.654,15.597 28.632,15.654 28.62,15.71 28.61,15.722 
			28.541,15.688 28.496,15.688 28.484,15.755 28.484,15.767 28.507,15.812 28.53,15.835 28.541,15.835 28.541,15.869 28.541,15.902 
			28.541,15.914 28.553,15.925 28.564,15.937 28.587,15.948 28.61,15.971 28.644,15.994 28.666,16.004 28.791,16.016 28.801,16.027 
			28.801,16.039 28.813,16.107 28.813,16.118 28.813,16.141 28.801,16.152 28.779,16.186 28.757,16.209 28.711,16.266 
			28.689,16.276 28.666,16.288 28.599,16.299 28.553,16.288 28.36,16.175 28.338,16.163 28.326,16.163 28.259,16.197 28.236,16.22 
			28.201,16.243 28.201,16.254 28.19,16.254 28.168,16.288 28.157,16.288 28.157,16.299 28.134,16.344 28.111,16.492 28.066,16.616 
			28.032,16.719 28.032,16.764 28.042,16.798 28.042,16.866 28.032,16.9 27.998,16.934 27.998,16.945 27.941,16.979 27.919,16.991 
			27.907,16.991 27.852,16.956 27.815,16.956 27.658,16.934 27.625,16.911 27.613,16.911 27.613,16.888 27.602,16.888 
			27.442,16.877 27.42,16.888 27.409,16.911 27.387,16.979 27.353,17.059 27.329,17.115 27.329,17.161 27.329,17.171 27.329,17.183 
			27.341,17.228 27.363,17.308 27.375,17.33 27.42,17.364 27.442,17.375 27.477,17.398 27.51,17.432 27.533,17.455 27.646,17.5 
			27.658,17.511 27.681,17.522 27.704,17.545 27.715,17.58 27.727,17.591 27.727,17.602 27.737,17.647 27.737,17.772 27.737,17.828 
			27.727,17.863 27.715,17.874 27.533,18.01 27.398,18.089 27.353,18.123 27.329,18.146 27.375,18.226 27.387,18.236 27.398,18.259 
			27.398,18.282 27.387,18.304 27.363,18.338 27.341,18.361 27.295,18.35 27.273,18.338 27.216,18.293 27.16,18.236 27.114,18.282 
			27.093,18.293 26.922,18.35 26.797,18.429 26.787,18.429 26.751,18.452 26.729,18.452 26.707,18.463 26.661,18.44 26.65,18.44 
			26.616,18.384 26.604,18.327 26.604,18.282 26.604,18.259 26.616,18.213 26.616,18.191 26.604,18.168 26.57,18.089 26.57,18.078 
			26.561,18.066 26.536,18.055 26.515,18.044 26.457,18.021 26.424,18.01 26.39,18.021 26.334,18.055 26.299,18.078 26.276,18.123 
			26.276,18.146 26.276,18.18 26.276,18.236 26.276,18.248 26.288,18.248 26.288,18.259 26.288,18.271 26.299,18.271 26.299,18.282 
			26.345,18.327 26.401,18.44 26.445,18.52 26.445,18.531 26.445,18.542 26.435,18.587 26.401,18.622 26.378,18.655 26.367,18.667 
			26.355,18.678 26.345,18.712 26.345,18.735 26.345,18.758 26.345,18.769 26.355,18.78 26.367,18.848 26.445,18.961 26.48,19.041 
			26.48,19.052 26.491,19.085 26.491,19.108 26.491,19.12 26.491,19.131 26.491,19.143 26.48,19.154 26.469,19.177 26.457,19.199 
			26.378,19.245 26.322,19.267 26.265,19.267 26.186,19.267 26.107,19.233 26.083,19.211 26.062,19.165 26.062,19.131 
			26.062,19.085 26.062,19.052 26.096,19.018 26.163,18.972 26.175,18.927 26.186,18.927 26.186,18.916 26.186,18.893 
			26.163,18.848 26.107,18.735 26.096,18.689 26.083,18.689 26.05,18.689 26.004,18.701 25.992,18.701 25.959,18.712 25.937,18.735 
			25.913,18.769 25.892,18.825 25.892,18.848 25.892,18.859 25.902,18.905 25.925,18.972 25.925,19.063 25.925,19.085 
			25.913,19.108 25.902,19.12 25.88,19.131 25.869,19.143 25.846,19.143 25.823,19.154 25.8,19.165 25.789,19.188 25.777,19.211 
			25.777,19.245 25.777,19.256 25.777,19.267 25.777,19.278 25.789,19.301 25.857,19.37 25.913,19.438 25.959,19.46 26.004,19.471 
			26.016,19.471 26.027,19.471 26.038,19.471 26.062,19.483 26.072,19.471 26.141,19.46 26.197,19.448 26.209,19.448 26.219,19.448 
			26.276,19.438 26.322,19.438 26.355,19.438 26.378,19.448 26.378,19.46 26.39,19.471 26.401,19.483 26.412,19.494 26.424,19.517 
			26.424,19.528 26.435,19.539 26.435,19.562 26.424,19.584 26.412,19.642 26.39,19.676 26.378,19.686 26.334,19.743 26.276,19.789 
			26.219,19.833 26.186,19.89 26.175,19.901 26.163,19.913 26.151,19.924 26.096,19.97 26.062,19.981 26.05,19.981 26.038,19.992 
			26.016,19.992 26.004,19.992 25.992,19.992 25.982,19.992 25.971,19.992 25.948,19.981 25.937,19.981 25.925,19.97 25.913,19.97 
			25.913,19.958 25.892,19.924 25.869,19.901 25.869,19.89 25.869,19.856 25.869,19.789 25.88,19.754 25.892,19.732 25.959,19.676 
			25.971,19.652 25.959,19.584 25.948,19.562 25.937,19.539 25.902,19.505 25.892,19.483 25.88,19.471 25.857,19.471 25.812,19.483 
			25.789,19.505 25.744,19.562 25.71,19.573 25.698,19.607 25.653,19.676 25.653,19.686 25.665,19.72 25.677,19.823 25.677,19.856 
			25.687,19.879 25.687,19.89 25.677,19.935 25.665,20.003 25.665,20.083 25.71,20.173 25.744,20.242 25.777,20.298 25.812,20.332 
			25.857,20.377 25.913,20.435 25.925,20.479 25.959,20.569 25.959,20.582 25.959,20.604 25.948,20.649 25.937,20.66 25.88,20.717 
			25.789,20.763 25.732,20.831 25.722,20.841 25.722,20.854 25.698,20.921 25.687,20.944 25.677,20.978 25.677,21.012 
			25.665,21.068 25.677,21.17 25.698,21.238 25.71,21.261 25.756,21.284 25.767,21.306 25.812,21.385 25.812,21.396 25.812,21.409 
			25.812,21.419 25.823,21.431 25.823,21.442 25.823,21.465 25.812,21.476 25.812,21.487 25.8,21.51 25.8,21.522 25.8,21.533 
			25.789,21.544 25.767,21.578 25.732,21.613 25.529,21.771 25.495,21.782 25.416,21.793 25.393,21.805 25.359,21.816 
			25.257,21.885 25.268,21.907 25.245,21.963 25.2,22.031 25.2,22.043 25.2,22.088 25.245,22.179 25.268,22.247 25.268,22.28 
			25.245,22.338 25.189,22.348 25.145,22.348 25.087,22.338 25.064,22.314 25.041,22.28 25.041,22.224 25.054,22.167 25.11,22.054 
			25.121,21.986 25.11,21.952 25.099,21.94 25.054,21.94 24.997,21.963 24.928,21.975 24.849,21.975 24.814,21.975 24.792,21.963 
			24.735,21.952 24.691,21.952 24.646,21.952 24.611,21.975 24.589,21.997 24.589,22.009 24.577,22.054 24.577,22.11 24.589,22.121 
			24.601,22.134 24.68,22.201 24.691,22.224 24.701,22.224 24.713,22.247 24.725,22.258 24.725,22.27 24.735,22.303 24.747,22.348 
			24.747,22.405 24.735,22.439 24.68,22.529 24.668,22.553 24.646,22.563 24.601,22.597 24.565,22.608 24.555,22.608 24.544,22.608 
			24.532,22.597 24.509,22.597 24.498,22.597 24.396,22.587 24.386,22.587 24.374,22.587 24.362,22.597 24.306,22.608 24.26,22.62 
			24.249,22.631 24.238,22.644 24.227,22.644 24.215,22.654 24.203,22.666 24.203,22.677 24.192,22.677 24.192,22.699 
			24.181,22.733 24.181,22.745 24.169,22.768 24.159,22.835 24.159,22.847 24.147,22.893 24.147,22.938 24.147,22.949 
			24.147,22.972 24.147,22.982 24.147,23.017 24.147,23.039 24.136,23.051 24.136,23.062 24.136,23.084 24.113,23.131 
			24.102,23.164 24.067,23.142 24.045,23.119 23.977,23.119 23.898,23.097 23.808,23.028 23.785,23.006 23.773,22.994 
			23.739,22.903 23.739,22.893 23.728,22.881 23.717,22.881 23.706,22.869 23.694,22.869 23.683,22.869 23.627,22.869 
			23.591,22.881 23.558,22.915 23.547,22.938 23.547,22.949 23.547,22.96 23.535,22.96 23.547,23.017 23.558,23.073 23.569,23.097 
			23.569,23.107 23.671,23.221 23.671,23.231 23.683,23.243 23.694,23.255 23.706,23.255 23.706,23.266 23.829,23.322 
			23.854,23.346 23.887,23.322 23.909,23.322 23.933,23.334 23.954,23.334 23.966,23.334 23.988,23.334 24,23.334 24.033,23.312 
			24.045,23.312 24.102,23.312 24.159,23.322 24.215,23.322 24.282,23.334 24.294,23.334 24.317,23.346 24.328,23.368 24.34,23.379 
			24.34,23.391 24.35,23.447 24.35,23.493 24.328,23.537 24.294,23.584 24.26,23.628 24.238,23.641 24.215,23.651 24.169,23.674 
			24.102,23.674 24.067,23.674 24,23.651 23.977,23.641 23.921,23.594 23.887,23.572 23.808,23.504 23.75,23.481 23.717,23.47 
			23.547,23.594 23.444,23.674 23.41,23.73 23.422,23.775 23.434,23.81 23.444,23.82 23.479,23.878 23.49,23.89 23.648,24.002 
			23.671,24.014 23.694,24.014 23.773,24.002 23.818,23.968 23.854,23.968 23.887,23.979 23.909,23.99 23.933,24.014 23.954,24.06 
			23.966,24.081 23.966,24.104 23.954,24.127 23.943,24.161 23.898,24.229 23.875,24.263 23.863,24.285 23.854,24.309 
			23.854,24.354 23.863,24.41 23.863,24.433 23.863,24.443 23.863,24.455 23.854,24.478 23.842,24.5 23.829,24.5 23.796,24.524 
			23.694,24.546 23.648,24.534 23.637,24.534 23.569,24.558 23.523,24.568 23.479,24.568 23.422,24.558 23.354,24.546 
			23.309,24.546 23.274,24.558 23.241,24.568 23.297,24.705 23.309,24.738 23.354,24.772 23.41,24.853 23.41,24.864 23.41,24.874 
			23.41,24.886 23.41,24.897 23.4,24.954 23.389,24.966 23.377,24.978 23.354,24.987 23.321,24.999 23.274,25.011 23.253,24.999 
			23.229,24.999 23.207,24.987 23.196,24.978 23.174,24.966 23.15,24.932 23.139,24.886 23.082,24.749 23.049,24.682 22.958,24.749 
			22.924,24.795 22.901,24.807 22.868,24.829 22.788,24.829 22.731,24.829 22.697,24.841 22.675,24.853 22.652,24.864 22.63,24.897 
			22.618,24.92 22.618,24.942 22.618,24.954 22.618,24.966 22.618,24.978 22.618,24.987 22.618,24.999 22.618,25.011 22.63,25.021 
			22.652,25.045 22.686,25.057 22.878,25.101 22.947,25.135 23.049,25.181 23.094,25.215 23.106,25.237 23.106,25.25 23.116,25.259 
			23.106,25.271 23.07,25.316 23.015,25.396 22.947,25.464 22.936,25.485 22.844,25.577 22.834,25.588 22.799,25.623 22.743,25.712 
			22.731,25.736 22.721,25.78 22.731,25.838 22.765,25.905 22.776,25.927 22.834,25.984 22.856,26.03 22.868,26.064 22.89,26.086 
			22.911,26.109 23.025,26.155 23.037,26.166 23.059,26.166 23.139,26.189 23.174,26.199 23.184,26.199 23.229,26.257 23.253,26.29 
			23.253,26.302 23.253,26.312 23.253,26.348 23.241,26.37 23.218,26.404 23.184,26.428 23.106,26.472 23.037,26.483 23.015,26.472 
			22.844,26.358 22.811,26.37 22.652,26.381 22.63,26.393 22.516,26.428 22.493,26.393 22.482,26.393 22.471,26.381 22.448,26.37 
			22.415,26.348 22.38,26.337 22.357,26.337 22.347,26.337 22.335,26.348 22.323,26.358 22.312,26.381 22.3,26.404 22.278,26.449 
			22.278,26.483 22.29,26.495 22.3,26.505 22.312,26.505 22.3,26.539 22.29,26.574 22.29,26.585 22.29,26.607 22.278,26.688 
			22.278,26.71 22.278,26.743 22.29,26.755 22.369,26.847 22.403,26.891 22.459,26.914 22.516,26.925 22.528,26.914 22.538,26.914 
			22.562,26.914 22.572,26.914 22.63,26.901 22.721,26.847 22.765,26.834 22.788,26.834 22.799,26.834 22.811,26.834 22.811,26.847 
			22.821,26.847 22.834,26.857 22.844,26.857 22.901,26.901 22.936,26.948 22.947,26.97 22.958,27.004 22.969,27.027 22.98,27.038 
			23.003,27.038 23.003,27.083 22.991,27.117 22.98,27.141 22.98,27.151 22.958,27.163 22.901,27.187 22.878,27.187 22.821,27.196 
			22.776,27.23 22.709,27.264 22.663,27.276 22.652,27.276 22.642,27.276 22.642,27.264 22.618,27.264 22.605,27.264 22.562,27.254 
			22.38,27.141 22.357,27.129 22.29,27.038 22.267,27.004 22.188,26.914 22.188,26.901 22.177,26.901 22.152,26.914 22.097,26.937 
			22.006,26.948 21.938,26.948 21.904,26.948 21.904,26.958 21.883,26.97 21.87,26.97 21.859,26.981 21.813,27.016 21.791,27.049 
			21.77,27.083 21.77,27.129 21.77,27.174 21.779,27.196 21.803,27.22 21.803,27.23 21.825,27.242 21.837,27.254 21.859,27.264 
			21.87,27.264 21.894,27.276 21.927,27.276 22.029,27.298 22.04,27.311 22.075,27.321 22.085,27.321 22.131,27.344 22.165,27.379 
			22.256,27.457 22.323,27.502 22.323,27.514 22.335,27.525 22.357,27.56 22.38,27.616 22.38,27.661 22.38,27.695 22.38,27.707 
			22.369,27.729 22.357,27.74 22.335,27.774 22.244,27.832 22.222,27.843 22.199,27.843 22.097,27.832 22.085,27.832 22.075,27.843 
			22.018,27.876 21.961,27.911 21.927,27.922 21.825,27.944 21.813,27.944 21.803,27.944 21.77,27.967 21.757,27.989 21.757,28.001 
			21.746,28.024 21.746,28.058 21.757,28.092 21.77,28.103 21.791,28.148 21.837,28.205 21.859,28.228 22.029,28.375 22.04,28.397 
			22.052,28.42 22.052,28.443 22.04,28.478 22.018,28.499 21.984,28.533 21.961,28.579 21.916,28.646 21.916,28.67 21.904,28.681 
			21.859,28.714 21.837,28.726 21.813,28.726 21.757,28.771 21.757,28.794 21.746,28.873 21.746,28.885 21.734,28.896 
			21.734,28.907 21.825,28.931 21.847,28.94 21.894,28.94 21.916,28.94 21.927,28.94 21.961,28.931 21.994,28.931 22.04,28.907 
			22.075,28.896 22.097,28.873 22.152,28.805 22.131,28.726 22.109,28.658 22.119,28.602 22.119,28.567 22.119,28.533 
			22.143,28.511 22.152,28.511 22.165,28.511 22.199,28.499 22.222,28.499 22.357,28.591 22.425,28.646 22.459,28.748 
			22.471,28.794 22.471,28.828 22.448,28.873 22.403,28.919 22.391,28.94 22.391,28.952 22.38,28.964 22.335,28.998 22.3,28.986 
			22.29,28.986 22.188,29.031 22.131,29.056 22.109,29.066 22.085,29.066 22.052,29.056 22.006,29.066 21.961,29.066 21.938,29.077 
			21.927,29.089 21.904,29.134 21.904,29.146 21.904,29.167 21.916,29.179 21.927,29.202 22.006,29.27 22.018,29.27 22.075,29.304 
			22.109,29.326 22.143,29.338 22.177,29.35 22.244,29.338 22.323,29.326 22.415,29.258 22.471,29.213 22.516,29.179 22.572,29.111 
			22.596,29.056 22.596,28.998 22.596,28.952 22.596,28.94 22.605,28.907 22.618,28.873 22.642,28.851 22.663,28.805 22.697,28.783 
			22.721,28.771 22.743,28.771 22.788,28.783 22.799,28.794 22.834,28.817 22.844,28.84 22.844,28.851 22.844,28.976 22.844,28.986 
			22.821,29.031 22.776,29.1 22.743,29.146 22.709,29.179 22.686,29.202 22.652,29.247 22.596,29.304 22.584,29.304 22.55,29.338 
			22.459,29.463 22.438,29.496 22.335,29.553 22.323,29.564 22.323,29.576 22.335,29.666 22.335,29.689 22.323,29.689 
			22.323,29.699 22.323,29.711 22.323,29.723 22.323,29.735 22.335,29.836 22.335,29.926 22.335,29.938 22.347,29.961 
			22.438,30.085 22.438,30.131 22.415,30.176 22.482,30.222 22.493,30.233 22.505,30.278 22.505,30.289 22.528,30.347 
			22.562,30.369 22.596,30.402 22.605,30.402 22.618,30.369 22.63,30.312 22.652,30.278 22.652,30.256 22.663,30.233 22.686,30.131 
			22.697,30.097 22.709,30.074 22.731,30.062 22.765,30.041 22.799,30.029 22.856,30.029 22.89,30.041 22.924,30.062 22.936,30.097 
			22.947,30.12 22.947,30.164 22.936,30.188 22.924,30.233 22.911,30.301 22.89,30.335 22.821,30.402 22.811,30.437 22.799,30.437 
			22.776,30.46 22.776,30.481 22.765,30.481 22.743,30.481 22.731,30.481 22.731,30.506 22.709,30.527 22.686,30.527 22.652,30.527 
			22.663,30.606 22.686,30.696 22.697,30.821 22.697,30.969 22.697,30.98 22.697,31.002 22.697,31.015 22.686,31.037 22.686,31.07 
			22.686,31.094 22.675,31.105 22.663,31.139 22.652,31.149 22.572,31.195 22.516,31.207 22.415,31.219 22.403,31.219 
			22.335,31.207 22.29,31.207 22.278,31.195 22.267,31.173 22.222,31.128 22.222,31.116 22.21,31.116 22.199,31.116 22.177,31.116 
			22.165,31.116 22.152,31.116 22.075,31.128 22.052,31.139 22.04,31.139 22.018,31.161 22.006,31.173 21.961,31.253 21.961,31.274 
			21.972,31.365 21.972,31.376 21.972,31.388 21.984,31.388 21.994,31.399 22.006,31.399 22.052,31.422 22.063,31.434 
			22.097,31.445 22.143,31.501 22.143,31.513 22.152,31.524 22.199,31.535 22.222,31.535 22.29,31.569 22.323,31.592 22.459,31.693 
			22.471,31.739 22.482,31.762 22.482,31.773 22.459,31.83 22.448,31.887 22.425,31.933 22.38,31.966 22.347,31.978 22.3,31.978 
			22.256,32 22.222,32.034 22.199,32.091 22.199,32.146 21.576,32.146 21.451,32.146 21.315,32.146 21.281,32.146 21.214,32.146 
			21.202,32.146 21.191,32.146 21.168,32.146 21.146,32.146 20.987,32.146 20.873,32.146 20.567,32.146 20.5,32.146 20.387,32.146 
			20.353,32.146 20.171,32.146 20.093,32.146 19.729,32.146 19.639,32.146 19.594,32.146 19.412,32.146 19.355,32.146 
			19.322,32.146 19.299,32.146 19.096,32.146 18.982,32.146 18.938,32.146 18.846,32.146 18.619,32.146 18.496,32.146 
			18.213,32.146 18.11,32.146 17.964,32.146 17.771,32.146 17.737,32.146 17.272,32.146 17.261,32.146 17.092,32.146 16.954,32.146 
			16.525,32.135 15.766,32.135 15.562,32.135 15.551,32.135 15.121,32.124 14.927,32.124 14.848,32.124 14.792,32.124 
			14.677,32.113 14.644,32.113 14.633,32.113 14.497,32.113 14.191,32.113 13.999,32.102 13.807,32.102 13.795,32.102 13.67,32.102 
			13.659,32.102 13.625,32.102 12.787,32.079 12.606,32.079 12.538,32.079 12.504,32.079 12.481,32.079 12.458,32.079 
			12.414,32.079 12.402,32.079 12.345,32.079 11.949,32.067 11.88,32.067 11.734,32.067 11.655,32.057 11.586,32.057 11.507,32.057 
			11.336,32.057 11.008,32.045 10.929,32.045 10.85,32.045 10.781,32.045 10.737,32.045 10.442,32.034 10.228,32.034 10.216,32.034 
			10.159,32.034 10.035,32.034 9.922,32.034 9.865,32.034 9.832,32.034 9.707,32.023 9.684,32.023 9.434,32.023 9.321,32.023 
			9.275,32.023 9.264,32.023 9.173,32.023 8.732,32.012 8.528,32.012 8.302,32.012 8.211,32 8.189,32 7.996,32 7.917,32 7.769,32 
			7.736,32 7.599,32 7.588,32 7.577,32 7.396,31.988 7.373,31.988 7.328,31.988 6.829,31.978 6.648,31.978 6.433,31.966 
			6.422,31.966 6.33,31.966 6.24,31.966 6.229,31.966 6.127,31.966 5.617,31.954 5.55,31.954 5.074,31.944 5.039,31.944 
			4.893,31.944 4.689,31.944 4.236,31.933 4.213,31.933 4.168,31.933 4.123,31.933 4.123,31.479 4.133,31.376 4.133,31.195 
			4.133,31.07 4.133,31.037 4.133,31.002 4.146,30.879 4.146,30.584 4.146,30.562 4.146,30.47 4.157,30.268 4.157,30.21 
			4.157,30.131 4.157,30.052 4.168,29.609 4.168,29.542 4.168,29.509 4.168,29.484 4.168,29.451 4.168,29.439 4.168,29.394 
			4.168,29.304 4.168,29.258 4.168,29.247 4.168,29.202 4.168,29.179 4.18,29.089 4.18,29.044 4.18,28.986 4.18,28.94 4.18,28.873 
			4.18,28.861 4.18,28.828 4.18,28.817 4.18,28.805 4.18,28.794 4.18,28.748 4.18,28.726 4.18,28.692 4.18,28.658 4.18,28.635 
			4.18,28.567 4.19,28.42 4.19,28.408 4.19,28.397 4.19,28.387 4.19,28.024 4.19,27.955 4.18,27.955 4.157,27.955 4.146,27.944 
			4.111,27.967 4.077,27.967 4.055,27.955 4.032,27.944 4.021,27.934 4.009,27.922 4.009,27.899 4.021,27.899 4.042,27.888 
			4.055,27.888 4.089,27.899 4.111,27.888 4.123,27.876 4.123,27.843 4.111,27.832 4.089,27.832 4.055,27.832 4.042,27.819 
			4.042,27.809 4.042,27.786 4.032,27.786 4.021,27.786 4.021,27.797 4.009,27.797 3.952,27.774 3.918,27.774 3.861,27.786 
			3.838,27.797 3.827,27.809 3.76,27.832 3.715,27.832 3.715,27.843 3.715,27.876 3.704,27.934 3.692,27.944 3.669,27.955 
			3.659,27.955 3.646,27.934 3.636,27.899 3.625,27.819 3.625,27.797 3.612,27.797 3.568,27.843 3.556,27.843 3.544,27.843 
			3.521,27.819 3.521,27.809 3.521,27.797 3.533,27.786 3.556,27.763 3.579,27.752 3.579,27.74 3.579,27.719 3.568,27.719 
			3.556,27.719 3.544,27.729 3.511,27.763 3.488,27.763 3.465,27.74 3.454,27.729 3.465,27.673 3.454,27.661 3.374,27.649 
			3.341,27.64 3.318,27.616 3.306,27.649 3.283,27.673 3.25,27.707 3.239,27.719 3.228,27.719 3.193,27.719 3.183,27.719 
			3.148,27.707 3.137,27.695 3.125,27.695 3.115,27.719 3.115,27.729 3.115,27.752 3.148,27.774 3.16,27.774 3.171,27.763 
			3.193,27.763 3.216,27.752 3.239,27.763 3.25,27.774 3.262,27.797 3.283,27.854 3.273,27.899 3.262,27.911 3.239,27.911 
			3.228,27.911 3.216,27.899 3.206,27.888 3.206,27.854 3.193,27.832 3.183,27.819 3.171,27.819 3.137,27.843 3.137,27.854 
			3.091,27.899 3.068,27.922 3.046,27.922 3.012,27.934 2.978,27.922 2.9,27.888 2.9,27.876 2.887,27.865 2.887,27.854 2.9,27.832 
			2.945,27.763 2.978,27.74 2.99,27.719 2.99,27.673 2.99,27.661 2.968,27.649 2.956,27.649 2.933,27.649 2.887,27.673 
			2.865,27.695 2.832,27.74 2.809,27.763 2.774,27.832 2.774,27.843 2.763,27.854 2.752,27.876 2.741,27.876 2.718,27.888 
			2.672,27.888 2.662,27.876 2.65,27.876 2.65,27.832 2.65,27.809 2.707,27.763 2.718,27.752 2.718,27.74 2.707,27.707 
			2.695,27.695 2.672,27.695 2.662,27.695 2.638,27.707 2.604,27.74 2.593,27.763 2.57,27.797 2.547,27.865 2.559,27.876 
			2.547,27.888 2.537,27.922 2.469,27.944 2.447,27.934 2.424,27.922 2.4,27.911 2.39,27.911 2.39,27.888 2.378,27.876 
			2.378,27.843 2.378,27.832 2.356,27.809 2.356,27.797 2.344,27.797 2.322,27.797 2.31,27.797 2.265,27.843 2.265,27.854 
			2.299,27.911 2.299,27.922 2.288,27.944 2.242,27.979 2.219,27.979 2.208,27.967 2.197,27.967 2.141,27.967 2.128,27.967 
			2.084,27.967 2.05,27.967 2.027,27.944 2.015,27.911 1.982,27.888 1.971,27.876 1.971,27.865 1.971,27.843 1.982,27.832 
			2.004,27.819 2.015,27.809 2.05,27.809 2.084,27.797 2.094,27.786 2.105,27.763 2.105,27.74 2.105,27.719 2.094,27.695 
			2.084,27.673 2.061,27.684 1.994,27.763 1.948,27.786 1.914,27.786 1.892,27.786 1.892,27.774 1.812,27.649 1.8,27.627 
			1.789,27.616 1.789,27.605 1.732,27.582 1.709,27.605 1.665,27.605 1.654,27.605 1.641,27.605 1.631,27.593 1.608,27.549 
			1.585,27.549 1.551,27.549 1.529,27.525 1.529,27.514 1.529,27.502 1.541,27.48 1.585,27.457 1.641,27.423 1.654,27.412 
			1.654,27.401 1.654,27.379 1.631,27.367 1.608,27.354 1.596,27.354 1.585,27.311 1.619,27.298 1.676,27.287 1.688,27.276 
			1.688,27.242 1.676,27.22 1.641,27.208 1.619,27.208 1.596,27.22 1.585,27.254 1.573,27.264 1.506,27.242 1.473,27.242 
			1.45,27.254 1.45,27.141 1.45,27.061 1.46,26.88 1.46,26.857 1.473,26.71 1.473,26.664 1.473,26.585 1.483,26.517 1.483,26.415 
			1.483,26.393 1.483,26.37 1.495,26.132 1.506,26.075 1.506,26.03 1.506,26.019 1.518,25.871 1.518,25.815 1.518,25.667 
			1.529,25.623 1.529,25.44 1.541,25.44 1.551,25.021 1.551,24.999 1.551,24.987 1.563,24.897 1.563,24.874 1.585,24.41 
			1.585,24.387 1.596,24.115 1.608,24.002 1.608,23.787 1.619,23.572 1.631,23.402 1.631,23.368 1.641,23.142 1.654,22.982 
			1.654,22.96 1.665,22.778 1.665,22.699 1.698,21.93 1.698,21.872 1.709,21.748 1.709,21.737 1.721,21.556 1.721,21.465 
			1.721,21.431 1.721,21.419 1.732,21.328 1.732,21.227 1.732,21.216 1.755,20.774 1.755,20.751 1.755,20.729 1.767,20.569 
			1.767,20.491 1.767,20.468 1.789,20.083 1.8,19.97 1.8,19.823 1.8,19.766 1.8,19.754 1.823,19.483 1.823,19.438 1.823,19.38 
			1.823,19.29 1.834,19.12 1.846,19.063 1.846,19.052 1.846,19.041 1.846,19.018 1.856,18.836 1.856,18.701 1.879,18.384 
			1.879,18.361 1.892,18.191 1.892,18.18 1.892,18.157 1.892,18.134 1.892,18.033 1.903,17.953 1.903,17.931 1.903,17.919 
			1.903,17.886 1.903,17.874 1.914,17.591 1.937,17.262 1.937,17.115 1.937,17.092 1.948,16.956 1.971,16.627 1.982,16.266 
			1.994,16.209 1.994,16.141 2.004,15.88 2.004,15.835 2.004,15.823 2.015,15.722 2.015,15.699 2.015,15.654 2.015,15.631 
			2.015,15.597 2.027,15.541 2.027,15.529 2.027,15.449 2.027,15.438 2.027,15.416 2.027,15.382 2.027,15.313 2.038,15.291 
			2.038,15.235 2.038,15.178 2.05,15.076 2.05,15.053 2.05,15.042 2.05,15.008 2.05,14.951 2.061,14.929 2.061,14.917 2.061,14.815 
			2.072,14.792 2.072,14.747 2.072,14.736 2.072,14.713 2.072,14.646 2.084,14.566 2.084,14.521 2.084,14.498 2.084,14.475 
			2.084,14.464 2.094,14.396 2.094,14.385 2.094,14.363 2.094,14.34 2.084,14.294 2.084,14.26 2.084,14.215 2.094,14.181 
			2.094,14.158 2.094,14.136 2.072,13.955 2.05,13.773 2.05,13.739 2.05,13.716 2.004,13.388 2.004,13.376 1.982,13.173 
			1.971,13.116 1.971,13.071 1.971,13.06 1.971,13.048 1.959,12.913 1.937,12.753 1.937,12.72 1.937,12.697 1.925,12.663 
			1.903,12.402 1.892,12.334 1.834,11.881 1.834,11.825 1.812,11.677 1.812,11.655 1.8,11.496 1.789,11.428 1.789,11.406 
			1.778,11.36 1.755,11.179 1.755,11.167 1.755,11.145 1.755,11.1 1.744,11.088 1.744,11.077 1.732,10.987 1.732,10.918 
			1.721,10.874 1.721,10.794 1.709,10.782 1.665,10.363 1.665,10.341 1.665,10.329 1.665,10.318 1.654,10.284 1.641,10.137 
			1.641,10.115 1.641,10.103 1.631,10.046 1.631,10.035 1.608,9.876 1.596,9.717 1.585,9.65 1.573,9.604 1.573,9.593 1.573,9.582 
			1.573,9.559 1.563,9.491 1.541,9.31 1.541,9.242 1.518,9.05 1.518,9.038 1.495,8.857 1.473,8.653 1.46,8.551 1.45,8.54 
			1.45,8.483 1.438,8.415 1.438,8.403 1.438,8.37 1.427,8.325 1.427,8.302 1.427,8.291 1.427,8.268 1.416,8.245 1.416,8.223 
			1.416,8.2 1.404,8.154 1.393,8.041 1.393,8.019 1.393,7.962 1.382,7.905 1.382,7.883 1.382,7.871 1.37,7.826 1.358,7.758 
			1.358,7.747 1.358,7.656 1.335,7.543 1.335,7.52 1.325,7.441 1.325,7.373 1.302,7.135 1.291,7.044 1.291,7.033 1.291,7.011 
			1.268,6.795 1.256,6.716 1.256,6.67 1.245,6.613 1.245,6.603 1.245,6.591 1.235,6.466 1.2,6.161 1.2,6.116 1.188,6.059 
			1.177,5.991 1.166,5.877 1.313,5.889 1.518,5.889 		"/>
	</g>
</g>
</svg>
