<?xml version="1.0" encoding="utf-8"?>
<!-- Generator: Adobe Illustrator 16.0.0, SVG Export Plug-In . SVG Version: 6.00 Build 0)  -->
<!DOCTYPE svg PUBLIC "-//W3C//DTD SVG 1.1//EN" "http://www.w3.org/Graphics/SVG/1.1/DTD/svg11.dtd">
<svg version="1.1" id="de" xmlns="http://www.w3.org/2000/svg" xmlns:xlink="http://www.w3.org/1999/xlink" x="0px" y="0px"
	 width="32px" height="42px" viewBox="0 0 32 42" enable-background="new 0 0 32 42" xml:space="preserve">
<g>
	
		<path fill="#FFFFFF" stroke="#404041" stroke-width="0.1" stroke-linecap="round" stroke-linejoin="round" stroke-miterlimit="3.85" d="
		M10.397,16.906v-0.01v-0.081l-0.051-0.896l-0.021-0.285l-0.01-0.174l-0.01-0.213l-0.051-0.794l-0.03-0.61l-0.031-0.418l-0.02-0.314
		l-0.062-1.11v-0.01V11.97l-0.02-0.294l-0.03-0.448v-0.112l-0.011-0.092v-0.071l-0.01-0.102v-0.123l-0.011-0.204l-0.01-0.091
		l-0.01-0.224L10,10.027L9.99,9.884v-0.02V9.772L9.98,9.629V9.568V9.527v-0.04L9.969,9.457l0.011-0.04V9.182V9.081V9.04V9.02V8.988
		v-0.02V8.714v-0.02V8.591V8.195V8.144l0.244-0.01l0.01-0.041l0.091-0.225l0.021-0.05l0.091-0.193l0.092-0.173l0.021-0.041
		l0.029-0.051l0.072-0.102v-0.01l0.021-0.02l0.021-0.031l0.041-0.061l0.01-0.01l0.03-0.03l0.01-0.021l0.032-0.041l0.042-0.041
		l0.061-0.071l0.051-0.061l0.03-0.031l0.01-0.01l0.011-0.011l0.03-0.03l0.02-0.02l0.021-0.021l0.011-0.01l0.03-0.03l0.133-0.112
		l0.041-0.041l0.02-0.02l0.05-0.041l0.112-0.082l0.113-0.081l0.019-0.01l0.051-0.031l0.03-0.02h0.011l0.061-0.041l0.214-0.112
		l0.061-0.031l0.021-0.01l0.265-0.112l0.101-0.041l0.286-0.071l0.335-0.072h0.03l0.225-0.02l0.152-0.01l0.264,0.01h0.205h0.02
		l0.336,0.041l0.102,0.02l0.204,0.041l0.101,0.03l0.183,0.061l0.123,0.051h0.01l0.154,0.061l0.06,0.02l0.082,0.041l0.01,0.01h0.01
		l0.04,0.031l0.215,0.112v0.01l0.051,0.02l0.091,0.051l0.204,0.153l0.152,0.122L15.739,6.8l-0.153,0.071l-0.021,0.01l-0.092,0.102
		l-0.082,0.091l0.011,0.01l0.01,0.01l-0.081,0.091L15.22,7.248L15.18,7.31l-0.02,0.03v0.061l-0.032,0.102l-0.021,0.061l-0.042,0.142
		l-0.02,0.041l-0.031,0.051l-0.031,0.061v0.02L14.976,7.92L14.965,7.96v0.051l-0.031,0.082v0.091l0.011,0.041l-0.021,0.071
		l-0.02,0.02l-0.042-0.01l-0.011-0.01l-0.009-0.011l-0.032-0.009l-0.06,0.02L14.71,8.378l-0.02,0.041l-0.01,0.04L14.63,8.571
		l-0.121,0.071l-0.052,0.02l-0.031,0.051l-0.01,0.163v0.01L14.1,8.755l-0.01,0.02L14.04,8.846l-0.102,0.143L13.866,9.09
		l-0.193,0.275l-0.082,0.112v0.01l-0.011,0.01l-0.162,0.051h-0.021l-0.142,0.041l-0.072,0.021L13.154,9.66l-0.05,0.072l-0.132,0.193
		l-0.184,0.285l-0.021,0.02v0.01l-0.01,0.041l-0.021,0.051l0.011,0.03l0.02,0.031l-0.01,0.01l0.01,0.112l-0.01,0.01v0.01
		l0.031,0.184l0.112,0.152l0.021,0.02l0.02,0.01l0.164,0.102v0.01l0.07,0.051l0.01,0.01v0.02l0.01,0.01l0.235,0.224l0.01,0.01
		l0.122,0.102l-0.01,0.031l-0.011,0.02l-0.02,0.031l-0.061,0.366v0.031l-0.011,0.244l0.153,0.143L13.5,12.551l-0.143-0.01h-0.01
		l-0.103,0.152l-0.081,0.111v0.021l-0.072,0.275l-0.01,0.052v0.029l0.052,0.326l0.009,0.03l0.142,0.204l0.012,0.04l0.01,0.021
		l0.122,0.111v0.031l-0.011,0.041l0.255,0.173l0.274,0.284l0.041,0.152l0.204,0.367l0.032,0.072l0.13,0.447l0.012,0.01l0.009,0.01
		l0.102,0.133l0.183,0.092l0.042,0.051l-0.042,0.111l0.021,0.021l0.021,0.03l0.021,0.03l0.162,0.112v0.01l0.173,0.122l0.142,0.051
		l0.348,0.306l0.029,0.081l0.021,0.244v0.021l0.122,0.243l0.315,0.417l0.082,0.204l-0.03,0.184v0.01l-0.01,0.04v0.407l0.021,0.021
		l0.122,0.133l0.062,0.244l-0.031,0.336l-0.062,0.03h-0.02l-0.133,0.245l-0.041,0.387l0.031,0.264l0.122,1.121l-0.011,0.447
		l0.032,0.029l0.071,0.133l-0.01,0.031l0.132,0.132l0.131,0.051l0.367,0.336l0.184,0.163l0.072,0.091l0.363,0.662l0.062,0.153
		l0.051,0.264l-0.02,0.347v0.041l0.008,0.061v0.011l0.012,0.02l0.145,0.113l-0.156,0.295l0.135,0.244l0.193,0.213l0.201,0.224
		l0.268,0.295v0.011l0.365,0.488l0.031,0.04l0.061,0.093l0.041,0.052l0.051,0.05l0.029,0.021l0.02,0.03l0.336,0.326l0.234,0.346
		l0.479,0.315l0.021,0.01l0.008,0.011l0.145,0.061l0.111,0.041l0.152,0.062l0.336-0.011l0.123-0.061l0.131-0.062l0.053-0.111h0.01
		h-0.01l-0.021-0.081l-0.031-0.103l0.053-0.02l0.01,0.01l0.061,0.132l0.121,0.509l0.033,0.458l0.008,0.122v0.04l0.012,0.083
		l0.02,0.11v0.041v0.021l0.041,0.265l0.031,0.204l0.01,0.05l0.039,0.337l0.012,0.071l0.008,0.071l0.064,0.418l0.008,0.59
		l0.051,0.488h0.01l0.012,0.01l0.012,0.01l0.029,0.347v0.062l0.039,0.488l0.021,0.377l0.02,0.294l0.02,0.205v0.04l0.02,0.244
		l0.033,0.447l0.01,0.387v0.225v0.112h-0.051h-0.02H21.6h-0.01h-0.012h-0.061h-0.012h-0.039h-0.205h-0.029h-0.039h-0.846
		l-0.701,0.01h-0.012H19.33h-0.225h-0.141H18.82l-0.264-0.01h-0.121h-0.217h-0.934l-0.164-0.01h-0.232h-0.254h-0.355h-0.021h-0.265
		l-0.224-0.011h-0.06l-0.255-0.011l-0.417-0.01h-0.122h-0.031l-0.335-0.01h-0.051l-0.295-0.01h-0.021l-0.183-0.012h-0.041
		l-0.254-0.01h-0.051h-0.031h-0.011h-0.02h-0.011h-0.008h-0.011h-0.021H13.53h-0.009h-0.01l-0.164-0.01h-0.112l-0.03-0.01h-0.011
		l-0.09,0.01l-0.061-0.01l-0.082-0.011l-0.529-0.021l-0.284-0.01l-0.235-0.011h-0.05l-0.396-0.02l-0.051-0.012l-0.042-0.659
		l-0.01-0.083l-0.021-0.305l-0.01-0.224l-0.021-0.428l-0.02-0.347v-0.02v-0.021l-0.03-0.489l-0.011-0.143l-0.02-0.468l-0.011-0.031
		V30.83l-0.01-0.102L11.2,30.546l-0.082-1.456l-0.07-1.241l-0.021-0.307l-0.03-0.437l-0.021-0.417l-0.009-0.162v-0.062l-0.021-0.274
		v-0.03l-0.01-0.163l-0.011-0.254l-0.008-0.021l-0.031-0.541l-0.042-0.772v-0.041l-0.03-0.447v-0.021l-0.091-1.485l-0.012-0.296
		l-0.039-0.55v-0.07l-0.01-0.133l-0.011-0.295l-0.03-0.337v-0.081l-0.01-0.111l-0.021-0.469l-0.029-0.447l-0.021-0.265V19.35
		l-0.021-0.438l-0.05-0.957l-0.021-0.254l-0.02-0.316L10.397,16.906z M13.684,10.546l-0.104,0.01l-0.008-0.01l-0.082-0.163
		l-0.061-0.204l0.01-0.061l0.172-0.061l0.011-0.011l0.011,0.021l-0.011,0.102l0.021,0.143l0.021,0.102l-0.011,0.061l0.011,0.051
		L13.684,10.546z M13.53,11.014l-0.172-0.102l-0.04-0.072l-0.02-0.152l0.223,0.173L13.53,11.014z"/>
</g>
<g display="none">
	<g display="inline">
		<radialGradient id="SVGID_1_" cx="15.9111" cy="20.042" r="10.9498" gradientUnits="userSpaceOnUse">
			<stop  offset="0" style="stop-color:#EA1D25"/>
			<stop  offset="0.2728" style="stop-color:#E41C24"/>
			<stop  offset="0.6512" style="stop-color:#D21A21"/>
			<stop  offset="1" style="stop-color:#BB181D"/>
		</radialGradient>
		<path fill="url(#SVGID_1_)" d="M10.397,16.906v-0.01v-0.081l-0.051-0.896l-0.021-0.285l-0.01-0.174l-0.01-0.213l-0.051-0.794
			l-0.03-0.61l-0.031-0.418l-0.02-0.314l-0.062-1.11v-0.01V11.97l-0.02-0.294l-0.03-0.448v-0.112l-0.011-0.092v-0.071l-0.01-0.102
			v-0.123l-0.011-0.204l-0.01-0.091l-0.01-0.224L10,10.027L9.99,9.884v-0.02V9.772L9.98,9.629V9.568V9.527v-0.04L9.969,9.457
			l0.011-0.04V9.182V9.081V9.04V9.02V8.988v-0.02V8.714v-0.02V8.591V8.195V8.144l0.244-0.01l0.01-0.041l0.091-0.225l0.021-0.05
			l0.091-0.193l0.092-0.173l0.021-0.041l0.029-0.051l0.072-0.102v-0.01l0.021-0.02l0.021-0.031l0.041-0.061l0.01-0.01l0.03-0.03
			l0.01-0.021l0.032-0.041l0.042-0.041l0.061-0.071l0.051-0.061l0.03-0.031l0.01-0.01l0.011-0.011l0.03-0.03l0.02-0.02l0.021-0.021
			l0.011-0.01l0.03-0.03l0.133-0.112l0.041-0.041l0.02-0.02l0.05-0.041l0.112-0.082l0.113-0.081l0.019-0.01l0.051-0.031l0.03-0.02
			h0.011l0.061-0.041l0.214-0.112l0.061-0.031l0.021-0.01l0.265-0.112l0.101-0.041l0.286-0.071l0.335-0.072h0.03l0.225-0.02
			l0.152-0.01l0.264,0.01h0.205h0.02l0.336,0.041l0.102,0.02l0.204,0.041l0.101,0.03l0.183,0.061l0.123,0.051h0.01l0.154,0.061
			l0.06,0.02l0.082,0.041l0.01,0.01h0.01l0.04,0.031l0.215,0.112v0.01l0.051,0.02l0.091,0.051l0.204,0.153l0.152,0.122L15.739,6.8
			l-0.153,0.071l-0.021,0.01l-0.092,0.102l-0.082,0.091l0.011,0.01l0.01,0.01l-0.081,0.091L15.22,7.248L15.18,7.31l-0.02,0.03v0.061
			l-0.032,0.102l-0.021,0.061l-0.042,0.142l-0.02,0.041l-0.031,0.051l-0.031,0.061v0.02L14.976,7.92L14.965,7.96v0.051l-0.031,0.082
			v0.091l0.011,0.041l-0.021,0.071l-0.02,0.02l-0.042-0.01l-0.011-0.01l-0.009-0.011l-0.032-0.009l-0.06,0.02L14.71,8.378
			l-0.02,0.041l-0.01,0.04L14.63,8.571l-0.121,0.071l-0.052,0.02l-0.031,0.051l-0.01,0.163v0.01L14.1,8.755l-0.01,0.02L14.04,8.846
			l-0.102,0.143L13.866,9.09l-0.193,0.275l-0.082,0.112v0.01l-0.011,0.01l-0.162,0.051h-0.021l-0.142,0.041l-0.072,0.021
			L13.154,9.66l-0.05,0.072l-0.132,0.193l-0.184,0.285l-0.021,0.02v0.01l-0.01,0.041l-0.021,0.051l0.011,0.03l0.02,0.031l-0.01,0.01
			l0.01,0.112l-0.01,0.01v0.01l0.031,0.184l0.112,0.152l0.021,0.02l0.02,0.01l0.164,0.102v0.01l0.07,0.051l0.01,0.01v0.02l0.01,0.01
			l0.235,0.224l0.01,0.01l0.122,0.102l-0.01,0.031l-0.011,0.02l-0.02,0.031l-0.061,0.366v0.031l-0.011,0.244l0.153,0.143
			L13.5,12.551l-0.143-0.01h-0.01l-0.103,0.152l-0.081,0.111v0.021l-0.072,0.275l-0.01,0.052v0.029l0.052,0.326l0.009,0.03
			l0.142,0.204l0.012,0.04l0.01,0.021l0.122,0.111v0.031l-0.011,0.041l0.255,0.173l0.274,0.284l0.041,0.152l0.204,0.367l0.032,0.072
			l0.13,0.447l0.012,0.01l0.009,0.01l0.102,0.133l0.183,0.092l0.042,0.051l-0.042,0.111l0.021,0.021l0.021,0.03l0.021,0.03
			l0.162,0.112v0.01l0.173,0.122l0.142,0.051l0.348,0.306l0.029,0.081l0.021,0.244v0.021l0.122,0.243l0.315,0.417l0.082,0.204
			l-0.03,0.184v0.01l-0.01,0.04v0.407l0.021,0.021l0.122,0.133l0.062,0.244l-0.031,0.336l-0.062,0.03h-0.02l-0.133,0.245
			l-0.041,0.387l0.031,0.264l0.122,1.121l-0.011,0.447l0.032,0.029l0.071,0.133l-0.01,0.031l0.132,0.132l0.131,0.051l0.367,0.336
			l0.184,0.163l0.072,0.091l0.363,0.662l0.062,0.153l0.051,0.264l-0.02,0.347v0.041l0.008,0.061v0.011l0.012,0.02l0.145,0.113
			l-0.156,0.295l0.135,0.244l0.193,0.213l0.201,0.224l0.268,0.295v0.011l0.365,0.488l0.031,0.04l0.061,0.093l0.041,0.052l0.051,0.05
			l0.029,0.021l0.02,0.03l0.336,0.326l0.234,0.346l0.479,0.315l0.021,0.01l0.008,0.011l0.145,0.061l0.111,0.041l0.152,0.062
			l0.336-0.011l0.123-0.061l0.131-0.062l0.053-0.111h0.01h-0.01l-0.021-0.081l-0.031-0.103l0.053-0.02l0.01,0.01l0.061,0.132
			l0.121,0.509l0.033,0.458l0.008,0.122v0.04l0.012,0.083l0.02,0.11v0.041v0.021l0.041,0.265l0.031,0.204l0.01,0.05l0.039,0.337
			l0.012,0.071l0.008,0.071l0.064,0.418l0.008,0.59l0.051,0.488h0.01l0.012,0.01l0.012,0.01l0.029,0.347v0.062l0.039,0.488
			l0.021,0.377l0.02,0.294l0.02,0.205v0.04l0.02,0.244l0.033,0.447l0.01,0.387v0.225v0.112h-0.051h-0.02H21.6h-0.01h-0.012h-0.061
			h-0.012h-0.039h-0.205h-0.029h-0.039h-0.846l-0.701,0.01h-0.012H19.33h-0.225h-0.141H18.82l-0.264-0.01h-0.121h-0.217h-0.934
			l-0.164-0.01h-0.232h-0.254h-0.355h-0.021h-0.265l-0.224-0.011h-0.06l-0.255-0.011l-0.417-0.01h-0.122h-0.031l-0.335-0.01h-0.051
			l-0.295-0.01h-0.021l-0.183-0.012h-0.041l-0.254-0.01h-0.051h-0.031h-0.011h-0.02h-0.011h-0.008h-0.011h-0.021H13.53h-0.009h-0.01
			l-0.164-0.01h-0.112l-0.03-0.01h-0.011l-0.09,0.01l-0.061-0.01l-0.082-0.011l-0.529-0.021l-0.284-0.01l-0.235-0.011h-0.05
			l-0.396-0.02l-0.051-0.012l-0.042-0.659l-0.01-0.083l-0.021-0.305l-0.01-0.224l-0.021-0.428l-0.02-0.347v-0.02v-0.021l-0.03-0.489
			l-0.011-0.143l-0.02-0.468l-0.011-0.031V30.83l-0.01-0.102L11.2,30.546l-0.082-1.456l-0.07-1.241l-0.021-0.307l-0.03-0.437
			l-0.021-0.417l-0.009-0.162v-0.062l-0.021-0.274v-0.03l-0.01-0.163l-0.011-0.254l-0.008-0.021l-0.031-0.541l-0.042-0.772v-0.041
			l-0.03-0.447v-0.021l-0.091-1.485l-0.012-0.296l-0.039-0.55v-0.07l-0.01-0.133l-0.011-0.295l-0.03-0.337v-0.081l-0.01-0.111
			l-0.021-0.469l-0.029-0.447l-0.021-0.265V19.35l-0.021-0.438l-0.05-0.957l-0.021-0.254l-0.02-0.316L10.397,16.906z M13.684,10.546
			l-0.104,0.01l-0.008-0.01l-0.082-0.163l-0.061-0.204l0.01-0.061l0.172-0.061l0.011-0.011l0.011,0.021l-0.011,0.102l0.021,0.143
			l0.021,0.102l-0.011,0.061l0.011,0.051L13.684,10.546z M13.53,11.014l-0.172-0.102l-0.04-0.072l-0.02-0.152l0.223,0.173
			L13.53,11.014z"/>
	</g>
</g>
</svg>
