<?xml version="1.0" encoding="utf-8"?>
<!-- Generator: Adobe Illustrator 16.0.0, SVG Export Plug-In . SVG Version: 6.00 Build 0)  -->
<!DOCTYPE svg PUBLIC "-//W3C//DTD SVG 1.1//EN" "http://www.w3.org/Graphics/SVG/1.1/DTD/svg11.dtd">
<svg version="1.1" id="mo" xmlns="http://www.w3.org/2000/svg" xmlns:xlink="http://www.w3.org/1999/xlink" x="0px" y="0px"
	 width="32px" height="32px" viewBox="0 0 32 32" enable-background="new 0 0 32 32" xml:space="preserve">
<polyline fill="none" stroke="#404041" stroke-width="0.1" stroke-linecap="round" stroke-linejoin="round" stroke-miterlimit="3.85" points="
	0.938,2.941 1.014,2.941 1.269,2.954 1.421,2.954 1.459,2.954 1.473,2.954 1.485,2.954 1.613,2.954 1.765,2.967 1.854,2.967 
	1.892,2.967 1.943,2.967 1.981,2.967 2.146,2.979 2.223,2.979 2.401,2.979 2.465,2.979 2.643,2.992 2.719,2.992 2.809,2.992 
	3.152,3.005 3.178,3.005 3.278,3.005 3.317,3.005 3.331,3.005 3.355,3.005 3.395,3.005 3.559,3.005 3.61,3.018 3.648,3.018 
	3.75,3.018 3.788,3.018 3.801,3.018 3.813,3.018 3.852,3.018 3.927,3.018 3.979,3.018 4.106,3.03 4.145,3.03 4.17,3.03 4.183,3.03 
	4.323,3.03 4.361,3.03 4.425,3.03 4.475,3.03 4.653,3.03 4.717,3.03 4.73,3.043 5.061,3.043 5.074,3.043 5.112,3.043 5.149,3.043 
	5.162,3.043 5.278,3.043 5.392,3.055 5.519,3.055 5.531,3.055 5.607,3.055 5.633,3.055 5.646,3.055 5.671,3.055 5.888,3.055 
	6.066,3.068 6.091,3.068 6.27,3.068 6.282,3.068 6.295,3.068 6.308,3.068 6.32,3.068 6.524,3.068 6.6,3.068 6.639,3.068 
	6.652,3.068 6.779,3.055 6.893,3.055 6.957,3.055 7.097,3.055 7.147,3.055 7.186,3.055 7.237,3.055 7.301,3.055 7.377,3.055 
	7.402,3.055 7.592,3.055 7.631,3.055 7.645,3.055 7.656,3.055 7.669,3.055 8.089,3.055 8.14,3.043 8.267,3.043 8.306,3.043 
	8.509,3.043 8.599,3.043 8.649,3.043 8.713,3.03 8.764,3.03 8.814,3.03 8.928,3.03 8.943,3.03 9.044,3.03 9.095,3.03 9.107,3.03 
	9.145,3.018 9.298,3.018 9.362,3.018 9.451,3.018 9.463,3.018 9.591,3.018 9.654,3.018 9.667,3.005 9.756,3.005 9.77,3.005 
	9.782,3.005 9.807,3.005 9.845,3.005 9.871,3.005 10.011,3.005 10.075,3.005 10.1,3.005 10.113,3.005 10.138,3.005 10.151,3.005 
	10.163,3.005 10.317,2.992 10.418,2.992 10.558,2.992 10.57,2.992 10.583,2.992 10.596,2.992 10.608,2.992 10.634,2.992 
	10.71,2.979 10.724,2.979 10.736,2.979 10.749,2.979 10.762,2.979 10.787,2.979 10.902,2.979 10.991,2.979 11.004,2.979 
	11.105,2.979 11.397,2.979 11.525,2.979 11.601,2.967 11.653,2.967 11.894,2.967 12.11,2.967 12.148,2.954 12.441,2.954 
	12.607,2.941 12.646,2.941 12.67,2.941 13.116,2.916 13.141,2.916 13.218,2.902 13.231,2.902 13.28,2.902 13.294,2.902 
	13.459,2.902 13.523,2.902 13.562,2.902 13.624,2.902 13.638,2.902 13.65,2.902 13.663,2.89 13.765,2.89 13.79,2.89 14.096,2.89 
	14.122,2.877 14.146,2.877 14.171,2.877 14.287,2.877 14.401,2.877 14.414,2.877 14.617,2.865 14.872,2.852 14.96,2.839 
	15.126,2.839 15.292,2.827 15.305,2.827 15.342,2.827 15.394,2.814 15.432,2.814 15.546,2.814 15.624,2.814 15.75,2.801 
	15.877,2.801 15.967,2.788 16.106,2.788 16.132,2.788 16.335,2.776 16.374,2.776 16.462,2.763 16.526,2.763 16.552,2.763 
	16.628,2.763 16.998,2.737 17.01,2.737 17.047,2.737 17.111,2.737 17.124,2.737 17.138,2.737 17.149,2.737 17.175,2.725 
	17.289,2.725 17.417,2.712 17.544,2.712 17.633,2.7 17.646,2.7 17.659,2.7 17.684,2.7 17.99,2.674 18.142,2.661 18.181,2.661 
	18.231,2.661 18.281,2.648 18.308,2.648 18.346,2.648 18.601,2.623 18.639,2.7 18.651,2.712 18.678,2.725 18.741,2.763 
	18.778,2.788 18.791,2.814 18.791,2.827 18.767,2.902 18.767,2.916 18.778,2.928 18.778,2.941 18.791,2.941 18.817,2.967 
	18.868,2.979 18.931,2.992 19.008,3.005 19.058,3.018 19.07,3.018 19.084,3.018 19.084,3.03 19.097,3.043 19.097,3.068 
	19.097,3.106 19.084,3.17 19.084,3.183 19.084,3.208 19.097,3.221 19.109,3.233 19.123,3.247 19.147,3.259 19.173,3.272 
	19.187,3.285 19.211,3.285 19.225,3.31 19.249,3.335 19.263,3.374 19.263,3.4 19.274,3.412 19.274,3.425 19.3,3.45 19.339,3.476 
	19.351,3.476 19.402,3.488 19.439,3.488 19.479,3.488 19.491,3.488 19.504,3.488 19.516,3.488 19.53,3.501 19.53,3.527 19.53,3.54 
	19.53,3.552 19.516,3.552 19.491,3.578 19.491,3.59 19.491,3.603 19.491,3.616 19.504,3.628 19.53,3.628 19.542,3.628 19.556,3.641 
	19.542,3.667 19.516,3.705 19.516,3.73 19.53,3.743 19.53,3.768 19.542,3.768 19.556,3.768 19.579,3.768 19.605,3.781 19.605,3.794 
	19.618,3.807 19.632,3.807 19.656,3.807 19.67,3.807 19.682,3.794 19.695,3.794 19.695,3.807 19.695,3.819 19.682,3.845 
	19.682,3.858 19.708,3.909 19.72,3.921 19.733,3.921 19.746,3.921 19.771,3.921 19.796,3.896 19.796,3.921 19.796,3.934 
	19.796,3.946 19.81,3.959 19.848,3.959 19.86,3.959 19.86,3.946 19.873,3.934 19.898,3.896 19.912,3.896 19.924,3.896 19.936,3.896 
	19.976,3.909 19.987,3.921 20.001,3.934 19.987,3.946 19.976,3.972 19.961,3.984 19.936,3.984 19.912,3.998 19.886,4.023 
	19.886,4.036 19.886,4.049 19.873,4.074 19.86,4.074 19.848,4.112 19.821,4.15 19.81,4.188 19.796,4.188 19.796,4.201 19.796,4.265 
	19.784,4.29 19.72,4.431 19.72,4.456 19.708,4.468 19.708,4.481 19.708,4.494 19.695,4.52 19.695,4.532 19.695,4.57 19.708,4.596 
	19.708,4.609 19.708,4.621 19.682,4.685 19.682,4.698 19.67,4.71 19.656,4.723 19.644,4.749 19.644,4.762 19.644,4.774 
	19.656,4.787 19.656,4.825 19.644,4.876 19.644,4.915 19.656,4.94 19.656,4.965 19.656,4.978 19.656,4.991 19.644,5.016 
	19.632,5.041 19.632,5.08 19.632,5.092 19.632,5.143 19.656,5.219 19.644,5.258 19.644,5.271 19.644,5.296 19.644,5.309 
	19.644,5.334 19.644,5.347 19.644,5.359 19.644,5.372 19.644,5.385 19.656,5.385 19.656,5.423 19.656,5.436 19.67,5.474 19.67,5.5 
	19.682,5.512 19.682,5.525 19.682,5.55 19.695,5.602 19.72,5.665 19.733,5.716 19.746,5.767 19.759,5.792 19.746,5.818 
	19.733,5.907 19.746,5.92 19.746,5.933 19.771,5.971 19.771,5.983 19.784,6.008 19.821,6.06 19.86,6.136 19.86,6.162 19.873,6.187 
	19.873,6.199 19.886,6.212 19.898,6.225 19.912,6.238 19.924,6.276 19.949,6.314 19.961,6.34 19.987,6.391 20.001,6.403 
	20.013,6.416 20.013,6.429 20.038,6.441 20.052,6.454 20.063,6.467 20.063,6.479 20.077,6.493 20.077,6.505 20.089,6.518 
	20.089,6.543 20.089,6.556 20.089,6.582 20.089,6.594 20.077,6.607 20.052,6.632 20.013,6.684 19.987,6.722 19.976,6.785 
	19.976,6.811 19.987,6.849 20.013,6.938 20.025,6.977 20.025,6.989 20.038,7.002 20.052,7.027 20.063,7.04 20.127,7.078 
	20.165,7.104 20.204,7.129 20.267,7.167 20.292,7.18 20.305,7.193 20.344,7.243 20.369,7.294 20.369,7.32 20.369,7.333 
	20.369,7.345 20.357,7.371 20.357,7.396 20.357,7.409 20.357,7.447 20.369,7.485 20.357,7.498 20.357,7.511 20.344,7.562 
	20.344,7.638 20.357,7.638 20.357,7.651 20.382,7.676 20.407,7.714 20.421,7.714 20.421,7.728 20.434,7.728 20.445,7.752 
	20.458,7.765 20.509,7.804 20.522,7.816 20.534,7.816 20.585,7.854 20.637,7.906 20.649,7.906 20.649,7.918 20.662,7.931 
	20.7,7.956 20.75,7.982 20.776,8.007 20.827,8.059 20.853,8.096 20.866,8.109 20.904,8.147 20.916,8.16 20.93,8.173 20.93,8.186 
	20.942,8.198 20.993,8.249 21.019,8.274 21.056,8.287 21.195,8.338 21.21,8.351 21.222,8.376 21.247,8.402 21.247,8.415 
	21.26,8.465 21.272,8.542 21.272,8.567 21.298,8.606 21.323,8.631 21.35,8.656 21.361,8.669 21.375,8.669 21.463,8.694 
	21.516,8.694 21.526,8.694 21.592,8.708 21.616,8.758 21.655,8.822 21.68,8.886 21.705,8.911 21.718,8.924 21.757,8.949 
	21.769,9.025 21.769,9.064 21.782,9.089 21.782,9.102 21.808,9.127 21.808,9.14 21.819,9.14 21.819,9.152 21.832,9.152 
	21.845,9.166 21.884,9.217 21.896,9.229 21.908,9.229 21.922,9.242 21.935,9.255 21.947,9.268 21.999,9.306 22.036,9.331 
	22.087,9.356 22.139,9.369 22.164,9.382 22.177,9.395 22.202,9.407 22.214,9.407 22.253,9.42 22.29,9.433 22.316,9.445 
	22.329,9.445 22.329,9.458 22.342,9.458 22.342,9.471 22.342,9.483 22.354,9.483 22.354,9.509 22.354,9.521 22.367,9.521 
	22.38,9.547 22.405,9.56 22.418,9.56 22.431,9.573 22.444,9.573 22.456,9.573 22.481,9.573 22.494,9.585 22.507,9.598 22.507,9.611 
	22.521,9.624 22.545,9.649 22.545,9.662 22.558,9.662 22.584,9.674 22.596,9.674 22.647,9.713 22.66,9.713 22.697,9.738 
	22.761,9.776 22.787,9.79 22.787,9.802 22.876,9.891 22.901,9.904 22.978,9.955 23.003,9.968 23.017,9.98 23.017,10.005 
	23.054,10.031 23.093,10.056 23.093,10.069 23.131,10.133 23.207,10.209 23.22,10.222 23.258,10.235 23.282,10.248 23.297,10.26 
	23.322,10.286 23.335,10.362 23.347,10.4 23.347,10.413 23.347,10.438 23.347,10.451 23.359,10.489 23.373,10.502 23.373,10.527 
	23.373,10.54 23.373,10.565 23.373,10.578 23.373,10.604 23.385,10.629 23.385,10.642 23.385,10.668 23.411,10.718 23.411,10.731 
	23.422,10.833 23.422,10.858 23.437,10.909 23.448,10.935 23.462,10.948 23.487,10.986 23.513,11.024 23.524,11.037 23.524,11.049 
	23.539,11.062 23.539,11.075 23.551,11.151 23.551,11.203 23.551,11.215 23.475,11.317 23.475,11.33 23.475,11.355 23.422,11.406 
	23.422,11.418 23.422,11.431 23.437,11.457 23.448,11.482 23.487,11.559 23.524,11.635 23.539,11.66 23.551,11.686 23.551,11.699 
	23.562,11.711 23.562,11.724 23.576,11.724 23.576,11.737 23.588,11.75 23.602,11.775 23.602,11.813 23.614,11.915 23.614,11.928 
	23.614,11.94 23.614,11.953 23.627,11.966 23.64,11.991 23.652,12.017 23.665,12.106 23.679,12.131 23.69,12.157 23.703,12.183 
	23.728,12.208 23.754,12.221 23.792,12.246 23.805,12.271 23.844,12.335 23.855,12.348 23.995,12.424 24.034,12.449 24.047,12.462 
	24.061,12.462 24.085,12.462 24.124,12.462 24.136,12.449 24.148,12.449 24.174,12.449 24.174,12.438 24.212,12.424 24.226,12.412 
	24.275,12.348 24.34,12.271 24.377,12.246 24.416,12.208 24.467,12.118 24.479,12.068 24.492,12.068 24.492,12.055 24.479,12.042 
	24.479,12.03 24.479,12.017 24.479,12.004 24.492,12.004 24.492,11.991 24.505,11.966 24.531,11.915 24.543,11.902 24.568,11.89 
	24.619,11.864 24.671,11.864 24.683,11.864 24.696,11.877 24.734,11.89 24.747,11.89 24.797,11.89 24.822,11.89 24.849,11.89 
	24.861,11.902 24.874,11.902 24.913,11.915 24.925,11.915 24.925,11.928 24.988,11.953 25.014,11.966 25.026,11.966 25.09,12.004 
	25.153,12.03 25.153,12.042 25.166,12.042 25.18,12.055 25.192,12.055 25.205,12.055 25.229,12.068 25.269,12.093 25.281,12.093 
	25.319,12.093 25.332,12.093 25.383,12.081 25.408,12.081 25.422,12.081 25.446,12.093 25.472,12.106 25.498,12.093 25.51,12.093 
	25.535,12.106 25.574,12.131 25.626,12.144 25.638,12.157 25.649,12.157 25.663,12.169 25.701,12.195 25.701,12.208 25.727,12.221 
	25.727,12.233 25.751,12.246 25.777,12.271 25.791,12.284 25.803,12.284 25.814,12.284 25.828,12.284 25.841,12.297 25.854,12.297 
	25.88,12.31 25.892,12.322 25.917,12.335 25.931,12.335 25.969,12.373 25.994,12.386 26.02,12.399 26.031,12.412 26.071,12.424 
	26.083,12.424 26.108,12.449 26.134,12.462 26.171,12.475 26.185,12.5 26.185,12.513 26.185,12.539 26.185,12.564 26.171,12.679 
	26.159,12.73 26.134,12.768 26.031,12.87 25.956,12.934 25.931,12.958 25.917,12.984 25.917,12.997 25.917,13.01 25.905,13.035 
	25.88,13.086 25.841,13.099 25.791,13.163 25.766,13.201 25.766,13.226 25.766,13.251 25.766,13.29 25.777,13.341 25.814,13.392 
	25.828,13.417 25.841,13.417 25.867,13.468 25.88,13.48 25.892,13.493 25.892,13.506 25.905,13.544 25.917,13.583 25.931,13.671 
	25.931,13.684 25.931,13.723 25.931,13.761 25.917,13.812 25.917,13.862 25.905,13.862 25.905,13.875 25.88,13.926 25.867,13.952 
	25.841,13.99 25.814,14.002 25.814,14.015 25.803,14.015 25.777,14.053 25.766,14.066 25.751,14.066 25.739,14.079 25.688,14.18 
	25.675,14.193 25.663,14.206 25.663,14.219 25.638,14.257 25.638,14.27 25.6,14.333 25.587,14.347 25.574,14.397 25.562,14.486 
	25.549,14.537 25.535,14.601 25.535,14.639 25.535,14.652 25.523,14.678 25.51,14.753 25.51,14.766 25.51,14.805 25.498,14.843 
	25.498,14.856 25.484,14.868 25.484,14.881 25.46,14.944 25.383,15.034 25.345,15.097 25.319,15.11 25.256,15.187 25.243,15.199 
	25.243,15.212 25.229,15.237 25.205,15.313 25.205,15.339 25.153,15.454 25.142,15.492 25.142,15.556 25.142,15.658 25.142,15.721 
	25.142,15.734 25.142,15.746 25.142,15.759 25.142,15.771 25.142,15.785 25.142,15.797 25.142,15.81 25.153,15.836 25.153,15.848 
	25.153,15.861 25.153,15.874 25.166,15.874 25.166,15.899 25.18,15.924 25.18,15.937 25.18,15.962 25.18,15.976 25.205,16.052 
	25.219,16.115 25.243,16.154 25.243,16.167 25.256,16.179 25.269,16.205 25.306,16.256 25.345,16.307 25.358,16.319 25.408,16.357 
	25.435,16.37 25.46,16.37 25.498,16.383 25.549,16.409 25.587,16.446 25.626,16.485 25.714,16.625 25.727,16.65 25.739,16.65 
	25.739,16.663 25.751,16.689 25.766,16.701 25.777,16.739 25.892,16.841 25.956,16.867 26.108,16.968 26.147,16.943 26.159,16.931 
	26.171,16.931 26.236,16.968 26.248,16.968 26.299,17.006 26.312,17.006 26.312,17.02 26.324,17.045 26.324,17.07 26.324,17.108 
	26.324,17.121 26.337,17.135 26.351,17.146 26.376,17.172 26.376,17.184 26.388,17.184 26.388,17.197 26.4,17.197 26.478,17.248 
	26.49,17.248 26.504,17.262 26.516,17.262 26.541,17.262 26.579,17.248 26.617,17.248 26.644,17.248 26.644,17.262 26.655,17.262 
	26.655,17.274 26.669,17.299 26.669,17.312 26.681,17.324 26.693,17.338 26.706,17.338 26.77,17.363 26.847,17.452 26.885,17.503 
	26.923,17.527 26.936,17.541 26.986,17.541 27,17.541 27.024,17.541 27.126,17.516 27.19,17.49 27.202,17.516 27.215,17.541 
	27.215,17.554 27.229,17.554 27.266,17.541 27.266,17.566 27.266,17.58 27.241,17.617 27.215,17.63 27.165,17.655 27.114,17.668 
	27.101,17.693 27.075,17.719 27.049,17.746 27.049,17.783 27.049,17.796 27.062,17.796 27.062,17.809 27.114,17.897 27.114,17.91 
	27.151,17.987 27.165,17.987 27.165,17.999 27.178,17.999 27.19,18.012 27.215,18.025 27.229,18.037 27.241,18.037 27.305,18.062 
	27.343,18.062 27.395,18.062 27.419,18.051 27.482,17.999 27.508,17.975 27.521,17.949 27.546,17.91 27.571,17.897 27.622,17.848 
	27.647,17.834 27.661,17.848 27.688,17.859 27.788,17.936 27.839,17.961 27.864,17.961 27.864,17.975 27.878,18.012 27.864,18.012 
	27.864,18.025 27.864,18.037 27.878,18.089 27.891,18.102 27.928,18.139 27.953,18.114 27.953,18.127 27.979,18.127 28.03,18.127 
	28.043,18.139 28.067,18.152 28.081,18.152 28.093,18.152 28.144,18.152 28.157,18.165 28.184,18.203 28.195,18.216 28.246,18.267 
	28.323,18.318 28.348,18.331 28.36,18.331 28.399,18.355 28.412,18.369 28.437,18.381 28.449,18.381 28.449,18.395 28.476,18.406 
	28.5,18.457 28.514,18.471 28.526,18.482 28.526,18.496 28.526,18.509 28.526,18.521 28.526,18.534 28.526,18.547 28.514,18.559 
	28.514,18.584 28.5,18.61 28.5,18.637 28.514,18.674 28.514,18.686 28.526,18.699 28.539,18.699 28.589,18.712 28.603,18.712 
	28.653,18.712 28.68,18.686 28.705,18.686 28.73,18.686 28.742,18.686 28.742,18.712 "/>
<polyline fill="none" stroke="#404041" stroke-width="0.1" stroke-linecap="round" stroke-linejoin="round" stroke-miterlimit="3.85" points="
	28.742,18.712 28.742,18.725 28.755,18.738 28.769,18.738 28.806,18.75 28.806,18.764 28.831,18.775 28.856,18.827 28.882,18.865 
	28.896,18.877 28.896,18.89 28.945,18.904 28.972,18.916 29.099,18.941 29.137,18.941 29.162,18.953 29.176,18.967 29.201,18.98 
	29.213,19.006 29.227,19.03 29.227,19.056 29.227,19.082 29.213,19.133 29.213,19.195 29.227,19.221 29.227,19.26 29.213,19.26 
	29.213,19.286 29.227,19.311 29.252,19.335 29.276,19.374 29.29,19.387 29.302,19.399 29.341,19.438 29.366,19.463 29.378,19.463 
	29.404,19.514 29.418,19.526 29.418,19.553 29.43,19.565 29.418,19.565 29.418,19.591 29.404,19.603 29.392,19.616 29.378,19.616 
	29.341,19.629 29.276,19.603 29.265,19.603 29.252,19.603 29.238,19.603 29.227,19.616 29.227,19.629 29.227,19.642 29.227,19.666 
	29.227,19.68 29.227,19.718 29.227,19.742 29.227,19.782 29.252,19.883 29.276,19.922 29.302,19.947 29.327,19.985 29.341,20.011 
	29.354,20.062 29.378,20.112 29.378,20.125 29.43,20.188 29.43,20.202 29.468,20.252 29.48,20.265 29.48,20.278 29.493,20.278 
	29.519,20.304 29.57,20.342 29.57,20.354 29.582,20.368 29.595,20.392 29.608,20.392 29.621,20.405 29.621,20.418 29.633,20.431 
	29.633,20.444 29.672,20.494 29.71,20.596 29.71,20.609 29.71,20.621 29.723,20.621 29.723,20.635 29.723,20.647 29.723,20.66 
	29.734,20.686 29.734,20.711 29.734,20.724 29.734,20.749 29.71,20.9 29.71,20.915 29.71,20.927 29.697,20.952 29.684,20.965 
	29.633,20.991 29.621,20.991 29.595,21.003 29.506,21.018 29.468,21.029 29.455,21.029 29.455,21.041 29.441,21.041 29.441,21.055 
	29.43,21.055 29.418,21.093 29.404,21.118 29.366,21.144 29.354,21.157 29.354,21.169 29.341,21.182 29.341,21.221 29.341,21.245 
	29.327,21.258 29.327,21.271 29.327,21.283 29.327,21.297 29.315,21.309 29.327,21.309 29.327,21.322 29.327,21.348 29.341,21.373 
	29.378,21.424 29.404,21.449 29.43,21.474 29.468,21.513 29.506,21.5 29.558,21.5 29.582,21.5 29.595,21.513 29.608,21.513 
	29.608,21.525 29.608,21.55 29.608,21.563 29.608,21.576 29.595,21.613 29.582,21.652 29.582,21.666 29.57,21.679 29.582,21.704 
	29.608,21.779 29.608,21.806 29.633,21.855 29.633,21.87 29.646,21.882 29.672,21.919 29.723,22.021 29.748,22.073 29.798,22.149 
	29.85,22.213 29.85,22.226 29.863,22.238 29.874,22.252 29.888,22.252 29.914,22.276 29.951,22.302 29.965,22.302 29.977,22.315 
	29.989,22.34 30.027,22.392 30.04,22.441 30.04,22.467 30.027,22.519 30.027,22.531 30.003,22.595 30.003,22.62 30.003,22.646 
	30.015,22.658 30.015,22.671 30.027,22.684 30.027,22.696 30.04,22.696 30.04,22.708 30.117,22.761 30.193,22.771 30.27,22.811 
	30.308,22.824 30.333,22.837 30.359,22.862 30.447,22.951 30.512,22.977 30.536,22.964 30.562,22.938 30.575,22.926 30.588,22.9 
	30.601,22.811 30.588,22.771 30.562,22.734 30.512,22.696 30.447,22.671 30.396,22.658 30.384,22.646 30.371,22.62 30.359,22.606 
	30.346,22.583 30.359,22.519 30.422,22.519 30.473,22.519 30.473,22.531 30.485,22.531 30.562,22.531 30.575,22.531 30.588,22.531 
	30.588,22.519 30.601,22.492 30.601,22.48 30.652,22.568 30.689,22.646 30.702,22.684 30.753,22.708 30.792,22.734 30.816,22.761 
	30.842,22.771 30.867,22.785 30.867,22.798 30.881,22.811 30.881,22.824 30.881,22.837 30.893,22.862 30.893,22.874 30.893,22.888 
	30.906,22.938 30.918,23.002 30.957,23.04 30.995,23.053 31.021,23.053 31.058,23.028 31.108,23.002 31.135,22.988 31.16,22.988 
	31.186,22.977 31.211,22.964 31.224,22.964 31.262,22.964 31.274,22.977 31.301,23.002 31.325,23.028 31.339,23.04 31.352,23.053 
	31.352,23.065 31.352,23.078 31.352,23.104 31.352,23.18 31.352,23.205 31.325,23.319 31.288,23.511 31.288,23.537 31.274,23.562 
	31.262,23.587 31.262,23.601 31.249,23.601 31.249,23.613 31.237,23.689 31.211,23.753 31.16,23.753 31.135,23.753 31.122,23.778 
	31.108,23.778 31.084,23.778 31.058,23.791 31.046,23.804 31.032,23.829 31.032,23.854 31.032,23.931 31.032,23.957 31.032,23.969 
	31.046,23.983 31.071,24.032 31.084,24.059 31.122,24.071 31.148,24.084 31.198,24.084 31.249,24.084 31.274,24.084 31.301,24.097 
	31.313,24.123 31.325,24.16 31.339,24.172 31.339,24.198 31.325,24.249 31.313,24.274 31.301,24.288 31.274,24.3 31.249,24.3 
	31.224,24.274 31.211,24.274 31.186,24.274 31.174,24.274 31.148,24.274 31.108,24.263 31.098,24.263 31.084,24.263 31.071,24.274 
	31.046,24.288 31.021,24.3 30.995,24.338 30.969,24.376 30.957,24.415 30.957,24.453 30.957,24.466 30.957,24.492 30.957,24.504 
	30.969,24.504 30.969,24.517 30.982,24.529 30.982,24.542 31.046,24.594 31.084,24.645 31.122,24.67 31.122,24.682 31.122,24.733 
	31.122,24.745 31.108,24.759 31.122,24.759 31.174,24.796 31.148,24.836 31.108,24.885 31.071,24.924 31.046,24.949 31.032,24.976 
	31.009,25.013 30.995,25.039 30.995,25.076 30.995,25.179 30.944,25.306 30.932,25.331 30.918,25.331 30.893,25.369 30.842,25.382 
	30.74,25.395 30.728,25.395 30.702,25.382 30.676,25.369 30.676,25.357 30.652,25.345 30.652,25.331 30.562,25.242 30.536,25.191 
	30.473,25.102 30.447,25.076 30.41,25.024 30.396,25.024 30.371,25.039 30.333,25.039 30.27,25.064 30.231,25.076 30.206,25.102 
	30.18,25.142 30.18,25.152 30.18,25.179 30.167,25.281 30.167,25.331 30.104,25.472 30.104,25.484 30.104,25.51 30.104,25.561 
	30.079,25.649 30.027,25.814 30.015,25.854 30.003,25.879 29.977,25.917 29.939,25.968 29.888,26.031 29.874,26.044 29.837,26.07 
	29.823,26.07 29.786,26.07 29.761,26.07 29.723,26.057 29.697,26.031 29.684,26.006 29.684,25.979 29.672,25.968 29.684,25.954 
	29.71,25.866 29.71,25.84 29.723,25.814 29.748,25.79 29.748,25.777 29.761,25.764 29.773,25.752 29.773,25.737 29.786,25.7 
	29.786,25.662 29.798,25.649 29.798,25.624 29.786,25.611 29.786,25.598 29.773,25.561 29.773,25.522 29.748,25.484 29.723,25.446 
	29.723,25.433 29.71,25.433 29.697,25.421 29.621,25.395 29.558,25.395 29.531,25.382 29.519,25.382 29.506,25.382 29.493,25.369 
	29.418,25.382 29.404,25.382 29.378,25.407 29.366,25.407 29.354,25.421 29.327,25.458 29.315,25.484 29.302,25.522 29.302,25.549 
	29.302,25.573 29.302,25.598 29.327,25.637 29.341,25.662 29.354,25.7 29.366,25.727 29.392,25.752 29.392,25.764 29.441,25.814 
	29.468,25.854 29.468,25.866 29.48,25.892 29.544,25.942 29.558,25.968 29.558,25.979 29.558,26.031 29.558,26.057 29.544,26.095 
	29.544,26.107 29.531,26.12 29.468,26.184 29.455,26.197 29.455,26.223 29.455,26.247 29.455,26.26 29.455,26.285 29.468,26.3 
	29.558,26.413 29.608,26.503 29.633,26.541 29.633,26.553 29.633,26.566 29.633,26.604 29.621,26.643 29.608,26.681 29.595,26.707 
	29.582,26.732 29.57,26.744 29.544,26.77 29.519,26.782 29.48,26.782 29.418,26.782 29.315,26.757 29.227,26.757 29.201,26.77 
	29.176,26.782 29.149,26.808 29.137,26.847 29.137,26.884 29.137,26.896 29.176,26.961 29.29,27.024 29.315,27.037 29.341,27.075 
	29.455,27.126 29.48,27.112 29.493,27.101 29.506,27.101 29.506,27.112 29.531,27.126 29.531,27.138 29.544,27.138 29.544,27.164 
	29.558,27.215 29.558,27.266 29.544,27.266 29.531,27.292 29.506,27.292 29.493,27.292 29.468,27.279 29.441,27.279 29.43,27.279 
	29.418,27.292 29.378,27.329 29.366,27.329 29.315,27.355 29.252,27.368 29.227,27.368 29.213,27.355 29.201,27.355 29.137,27.342 
	29.086,27.317 29.062,27.304 29.048,27.304 29.01,27.304 28.896,27.317 28.856,27.317 28.831,27.304 28.819,27.304 28.806,27.304 
	28.793,27.317 28.793,27.329 28.78,27.355 28.769,27.355 28.769,27.368 28.769,27.381 28.769,27.394 28.769,27.405 28.793,27.432 
	28.806,27.432 28.819,27.444 28.831,27.458 28.87,27.482 28.896,27.508 28.922,27.534 28.972,27.56 28.997,27.571 29.01,27.585 
	29.062,27.622 29.099,27.647 29.137,27.674 29.162,27.686 29.188,27.699 29.238,27.75 29.276,27.788 29.302,27.826 29.302,27.839 
	29.315,27.865 29.327,27.902 29.327,27.941 29.327,27.953 29.315,27.979 29.315,28.005 29.29,28.03 29.276,28.042 29.227,28.081 
	29.201,28.093 29.201,28.107 29.176,28.118 29.162,28.118 29.099,28.145 29.022,28.17 28.984,28.194 28.959,28.221 28.933,28.259 
	28.933,28.271 28.922,28.335 28.922,28.45 28.908,28.488 28.908,28.552 28.908,28.577 28.896,28.603 28.882,28.641 28.845,28.703 
	28.831,28.729 28.831,28.743 28.831,28.756 28.705,28.756 28.68,28.756 28.526,28.769 28.374,28.78 28.195,28.78 28.157,28.794 
	28.119,28.794 28.067,28.794 28.043,28.794 27.94,28.806 27.915,28.806 27.711,28.82 27.647,28.82 27.636,28.82 27.622,28.82 
	27.585,28.82 27.482,28.832 27.202,28.845 27.126,28.845 26.974,28.857 26.949,28.857 26.923,28.857 26.909,28.857 26.897,28.857 
	26.872,28.857 26.858,28.857 26.719,28.869 26.593,28.883 26.554,28.883 26.299,28.896 26.108,28.908 26.096,28.908 25.88,28.908 
	25.867,28.921 25.739,28.921 25.701,28.921 25.727,28.869 25.739,28.845 25.751,28.82 25.791,28.794 25.814,28.743 25.814,28.729 
	25.814,28.718 25.828,28.692 25.814,28.666 25.814,28.654 25.828,28.654 25.841,28.641 25.867,28.615 25.88,28.615 25.88,28.59 
	25.88,28.552 25.88,28.539 25.892,28.5 25.943,28.476 25.956,28.45 25.956,28.438 25.943,28.424 25.943,28.387 25.943,28.373 
	25.956,28.373 25.98,28.348 26.007,28.335 26.031,28.323 26.045,28.284 26.045,28.271 26.057,28.233 26.057,28.221 26.071,28.221 
	26.134,28.208 26.159,28.194 26.185,28.183 26.211,28.145 26.223,28.145 26.236,28.145 26.248,28.145 26.261,28.132 26.273,28.107 
	26.287,28.093 26.299,28.081 26.324,28.068 26.324,28.055 26.337,28.03 26.337,28.017 26.337,27.991 26.324,27.953 26.337,27.915 
	26.337,27.902 26.351,27.877 26.388,27.802 26.4,27.802 26.414,27.813 26.427,27.813 26.453,27.802 26.453,27.788 26.478,27.763 
	26.464,27.75 26.464,27.737 26.478,27.737 26.49,27.737 26.504,27.711 26.516,27.699 26.528,27.686 26.541,27.686 26.554,27.686 
	26.566,27.661 26.593,27.647 26.617,27.636 26.655,27.61 26.655,27.622 26.669,27.622 26.681,27.622 26.693,27.61 26.693,27.598 
	26.732,27.545 26.757,27.545 26.77,27.545 26.783,27.545 26.809,27.534 26.821,27.508 26.821,27.495 26.809,27.495 26.796,27.469 
	26.783,27.458 26.796,27.458 26.809,27.444 26.821,27.444 26.847,27.394 26.847,27.355 26.858,27.317 26.872,27.317 26.897,27.317 
	26.923,27.292 26.961,27.279 26.986,27.279 27,27.279 27.024,27.215 27.024,27.177 27.049,27.152 27.049,27.138 27.075,27.089 
	27.075,27.075 27.062,27.062 27.049,27.037 27.012,26.998 27.012,27.012 27,27.012 27,26.998 27,26.986 26.986,26.986 27,26.973 
	27,26.949 27.012,26.936 27.024,26.923 27.012,26.923 27.012,26.909 27.012,26.896 27.012,26.872 27.024,26.872 27.024,26.858 
	27,26.832 27.012,26.82 27.037,26.795 27.049,26.77 27.062,26.732 27.062,26.692 27.062,26.643 27.037,26.604 27.012,26.579 
	27,26.566 27,26.553 26.986,26.541 26.974,26.541 26.909,26.516 26.872,26.516 26.858,26.516 26.847,26.527 26.821,26.516 
	26.809,26.503 26.783,26.489 26.757,26.489 26.745,26.464 26.719,26.477 26.706,26.477 26.706,26.464 26.719,26.464 26.719,26.451 
	26.719,26.426 26.719,26.413 26.719,26.426 26.706,26.426 26.693,26.426 26.681,26.413 26.681,26.401 26.681,26.387 26.681,26.376 
	26.693,26.376 26.706,26.376 26.719,26.337 26.719,26.311 26.706,26.311 26.706,26.285 26.706,26.26 26.706,26.235 26.681,26.223 
	26.681,26.21 26.681,26.197 26.669,26.184 26.669,26.197 26.617,26.197 26.617,26.171 26.63,26.146 26.644,26.159 26.655,26.159 
	26.669,26.146 26.669,26.134 26.669,26.12 26.655,26.12 26.644,26.12 26.593,26.095 26.604,26.07 26.593,26.07 26.593,26.057 
	26.604,26.057 26.604,26.031 26.593,26.031 26.593,26.019 26.604,26.019 26.617,26.006 26.604,26.006 26.617,25.994 26.516,25.994 
	26.427,26.006 26.312,26.006 26.299,26.006 26.261,26.006 26.185,26.019 26.096,26.019 25.854,26.031 25.814,26.031 25.751,26.031 
	25.574,26.031 25.345,26.044 25.319,26.044 25.295,26.044 25.153,26.057 25.026,26.057 25.002,26.057 24.937,26.057 24.657,26.07 
	24.619,26.07 24.606,26.082 24.568,26.082 24.517,26.082 24.479,26.082 24.365,26.082 24.313,26.082 24.301,26.095 24.11,26.095 
	24.034,26.095 23.779,26.107 23.716,26.107 23.703,26.107 23.69,26.107 23.602,26.12 23.385,26.12 23.335,26.134 23.322,26.134 
	23.282,26.134 23.271,26.134 23.258,26.134 23.245,26.134 23.041,26.134 22.966,26.146 22.876,26.146 22.863,26.146 22.774,26.146 
	22.647,26.159 22.609,26.159 22.24,26.171 22.188,26.171 22.101,26.171 21.896,26.184 21.68,26.197 21.642,26.197 21.604,26.197 
	21.286,26.21 21.17,26.21 20.813,26.223 20.802,26.223 20.688,26.223 20.662,26.223 20.625,26.223 20.599,26.223 20.471,26.223 
	20.395,26.223 20.369,26.223 20.357,26.223 20.344,26.223 20.242,26.235 20.229,26.235 20.204,26.235 20.191,26.235 20.165,26.235 
	20.141,26.235 20.127,26.235 20.115,26.235 20.077,26.235 19.987,26.235 19.924,26.235 19.898,26.235 19.821,26.235 19.759,26.247 
	19.708,26.247 19.567,26.247 19.504,26.247 19.326,26.26 19.135,26.26 19.07,26.26 19.058,26.26 18.982,26.273 18.969,26.273 
	18.957,26.273 18.817,26.273 18.767,26.273 18.689,26.273 18.678,26.273 18.512,26.285 18.371,26.285 18.346,26.285 18.27,26.285 
	18.116,26.3 18.104,26.3 17.965,26.3 17.926,26.3 17.862,26.3 17.799,26.3 17.786,26.3 17.709,26.3 17.595,26.3 17.492,26.311 
	17.417,26.311 17.353,26.311 17.138,26.324 17.073,26.324 17.062,26.324 17.047,26.324 16.858,26.324 16.844,26.324 16.616,26.337 
	16.577,26.337 16.438,26.337 16.335,26.337 16.322,26.35 16.272,26.337 16.106,26.35 16.081,26.35 16.042,26.35 15.992,26.337 
	15.953,26.35 15.827,26.35 15.813,26.35 15.801,26.35 15.662,26.35 15.597,26.35 15.546,26.35 15.458,26.35 15.445,26.362 
	15.216,26.362 15.19,26.362 15.139,26.362 15.101,26.362 14.529,26.376 14.477,26.376 14.414,26.376 14.171,26.376 14.096,26.387 
	13.918,26.387 13.905,26.387 13.803,26.387 13.752,26.387 13.726,26.387 13.548,26.387 13.484,26.387 13.357,26.387 13.345,26.401 
	13.103,26.401 13.014,26.401 12.835,26.401 12.81,26.401 12.722,26.401 12.708,26.401 12.454,26.413 12.403,26.413 12.263,26.413 
	12.046,26.413 11.958,26.413 11.831,26.413 11.64,26.413 11.627,26.413 11.589,26.413 11.576,26.413 11.538,26.413 11.513,26.413 
	11.487,26.413 11.449,26.413 11.397,26.413 11.385,26.413 11.283,26.413 11.207,26.413 11.156,26.413 11.144,26.413 11.105,26.413 
	11.067,26.413 11.042,26.413 10.724,26.426 10.71,26.426 10.265,26.426 10.215,26.426 10.177,26.426 10.138,26.426 10.087,26.426 
	10.049,26.426 10.023,26.426 10.011,26.426 9.96,26.426 9.935,26.426 9.553,26.439 9.54,26.439 9.528,26.439 9.4,26.439 
	9.222,26.439 9.145,26.439 9.12,26.439 9.107,26.439 8.98,26.439 8.967,26.439 8.955,26.439 8.917,26.439 8.904,26.439 
	8.802,26.439 8.764,26.439 8.433,26.439 8.344,26.439 8.332,26.439 8.318,26.439 8.279,26.439 8.267,26.439 8.254,26.439 
	8.179,26.439 7.975,26.439 7.95,26.439 7.936,26.439 7.924,26.439 7.886,26.439 7.873,26.439 7.784,26.439 7.542,26.439 
	7.53,26.439 7.517,26.439 7.504,26.439 7.466,26.439 7.339,26.439 "/>
<polyline fill="none" stroke="#404041" stroke-width="0.1" stroke-linecap="round" stroke-linejoin="round" stroke-miterlimit="3.85" points="
	7.339,26.439 7.263,26.439 7.211,26.439 7.186,26.439 7.109,26.439 7.007,26.439 6.995,26.439 6.982,26.439 6.893,26.439 
	6.867,26.439 6.855,26.439 6.715,26.439 6.689,26.439 6.677,26.439 6.588,26.439 6.562,26.439 6.384,26.439 6.358,26.439 
	6.218,26.439 6.193,26.439 6.041,26.439 5.927,26.439 5.927,26.35 5.927,26.337 5.927,26.247 5.927,26.235 5.927,26.223 
	5.927,26.159 5.927,26.134 5.927,26.044 5.927,25.994 5.927,25.879 5.927,25.866 5.927,25.828 5.927,25.79 5.927,25.727 
	5.927,25.714 5.927,25.561 5.927,25.534 5.927,25.472 5.927,25.458 5.927,25.281 5.927,25.242 5.927,24.962 5.927,24.911 
	5.927,24.873 5.927,24.771 5.927,24.594 5.927,24.568 5.927,24.542 5.927,24.517 5.927,24.466 5.927,24.439 5.927,24.428 
	5.927,24.313 5.927,24.249 5.927,24.16 5.927,24.071 5.927,24.021 5.927,23.995 5.927,23.969 5.927,23.918 5.927,23.866 
	5.927,23.854 5.927,23.601 5.927,23.587 5.927,23.575 5.927,23.537 5.927,23.511 5.927,23.485 5.927,23.371 5.927,23.334 
	5.927,23.244 5.927,23.218 5.927,23.205 5.927,23.168 5.927,23.129 5.927,23.116 5.927,23.078 5.927,23.065 5.927,23.053 
	5.927,23.028 5.927,23.014 5.927,22.977 5.927,22.964 5.927,22.913 5.927,22.888 5.927,22.824 5.927,22.811 5.927,22.696 
	5.927,22.646 5.927,22.568 5.927,22.531 5.927,22.48 5.927,22.455 5.927,22.379 5.927,22.252 5.927,22.2 5.927,22.187 5.927,22.06 
	5.939,21.704 5.939,21.627 5.939,21.474 5.939,21.462 5.939,21.373 5.939,21.297 5.939,21.206 5.939,21.118 5.939,21.041 
	5.939,20.952 5.939,20.927 5.939,20.9 5.939,20.876 5.939,20.825 5.939,20.787 5.939,20.66 5.939,20.57 5.939,20.532 5.939,20.494 
	5.939,20.392 5.939,20.368 5.939,20.354 5.939,20.329 5.939,20.315 5.939,20.291 5.939,20.278 5.939,20.062 5.939,19.908 
	5.939,19.871 5.939,19.819 5.939,19.705 5.939,19.654 5.939,19.629 5.939,19.616 5.939,19.603 5.939,19.426 5.939,19.374 
	5.939,19.195 5.939,19.17 5.939,19.133 5.939,19.107 5.939,18.865 5.939,18.764 5.939,18.725 5.939,18.712 5.939,18.674 
	5.939,18.637 5.939,18.61 5.952,18.559 5.939,18.521 5.952,18.471 5.952,18.395 5.952,18.369 5.952,18.305 5.952,18.203 
	5.952,18.19 5.952,18.165 5.952,18.152 5.952,18.139 5.952,18.114 5.952,18.102 5.952,17.987 5.952,17.949 5.952,17.897 
	5.952,17.872 5.952,17.617 5.952,17.479 5.952,17.452 5.952,17.439 5.952,17.146 5.952,17.108 5.952,17.045 5.952,16.968 
	5.952,16.905 5.965,16.867 5.965,16.854 5.965,16.727 5.965,16.675 5.965,16.65 5.965,16.574 5.965,16.562 5.965,16.523 
	5.965,16.459 5.965,16.268 5.965,16.256 5.965,16.167 5.965,16.154 5.965,16.09 5.965,16.026 5.965,16.014 5.965,15.988 
	5.965,15.962 5.965,15.899 5.965,15.848 5.965,15.734 5.965,15.708 5.965,15.593 5.965,15.568 5.965,15.53 5.965,15.505 
	5.965,15.492 5.965,15.428 5.965,15.097 5.965,15.084 5.965,15.046 5.965,15.008 5.965,14.843 5.965,14.678 5.965,14.665 
	5.965,14.575 5.965,14.512 5.965,14.5 5.965,14.347 5.965,14.333 5.965,14.257 5.965,14.231 5.965,14.18 5.977,13.964 5.977,13.939 
	5.977,13.926 5.977,13.812 5.977,13.621 5.977,13.596 5.977,13.583 5.977,13.57 5.977,13.557 5.977,13.455 5.99,13.341 5.99,13.29 
	5.99,13.175 5.99,13.086 5.99,13.073 5.99,13.048 5.99,12.958 5.99,12.946 5.99,12.92 5.99,12.882 5.99,12.844 5.99,12.832 
	5.99,12.755 5.99,12.704 5.99,12.692 5.99,12.627 5.99,12.603 5.99,12.59 5.99,12.539 5.99,12.488 5.99,12.449 5.99,12.424 
	5.99,12.412 5.99,12.373 5.99,12.335 5.99,12.284 5.99,12.271 5.99,12.259 5.99,12.246 5.99,12.233 5.99,12.183 5.99,12.169 
	5.99,12.157 5.99,12.131 5.99,12.118 5.99,12.081 5.99,12.042 5.99,12.017 5.99,12.004 5.99,11.979 5.99,11.966 5.99,11.928 
	5.99,11.915 5.99,11.89 5.99,11.877 5.99,11.852 5.99,11.838 5.99,11.826 5.99,11.813 5.99,11.8 5.99,11.775 5.99,11.762 
	5.99,11.75 5.99,11.737 5.99,11.724 5.99,11.711 5.99,11.673 5.99,11.609 5.99,11.571 5.99,11.431 5.99,11.394 6.002,11.381 
	6.027,11.342 6.053,11.304 6.066,11.279 6.066,11.189 6.041,11.177 6.015,11.164 5.99,11.164 5.952,11.164 5.913,11.189 
	5.85,11.203 5.799,11.203 5.748,11.177 5.761,11.113 5.735,11.049 5.723,11.037 5.671,11.024 5.633,11.024 5.595,11.062 
	5.544,11.087 5.519,11.101 5.468,11.113 5.417,11.113 5.392,11.101 5.34,11.087 5.302,11.049 5.264,10.986 5.239,10.935 
	5.226,10.909 5.214,10.896 5.201,10.896 5.188,10.884 5.188,10.896 5.162,10.896 5.137,10.896 5.124,10.896 5.086,10.896 
	5.036,10.884 5.022,10.872 4.997,10.846 4.984,10.833 4.972,10.82 4.972,10.808 4.972,10.795 4.984,10.782 5.01,10.744 5.01,10.731 
	5.01,10.718 5.022,10.718 5.022,10.693 5.01,10.668 5.01,10.655 5.01,10.642 4.997,10.604 4.984,10.604 4.972,10.591 4.972,10.578 
	4.959,10.578 4.946,10.565 4.934,10.553 4.92,10.54 4.908,10.527 4.882,10.515 4.832,10.489 4.818,10.477 4.806,10.477 4.78,10.464 
	4.769,10.451 4.743,10.438 4.73,10.426 4.705,10.387 4.691,10.362 4.691,10.35 4.679,10.35 4.679,10.337 4.679,10.324 4.667,10.311 
	4.667,10.299 4.667,10.286 4.667,10.273 4.653,10.26 4.653,10.235 4.653,10.222 4.653,10.184 4.641,10.107 4.641,10.082 
	4.641,10.069 4.641,10.056 4.653,10.044 4.653,10.031 4.679,10.005 4.691,9.993 4.705,9.993 4.73,9.993 4.755,9.968 4.769,9.955 
	4.78,9.929 4.78,9.904 4.78,9.891 4.78,9.878 4.769,9.878 4.755,9.84 4.743,9.828 4.73,9.828 4.717,9.828 4.717,9.815 4.705,9.828 
	4.679,9.828 4.653,9.853 4.615,9.866 4.603,9.866 4.591,9.878 4.552,9.866 4.539,9.866 4.527,9.866 4.527,9.853 4.514,9.853 
	4.5,9.84 4.488,9.815 4.488,9.802 4.488,9.79 4.488,9.751 4.475,9.738 4.462,9.713 4.45,9.7 4.399,9.688 4.399,9.674 4.387,9.674 
	4.361,9.662 4.348,9.637 4.348,9.624 4.335,9.573 4.323,9.547 4.285,9.521 4.271,9.509 4.246,9.496 4.183,9.483 4.119,9.445 
	4.093,9.433 4.082,9.42 4.082,9.407 4.068,9.395 4.056,9.395 4.043,9.369 4.043,9.344 4.029,9.318 4.029,9.242 4.018,9.217 
	4.018,9.204 3.991,9.178 3.979,9.166 3.903,9.127 3.877,9.115 3.839,9.064 3.826,9.051 3.813,9.039 3.788,9.013 3.775,8.987 
	3.763,8.962 3.763,8.949 3.75,8.898 3.75,8.886 3.75,8.873 3.75,8.86 3.763,8.809 3.763,8.796 3.775,8.784 3.775,8.771 3.788,8.771 
	3.788,8.758 3.801,8.758 3.801,8.746 3.813,8.746 3.826,8.746 3.852,8.746 3.915,8.758 3.915,8.771 3.927,8.771 3.941,8.771 
	3.953,8.771 3.953,8.758 3.966,8.758 3.991,8.746 4.004,8.746 4.004,8.733 4.029,8.694 4.043,8.656 4.043,8.631 4.043,8.618 
	4.043,8.593 4.018,8.555 4.018,8.529 4.004,8.516 4.004,8.503 4.004,8.491 4.018,8.453 4.029,8.415 4.056,8.376 4.082,8.351 
	4.082,8.325 4.131,8.262 4.145,8.237 4.157,8.224 4.17,8.211 4.183,8.211 4.195,8.198 4.208,8.198 4.221,8.198 4.233,8.198 
	4.246,8.198 4.259,8.198 4.285,8.198 4.297,8.186 4.31,8.186 4.323,8.186 4.335,8.186 4.361,8.16 4.387,8.135 4.387,8.122 
	4.387,8.096 4.399,8.033 4.399,8.02 4.387,7.931 4.387,7.918 4.387,7.906 4.387,7.893 4.387,7.88 4.387,7.867 4.399,7.854 
	4.412,7.842 4.412,7.829 4.437,7.816 4.45,7.791 4.462,7.791 4.475,7.791 4.488,7.804 4.5,7.804 4.527,7.816 4.527,7.829 
	4.565,7.854 4.577,7.867 4.615,7.893 4.653,7.906 4.653,7.918 4.667,7.918 4.691,7.918 4.705,7.918 4.73,7.918 4.769,7.906 
	4.78,7.906 4.806,7.88 4.832,7.867 4.87,7.816 4.87,7.778 4.882,7.752 4.87,7.702 4.857,7.676 4.857,7.664 4.844,7.651 4.832,7.638 
	4.806,7.651 4.78,7.651 4.769,7.664 4.73,7.689 4.717,7.702 4.705,7.702 4.705,7.714 4.691,7.714 4.679,7.714 4.667,7.714 
	4.641,7.714 4.628,7.714 4.615,7.702 4.603,7.689 4.591,7.689 4.591,7.676 4.577,7.664 4.565,7.664 4.552,7.638 4.539,7.625 
	4.539,7.612 4.539,7.587 4.552,7.562 4.565,7.562 4.565,7.549 4.577,7.549 4.591,7.549 4.641,7.536 4.653,7.536 4.717,7.536 
	4.73,7.536 4.743,7.536 4.769,7.523 4.78,7.498 4.806,7.447 4.806,7.409 4.806,7.371 4.806,7.345 4.793,7.345 4.793,7.333 
	4.78,7.32 4.769,7.307 4.755,7.294 4.743,7.294 4.73,7.294 4.691,7.294 4.679,7.294 4.667,7.294 4.653,7.294 4.653,7.281 
	4.628,7.281 4.591,7.243 4.539,7.205 4.527,7.193 4.514,7.155 4.514,7.129 4.527,7.116 4.527,7.104 4.565,7.065 4.577,7.052 
	4.577,7.027 4.577,7.002 4.577,6.989 4.577,6.977 4.552,6.951 4.514,6.925 4.475,6.912 4.45,6.9 4.437,6.9 4.425,6.9 4.361,6.925 
	4.348,6.925 4.323,6.925 4.31,6.925 4.285,6.925 4.246,6.912 4.221,6.912 4.208,6.912 4.183,6.925 4.17,6.938 4.157,6.951 
	4.157,6.963 4.145,6.963 4.145,6.977 4.145,6.989 4.145,7.027 4.145,7.04 4.145,7.052 4.131,7.078 4.119,7.09 4.106,7.104 
	4.093,7.104 4.068,7.116 4.029,7.116 3.903,7.129 3.89,7.129 3.865,7.116 3.852,7.116 3.788,7.078 3.7,7.052 3.661,7.04 
	3.648,7.027 3.636,7.015 3.636,6.989 3.623,6.963 3.636,6.938 3.636,6.912 3.623,6.9 3.61,6.887 3.61,6.875 3.598,6.875 
	3.584,6.875 3.584,6.862 3.572,6.862 3.559,6.862 3.546,6.862 3.496,6.887 3.496,6.9 3.47,6.9 3.457,6.9 3.419,6.9 3.406,6.9 
	3.395,6.9 3.395,6.887 3.38,6.887 3.369,6.875 3.355,6.862 3.355,6.849 3.355,6.836 3.355,6.824 3.355,6.811 3.369,6.772 
	3.38,6.747 3.369,6.708 3.355,6.684 3.317,6.658 3.304,6.646 3.292,6.646 3.24,6.646 3.216,6.646 3.19,6.646 3.152,6.62 
	3.126,6.582 3.101,6.556 3.076,6.505 3.051,6.493 2.987,6.454 2.923,6.416 2.91,6.391 2.91,6.377 2.897,6.365 2.897,6.327 
	2.897,6.314 2.885,6.276 2.872,6.25 2.859,6.25 2.809,6.238 2.783,6.212 2.732,6.162 2.719,6.149 2.693,6.149 2.655,6.136 
	2.579,6.162 2.553,6.174 2.541,6.162 2.516,6.162 2.503,6.149 2.49,6.149 2.465,6.136 2.452,6.111 2.439,6.098 2.427,6.085 
	2.427,6.072 2.427,6.06 2.414,6.047 2.414,6.034 2.414,6.008 2.401,5.983 2.414,5.971 2.414,5.958 2.427,5.958 2.427,5.945 
	2.439,5.945 2.452,5.945 2.478,5.933 2.49,5.933 2.516,5.907 2.529,5.895 2.529,5.869 2.529,5.831 2.503,5.818 2.503,5.805 
	2.516,5.792 2.529,5.767 2.516,5.754 2.503,5.729 2.516,5.716 2.529,5.703 2.541,5.678 2.541,5.665 2.541,5.652 2.529,5.64 
	2.529,5.627 2.529,5.614 2.516,5.602 2.503,5.589 2.49,5.576 2.478,5.576 2.465,5.576 2.427,5.576 2.414,5.563 2.401,5.563 
	2.375,5.538 2.375,5.525 2.364,5.512 2.364,5.5 2.364,5.487 2.364,5.436 2.35,5.423 2.35,5.411 2.338,5.397 2.325,5.385 
	2.262,5.359 2.236,5.347 2.198,5.309 2.172,5.271 2.16,5.258 2.146,5.232 2.146,5.219 2.146,5.194 2.146,5.181 2.146,5.168 
	2.172,5.118 2.185,5.092 2.185,5.08 2.198,5.08 2.198,5.067 2.198,5.054 2.198,5.041 2.21,5.003 2.198,4.991 2.198,4.965 
	2.172,4.927 2.146,4.901 2.134,4.889 2.121,4.889 2.07,4.889 2.006,4.889 1.981,4.889 1.866,4.825 1.842,4.812 1.829,4.799 
	1.829,4.774 1.829,4.762 1.854,4.698 1.854,4.685 1.854,4.672 1.854,4.66 1.842,4.646 1.816,4.621 1.803,4.609 1.791,4.609 
	1.791,4.596 1.777,4.596 1.765,4.596 1.714,4.596 1.688,4.583 1.675,4.57 1.651,4.532 1.638,4.532 1.613,4.52 1.599,4.507 
	1.587,4.507 1.574,4.507 1.561,4.507 1.536,4.52 1.473,4.545 1.447,4.558 1.434,4.558 1.409,4.545 1.396,4.545 1.383,4.52 
	1.383,4.507 1.383,4.494 1.383,4.468 1.396,4.456 1.421,4.443 1.485,4.417 1.511,4.405 1.523,4.392 1.536,4.367 1.536,4.354 
	1.536,4.329 1.536,4.315 1.536,4.303 1.523,4.277 1.511,4.265 1.498,4.252 1.473,4.239 1.473,4.214 1.459,4.201 1.459,4.188 
	1.459,4.15 1.459,4.137 1.447,4.087 1.421,4.036 1.421,4.01 1.383,3.959 1.371,3.921 1.383,3.909 1.383,3.896 1.383,3.883 
	1.383,3.871 1.421,3.858 1.434,3.845 1.459,3.833 1.473,3.819 1.473,3.807 1.459,3.807 1.434,3.794 1.434,3.781 1.421,3.781 
	1.421,3.756 1.434,3.743 1.447,3.705 1.459,3.68 1.447,3.68 1.447,3.667 1.434,3.667 1.421,3.667 1.396,3.667 1.332,3.68 
	1.307,3.667 1.281,3.641 1.269,3.641 1.269,3.628 1.243,3.616 1.23,3.603 1.23,3.578 1.23,3.552 1.23,3.54 1.255,3.527 1.269,3.514 
	1.281,3.514 1.294,3.488 1.294,3.476 1.294,3.45 1.294,3.438 1.269,3.425 1.255,3.412 1.217,3.4 1.23,3.4 1.243,3.387 1.357,3.349 
	1.383,3.335 1.409,3.297 1.409,3.285 1.421,3.221 1.421,3.196 1.409,3.17 1.383,3.145 1.371,3.106 1.345,3.081 1.307,3.081 
	1.269,3.081 1.243,3.106 1.243,3.145 1.23,3.17 1.23,3.221 1.23,3.247 1.23,3.272 1.179,3.31 1.167,3.297 1.153,3.272 1.116,3.272 
	1.104,3.272 1.078,3.285 1.052,3.297 1.001,3.297 0.964,3.285 0.938,3.272 0.926,3.247 0.912,3.233 0.912,3.221 0.912,3.196 
	0.938,3.17 0.938,3.157 0.938,3.145 0.938,3.119 0.938,3.106 0.9,3.055 0.887,3.005 0.9,2.979 0.926,2.954 0.938,2.941 "/>
<g>
	<polygon fill="#FFFFFF" points="0.938,2.941 1.014,2.941 1.269,2.954 1.421,2.954 1.459,2.954 1.473,2.954 1.485,2.954 
		1.613,2.954 1.765,2.967 1.854,2.967 1.892,2.967 1.943,2.967 1.981,2.967 2.146,2.979 2.223,2.979 2.401,2.979 2.465,2.979 
		2.643,2.992 2.719,2.992 2.809,2.992 3.152,3.005 3.178,3.005 3.278,3.005 3.317,3.005 3.331,3.005 3.355,3.005 3.395,3.005 
		3.559,3.005 3.61,3.018 3.648,3.018 3.75,3.018 3.788,3.018 3.801,3.018 3.813,3.018 3.852,3.018 3.927,3.018 3.979,3.018 
		4.106,3.03 4.145,3.03 4.17,3.03 4.183,3.03 4.323,3.03 4.361,3.03 4.425,3.03 4.475,3.03 4.653,3.03 4.717,3.03 4.73,3.043 
		5.061,3.043 5.074,3.043 5.112,3.043 5.149,3.043 5.162,3.043 5.278,3.043 5.392,3.055 5.519,3.055 5.531,3.055 5.607,3.055 
		5.633,3.055 5.646,3.055 5.671,3.055 5.888,3.055 6.066,3.068 6.091,3.068 6.27,3.068 6.282,3.068 6.295,3.068 6.308,3.068 
		6.32,3.068 6.524,3.068 6.6,3.068 6.639,3.068 6.652,3.068 6.779,3.055 6.893,3.055 6.957,3.055 7.097,3.055 7.147,3.055 
		7.186,3.055 7.237,3.055 7.301,3.055 7.377,3.055 7.402,3.055 7.592,3.055 7.631,3.055 7.645,3.055 7.656,3.055 7.669,3.055 
		8.089,3.055 8.14,3.043 8.267,3.043 8.306,3.043 8.509,3.043 8.599,3.043 8.649,3.043 8.713,3.03 8.764,3.03 8.814,3.03 
		8.928,3.03 8.943,3.03 9.044,3.03 9.095,3.03 9.107,3.03 9.145,3.018 9.298,3.018 9.362,3.018 9.451,3.018 9.463,3.018 
		9.591,3.018 9.654,3.018 9.667,3.005 9.756,3.005 9.77,3.005 9.782,3.005 9.807,3.005 9.845,3.005 9.871,3.005 10.011,3.005 
		10.075,3.005 10.1,3.005 10.113,3.005 10.138,3.005 10.151,3.005 10.163,3.005 10.317,2.992 10.418,2.992 10.558,2.992 
		10.57,2.992 10.583,2.992 10.596,2.992 10.608,2.992 10.634,2.992 10.71,2.979 10.724,2.979 10.736,2.979 10.749,2.979 
		10.762,2.979 10.787,2.979 10.902,2.979 10.991,2.979 11.004,2.979 11.105,2.979 11.397,2.979 11.525,2.979 11.601,2.967 
		11.653,2.967 11.894,2.967 12.11,2.967 12.148,2.954 12.441,2.954 12.607,2.941 12.646,2.941 12.67,2.941 13.116,2.916 
		13.141,2.916 13.218,2.902 13.231,2.902 13.28,2.902 13.294,2.902 13.459,2.902 13.523,2.902 13.562,2.902 13.624,2.902 
		13.638,2.902 13.65,2.902 13.663,2.89 13.765,2.89 13.79,2.89 14.096,2.89 14.122,2.877 14.146,2.877 14.171,2.877 14.287,2.877 
		14.401,2.877 14.414,2.877 14.617,2.865 14.872,2.852 14.96,2.839 15.126,2.839 15.292,2.827 15.305,2.827 15.342,2.827 
		15.394,2.814 15.432,2.814 15.546,2.814 15.624,2.814 15.75,2.801 15.877,2.801 15.967,2.788 16.106,2.788 16.132,2.788 
		16.335,2.776 16.374,2.776 16.462,2.763 16.526,2.763 16.552,2.763 16.628,2.763 16.998,2.737 17.01,2.737 17.047,2.737 
		17.111,2.737 17.124,2.737 17.138,2.737 17.149,2.737 17.175,2.725 17.289,2.725 17.417,2.712 17.544,2.712 17.633,2.7 17.646,2.7 
		17.659,2.7 17.684,2.7 17.99,2.674 18.142,2.661 18.181,2.661 18.231,2.661 18.281,2.648 18.308,2.648 18.346,2.648 18.601,2.623 
		18.639,2.7 18.651,2.712 18.678,2.725 18.741,2.763 18.778,2.788 18.791,2.814 18.791,2.827 18.767,2.902 18.767,2.916 
		18.778,2.928 18.778,2.941 18.791,2.941 18.817,2.967 18.868,2.979 18.931,2.992 19.008,3.005 19.058,3.018 19.07,3.018 
		19.084,3.018 19.084,3.03 19.097,3.043 19.097,3.068 19.097,3.106 19.084,3.17 19.084,3.183 19.084,3.208 19.097,3.221 
		19.109,3.233 19.123,3.247 19.147,3.259 19.173,3.272 19.187,3.285 19.211,3.285 19.225,3.31 19.249,3.335 19.263,3.374 
		19.263,3.4 19.274,3.412 19.274,3.425 19.3,3.45 19.339,3.476 19.351,3.476 19.402,3.488 19.439,3.488 19.479,3.488 19.491,3.488 
		19.504,3.488 19.516,3.488 19.53,3.501 19.53,3.527 19.53,3.54 19.53,3.552 19.516,3.552 19.491,3.578 19.491,3.59 19.491,3.603 
		19.491,3.616 19.504,3.628 19.53,3.628 19.542,3.628 19.556,3.641 19.542,3.667 19.516,3.705 19.516,3.73 19.53,3.743 19.53,3.768 
		19.542,3.768 19.556,3.768 19.579,3.768 19.605,3.781 19.605,3.794 19.618,3.807 19.632,3.807 19.656,3.807 19.67,3.807 
		19.682,3.794 19.695,3.794 19.695,3.807 19.695,3.819 19.682,3.845 19.682,3.858 19.708,3.909 19.72,3.921 19.733,3.921 
		19.746,3.921 19.771,3.921 19.796,3.896 19.796,3.921 19.796,3.934 19.796,3.946 19.81,3.959 19.848,3.959 19.86,3.959 
		19.86,3.946 19.873,3.934 19.898,3.896 19.912,3.896 19.924,3.896 19.936,3.896 19.976,3.909 19.987,3.921 20.001,3.934 
		19.987,3.946 19.976,3.972 19.961,3.984 19.936,3.984 19.912,3.998 19.886,4.023 19.886,4.036 19.886,4.049 19.873,4.074 
		19.86,4.074 19.848,4.112 19.821,4.15 19.81,4.188 19.796,4.188 19.796,4.201 19.796,4.265 19.784,4.29 19.72,4.431 19.72,4.456 
		19.708,4.468 19.708,4.481 19.708,4.494 19.695,4.52 19.695,4.532 19.695,4.57 19.708,4.596 19.708,4.609 19.708,4.621 
		19.682,4.685 19.682,4.698 19.67,4.71 19.656,4.723 19.644,4.749 19.644,4.762 19.644,4.774 19.656,4.787 19.656,4.825 
		19.644,4.876 19.644,4.915 19.656,4.94 19.656,4.965 19.656,4.978 19.656,4.991 19.644,5.016 19.632,5.041 19.632,5.08 
		19.632,5.092 19.632,5.143 19.656,5.219 19.644,5.258 19.644,5.271 19.644,5.296 19.644,5.309 19.644,5.334 19.644,5.347 
		19.644,5.359 19.644,5.372 19.644,5.385 19.656,5.385 19.656,5.423 19.656,5.436 19.67,5.474 19.67,5.5 19.682,5.512 19.682,5.525 
		19.682,5.55 19.695,5.602 19.72,5.665 19.733,5.716 19.746,5.767 19.759,5.792 19.746,5.818 19.733,5.907 19.746,5.92 
		19.746,5.933 19.771,5.971 19.771,5.983 19.784,6.008 19.821,6.06 19.86,6.136 19.86,6.162 19.873,6.187 19.873,6.199 
		19.886,6.212 19.898,6.225 19.912,6.238 19.924,6.276 19.949,6.314 19.961,6.34 19.987,6.391 20.001,6.403 20.013,6.416 
		20.013,6.429 20.038,6.441 20.052,6.454 20.063,6.467 20.063,6.479 20.077,6.493 20.077,6.505 20.089,6.518 20.089,6.543 
		20.089,6.556 20.089,6.582 20.089,6.594 20.077,6.607 20.052,6.632 20.013,6.684 19.987,6.722 19.976,6.785 19.976,6.811 
		19.987,6.849 20.013,6.938 20.025,6.977 20.025,6.989 20.038,7.002 20.052,7.027 20.063,7.04 20.127,7.078 20.165,7.104 
		20.204,7.129 20.267,7.167 20.292,7.18 20.305,7.193 20.344,7.243 20.369,7.294 20.369,7.32 20.369,7.333 20.369,7.345 
		20.357,7.371 20.357,7.396 20.357,7.409 20.357,7.447 20.369,7.485 20.357,7.498 20.357,7.511 20.344,7.562 20.344,7.638 
		20.357,7.638 20.357,7.651 20.382,7.676 20.407,7.714 20.421,7.714 20.421,7.728 20.434,7.728 20.445,7.752 20.458,7.765 
		20.509,7.804 20.522,7.816 20.534,7.816 20.585,7.854 20.637,7.906 20.649,7.906 20.649,7.918 20.662,7.931 20.7,7.956 
		20.75,7.982 20.776,8.007 20.827,8.059 20.853,8.096 20.866,8.109 20.904,8.147 20.916,8.16 20.93,8.173 20.93,8.186 20.942,8.198 
		20.993,8.249 21.019,8.274 21.056,8.287 21.195,8.338 21.21,8.351 21.222,8.376 21.247,8.402 21.247,8.415 21.26,8.465 
		21.272,8.542 21.272,8.567 21.298,8.606 21.323,8.631 21.35,8.656 21.361,8.669 21.375,8.669 21.463,8.694 21.516,8.694 
		21.526,8.694 21.592,8.708 21.616,8.758 21.655,8.822 21.68,8.886 21.705,8.911 21.718,8.924 21.757,8.949 21.769,9.025 
		21.769,9.064 21.782,9.089 21.782,9.102 21.808,9.127 21.808,9.14 21.819,9.14 21.819,9.152 21.832,9.152 21.845,9.166 
		21.884,9.217 21.896,9.229 21.908,9.229 21.922,9.242 21.935,9.255 21.947,9.268 21.999,9.306 22.036,9.331 22.087,9.356 
		22.139,9.369 22.164,9.382 22.177,9.395 22.202,9.407 22.214,9.407 22.253,9.42 22.29,9.433 22.316,9.445 22.329,9.445 
		22.329,9.458 22.342,9.458 22.342,9.471 22.342,9.483 22.354,9.483 22.354,9.509 22.354,9.521 22.367,9.521 22.38,9.547 
		22.405,9.56 22.418,9.56 22.431,9.573 22.444,9.573 22.456,9.573 22.481,9.573 22.494,9.585 22.507,9.598 22.507,9.611 
		22.521,9.624 22.545,9.649 22.545,9.662 22.558,9.662 22.584,9.674 22.596,9.674 22.647,9.713 22.66,9.713 22.697,9.738 
		22.761,9.776 22.787,9.79 22.787,9.802 22.876,9.891 22.901,9.904 22.978,9.955 23.003,9.968 23.017,9.98 23.017,10.005 
		23.054,10.031 23.093,10.056 23.093,10.069 23.131,10.133 23.207,10.209 23.22,10.222 23.258,10.235 23.282,10.248 23.297,10.26 
		23.322,10.286 23.335,10.362 23.347,10.4 23.347,10.413 23.347,10.438 23.347,10.451 23.359,10.489 23.373,10.502 23.373,10.527 
		23.373,10.54 23.373,10.565 23.373,10.578 23.373,10.604 23.385,10.629 23.385,10.642 23.385,10.668 23.411,10.718 23.411,10.731 
		23.422,10.833 23.422,10.858 23.437,10.909 23.448,10.935 23.462,10.948 23.487,10.986 23.513,11.024 23.524,11.037 23.524,11.049 
		23.539,11.062 23.539,11.075 23.551,11.151 23.551,11.203 23.551,11.215 23.475,11.317 23.475,11.33 23.475,11.355 23.422,11.406 
		23.422,11.418 23.422,11.431 23.437,11.457 23.448,11.482 23.487,11.559 23.524,11.635 23.539,11.66 23.551,11.686 23.551,11.699 
		23.562,11.711 23.562,11.724 23.576,11.724 23.576,11.737 23.588,11.75 23.602,11.775 23.602,11.813 23.614,11.915 23.614,11.928 
		23.614,11.94 23.614,11.953 23.627,11.966 23.64,11.991 23.652,12.017 23.665,12.106 23.679,12.131 23.69,12.157 23.703,12.183 
		23.728,12.208 23.754,12.221 23.792,12.246 23.805,12.271 23.844,12.335 23.855,12.348 23.995,12.424 24.034,12.449 24.047,12.462 
		24.061,12.462 24.085,12.462 24.124,12.462 24.136,12.449 24.148,12.449 24.174,12.449 24.174,12.438 24.212,12.424 24.226,12.412 
		24.275,12.348 24.34,12.271 24.377,12.246 24.416,12.208 24.467,12.118 24.479,12.068 24.492,12.068 24.492,12.055 24.479,12.042 
		24.479,12.03 24.479,12.017 24.479,12.004 24.492,12.004 24.492,11.991 24.505,11.966 24.531,11.915 24.543,11.902 24.568,11.89 
		24.619,11.864 24.671,11.864 24.683,11.864 24.696,11.877 24.734,11.89 24.747,11.89 24.797,11.89 24.822,11.89 24.849,11.89 
		24.861,11.902 24.874,11.902 24.913,11.915 24.925,11.915 24.925,11.928 24.988,11.953 25.014,11.966 25.026,11.966 25.09,12.004 
		25.153,12.03 25.153,12.042 25.166,12.042 25.18,12.055 25.192,12.055 25.205,12.055 25.229,12.068 25.269,12.093 25.281,12.093 
		25.319,12.093 25.332,12.093 25.383,12.081 25.408,12.081 25.422,12.081 25.446,12.093 25.472,12.106 25.498,12.093 25.51,12.093 
		25.535,12.106 25.574,12.131 25.626,12.144 25.638,12.157 25.649,12.157 25.663,12.169 25.701,12.195 25.701,12.208 25.727,12.221 
		25.727,12.233 25.751,12.246 25.777,12.271 25.791,12.284 25.803,12.284 25.814,12.284 25.828,12.284 25.841,12.297 25.854,12.297 
		25.88,12.31 25.892,12.322 25.917,12.335 25.931,12.335 25.969,12.373 25.994,12.386 26.02,12.399 26.031,12.412 26.071,12.424 
		26.083,12.424 26.108,12.449 26.134,12.462 26.171,12.475 26.185,12.5 26.185,12.513 26.185,12.539 26.185,12.564 26.171,12.679 
		26.159,12.73 26.134,12.768 26.031,12.87 25.956,12.934 25.931,12.958 25.917,12.984 25.917,12.997 25.917,13.01 25.905,13.035 
		25.88,13.086 25.841,13.099 25.791,13.163 25.766,13.201 25.766,13.226 25.766,13.251 25.766,13.29 25.777,13.341 25.814,13.392 
		25.828,13.417 25.841,13.417 25.867,13.468 25.88,13.48 25.892,13.493 25.892,13.506 25.905,13.544 25.917,13.583 25.931,13.671 
		25.931,13.684 25.931,13.723 25.931,13.761 25.917,13.812 25.917,13.862 25.905,13.862 25.905,13.875 25.88,13.926 25.867,13.952 
		25.841,13.99 25.814,14.002 25.814,14.015 25.803,14.015 25.777,14.053 25.766,14.066 25.751,14.066 25.739,14.079 25.688,14.18 
		25.675,14.193 25.663,14.206 25.663,14.219 25.638,14.257 25.638,14.27 25.6,14.333 25.587,14.347 25.574,14.397 25.562,14.486 
		25.549,14.537 25.535,14.601 25.535,14.639 25.535,14.652 25.523,14.678 25.51,14.753 25.51,14.766 25.51,14.805 25.498,14.843 
		25.498,14.856 25.484,14.868 25.484,14.881 25.46,14.944 25.383,15.034 25.345,15.097 25.319,15.11 25.256,15.187 25.243,15.199 
		25.243,15.212 25.229,15.237 25.205,15.313 25.205,15.339 25.153,15.454 25.142,15.492 25.142,15.556 25.142,15.658 25.142,15.721 
		25.142,15.734 25.142,15.746 25.142,15.759 25.142,15.771 25.142,15.785 25.142,15.797 25.142,15.81 25.153,15.836 25.153,15.848 
		25.153,15.861 25.153,15.874 25.166,15.874 25.166,15.899 25.18,15.924 25.18,15.937 25.18,15.962 25.18,15.976 25.205,16.052 
		25.219,16.115 25.243,16.154 25.243,16.167 25.256,16.179 25.269,16.205 25.306,16.256 25.345,16.307 25.358,16.319 25.408,16.357 
		25.435,16.37 25.46,16.37 25.498,16.383 25.549,16.409 25.587,16.446 25.626,16.485 25.714,16.625 25.727,16.65 25.739,16.65 
		25.739,16.663 25.751,16.689 25.766,16.701 25.777,16.739 25.892,16.841 25.956,16.867 26.108,16.968 26.147,16.943 26.159,16.931 
		26.171,16.931 26.236,16.968 26.248,16.968 26.299,17.006 26.312,17.006 26.312,17.02 26.324,17.045 26.324,17.07 26.324,17.108 
		26.324,17.121 26.337,17.135 26.351,17.146 26.376,17.172 26.376,17.184 26.388,17.184 26.388,17.197 26.4,17.197 26.478,17.248 
		26.49,17.248 26.504,17.262 26.516,17.262 26.541,17.262 26.579,17.248 26.617,17.248 26.644,17.248 26.644,17.262 26.655,17.262 
		26.655,17.274 26.669,17.299 26.669,17.312 26.681,17.324 26.693,17.338 26.706,17.338 26.77,17.363 26.847,17.452 26.885,17.503 
		26.923,17.527 26.936,17.541 26.986,17.541 27,17.541 27.024,17.541 27.126,17.516 27.19,17.49 27.202,17.516 27.215,17.541 
		27.215,17.554 27.229,17.554 27.266,17.541 27.266,17.566 27.266,17.58 27.241,17.617 27.215,17.63 27.165,17.655 27.114,17.668 
		27.101,17.693 27.075,17.719 27.049,17.746 27.049,17.783 27.049,17.796 27.062,17.796 27.062,17.809 27.114,17.897 27.114,17.91 
		27.151,17.987 27.165,17.987 27.165,17.999 27.178,17.999 27.19,18.012 27.215,18.025 27.229,18.037 27.241,18.037 27.305,18.062 
		27.343,18.062 27.395,18.062 27.419,18.051 27.482,17.999 27.508,17.975 27.521,17.949 27.546,17.91 27.571,17.897 27.622,17.848 
		27.647,17.834 27.661,17.848 27.688,17.859 27.788,17.936 27.839,17.961 27.864,17.961 27.864,17.975 27.878,18.012 27.864,18.012 
		27.864,18.025 27.864,18.037 27.878,18.089 27.891,18.102 27.928,18.139 27.953,18.114 27.953,18.127 27.979,18.127 28.03,18.127 
		28.043,18.139 28.067,18.152 28.081,18.152 28.093,18.152 28.144,18.152 28.157,18.165 28.184,18.203 28.195,18.216 28.246,18.267 
		28.323,18.318 28.348,18.331 28.36,18.331 28.399,18.355 28.412,18.369 28.437,18.381 28.449,18.381 28.449,18.395 28.476,18.406 
		28.5,18.457 28.514,18.471 28.526,18.482 28.526,18.496 28.526,18.509 28.526,18.521 28.526,18.534 28.526,18.547 28.514,18.559 
		28.514,18.584 28.5,18.61 28.5,18.637 28.514,18.674 28.514,18.686 28.526,18.699 28.539,18.699 28.589,18.712 28.603,18.712 
		28.653,18.712 28.68,18.686 28.705,18.686 28.73,18.686 28.742,18.686 28.742,18.712 28.742,18.725 28.755,18.738 28.769,18.738 
		28.806,18.75 28.806,18.764 28.831,18.775 28.856,18.827 28.882,18.865 28.896,18.877 28.896,18.89 28.945,18.904 28.972,18.916 
		29.099,18.941 29.137,18.941 29.162,18.953 29.176,18.967 29.201,18.98 29.213,19.006 29.227,19.03 29.227,19.056 29.227,19.082 
		29.213,19.133 29.213,19.195 29.227,19.221 29.227,19.26 29.213,19.26 29.213,19.286 29.227,19.311 29.252,19.335 29.276,19.374 
		29.29,19.387 29.302,19.399 29.341,19.438 29.366,19.463 29.378,19.463 29.404,19.514 29.418,19.526 29.418,19.553 29.43,19.565 
		29.418,19.565 29.418,19.591 29.404,19.603 29.392,19.616 29.378,19.616 29.341,19.629 29.276,19.603 29.265,19.603 29.252,19.603 
		29.238,19.603 29.227,19.616 29.227,19.629 29.227,19.642 29.227,19.666 29.227,19.68 29.227,19.718 29.227,19.742 29.227,19.782 
		29.252,19.883 29.276,19.922 29.302,19.947 29.327,19.985 29.341,20.011 29.354,20.062 29.378,20.112 29.378,20.125 29.43,20.188 
		29.43,20.202 29.468,20.252 29.48,20.265 29.48,20.278 29.493,20.278 29.519,20.304 29.57,20.342 29.57,20.354 29.582,20.368 
		29.595,20.392 29.608,20.392 29.621,20.405 29.621,20.418 29.633,20.431 29.633,20.444 29.672,20.494 29.71,20.596 29.71,20.609 
		29.71,20.621 29.723,20.621 29.723,20.635 29.723,20.647 29.723,20.66 29.734,20.686 29.734,20.711 29.734,20.724 29.734,20.749 
		29.71,20.9 29.71,20.915 29.71,20.927 29.697,20.952 29.684,20.965 29.633,20.991 29.621,20.991 29.595,21.003 29.506,21.018 
		29.468,21.029 29.455,21.029 29.455,21.041 29.441,21.041 29.441,21.055 29.43,21.055 29.418,21.093 29.404,21.118 29.366,21.144 
		29.354,21.157 29.354,21.169 29.341,21.182 29.341,21.221 29.341,21.245 29.327,21.258 29.327,21.271 29.327,21.283 29.327,21.297 
		29.315,21.309 29.327,21.309 29.327,21.322 29.327,21.348 29.341,21.373 29.378,21.424 29.404,21.449 29.43,21.474 29.468,21.513 
		29.506,21.5 29.558,21.5 29.582,21.5 29.595,21.513 29.608,21.513 29.608,21.525 29.608,21.55 29.608,21.563 29.608,21.576 
		29.595,21.613 29.582,21.652 29.582,21.666 29.57,21.679 29.582,21.704 29.608,21.779 29.608,21.806 29.633,21.855 29.633,21.87 
		29.646,21.882 29.672,21.919 29.723,22.021 29.748,22.073 29.798,22.149 29.85,22.213 29.85,22.226 29.863,22.238 29.874,22.252 
		29.888,22.252 29.914,22.276 29.951,22.302 29.965,22.302 29.977,22.315 29.989,22.34 30.027,22.392 30.04,22.441 30.04,22.467 
		30.027,22.519 30.027,22.531 30.003,22.595 30.003,22.62 30.003,22.646 30.015,22.658 30.015,22.671 30.027,22.684 30.027,22.696 
		30.04,22.696 30.04,22.708 30.117,22.761 30.193,22.771 30.27,22.811 30.308,22.824 30.333,22.837 30.359,22.862 30.447,22.951 
		30.512,22.977 30.536,22.964 30.562,22.938 30.575,22.926 30.588,22.9 30.601,22.811 30.588,22.771 30.562,22.734 30.512,22.696 
		30.447,22.671 30.396,22.658 30.384,22.646 30.371,22.62 30.359,22.606 30.346,22.583 30.359,22.519 30.422,22.519 30.473,22.519 
		30.473,22.531 30.485,22.531 30.562,22.531 30.575,22.531 30.588,22.531 30.588,22.519 30.601,22.492 30.601,22.48 30.652,22.568 
		30.689,22.646 30.702,22.684 30.753,22.708 30.792,22.734 30.816,22.761 30.842,22.771 30.867,22.785 30.867,22.798 30.881,22.811 
		30.881,22.824 30.881,22.837 30.893,22.862 30.893,22.874 30.893,22.888 30.906,22.938 30.918,23.002 30.957,23.04 30.995,23.053 
		31.021,23.053 31.058,23.028 31.108,23.002 31.135,22.988 31.16,22.988 31.186,22.977 31.211,22.964 31.224,22.964 31.262,22.964 
		31.274,22.977 31.301,23.002 31.325,23.028 31.339,23.04 31.352,23.053 31.352,23.065 31.352,23.078 31.352,23.104 31.352,23.18 
		31.352,23.205 31.325,23.319 31.288,23.511 31.288,23.537 31.274,23.562 31.262,23.587 31.262,23.601 31.249,23.601 31.249,23.613 
		31.237,23.689 31.211,23.753 31.16,23.753 31.135,23.753 31.122,23.778 31.108,23.778 31.084,23.778 31.058,23.791 31.046,23.804 
		31.032,23.829 31.032,23.854 31.032,23.931 31.032,23.957 31.032,23.969 31.046,23.983 31.071,24.032 31.084,24.059 31.122,24.071 
		31.148,24.084 31.198,24.084 31.249,24.084 31.274,24.084 31.301,24.097 31.313,24.123 31.325,24.16 31.339,24.172 31.339,24.198 
		31.325,24.249 31.313,24.274 31.301,24.288 31.274,24.3 31.249,24.3 31.224,24.274 31.211,24.274 31.186,24.274 31.174,24.274 
		31.148,24.274 31.108,24.263 31.098,24.263 31.084,24.263 31.071,24.274 31.046,24.288 31.021,24.3 30.995,24.338 30.969,24.376 
		30.957,24.415 30.957,24.453 30.957,24.466 30.957,24.492 30.957,24.504 30.969,24.504 30.969,24.517 30.982,24.529 30.982,24.542 
		31.046,24.594 31.084,24.645 31.122,24.67 31.122,24.682 31.122,24.733 31.122,24.745 31.108,24.759 31.122,24.759 31.174,24.796 
		31.148,24.836 31.108,24.885 31.071,24.924 31.046,24.949 31.032,24.976 31.009,25.013 30.995,25.039 30.995,25.076 30.995,25.179 
		30.944,25.306 30.932,25.331 30.918,25.331 30.893,25.369 30.842,25.382 30.74,25.395 30.728,25.395 30.702,25.382 30.676,25.369 
		30.676,25.357 30.652,25.345 30.652,25.331 30.562,25.242 30.536,25.191 30.473,25.102 30.447,25.076 30.41,25.024 30.396,25.024 
		30.371,25.039 30.333,25.039 30.27,25.064 30.231,25.076 30.206,25.102 30.18,25.142 30.18,25.152 30.18,25.179 30.167,25.281 
		30.167,25.331 30.104,25.472 30.104,25.484 30.104,25.51 30.104,25.561 30.079,25.649 30.027,25.814 30.015,25.854 30.003,25.879 
		29.977,25.917 29.939,25.968 29.888,26.031 29.874,26.044 29.837,26.07 29.823,26.07 29.786,26.07 29.761,26.07 29.723,26.057 
		29.697,26.031 29.684,26.006 29.684,25.979 29.672,25.968 29.684,25.954 29.71,25.866 29.71,25.84 29.723,25.814 29.748,25.79 
		29.748,25.777 29.761,25.764 29.773,25.752 29.773,25.737 29.786,25.7 29.786,25.662 29.798,25.649 29.798,25.624 29.786,25.611 
		29.786,25.598 29.773,25.561 29.773,25.522 29.748,25.484 29.723,25.446 29.723,25.433 29.71,25.433 29.697,25.421 29.621,25.395 
		29.558,25.395 29.531,25.382 29.519,25.382 29.506,25.382 29.493,25.369 29.418,25.382 29.404,25.382 29.378,25.407 29.366,25.407 
		29.354,25.421 29.327,25.458 29.315,25.484 29.302,25.522 29.302,25.549 29.302,25.573 29.302,25.598 29.327,25.637 29.341,25.662 
		29.354,25.7 29.366,25.727 29.392,25.752 29.392,25.764 29.441,25.814 29.468,25.854 29.468,25.866 29.48,25.892 29.544,25.942 
		29.558,25.968 29.558,25.979 29.558,26.031 29.558,26.057 29.544,26.095 29.544,26.107 29.531,26.12 29.468,26.184 29.455,26.197 
		29.455,26.223 29.455,26.247 29.455,26.26 29.455,26.285 29.468,26.3 29.558,26.413 29.608,26.503 29.633,26.541 29.633,26.553 
		29.633,26.566 29.633,26.604 29.621,26.643 29.608,26.681 29.595,26.707 29.582,26.732 29.57,26.744 29.544,26.77 29.519,26.782 
		29.48,26.782 29.418,26.782 29.315,26.757 29.227,26.757 29.201,26.77 29.176,26.782 29.149,26.808 29.137,26.847 29.137,26.884 
		29.137,26.896 29.176,26.961 29.29,27.024 29.315,27.037 29.341,27.075 29.455,27.126 29.48,27.112 29.493,27.101 29.506,27.101 
		29.506,27.112 29.531,27.126 29.531,27.138 29.544,27.138 29.544,27.164 29.558,27.215 29.558,27.266 29.544,27.266 29.531,27.292 
		29.506,27.292 29.493,27.292 29.468,27.279 29.441,27.279 29.43,27.279 29.418,27.292 29.378,27.329 29.366,27.329 29.315,27.355 
		29.252,27.368 29.227,27.368 29.213,27.355 29.201,27.355 29.137,27.342 29.086,27.317 29.062,27.304 29.048,27.304 29.01,27.304 
		28.896,27.317 28.856,27.317 28.831,27.304 28.819,27.304 28.806,27.304 28.793,27.317 28.793,27.329 28.78,27.355 28.769,27.355 
		28.769,27.368 28.769,27.381 28.769,27.394 28.769,27.405 28.793,27.432 28.806,27.432 28.819,27.444 28.831,27.458 28.87,27.482 
		28.896,27.508 28.922,27.534 28.972,27.56 28.997,27.571 29.01,27.585 29.062,27.622 29.099,27.647 29.137,27.674 29.162,27.686 
		29.188,27.699 29.238,27.75 29.276,27.788 29.302,27.826 29.302,27.839 29.315,27.865 29.327,27.902 29.327,27.941 29.327,27.953 
		29.315,27.979 29.315,28.005 29.29,28.03 29.276,28.042 29.227,28.081 29.201,28.093 29.201,28.107 29.176,28.118 29.162,28.118 
		29.099,28.145 29.022,28.17 28.984,28.194 28.959,28.221 28.933,28.259 28.933,28.271 28.922,28.335 28.922,28.45 28.908,28.488 
		28.908,28.552 28.908,28.577 28.896,28.603 28.882,28.641 28.845,28.703 28.831,28.729 28.831,28.743 28.831,28.756 28.705,28.756 
		28.68,28.756 28.526,28.769 28.374,28.78 28.195,28.78 28.157,28.794 28.119,28.794 28.067,28.794 28.043,28.794 27.94,28.806 
		27.915,28.806 27.711,28.82 27.647,28.82 27.636,28.82 27.622,28.82 27.585,28.82 27.482,28.832 27.202,28.845 27.126,28.845 
		26.974,28.857 26.949,28.857 26.923,28.857 26.909,28.857 26.897,28.857 26.872,28.857 26.858,28.857 26.719,28.869 26.593,28.883 
		26.554,28.883 26.299,28.896 26.108,28.908 26.096,28.908 25.88,28.908 25.867,28.921 25.739,28.921 25.701,28.921 25.727,28.869 
		25.739,28.845 25.751,28.82 25.791,28.794 25.814,28.743 25.814,28.729 25.814,28.718 25.828,28.692 25.814,28.666 25.814,28.654 
		25.828,28.654 25.841,28.641 25.867,28.615 25.88,28.615 25.88,28.59 25.88,28.552 25.88,28.539 25.892,28.5 25.943,28.476 
		25.956,28.45 25.956,28.438 25.943,28.424 25.943,28.387 25.943,28.373 25.956,28.373 25.98,28.348 26.007,28.335 26.031,28.323 
		26.045,28.284 26.045,28.271 26.057,28.233 26.057,28.221 26.071,28.221 26.134,28.208 26.159,28.194 26.185,28.183 26.211,28.145 
		26.223,28.145 26.236,28.145 26.248,28.145 26.261,28.132 26.273,28.107 26.287,28.093 26.299,28.081 26.324,28.068 26.324,28.055 
		26.337,28.03 26.337,28.017 26.337,27.991 26.324,27.953 26.337,27.915 26.337,27.902 26.351,27.877 26.388,27.802 26.4,27.802 
		26.414,27.813 26.427,27.813 26.453,27.802 26.453,27.788 26.478,27.763 26.464,27.75 26.464,27.737 26.478,27.737 26.49,27.737 
		26.504,27.711 26.516,27.699 26.528,27.686 26.541,27.686 26.554,27.686 26.566,27.661 26.593,27.647 26.617,27.636 26.655,27.61 
		26.655,27.622 26.669,27.622 26.681,27.622 26.693,27.61 26.693,27.598 26.732,27.545 26.757,27.545 26.77,27.545 26.783,27.545 
		26.809,27.534 26.821,27.508 26.821,27.495 26.809,27.495 26.796,27.469 26.783,27.458 26.796,27.458 26.809,27.444 26.821,27.444 
		26.847,27.394 26.847,27.355 26.858,27.317 26.872,27.317 26.897,27.317 26.923,27.292 26.961,27.279 26.986,27.279 27,27.279 
		27.024,27.215 27.024,27.177 27.049,27.152 27.049,27.138 27.075,27.089 27.075,27.075 27.062,27.062 27.049,27.037 27.012,26.998 
		27.012,27.012 27,27.012 27,26.998 27,26.986 26.986,26.986 27,26.973 27,26.949 27.012,26.936 27.024,26.923 27.012,26.923 
		27.012,26.909 27.012,26.896 27.012,26.872 27.024,26.872 27.024,26.858 27,26.832 27.012,26.82 27.037,26.795 27.049,26.77 
		27.062,26.732 27.062,26.692 27.062,26.643 27.037,26.604 27.012,26.579 27,26.566 27,26.553 26.986,26.541 26.974,26.541 
		26.909,26.516 26.872,26.516 26.858,26.516 26.847,26.527 26.821,26.516 26.809,26.503 26.783,26.489 26.757,26.489 26.745,26.464 
		26.719,26.477 26.706,26.477 26.706,26.464 26.719,26.464 26.719,26.451 26.719,26.426 26.719,26.413 26.719,26.426 26.706,26.426 
		26.693,26.426 26.681,26.413 26.681,26.401 26.681,26.387 26.681,26.376 26.693,26.376 26.706,26.376 26.719,26.337 26.719,26.311 
		26.706,26.311 26.706,26.285 26.706,26.26 26.706,26.235 26.681,26.223 26.681,26.21 26.681,26.197 26.669,26.184 26.669,26.197 
		26.617,26.197 26.617,26.171 26.63,26.146 26.644,26.159 26.655,26.159 26.669,26.146 26.669,26.134 26.669,26.12 26.655,26.12 
		26.644,26.12 26.593,26.095 26.604,26.07 26.593,26.07 26.593,26.057 26.604,26.057 26.604,26.031 26.593,26.031 26.593,26.019 
		26.604,26.019 26.617,26.006 26.604,26.006 26.617,25.994 26.516,25.994 26.427,26.006 26.312,26.006 26.299,26.006 26.261,26.006 
		26.185,26.019 26.096,26.019 25.854,26.031 25.814,26.031 25.751,26.031 25.574,26.031 25.345,26.044 25.319,26.044 25.295,26.044 
		25.153,26.057 25.026,26.057 25.002,26.057 24.937,26.057 24.657,26.07 24.619,26.07 24.606,26.082 24.568,26.082 24.517,26.082 
		24.479,26.082 24.365,26.082 24.313,26.082 24.301,26.095 24.11,26.095 24.034,26.095 23.779,26.107 23.716,26.107 23.703,26.107 
		23.69,26.107 23.602,26.12 23.385,26.12 23.335,26.134 23.322,26.134 23.282,26.134 23.271,26.134 23.258,26.134 23.245,26.134 
		23.041,26.134 22.966,26.146 22.876,26.146 22.863,26.146 22.774,26.146 22.647,26.159 22.609,26.159 22.24,26.171 22.188,26.171 
		22.101,26.171 21.896,26.184 21.68,26.197 21.642,26.197 21.604,26.197 21.286,26.21 21.17,26.21 20.813,26.223 20.802,26.223 
		20.688,26.223 20.662,26.223 20.625,26.223 20.599,26.223 20.471,26.223 20.395,26.223 20.369,26.223 20.357,26.223 20.344,26.223 
		20.242,26.235 20.229,26.235 20.204,26.235 20.191,26.235 20.165,26.235 20.141,26.235 20.127,26.235 20.115,26.235 20.077,26.235 
		19.987,26.235 19.924,26.235 19.898,26.235 19.821,26.235 19.759,26.247 19.708,26.247 19.567,26.247 19.504,26.247 19.326,26.26 
		19.135,26.26 19.07,26.26 19.058,26.26 18.982,26.273 18.969,26.273 18.957,26.273 18.817,26.273 18.767,26.273 18.689,26.273 
		18.678,26.273 18.512,26.285 18.371,26.285 18.346,26.285 18.27,26.285 18.116,26.3 18.104,26.3 17.965,26.3 17.926,26.3 
		17.862,26.3 17.799,26.3 17.786,26.3 17.709,26.3 17.595,26.3 17.492,26.311 17.417,26.311 17.353,26.311 17.138,26.324 
		17.073,26.324 17.062,26.324 17.047,26.324 16.858,26.324 16.844,26.324 16.616,26.337 16.577,26.337 16.438,26.337 16.335,26.337 
		16.322,26.35 16.272,26.337 16.106,26.35 16.081,26.35 16.042,26.35 15.992,26.337 15.953,26.35 15.827,26.35 15.813,26.35 
		15.801,26.35 15.662,26.35 15.597,26.35 15.546,26.35 15.458,26.35 15.445,26.362 15.216,26.362 15.19,26.362 15.139,26.362 
		15.101,26.362 14.529,26.376 14.477,26.376 14.414,26.376 14.171,26.376 14.096,26.387 13.918,26.387 13.905,26.387 13.803,26.387 
		13.752,26.387 13.726,26.387 13.548,26.387 13.484,26.387 13.357,26.387 13.345,26.401 13.103,26.401 13.014,26.401 12.835,26.401 
		12.81,26.401 12.722,26.401 12.708,26.401 12.454,26.413 12.403,26.413 12.263,26.413 12.046,26.413 11.958,26.413 11.831,26.413 
		11.64,26.413 11.627,26.413 11.589,26.413 11.576,26.413 11.538,26.413 11.513,26.413 11.487,26.413 11.449,26.413 11.397,26.413 
		11.385,26.413 11.283,26.413 11.207,26.413 11.156,26.413 11.144,26.413 11.105,26.413 11.067,26.413 11.042,26.413 10.724,26.426 
		10.71,26.426 10.265,26.426 10.215,26.426 10.177,26.426 10.138,26.426 10.087,26.426 10.049,26.426 10.023,26.426 10.011,26.426 
		9.96,26.426 9.935,26.426 9.553,26.439 9.54,26.439 9.528,26.439 9.4,26.439 9.222,26.439 9.145,26.439 9.12,26.439 9.107,26.439 
		8.98,26.439 8.967,26.439 8.955,26.439 8.917,26.439 8.904,26.439 8.802,26.439 8.764,26.439 8.433,26.439 8.344,26.439 
		8.332,26.439 8.318,26.439 8.279,26.439 8.267,26.439 8.254,26.439 8.179,26.439 7.975,26.439 7.95,26.439 7.936,26.439 
		7.924,26.439 7.886,26.439 7.873,26.439 7.784,26.439 7.542,26.439 7.53,26.439 7.517,26.439 7.504,26.439 7.466,26.439 
		7.339,26.439 7.263,26.439 7.211,26.439 7.186,26.439 7.109,26.439 7.007,26.439 6.995,26.439 6.982,26.439 6.893,26.439 
		6.867,26.439 6.855,26.439 6.715,26.439 6.689,26.439 6.677,26.439 6.588,26.439 6.562,26.439 6.384,26.439 6.358,26.439 
		6.218,26.439 6.193,26.439 6.041,26.439 5.927,26.439 5.927,26.35 5.927,26.337 5.927,26.247 5.927,26.235 5.927,26.223 
		5.927,26.159 5.927,26.134 5.927,26.044 5.927,25.994 5.927,25.879 5.927,25.866 5.927,25.828 5.927,25.79 5.927,25.727 
		5.927,25.714 5.927,25.561 5.927,25.534 5.927,25.472 5.927,25.458 5.927,25.281 5.927,25.242 5.927,24.962 5.927,24.911 
		5.927,24.873 5.927,24.771 5.927,24.594 5.927,24.568 5.927,24.542 5.927,24.517 5.927,24.466 5.927,24.439 5.927,24.428 
		5.927,24.313 5.927,24.249 5.927,24.16 5.927,24.071 5.927,24.021 5.927,23.995 5.927,23.969 5.927,23.918 5.927,23.866 
		5.927,23.854 5.927,23.601 5.927,23.587 5.927,23.575 5.927,23.537 5.927,23.511 5.927,23.485 5.927,23.371 5.927,23.334 
		5.927,23.244 5.927,23.218 5.927,23.205 5.927,23.168 5.927,23.129 5.927,23.116 5.927,23.078 5.927,23.065 5.927,23.053 
		5.927,23.028 5.927,23.014 5.927,22.977 5.927,22.964 5.927,22.913 5.927,22.888 5.927,22.824 5.927,22.811 5.927,22.696 
		5.927,22.646 5.927,22.568 5.927,22.531 5.927,22.48 5.927,22.455 5.927,22.379 5.927,22.252 5.927,22.2 5.927,22.187 5.927,22.06 
		5.939,21.704 5.939,21.627 5.939,21.474 5.939,21.462 5.939,21.373 5.939,21.297 5.939,21.206 5.939,21.118 5.939,21.041 
		5.939,20.952 5.939,20.927 5.939,20.9 5.939,20.876 5.939,20.825 5.939,20.787 5.939,20.66 5.939,20.57 5.939,20.532 5.939,20.494 
		5.939,20.392 5.939,20.368 5.939,20.354 5.939,20.329 5.939,20.315 5.939,20.291 5.939,20.278 5.939,20.062 5.939,19.908 
		5.939,19.871 5.939,19.819 5.939,19.705 5.939,19.654 5.939,19.629 5.939,19.616 5.939,19.603 5.939,19.426 5.939,19.374 
		5.939,19.195 5.939,19.17 5.939,19.133 5.939,19.107 5.939,18.865 5.939,18.764 5.939,18.725 5.939,18.712 5.939,18.674 
		5.939,18.637 5.939,18.61 5.952,18.559 5.939,18.521 5.952,18.471 5.952,18.395 5.952,18.369 5.952,18.305 5.952,18.203 
		5.952,18.19 5.952,18.165 5.952,18.152 5.952,18.139 5.952,18.114 5.952,18.102 5.952,17.987 5.952,17.949 5.952,17.897 
		5.952,17.872 5.952,17.617 5.952,17.479 5.952,17.452 5.952,17.439 5.952,17.146 5.952,17.108 5.952,17.045 5.952,16.968 
		5.952,16.905 5.965,16.867 5.965,16.854 5.965,16.727 5.965,16.675 5.965,16.65 5.965,16.574 5.965,16.562 5.965,16.523 
		5.965,16.459 5.965,16.268 5.965,16.256 5.965,16.167 5.965,16.154 5.965,16.09 5.965,16.026 5.965,16.014 5.965,15.988 
		5.965,15.962 5.965,15.899 5.965,15.848 5.965,15.734 5.965,15.708 5.965,15.593 5.965,15.568 5.965,15.53 5.965,15.505 
		5.965,15.492 5.965,15.428 5.965,15.097 5.965,15.084 5.965,15.046 5.965,15.008 5.965,14.843 5.965,14.678 5.965,14.665 
		5.965,14.575 5.965,14.512 5.965,14.5 5.965,14.347 5.965,14.333 5.965,14.257 5.965,14.231 5.965,14.18 5.977,13.964 
		5.977,13.939 5.977,13.926 5.977,13.812 5.977,13.621 5.977,13.596 5.977,13.583 5.977,13.57 5.977,13.557 5.977,13.455 
		5.99,13.341 5.99,13.29 5.99,13.175 5.99,13.086 5.99,13.073 5.99,13.048 5.99,12.958 5.99,12.946 5.99,12.92 5.99,12.882 
		5.99,12.844 5.99,12.832 5.99,12.755 5.99,12.704 5.99,12.692 5.99,12.627 5.99,12.603 5.99,12.59 5.99,12.539 5.99,12.488 
		5.99,12.449 5.99,12.424 5.99,12.412 5.99,12.373 5.99,12.335 5.99,12.284 5.99,12.271 5.99,12.259 5.99,12.246 5.99,12.233 
		5.99,12.183 5.99,12.169 5.99,12.157 5.99,12.131 5.99,12.118 5.99,12.081 5.99,12.042 5.99,12.017 5.99,12.004 5.99,11.979 
		5.99,11.966 5.99,11.928 5.99,11.915 5.99,11.89 5.99,11.877 5.99,11.852 5.99,11.838 5.99,11.826 5.99,11.813 5.99,11.8 
		5.99,11.775 5.99,11.762 5.99,11.75 5.99,11.737 5.99,11.724 5.99,11.711 5.99,11.673 5.99,11.609 5.99,11.571 5.99,11.431 
		5.99,11.394 6.002,11.381 6.027,11.342 6.053,11.304 6.066,11.279 6.066,11.189 6.041,11.177 6.015,11.164 5.99,11.164 
		5.952,11.164 5.913,11.189 5.85,11.203 5.799,11.203 5.748,11.177 5.761,11.113 5.735,11.049 5.723,11.037 5.671,11.024 
		5.633,11.024 5.595,11.062 5.544,11.087 5.519,11.101 5.468,11.113 5.417,11.113 5.392,11.101 5.34,11.087 5.302,11.049 
		5.264,10.986 5.239,10.935 5.226,10.909 5.214,10.896 5.201,10.896 5.188,10.884 5.188,10.896 5.162,10.896 5.137,10.896 
		5.124,10.896 5.086,10.896 5.036,10.884 5.022,10.872 4.997,10.846 4.984,10.833 4.972,10.82 4.972,10.808 4.972,10.795 
		4.984,10.782 5.01,10.744 5.01,10.731 5.01,10.718 5.022,10.718 5.022,10.693 5.01,10.668 5.01,10.655 5.01,10.642 4.997,10.604 
		4.984,10.604 4.972,10.591 4.972,10.578 4.959,10.578 4.946,10.565 4.934,10.553 4.92,10.54 4.908,10.527 4.882,10.515 
		4.832,10.489 4.818,10.477 4.806,10.477 4.78,10.464 4.769,10.451 4.743,10.438 4.73,10.426 4.705,10.387 4.691,10.362 
		4.691,10.35 4.679,10.35 4.679,10.337 4.679,10.324 4.667,10.311 4.667,10.299 4.667,10.286 4.667,10.273 4.653,10.26 
		4.653,10.235 4.653,10.222 4.653,10.184 4.641,10.107 4.641,10.082 4.641,10.069 4.641,10.056 4.653,10.044 4.653,10.031 
		4.679,10.005 4.691,9.993 4.705,9.993 4.73,9.993 4.755,9.968 4.769,9.955 4.78,9.929 4.78,9.904 4.78,9.891 4.78,9.878 
		4.769,9.878 4.755,9.84 4.743,9.828 4.73,9.828 4.717,9.828 4.717,9.815 4.705,9.828 4.679,9.828 4.653,9.853 4.615,9.866 
		4.603,9.866 4.591,9.878 4.552,9.866 4.539,9.866 4.527,9.866 4.527,9.853 4.514,9.853 4.5,9.84 4.488,9.815 4.488,9.802 
		4.488,9.79 4.488,9.751 4.475,9.738 4.462,9.713 4.45,9.7 4.399,9.688 4.399,9.674 4.387,9.674 4.361,9.662 4.348,9.637 
		4.348,9.624 4.335,9.573 4.323,9.547 4.285,9.521 4.271,9.509 4.246,9.496 4.183,9.483 4.119,9.445 4.093,9.433 4.082,9.42 
		4.082,9.407 4.068,9.395 4.056,9.395 4.043,9.369 4.043,9.344 4.029,9.318 4.029,9.242 4.018,9.217 4.018,9.204 3.991,9.178 
		3.979,9.166 3.903,9.127 3.877,9.115 3.839,9.064 3.826,9.051 3.813,9.039 3.788,9.013 3.775,8.987 3.763,8.962 3.763,8.949 
		3.75,8.898 3.75,8.886 3.75,8.873 3.75,8.86 3.763,8.809 3.763,8.796 3.775,8.784 3.775,8.771 3.788,8.771 3.788,8.758 
		3.801,8.758 3.801,8.746 3.813,8.746 3.826,8.746 3.852,8.746 3.915,8.758 3.915,8.771 3.927,8.771 3.941,8.771 3.953,8.771 
		3.953,8.758 3.966,8.758 3.991,8.746 4.004,8.746 4.004,8.733 4.029,8.694 4.043,8.656 4.043,8.631 4.043,8.618 4.043,8.593 
		4.018,8.555 4.018,8.529 4.004,8.516 4.004,8.503 4.004,8.491 4.018,8.453 4.029,8.415 4.056,8.376 4.082,8.351 4.082,8.325 
		4.131,8.262 4.145,8.237 4.157,8.224 4.17,8.211 4.183,8.211 4.195,8.198 4.208,8.198 4.221,8.198 4.233,8.198 4.246,8.198 
		4.259,8.198 4.285,8.198 4.297,8.186 4.31,8.186 4.323,8.186 4.335,8.186 4.361,8.16 4.387,8.135 4.387,8.122 4.387,8.096 
		4.399,8.033 4.399,8.02 4.387,7.931 4.387,7.918 4.387,7.906 4.387,7.893 4.387,7.88 4.387,7.867 4.399,7.854 4.412,7.842 
		4.412,7.829 4.437,7.816 4.45,7.791 4.462,7.791 4.475,7.791 4.488,7.804 4.5,7.804 4.527,7.816 4.527,7.829 4.565,7.854 
		4.577,7.867 4.615,7.893 4.653,7.906 4.653,7.918 4.667,7.918 4.691,7.918 4.705,7.918 4.73,7.918 4.769,7.906 4.78,7.906 
		4.806,7.88 4.832,7.867 4.87,7.816 4.87,7.778 4.882,7.752 4.87,7.702 4.857,7.676 4.857,7.664 4.844,7.651 4.832,7.638 
		4.806,7.651 4.78,7.651 4.769,7.664 4.73,7.689 4.717,7.702 4.705,7.702 4.705,7.714 4.691,7.714 4.679,7.714 4.667,7.714 
		4.641,7.714 4.628,7.714 4.615,7.702 4.603,7.689 4.591,7.689 4.591,7.676 4.577,7.664 4.565,7.664 4.552,7.638 4.539,7.625 
		4.539,7.612 4.539,7.587 4.552,7.562 4.565,7.562 4.565,7.549 4.577,7.549 4.591,7.549 4.641,7.536 4.653,7.536 4.717,7.536 
		4.73,7.536 4.743,7.536 4.769,7.523 4.78,7.498 4.806,7.447 4.806,7.409 4.806,7.371 4.806,7.345 4.793,7.345 4.793,7.333 
		4.78,7.32 4.769,7.307 4.755,7.294 4.743,7.294 4.73,7.294 4.691,7.294 4.679,7.294 4.667,7.294 4.653,7.294 4.653,7.281 
		4.628,7.281 4.591,7.243 4.539,7.205 4.527,7.193 4.514,7.155 4.514,7.129 4.527,7.116 4.527,7.104 4.565,7.065 4.577,7.052 
		4.577,7.027 4.577,7.002 4.577,6.989 4.577,6.977 4.552,6.951 4.514,6.925 4.475,6.912 4.45,6.9 4.437,6.9 4.425,6.9 4.361,6.925 
		4.348,6.925 4.323,6.925 4.31,6.925 4.285,6.925 4.246,6.912 4.221,6.912 4.208,6.912 4.183,6.925 4.17,6.938 4.157,6.951 
		4.157,6.963 4.145,6.963 4.145,6.977 4.145,6.989 4.145,7.027 4.145,7.04 4.145,7.052 4.131,7.078 4.119,7.09 4.106,7.104 
		4.093,7.104 4.068,7.116 4.029,7.116 3.903,7.129 3.89,7.129 3.865,7.116 3.852,7.116 3.788,7.078 3.7,7.052 3.661,7.04 
		3.648,7.027 3.636,7.015 3.636,6.989 3.623,6.963 3.636,6.938 3.636,6.912 3.623,6.9 3.61,6.887 3.61,6.875 3.598,6.875 
		3.584,6.875 3.584,6.862 3.572,6.862 3.559,6.862 3.546,6.862 3.496,6.887 3.496,6.9 3.47,6.9 3.457,6.9 3.419,6.9 3.406,6.9 
		3.395,6.9 3.395,6.887 3.38,6.887 3.369,6.875 3.355,6.862 3.355,6.849 3.355,6.836 3.355,6.824 3.355,6.811 3.369,6.772 
		3.38,6.747 3.369,6.708 3.355,6.684 3.317,6.658 3.304,6.646 3.292,6.646 3.24,6.646 3.216,6.646 3.19,6.646 3.152,6.62 
		3.126,6.582 3.101,6.556 3.076,6.505 3.051,6.493 2.987,6.454 2.923,6.416 2.91,6.391 2.91,6.377 2.897,6.365 2.897,6.327 
		2.897,6.314 2.885,6.276 2.872,6.25 2.859,6.25 2.809,6.238 2.783,6.212 2.732,6.162 2.719,6.149 2.693,6.149 2.655,6.136 
		2.579,6.162 2.553,6.174 2.541,6.162 2.516,6.162 2.503,6.149 2.49,6.149 2.465,6.136 2.452,6.111 2.439,6.098 2.427,6.085 
		2.427,6.072 2.427,6.06 2.414,6.047 2.414,6.034 2.414,6.008 2.401,5.983 2.414,5.971 2.414,5.958 2.427,5.958 2.427,5.945 
		2.439,5.945 2.452,5.945 2.478,5.933 2.49,5.933 2.516,5.907 2.529,5.895 2.529,5.869 2.529,5.831 2.503,5.818 2.503,5.805 
		2.516,5.792 2.529,5.767 2.516,5.754 2.503,5.729 2.516,5.716 2.529,5.703 2.541,5.678 2.541,5.665 2.541,5.652 2.529,5.64 
		2.529,5.627 2.529,5.614 2.516,5.602 2.503,5.589 2.49,5.576 2.478,5.576 2.465,5.576 2.427,5.576 2.414,5.563 2.401,5.563 
		2.375,5.538 2.375,5.525 2.364,5.512 2.364,5.5 2.364,5.487 2.364,5.436 2.35,5.423 2.35,5.411 2.338,5.397 2.325,5.385 
		2.262,5.359 2.236,5.347 2.198,5.309 2.172,5.271 2.16,5.258 2.146,5.232 2.146,5.219 2.146,5.194 2.146,5.181 2.146,5.168 
		2.172,5.118 2.185,5.092 2.185,5.08 2.198,5.08 2.198,5.067 2.198,5.054 2.198,5.041 2.21,5.003 2.198,4.991 2.198,4.965 
		2.172,4.927 2.146,4.901 2.134,4.889 2.121,4.889 2.07,4.889 2.006,4.889 1.981,4.889 1.866,4.825 1.842,4.812 1.829,4.799 
		1.829,4.774 1.829,4.762 1.854,4.698 1.854,4.685 1.854,4.672 1.854,4.66 1.842,4.646 1.816,4.621 1.803,4.609 1.791,4.609 
		1.791,4.596 1.777,4.596 1.765,4.596 1.714,4.596 1.688,4.583 1.675,4.57 1.651,4.532 1.638,4.532 1.613,4.52 1.599,4.507 
		1.587,4.507 1.574,4.507 1.561,4.507 1.536,4.52 1.473,4.545 1.447,4.558 1.434,4.558 1.409,4.545 1.396,4.545 1.383,4.52 
		1.383,4.507 1.383,4.494 1.383,4.468 1.396,4.456 1.421,4.443 1.485,4.417 1.511,4.405 1.523,4.392 1.536,4.367 1.536,4.354 
		1.536,4.329 1.536,4.315 1.536,4.303 1.523,4.277 1.511,4.265 1.498,4.252 1.473,4.239 1.473,4.214 1.459,4.201 1.459,4.188 
		1.459,4.15 1.459,4.137 1.447,4.087 1.421,4.036 1.421,4.01 1.383,3.959 1.371,3.921 1.383,3.909 1.383,3.896 1.383,3.883 
		1.383,3.871 1.421,3.858 1.434,3.845 1.459,3.833 1.473,3.819 1.473,3.807 1.459,3.807 1.434,3.794 1.434,3.781 1.421,3.781 
		1.421,3.756 1.434,3.743 1.447,3.705 1.459,3.68 1.447,3.68 1.447,3.667 1.434,3.667 1.421,3.667 1.396,3.667 1.332,3.68 
		1.307,3.667 1.281,3.641 1.269,3.641 1.269,3.628 1.243,3.616 1.23,3.603 1.23,3.578 1.23,3.552 1.23,3.54 1.255,3.527 
		1.269,3.514 1.281,3.514 1.294,3.488 1.294,3.476 1.294,3.45 1.294,3.438 1.269,3.425 1.255,3.412 1.217,3.4 1.23,3.4 1.243,3.387 
		1.357,3.349 1.383,3.335 1.409,3.297 1.409,3.285 1.421,3.221 1.421,3.196 1.409,3.17 1.383,3.145 1.371,3.106 1.345,3.081 
		1.307,3.081 1.269,3.081 1.243,3.106 1.243,3.145 1.23,3.17 1.23,3.221 1.23,3.247 1.23,3.272 1.179,3.31 1.167,3.297 1.153,3.272 
		1.116,3.272 1.104,3.272 1.078,3.285 1.052,3.297 1.001,3.297 0.964,3.285 0.938,3.272 0.926,3.247 0.912,3.233 0.912,3.221 
		0.912,3.196 0.938,3.17 0.938,3.157 0.938,3.145 0.938,3.119 0.938,3.106 0.9,3.055 0.887,3.005 0.9,2.979 0.926,2.954 	"/>
</g>
</svg>
